<?xml version="1.0" encoding="UTF-8"?><svg id="Lager_1" xmlns="http://www.w3.org/2000/svg" viewBox="0 0 78.92 92.98"><defs><style>.cls-1{fill:#a72628;}.cls-2{fill:#fff;}</style></defs><path class="cls-1" d="M.4,0h78.52v12.49c-.09,11.31.82,22.8-2.64,33.84-5.93,19.06-16.42,34.66-33.56,45.51-2.19,1.37-3.74,1.64-6.02.09C15.26,78.07,3.41,58,.58,32.83-.61,22.07.4,11.13.4,0H.4ZM77.19,1.92H2.22c0,11.49-1.28,22.89.27,33.84,3.28,22.98,14.59,41.5,34.29,54.45,2.1,1.37,3.47,1.37,5.56,0,14.32-9.21,23.71-22.16,30.19-37.67,6.84-16.42,3.65-33.47,4.65-50.62Z"/><path class="cls-2" d="M77.19,1.92c-1,17.15,2.28,34.2-4.65,50.62-6.48,15.5-15.87,28.55-30.19,37.67-2.1,1.37-3.47,1.37-5.56,0C17.09,77.25,5.78,58.73,2.49,35.75c-1.55-10.94-.27-22.34-.27-33.84h74.97ZM40.25,6.75c-9.39,11.76-18.51,23.16-27.72,34.56,9.12,12.22,17.97,24.26,27.09,36.57,9.76-12.31,19.06-23.99,28.36-35.57-9.39-12.04-18.42-23.62-27.72-35.57h0Z"/><path class="cls-1" d="M45.08,13.68c0,.27,0,.36-.09.55-.18,1.09-.73,1.92-1.64,2.46-1.09.73-2.37,1-3.74.91-1,0-1.73-.55-2.28-1.37-.73-.91-1-1-2.1-.55-.55.27-1.09.55-1.64.73-.55.18-1.19.18-1.64-.18-.18-.09-.27-.27-.27-.46,0-.09.18-.27.36-.36.27-.09.55-.18.82-.27.27,0,.55-.18.82-.27v-.18h-1c-.55,0-1.19.55-1.64-.18-.46-.73.09-2.28.91-2.64s1.64-.55,2.46-.73c1.28-.18,2.46-.73,3.65-1.28,1.19-.64,2.46-.91,3.74-1.28.64-.18.55.46.91.73v-.73c.09-.64.18-1.28.36-1.92.18-.55.36-1.19,0-1.82.27,0,.55,0,.73.18,1.28.46,2.28,2.28,2.01,3.65-.18.73-.64,1.19-1.37,1.46,0,0,0,.09.09.18.64-.27,1.19-.55,1.92-.91,1.92,1,2.92,2.74,3.37,4.92.46,2.74,0,5.38-.91,7.84-.82,2.19-1.92,4.29-2.83,6.48-.55,1.19-1.09,2.28-1.55,3.47-.73,1.92-.46,3.74.46,5.47,1,1.73,2.19,3.37,3.56,4.74,1.82,1.82,3.28,3.92,4.29,6.29,1.09,2.46,1,4.92-.09,7.3-.46,1.09-1.19,2.1-1.73,3.1-.18.36-.46.73-.64,1-1,1.55-.91,1.92.82,2.64.91.36,1.92.64,3.01,1-.27.18-.36.46-.64.55-.27.09-.55.09-.91.27.36,0,.73.09,1,.18.09.73-.36.55-.91.55.27.18.46.27.73.46l-.46.46v1.09c0,1.19,0,2.37-.09,3.56v2.01c0,1.19-.36,2.1-1.64,2.37-.64-.55-1.37-1.09-2.28-.73.55.27,1.09.55,1.64,1,.18.09.27.46.18.64-.18.46-.46,1-.82,1.37-1.19,1.09-2.74,1.37-4.47,1.37.36-1.82.64-3.65,2.37-4.65.73-.36,1.09-1,1.19-1.73.36-1.82.36-3.74-.27-5.56-.46-1.37-1.28-2.28-2.55-2.83-1.09-.46-2.28-.91-3.37-1.28-.73-.27-1.55-.46-2.28-.82-1.28-.55-2.1-1.46-2.37-2.83v-1.09c.73-2.28,1.19-4.56,1.09-6.93-.09-2.46-1-4.56-3.01-6.11,1.55-.18,3.01-.27,4.47-.46v-.18h-3.01c-2.37-.18-4.74-.64-6.93-1.64-1.37-.64-2.55-1.46-3.47-2.83.27.18.36.27.46.27s.27.18.36.27c1.28.73,2.64,1.37,4.1,1.09s2.28-1.09,2.83-2.46c-.36.27-.64.64-1,.91-1.64,1.37-3.28,1.28-4.92,0-.73-.55-1.46-1.19-2.28-1.64-2.01-1.09-3.37-.64-4.56,1.28-.27.55-.73,1-1,1.55,0,0-.09,0-.18-.09l.36-1h-.09c-.36.55-.73,1.19-1.09,1.73h-.18c.09-.36.18-.73.27-1.09h0c-.18.27-.36.46-.46.73-.18.27-.27.55-.46.73h-.18v-.36c-.46.27-1,.64-1.46,1.09-.46.46-.82,1.09-1.28,1.64-.55-.18-1.28-.46-1.92-.18.55.18,1.09.46,1.64.73.36.18.46.55.36,1-.09.73-.36,1.37-.91,1.82-1.09.91-2.28,1.55-3.74,1.55.18-.91.46-1.82.64-2.74.18-1.28.36-2.64.55-3.92.09-.73.36-1.37,1.09-1.73,1.55-.82,2.64-2.1,3.65-3.56.46-.64.91-1.28,1.37-2.01,1-1.64,2.55-2.64,4.38-2.92,2.83-.36,5.65-.64,8.48-1h1.37c-2.64-.73-5.29-.27-8.03-.18.18-1.19.64-2.19,1.28-3.1,1-1.46,2.28-2.46,3.74-3.28,3.1-1.64,5.93-3.65,8.3-6.29.09-.18.46-.18.64-.27,1.09-.27,2.28-.36,3.37-.82,1.73-.73,2.55-2.37,2.28-4.1l-.09.18ZM43.9,47.79c-1.64,2.1-2.37,4.47-2.01,7.2.18,1,.46,2.01,1.19,2.74.09.18.27.27.46.36-2.1-3.56-.73-6.93.27-10.31h.09ZM32.04,29.37c1.73-2.46,4.29-2.64,6.93-2.46-2.19-1.64-6.48-.18-6.93,2.46ZM43.44,5.29c.91,1.55,1.19,3.1,0,4.74.82-.36,1.28-1,1.28-1.92,0-1.19-.36-2.1-1.28-2.83ZM38.34,11.04v.18c.64.36,1.28.55,2.01.36.18,0,.27-.27.46-.46-.18-.09-.36-.36-.55-.36-.64,0-1.28.18-2.01.27h.09ZM33.14,12.77c-.64-.46-1-.18-1.09.64.36-.18.73-.36,1.09-.64Z"/><path class="cls-1" d="M53.93,50.62c3.37,1,4.29.46,5.11-2.92.18.27.36.55.55.73h.09c-.36-1-.73-2.01-1.19-3.01,0,0,.09,0,.18-.09.46.73,1,1.46,1.46,2.1h.09c-.09-.36-.18-.82-.46-1.19-.64-1-1.19-2.1-1.92-3.1-1.19-1.64-1.64-3.47-1.82-5.47.55,1.73,1.37,3.28,2.64,4.56,0-.18-.09-.27-.18-.46-.91-1.73-1.46-3.65-1.64-5.65,0-.64,0-1.28.55-1.73,0,1.28,0,2.46.64,3.56v-.55c0-1,.09-2.01.18-3.01,0-.82.46-1.37,1.37-1.55-.27.64-.46,1.37-.73,2.1.91-1.19,1.28-2.83,3.28-2.74-.36.36-.73.64-1.09,1,0,0,.09.09.18.18,1.64-1.09,3.28-1.46,5.38-.73-.46.27-.82.46-1.19.55-.91.27-1.82.64-2.46,1.46-.09.18-.18.36-.36.64.82-.46,1.55-.91,2.28-1.37,0,0,0,.09.09.18-.27.73-.46,1.46-1.09,2.1-.91.91-1,2.1-.64,3.28.36-1,.64-2.01,1.55-2.74,1.19,1.64,1.82,3.19,1.64,7.84.55-1.19.64-2.37.73-3.65.27.64.73,1.28.55,2.1-.36,1.73-.73,3.37-2.01,4.74.91-.36,1.46-1.09,2.55-3.37.09,1,.18,1.73-.46,2.55-1.37,1.64-2.28,2.28-4.47,2.92,1.64.36,3.01-.27,4.38-1.37-.36.91-.73,1.73-1.73,2.01-1,.18-2.01.46-2.92.73.73.46,1.64.36,2.55.36-.46.55-.82,1-1.64.82-.64-.09-1.28-.18-1.82-.27v.18c.55.27,1.09.55,1.64.91-.46.18-.91.64-1.46.64-.46,0-.91-.27-1.46-.46,0,.18.18.46.27.73-1.28.36-2.55.18-3.83-.27-.73-.27-1.46-.64-2.28-1-.55-.27-.82-.55-.82-1.19,0-.27-.09-.64-.18-.91l-.09-.18Z"/><path class="cls-1" d="M38.7,62.38c-.55-.36-1.19-.73-1.73-1.09h-.09c.36.46.64.82,1,1.19.55.64.55.73,0,1.37-.27-.46-.64-.91-.91-1.37h-.09c.18.46.27.91.46,1.46.18.46,0,.73-.46.82-.09-.36-.27-.82-.46-1.28-.36.55.27,1.46-.82,1.55v-.82h-.18c-.27.73-.82,1-1.64,1-.73,0-1.46.18-2.1.36-.36.09-.64.36-1,.55-.55-.18-1-.36-1.55-.55v.18s.18.09.27.18c1.09.55,1.37,2.01.36,2.74-1,.82-2.19,1.09-3.56.82-.36,0-.46-.27-.36-.55.18-1.19.55-2.19,1.46-2.92.55-.46,1-1.19,1.46-1.73s.82-1.09,1.28-1.64c1-1.19,2.19-1.92,3.92-2.01-.27-.18-.46-.36-.55-.36-.91-.46-1.82-.91-2.83-1.28-1.73-.73-2.74-2.01-2.74-3.83s.18-3.47.36-5.2c0-.73.46-1,1.28-1h9.03c.09,1,.36,2.1.27,3.01-.18,1.64-.46,3.19-.73,4.83-.18.82-.46.91-1.28.64-.46-.18-.91-.46-1.55-.73,0,.46.09.73.18.91.55,1.55,1.73,2.55,2.92,3.56.36.27.55.55.18,1l.18.18Z"/><path class="cls-1" d="M51.01,28c-.27-1.28-.64-2.19-1.55-2.92.18.91.36,1.64.46,2.46s.09,1.64-.36,2.55c-.27-1-.55-1.92-.73-2.74h-.09c0,1.55.18,3.1.27,4.65h-.36c-.36-.91-.73-1.73-1.09-2.64,0,1.64.64,3.1,1.28,4.65-1.19-.36-1.82-1.09-2.46-1.92.36,1.37,1.19,2.28,2.19,3.28-.36-.18-.73-.27-1.09-.46-.36-.18-.73-.46-1.09-.64.09.91.64,1.46,1.19,2.01-2.1-.64-2.64-2.74-2.46-4.1,0-.18.18-.36.27-.55,1.82-3.28,3.47-6.66,4.56-10.31.73-2.46.91-4.92.46-7.48-.36-2.19-1.46-3.92-3.56-4.83-.18,0-.27-.36-.27-.46,0-1,.73-1.64,1.73-1.73.36,0,.82,0,1.19.09-.91.27-1.73.64-2.1,1.46.82-.18,1.64-.55,2.46-.64.91-.09,1.82,0,2.55.82h-1.82c-.55,0-1,.27-1.55.46,2.1.18,4.29,0,5.47,2.37-1.37-.73-2.83-1-4.38-.91,2.92.91,5.75,1.92,5.65,5.65-.64-.55-1.19-1.28-1.92-1.82-.73-.46-1.64-.73-2.46-1.09,0,0,0,.18-.09.27.18.09.27.27.46.36,1.19.91,2.37,1.92,3.1,3.19.82,1.28,1,2.64.27,4.1-.64-1.92-1.73-3.47-3.37-4.65.09.18.18.27.27.46,1.19,1.64,2.1,3.47,2.19,5.56,0,1-.36,1.73-1,2.55-.27-1.64-.73-3.1-1.73-4.38.18.91.46,1.73.55,2.46.18,1.19.18,2.46-.18,3.65-.09.36-.46.73-.73,1.19h-.09Z"/><path class="cls-1" d="M25.57,29.37c-1.55-1.46-2.37-3.28-2.55-5.29,0-.55-.18-1-.27-1.55-.27-1-.64-1.09-1.46-.46-.18-.18-.27-.46-.46-.73-.09.82.09,1.64-.46,2.28,0-.46-.09-.91-.18-1.46-.46,1-.18,2.37-1.73,2.55.18-.27.27-.55.36-.82h0c-.18.18-.46.36-.64.55-.27.18-.73.18-1,.27-.46.18-.64-.18-.91-.36-.55-.46-1.28-.64-2.01-.36.18,0,.36.09.46.18.82.27,1.19.91,1.19,1.73,0,1.09-.64,1.92-1.64,2.28-1,.27-2.1.46-3.1.64-.55-2.19.55-4.56,2.46-5.65,1.55-.82,3.01-1.92,4.47-2.83,1.09-.64,2.19-1.37,3.28-1.92,1.73-.73,2.74-.36,4.01,1,1.46,1.55,2.92,3.1,4.38,4.65.18.18.36.27.55.46-2.19,1.19-3.92,2.55-4.65,4.92l-.09-.09Z"/><path class="cls-1" d="M44.81,35.29c.64,1.19.55,1.55,3.19,2.46-2.19.46-3.56-.64-3.19-2.46Z"/><path class="cls-2" d="M43.9,47.79c-1,3.37-2.37,6.75-.27,10.31-.18-.09-.36-.27-.46-.36-.73-.82-1.09-1.73-1.19-2.74-.36-2.64.36-5.02,2.01-7.2h-.09Z"/><path class="cls-2" d="M32.04,29.37c.46-2.64,4.74-4.1,6.93-2.46-2.74-.18-5.2,0-6.93,2.46Z"/><path class="cls-2" d="M43.44,5.29c.91.73,1.37,1.64,1.28,2.83,0,.91-.46,1.55-1.28,1.92,1.19-1.64.91-3.19,0-4.74Z"/><path class="cls-2" d="M38.34,11.04c.64,0,1.28-.18,2.01-.27.18,0,.36.18.55.36-.18.18-.27.46-.46.46-.73.18-1.37,0-2.01-.36v-.18h-.09Z"/><path class="cls-2" d="M33.14,12.77c-.46.27-.82.46-1.09.64.09-.82.55-1.09,1.09-.64Z"/></svg>