<?xml version="1.0" encoding="UTF-8"?><svg id="Lager_1" xmlns="http://www.w3.org/2000/svg" viewBox="0 0 260 280"><defs><style>.cls-1{fill:#fff;}.cls-2{fill:#2b3c87;}</style></defs><path class="cls-2" d="M29.41,167.21v-5.66s8.66-.84,8.66-.84l18.01-45.58-1.02-11.52,8.29-.07-.69,7.08c22.11,11.59,38.43-12.28,58.83-15.68.39-2.35-3.44-1.53-5-1.46-5.97.24-18.19,4.84-16.32-6.27,1.39-8.27,15.91.93,21.49-2.99,1.7-2.38,1.98-38.7,1.32-43.87-.55-4.31-3.42-5.74-4.08-8.75-2.17-9.95,9.63-18.5,18.28-11.1,9.38,8.03.71,13.08-.16,19.85-.66,5.17-.37,41.49,1.32,43.87,5.57,3.92,20.09-5.27,21.49,2.99,1.87,11.11-10.35,6.51-16.32,6.27-1.56-.06-5.39-.88-5,1.46,17.76,2.43,37.06,25.86,56.33,17.37,5.73-2.53-2.8-12.9,8.93-9.66l.15,12.48,18.01,45.58,8.67.84v5.66h-59.51v-5.66s8.65-.88,8.65-.88l16.84-43.04c-19.4,8.21-36.46-1.96-55.25-5.67v129.64c0,1.16-9.52,20.26-10.64,20.55-2.87.75-1.96-1.35-2.8-2.8-1.32-2.3-9.23-16.75-9.23-17.75V111.96c-18.69,3.97-35.91,13.78-55.25,5.67l16.84,43.04,8.66.88v5.66H29.41ZM130,93.54c-6.38-1.48-8.04,3.46-8.6,9.12-4.16,42.37,3.34,91.61.06,134.72l8.53,17.68V93.54ZM57.74,161.54v-41.09l-17,41.07h17ZM202.26,120.46v41.09h17s-17-41.09-17-41.09ZM60.58,121.87v39.67h17s-17-39.67-17-39.67ZM199.42,161.54v-39.67l-17,39.66h17Z"/><path class="cls-2" d="M87.5,170.05c1.89,12.58-17.48,19.74-27.64,19.95-11.05.23-30.31-6.66-30.45-19.95h58.09Z"/><path class="cls-2" d="M230.59,170.05c-.14,13.29-19.4,20.17-30.45,19.95-10.15-.21-29.53-7.37-27.64-19.95h58.09Z"/><path class="cls-1" d="M130,93.54v161.51l-8.53-17.68c3.28-43.11-4.23-92.35-.06-134.72.56-5.66,2.22-10.6,8.6-9.12Z"/><polygon class="cls-1" points="202.26 120.46 219.26 161.53 202.26 161.54 202.26 120.46"/><polygon class="cls-1" points="57.74 161.54 40.74 161.53 57.74 120.46 57.74 161.54"/><polygon class="cls-1" points="60.58 121.87 77.58 161.53 60.58 161.54 60.58 121.87"/><polygon class="cls-1" points="199.42 161.54 182.42 161.53 199.42 121.87 199.42 161.54"/></svg>