<?xml version="1.0" encoding="utf-8"?>
<!-- Generator: Adobe Illustrator 27.6.1, SVG Export Plug-In . SVG Version: 6.00 Build 0)  -->
<svg version="1.1" id="Lager_1" xmlns="http://www.w3.org/2000/svg" xmlns:xlink="http://www.w3.org/1999/xlink" x="0px" y="0px"
	 viewBox="0 0 64 65.6" style="enable-background:new 0 0 64 65.6;" xml:space="preserve">
<style type="text/css">
	.st0{fill:#EFBD29;}
</style>
<g>
	<path class="st0" d="M62.5,17.5c0.2-4.9-3.6-9.8-9.2-11.8c-1.4-0.5-2.8-0.8-4.3-0.9l0-0.1c0-0.8-0.3-1.6-0.8-2.2
		c-0.5-0.6-1.3-0.9-2.1-1c-0.8,0-1.6,0.2-2.2,0.8c-0.6,0.5-0.9,1.3-1,2.1l0,0.3h-4.4c-0.7,0-1.3,0.4-1.6,0.9c-1.7,2.8-5.3,3.7-8.1,2
		c-0.8-0.5-1.5-1.2-2-2c-0.3-0.6-1-0.9-1.6-0.9h-4.5l0-0.3c0-0.8-0.4-1.5-1-2.1c-0.6-0.5-1.4-0.8-2.1-0.8c-0.8,0-1.6,0.4-2.1,1
		c-0.5,0.6-0.8,1.4-0.8,2.2l0,0.1c-1.4,0.1-2.8,0.4-4.2,0.9c-5.6,2-9.4,6.9-9.2,11.8c0,0.3,0.1,0.5,0.4,0.7c0.7,0.6,1.5,1.1,2.3,1.5
		v3.4c0,0.2,0.1,0.3,0.2,0.4c1.4,0.5,2.9,0.7,4.4,0.7c2.9,0,5.8-0.9,8.2-2.6l0.2,13.3c0,0.8,0.6,1.6,1.4,1.8c0.2,0,0.4,0.1,0.5,0.1
		v1.7c-1.6-0.1-3.1,1.1-3.2,2.7c0,0.4,0,0.9,0.2,1.3l-3.7,12c0,0,0,0.1,0,0.1c0,0.2-0.1,0.4-0.1,0.6c0,1.4,1,2.6,2.4,2.9
		c1.6,0.3,3.2-0.6,3.6-2.2l2.4-6.9c0.6,0.1,1.2,0.2,1.8,0.2c0.6,0.1,1.2,0.1,1.8,0.2v3.9c0,1.3,0.5,2.6,1.5,3.5l5.5,5.4
		c0.2,0.2,0.4,0.3,0.7,0.3c0.3,0,0.5-0.1,0.7-0.3l5.4-5.4c0.9-0.9,1.4-2.1,1.4-3.4v-4c1.3-0.1,2.6-0.3,3.8-0.4l2.4,6.9
		c0.3,1.3,1.5,2.3,2.9,2.3c0.2,0,0.4,0,0.6-0.1c0.8-0.2,1.5-0.7,1.9-1.3c0.4-0.7,0.6-1.5,0.4-2.3l-3.6-12.1c0.5-1.5-0.3-3.2-1.8-3.8
		c-0.4-0.1-0.8-0.2-1.2-0.2v-1.7c0.2,0,0.4-0.1,0.5-0.1c0.8-0.2,1.4-0.9,1.4-1.8L47,21.5l0,0c2.4,1.7,5.3,2.6,8.2,2.6
		c1.5,0,3-0.2,4.4-0.7c0.2,0,0.3-0.2,0.3-0.4v-3.4c0.8-0.4,1.6-0.9,2.3-1.5C62.4,18,62.5,17.8,62.5,17.5z M46.1,15.4
		c1.2,0,2.1,1,2.1,2.1c0,1.2-1,2.1-2.1,2.1c-1.2,0-2.1-1-2.1-2.1C44,16.3,45,15.4,46.1,15.4z M45.1,4.5c0-0.5,0.5-1,1-1h0
		c0.3,0,0.5,0.1,0.7,0.3C47,4,47.1,4.3,47.1,4.5l-0.4,8.9c-0.6-0.1-1.3,0-1.9,0.2c0-0.2,0-0.4,0-0.7L45.1,4.5z M22.2,6.7l0.1,0.2
		c2.7,5.4,9.2,7.5,14.6,4.9c2.1-1.1,3.8-2.8,4.9-4.9l0.1-0.2H43l-0.2,5.6c-0.2,0.2-0.4,0.4-0.6,0.6c-0.1,0.1-0.2,0.4,0,0.5
		c0.1,0.1,0.4,0.2,0.5,0c0,0,0,0,0,0l0,0c0,0.5,0,1,0.1,1.6c-1.4,1.8-1,4.4,0.7,5.7c0.4,0.3,0.9,0.6,1.4,0.7l-0.2,13.2
		c-4.3,0.7-8.6,1.1-12.9,1.1c-4.3,0-8.5-0.3-12.7-1L19,21.4c2.2-0.6,3.5-2.8,2.9-5c-0.1-0.5-0.4-1.1-0.8-1.5c0.1-0.5,0.1-1,0.1-1.6
		c0.2,0.1,0.4,0.1,0.5-0.1c0.1-0.1,0.1-0.4,0-0.5c-0.2-0.2-0.4-0.4-0.5-0.6l-0.2-5.5L22.2,6.7z M20,17.5c0,1.2-1,2.1-2.1,2.1
		s-2.1-1-2.1-2.1s1-2.1,2.1-2.1C19,15.4,20,16.3,20,17.5L20,17.5z M17.1,3.8c0.2-0.2,0.4-0.3,0.7-0.3c0.3,0,0.5,0.1,0.7,0.3
		c0.2,0.2,0.3,0.4,0.3,0.7l0.3,8.5c0,0.2,0,0.4,0,0.6c-0.6-0.2-1.3-0.3-1.9-0.2l-0.4-8.9C16.8,4.3,16.9,4,17.1,3.8z M11.4,7.5
		c1.2-0.4,2.4-0.7,3.6-0.8l0.3,7.5c-0.9,0.7-1.5,1.8-1.5,2.9c-3.1,2.2-7.3,2.1-10.3-0.2C3.6,13.1,6.7,9.2,11.4,7.5L11.4,7.5z
		 M49.4,55.7c-0.1,0.2-0.4,0.4-0.6,0.4c-0.5,0.1-1.1-0.2-1.2-0.7c0,0,0,0,0,0c0,0,0-0.1,0-0.1l-2.7-7.7c-0.2-0.5-0.6-0.7-1.1-0.7
		c-1.6,0.2-3.5,0.5-5.4,0.6c-0.5,0-0.9,0.5-0.9,1v4.9c0,0.8-0.3,1.5-0.8,2L32,60.1l-4.8-4.7c-0.5-0.5-0.9-1.3-0.9-2.1v-4.9
		c0-0.5-0.4-1-0.9-1c-0.9-0.1-1.8-0.1-2.6-0.2c-0.9-0.1-1.8-0.2-2.5-0.3c-0.1,0-0.1,0-0.2,0c-0.4,0-0.8,0.3-0.9,0.7l-2.7,7.7
		c0,0,0,0.1,0,0.1c-0.1,0.5-0.6,0.9-1.2,0.8c0,0,0,0,0,0c-0.5-0.1-0.8-0.5-0.8-1c0-0.1,0-0.1,0-0.2l3.3-10.8
		c0.2,0.1,0.5,0.2,0.8,0.2l1.4,0.2c4,0.6,8,0.9,12,0.9c4.1,0,8.2-0.3,12.2-0.9l1.4-0.2c0.3,0,0.5-0.1,0.8-0.2l3.3,10.8
		C49.6,55.2,49.6,55.4,49.4,55.7L49.4,55.7z M45.6,40.5c0.4,0.3,0.6,0.9,0.2,1.4c-0.2,0.2-0.4,0.4-0.7,0.4l-1.4,0.2
		c-3.9,0.6-7.9,0.9-11.9,0.9c-3.9,0-7.8-0.3-11.7-0.9l-1.4-0.2c-0.5-0.1-0.9-0.6-0.8-1.1c0.1-0.5,0.5-0.8,1-0.8c0.1,0,0.1,0,0.2,0
		l1.4,0.2c3.8,0.5,7.6,0.8,11.4,0.8c3.9,0,7.7-0.3,11.6-0.9l1.4-0.2C45.1,40.3,45.4,40.4,45.6,40.5z M55.2,18.8
		c-1.8,0-3.5-0.6-5-1.6c-0.1-1.2-0.7-2.2-1.6-3L49,6.8c1.3,0.1,2.5,0.4,3.7,0.8c4.6,1.7,7.8,5.5,7.9,9.4
		C59,18.1,57.2,18.8,55.2,18.8z M38,16.3c-0.1-0.2,0-0.4,0.2-0.5c0,0,0,0,0,0c0.6-0.3,1.2-0.6,1.7-1c0.2-0.1,0.4-0.1,0.5,0.1
		s0.1,0.4-0.1,0.5c0,0,0,0,0,0c-0.6,0.4-1.2,0.7-1.8,1C38.3,16.5,38.1,16.4,38,16.3C38,16.3,38,16.3,38,16.3L38,16.3z M33.1,17.5
		c0-0.2,0.1-0.4,0.3-0.4c0,0,0,0,0,0c0.7-0.1,1.3-0.2,2-0.3c0.2,0,0.4,0.1,0.5,0.3c0,0.2-0.1,0.4-0.3,0.5c0,0,0,0,0,0
		c-0.7,0.2-1.4,0.3-2.1,0.3c0,0,0,0,0,0C33.2,17.8,33.1,17.7,33.1,17.5z M28,17c0.1-0.2,0.3-0.3,0.5-0.3c0.6,0.2,1.3,0.3,2,0.3
		c0.2,0,0.4,0.2,0.3,0.4c0,0.2-0.2,0.3-0.4,0.3c0,0,0,0,0,0c-0.7-0.1-1.4-0.2-2.1-0.4C28.1,17.4,28,17.2,28,17z M23.5,15.3
		c-0.2-0.1-0.2-0.3-0.1-0.5c0.1-0.2,0.3-0.2,0.5-0.1c0.6,0.4,1.1,0.7,1.7,1c0.2,0.1,0.3,0.3,0.2,0.5c-0.1,0.2-0.3,0.3-0.5,0.2
		C24.7,16.1,24.1,15.7,23.5,15.3z"/>
</g>
</svg>
