<?xml version="1.0" encoding="UTF-8"?><svg id="Lager_1" xmlns="http://www.w3.org/2000/svg" viewBox="0 0 307.79 334.24"><defs><style>.cls-1{fill:#2b3b87;}.cls-1,.cls-2{stroke-width:0px;}.cls-2{fill:#fff;}</style></defs><path class="cls-1" d="M182.19,239.6c-8.25-1.06-16.53-1.93-24.74-3.23-26.63-4.2-43.99,12.57-40.31,39.4,1.06,7.72,2.75,15.42,4.82,22.93,4.94,17.9-.33,26.19-22.18,23.79-15.65-1.72-29.21-9.4-40.92-19.57-35.73-31.01-51.67-70.72-49.25-117.63,1.52-29.35,12.44-55,33.88-75.65,15.46-14.89,34.61-22.06,55.28-25.88,31.08-5.74,61.3-3.78,88.94,12.82,30.68,18.43,45.47,45.69,40.98,81.79-1.5,12.11-4.03,24.37-8.14,35.83-6.48,18.05-19.18,25.5-38.37,25.4ZM162.82,144.13c11.16-.12,20.68-9.74,20.67-20.9,0-11.26-9.51-20.84-20.68-20.85-11.85,0-21.33,9.57-21.14,21.38.18,11.17,9.85,20.49,21.15,20.36ZM52.39,249.14c11.65.05,20.88-9.18,20.84-20.84-.04-11.68-9.2-20.74-20.95-20.75-11.24,0-20.71,9.42-20.68,20.6.03,11.68,9.21,20.95,20.8,21ZM53.71,146.96c-11.73,0-20.99,9.23-20.97,20.89.02,11.58,9.41,20.7,21.23,20.62,11-.07,20.36-9.35,20.56-20.39.21-11.47-9.32-21.13-20.82-21.12ZM78.34,119.02c.02,11.82,9.17,21.04,20.83,21,11.39-.04,20.65-9.28,20.69-20.67.04-11.69-9.17-20.98-20.86-21.06-11.22-.08-20.67,9.41-20.65,20.73Z"/><path class="cls-1" d="M226.8,293.67c2.4-22.85,4.76-45.71,7.22-68.56,3.13-29.14,6.31-58.27,9.54-87.4.79-7.15,3.75-9.25,10.72-8.01,6.22,1.11,12.46,2.16,18.66,3.39,6.37,1.26,8.4,4.42,6.83,10.72-9.46,37.95-18.98,75.88-28.48,113.82-3.27,13.08-6.32,26.22-9.98,39.19-.74,2.62-3.39,5.45-5.88,6.55-1.71.75-5.33-.7-6.88-2.32-1.58-1.65-1.68-4.72-2.43-7.16.23-.07.45-.14.68-.21Z"/><path class="cls-1" d="M298.41,65.77c-.39,11.77-2.21,23.53-9.2,33.88-6.53,9.67-14.98,12.93-25.85,10.08-8.29-2.18-14.64-11-15.48-21.27-.81-9.85,2.88-18.04,9.53-24.86,8.09-8.28,16-16.68,20.05-27.71,2.57-6.99,4.06-14.37,6.15-21.54.33-1.11,1.32-2.03,2.01-3.03.89.77,2.28,1.37,2.6,2.33,5.58,16.81,9.83,33.9,10.19,52.1Z"/><path class="cls-1" d="M248.74,110.55c12.17,2.17,23.68,4.22,35.66,6.35-.77,4.35-1.45,8.18-2.25,12.68-11.96-2.1-23.47-4.12-35.62-6.25.74-4.26,1.4-8.11,2.21-12.78Z"/><path class="cls-2" d="M162.82,144.13c-11.29.12-20.97-9.2-21.15-20.36-.19-11.8,9.29-21.39,21.14-21.38,11.17,0,20.67,9.58,20.68,20.85,0,11.15-9.51,20.77-20.67,20.9Z"/><path class="cls-2" d="M52.39,249.14c-11.59-.05-20.77-9.32-20.8-21-.03-11.18,9.44-20.61,20.68-20.6,11.76,0,20.91,9.08,20.95,20.75.04,11.66-9.18,20.89-20.84,20.84Z"/><path class="cls-2" d="M53.71,146.96c11.5,0,21.03,9.66,20.82,21.12-.2,11.04-9.56,20.32-20.56,20.39-11.82.08-21.21-9.04-21.23-20.62-.02-11.66,9.24-20.89,20.97-20.89Z"/><path class="cls-2" d="M78.34,119.02c-.02-11.32,9.43-20.81,20.65-20.73,11.7.08,20.9,9.38,20.86,21.06-.04,11.39-9.29,20.63-20.69,20.67-11.66.04-20.81-9.19-20.83-21Z"/></svg>