<?xml version="1.0" encoding="UTF-8"?><svg id="Lager_1" xmlns="http://www.w3.org/2000/svg" viewBox="0 0 181.42 252.28"><defs><style>.cls-1{fill:#d57c50;}.cls-1,.cls-2{stroke-width:0px;}.cls-2{fill:#fff;}</style></defs><path class="cls-1" d="M100.69,188.33c.47-8.74.94-16.18,1.23-23.64.19-4.83.38-9.68.09-14.49-.28-4.62,1.63-7.53,5.54-9.62,2.93-1.57,5.72-3.41,8.56-5.14,6.34-3.84,6.57-4.44,4.82-13.03-8.71.61-16.51,3.59-22.49,9.98-1.72,1.84-2.16,5.68-1.85,8.45.69,6.12-2.57,10.32-5.77,15.31-3.38-4.78-6.9-8.87-6.09-14.96.86-6.41-1.87-11.03-7.81-13.53-5.23-2.2-10.57-4.11-15.95-6.19-2.51,8.86-1.97,10.17,4.18,13.96,16.73,10.33,13.73,5.66,14.12,24.29.18,8.43.03,16.86.03,25.76-7.75-2.9-14.33-7.73-19.44-14.42-4.77-6.24-6.84-13.58-9.4-21.02-4.94-14.34-2.52-28.7-3.55-43-1.13-15.7,5.94-27.69,19.04-36.07,8.12-5.2,16.47-10.03,24.72-15.04,8.35,5.09,16.86,9.99,25.07,15.34,13.41,8.73,19.64,21.21,18.82,37.28-.38,7.48.01,15-.49,22.47-.34,5.05-1.66,10.03-2.49,15.05-.51,3.09-.34,6.42-1.47,9.24-5.6,14.01-14.69,25.07-29.43,32.99ZM129.84,108.71c.38,0,.75,0,1.13,0,.25-.85.77-1.71.73-2.55-.48-9.89-2.5-19.53-10.56-25.98-8.9-7.11-18.62-13.2-27.99-19.73-.31.45-.62.9-.93,1.35,6.79,4.67,13.48,9.5,20.4,13.98,10.38,6.72,16.07,16.03,16.58,28.45.06,1.5.43,2.99.65,4.48ZM122.73,99.09c-.15-9.86-11.45-23.12-20.49-23.63,8.73,6.23,16.37,13.37,20.49,23.63ZM122.76,118.79c-9.27-3.12-26.43,5.24-27.57,12.97,7.11-8.43,16.96-10.32,27.57-12.97ZM126.43,154.86c1.24-4.08,2.35-8.21,3.77-12.24,1.49-4.23,2.58-8.39.17-12.84,1.15,8.88-6.77,16.13-3.94,25.08ZM61.32,118.58c7.46,3.06,15.48,6.35,23.24,9.53-3.33-6.1-16.98-11.51-23.24-9.53Z"/><path class="cls-1" d="M49.14,158.58c4.54,10.99,11.6,19.76,21.45,26.23,1.94,1.27,3.88,2.72,6.03,3.46,4.34,1.49,4.55,4.11,2.94,7.66-13.12-2.46-32.92-26.45-30.42-37.36Z"/><path class="cls-1" d="M132.29,158.73c3.01,9.79-17.06,34.36-31.81,37.6,1.06-2.37,1.31-4.69,2.53-5.42,12.61-7.59,22.43-17.6,28.19-31.32.15-.36.69-.55,1.1-.86Z"/><path class="cls-1" d="M90.84,158.83c2.45-3.61,4.61-6.8,6.77-9.99.42.24.83.48,1.25.72-2.55,5.4-5.09,10.8-8.19,17.38-3.14-6.66-5.74-12.16-8.33-17.67l1.44-.82c2.23,3.28,4.46,6.55,7.06,10.38Z"/><path class="cls-2" d="M129.84,108.71c-.22-1.49-.59-2.98-.65-4.48-.52-12.42-6.2-21.72-16.58-28.45-6.92-4.48-13.6-9.31-20.4-13.98.31-.45.62-.9.93-1.35,9.37,6.53,19.09,12.62,27.99,19.73,8.06,6.44,10.08,16.09,10.56,25.98.04.84-.47,1.7-.73,2.55-.38,0-.75,0-1.13,0Z"/><path class="cls-2" d="M122.73,99.09c-4.12-10.26-11.76-17.4-20.49-23.63,9.04.5,20.34,13.77,20.49,23.63Z"/><path class="cls-2" d="M122.76,118.79c-10.61,2.65-20.46,4.54-27.57,12.97,1.14-7.73,18.3-16.09,27.57-12.97Z"/><path class="cls-2" d="M126.43,154.86c-2.82-8.95,5.09-16.2,3.94-25.08,2.41,4.45,1.32,8.61-.17,12.84-1.41,4.02-2.53,8.15-3.77,12.24Z"/><path class="cls-2" d="M61.32,118.58c6.27-1.98,19.91,3.43,23.24,9.53-7.77-3.19-15.78-6.47-23.24-9.53Z"/></svg>