<?xml version="1.0" encoding="UTF-8"?><svg id="Lager_1" xmlns="http://www.w3.org/2000/svg" viewBox="0 0 228.89 283.11"><defs><style>.cls-1{fill:#fff;}.cls-2{fill:#2b3b87;}</style></defs><path class="cls-2" d="M120.4,7.8c24.28-2.57,36.92,15.35,38.24,37.6,2.23,37.51-21.7,102.35-36.48,137.64-2.04,4.86-5.29,14.43-7.92,18.37s-10.86,2.78-14.9,1.87c-4.63-1.04-5.98-3.11-6.89-7.57-6.04-29.89-7.59-69.67-8.03-100.39-.39-27.2-1.3-83.55,35.98-87.5Z"/><path class="cls-2" d="M99.51,12.22c.2,1-.1,1.53-.62,2.33-2.07,3.17-5.24,5.92-7.38,9.71-17.11,30.3-10.89,99.92-7.77,134.82.96,10.74,3.37,22.26,3.97,32.83.15,2.55.74,9.32-1.5,10.39-6.13,2.93-9.46-6.81-11.58-11.11-17.13-34.75-41.57-96.77-34.74-135.09,5.34-29.99,28.91-48.81,59.62-43.87Z"/><path class="cls-2" d="M126.25,206.5c-1.99,1.45-8.02.63-7.58-2.58,13.38-31.73,25.93-64.08,34.67-97.47,7.09-27.12,14.9-60.6,1.36-86.68,7.87-.5,17.04,3.11,23.86,7.02,37.13,21.31,21.68,71.54,4.93,101.26-15.75,27.93-37.1,53.63-57.24,78.45Z"/><path class="cls-2" d="M41.68,37.18c-13.58,33.5-3.87,69.52,7.22,102.19,6.96,20.5,15.22,40.64,24.7,60.08.39,9.02-6.16,3.18-9.2-.67-19.05-24.07-47.85-70.13-52.11-100.34-3.5-24.9,5.11-50.8,29.39-61.26Z"/><path class="cls-2" d="M170.75,182.67c-4.81,4.45-9.71,8.97-14.72,13.21-6.55,5.54-13.48,11.67-20.71,16.04-1.93-.26-3.52-1.31-2.86-3.43,17.48-21.3,34.52-43.26,48.8-66.89,14.68-24.29,27.67-51.83,24.04-81.09.31-2.26,6.43,4.34,6.91,4.92,3.64,4.35,7.36,11.98,8.81,17.47,10.81,40.89-23.17,74.69-50.27,99.78Z"/><path class="cls-2" d="M124.64,227.9l-8.66,21.89,2.46,1.93-1.58,2.23c-9.49-2.88-16.72-6.14-26.9-5.86-2.58.07-12.17,1.76-13.67,1.27-.78-.25-1.06-.8-1.13-1.58-.3-3.3,4.07-2.05,4.01-3.91-.15-4.16-1.9-15.32-3.06-19.32-.82-2.84-2.72-4.78-3.7-8.13-.68-2.35-1.54-4.8-1.04-7.29,1.1-3.33,17.1-2.6,20.59-2.4,6.83.4,33.75,4.24,37.81,8.85,3.47,3.94-.84,10.96-5.11,12.33ZM82.5,244.75c1.51.11,4.56.63,5.09-1l-.19-20.65-8.26-.61,3.36,22.27ZM96.89,244.17l2.45-20.08c-.32-1.78-7.32-.65-9.03-.96l.66,21.03h5.92ZM110.68,225.12l-8.54-1.32-2.64,21.02,5.9,1.3,5.28-20.99ZM113.23,248.68l7.93-20.57-7.21-2.07-5.91,21.03,5.2,1.6Z"/><path class="cls-2" d="M112.49,274.22c-.67.63-1.87.73-2.78.83-3.89.41-11.34.99-15.06.59-3.09-.34-17.18-4.26-18.31-6.66-1.32-2.78,1.33-13.19,1.56-16.85,1.03-.83,17.48-.94,19.9-.66,1.82.21,15.69,4.39,16.54,5.14,1.86,1.64-.21,16.07-1.85,17.61Z"/><path class="cls-1" d="M82.5,244.75l-3.36-22.27,8.26.61.19,20.65c-.54,1.64-3.59,1.11-5.09,1Z"/><path class="cls-1" d="M96.89,244.17h-5.92s-.66-21.03-.66-21.03c1.71.31,8.71-.82,9.03.96l-2.45,20.08Z"/><polygon class="cls-1" points="110.68 225.12 105.4 246.11 99.5 244.81 102.14 223.8 110.68 225.12"/><polygon class="cls-1" points="113.23 248.68 108.03 247.08 113.94 226.04 121.15 228.11 113.23 248.68"/></svg>