<?xml version="1.0" encoding="utf-8"?>
<!-- Generator: Adobe Illustrator 28.2.0, SVG Export Plug-In . SVG Version: 6.00 Build 0)  -->
<svg version="1.1" id="Lager_1" xmlns="http://www.w3.org/2000/svg" xmlns:xlink="http://www.w3.org/1999/xlink" x="0px" y="0px"
	 viewBox="0 0 953 938.5" style="enable-background:new 0 0 953 938.5;" xml:space="preserve">
<style type="text/css">
	.st0{fill:#5890AC;}
</style>
<path class="st0" d="M679.3,267.7c3.6-1.3,6.7-2.4,9.8-3.6c27.8-11.2,55.4-22.9,83.5-33.3c20-7.4,39.6-15.6,59.7-22.9
	c32.9-11.9,65.7-23.9,99.7-32.4c3.1-0.8,6.1-1.8,9.3-1.7c1.7,0.1,3.5,0.1,4.4,1.8c1,2-0.8,3-1.9,4.1c-4.5,4.5-10.1,7.7-15.4,11.1
	c-24.6,15.3-49.1,30.7-73.7,46.1c-26.7,16.8-53.9,32.4-81.3,47.9c-21.1,12-42,24.4-63.3,36.2c-12.2,6.8-25.1,12.3-37.4,18.9
	c-16,8.5-31.7,17.5-47.6,26.4c-2.8,1.6-5,3.8-6.4,6.8c-3.4,7.1-7.8,13.6-12.2,20c-8.4,12.2-7,26-7,39.6c0,1.5,0.6,2.7,2.2,2.8
	c3.8,0.2,4.7,3,5.8,5.9c8.4,23.2,16.1,46.6,19.2,71.2c1.7,13.4,2.1,26.9,1.2,40.4c-0.8,11.8-0.6,23.6-1.3,35.5
	c-1.5,24.4-3.1,48.8-7.6,72.9c-5.4,29-11.5,57.9-20.4,86c-7.2,22.9-16.5,45-28.5,65.9c-10.3,18-20.9,35.7-34,51.7
	c-23.4,28.5-51,52.4-86.8,63.4c-40.5,12.4-76.7,2-106-28.4c-15.8-16.4-23.3-37.3-26.2-59.9c-3.9-30,3.1-58.2,14.4-85.7
	c11.2-27.3,29.3-49.7,49.8-70.5c11.4-11.6,22.8-23.4,34.1-35.1c15.4-15.9,31.4-31.3,46.6-47.3c23.9-25.1,49.5-48.5,72.3-74.5
	c8.8-10,17.4-20.5,23.9-32.5c7.7-14.1,10.3-29.1,8.3-44.9c-3.2-25.7-11.3-50.3-18.5-75.1c-0.8-2.6-2.4-4.2-4.6-5.6
	c-35.1-21.5-71-20.6-107.2-3.4c-21.2,10-39.3,25.1-58.7,37.9c-29.3,19.3-57.7,40.1-86.6,60c-18.2,12.5-36.3,25.3-54.2,38.4
	c-27.3,20-57.7,33.5-90.6,40.5c-26,5.5-51.6,1.5-76.4-8c-36.5-13.9-61.4-51.6-60.6-90.5c0.7-34.4,14.3-62.8,38-87
	c12-12.3,24.4-24.2,38.4-34.1c18.8-13.3,38.9-24.3,60.4-32.8c19.7-7.8,39.1-16.3,59.9-20.6c29.2-6.1,58.4-11.8,88.5-11.5
	c38.8,0.4,77.2,3.9,114.9,13c23.5,5.7,46.2,14.2,66.7,27.5c7.3,4.7,15.6,7.5,23.2,11.7c4.7,2.5,10.5,4,11.7,10.6
	c0.2,1.2,1.5,1.3,2.5,1.3c15-0.5,30.4,2.3,44.8-4.8c1.8-0.9,3.5-1.9,4.6-3.6c13.6-19.8,27.3-39.4,42-58.4
	c15.4-20,30.1-40.7,45.5-60.7c20.3-26.4,39-54,60.7-79.3c21.5-25.2,43.1-50.3,66.5-73.9c9.3-9.3,18.2-19,27.8-28
	c0.8-0.8,1.5-2,2.9-1.5c1.3,0.5,1.3,1.8,1.5,2.9c0.6,4.4-1.7,8.1-3.2,11.9c-7.2,18.2-16.6,35.2-25.3,52.7
	c-13.9,28.1-29.2,55.4-44.2,82.8c-11.7,21.3-22.9,42.9-34.7,64.1c-6.8,12.2-14.2,24.1-21.3,36.2
	C680.4,263.8,679.2,265.1,679.3,267.7L679.3,267.7z M491.6,319.1c-23.5-10.2-46.1-22.4-71.3-28.6c-24.8-6.1-49.6-11.7-75.2-12.5
	c-16-0.5-31.9,0.1-47.9,0.2c-1,0-2,0.3-3,0.4c-11.9,1.5-23.8,3.7-35.7,4.3c-33.9,1.8-66,11.2-96.9,24.3
	c-36.1,15.3-68.1,36.8-94.4,66.4c-18,20.2-28.9,42.7-27.5,70.1C41,470,53,489.7,77.2,501.2c6.2,3,12.7,4.5,19.4,6
	c6.8,1.5,13.4,3.7,20.4,3.8c30.7,0.4,57.7-11.6,83.1-26.7c16.1-9.5,30.8-21.5,46.4-32.1c21.4-14.5,42-30,63.5-44.2
	c17.6-11.6,34.8-24,52.5-35.5c16.5-10.6,33.2-21,49.9-31.3C436.8,326.3,462.5,316.9,491.6,319.1L491.6,319.1z M602.2,464.6
	c-0.4,0.1-0.8,0.2-1.2,0.3c-0.1,1.1-0.5,2.3-0.4,3.4c1.2,16.1-4.8,30.3-11.8,44.3c-11,22.1-28,39.7-44.7,57.2
	c-19.6,20.6-40,40.6-60,60.9c-28.1,28.5-56,57-84.2,85.3c-14.6,14.7-26.5,31.1-34.5,50.3c-1.6,4-2.5,8.4-4.5,12.1
	c-10.7,19.6-13.9,40.5-10.8,62.3c3.6,25.7,19.3,43.4,41.3,55c23.1,12.2,46.6,9.4,69.3-2.9c27-14.6,47.7-36,66.7-59.4
	c12.2-15.1,21.3-32.1,30.6-49c22.1-39.9,33.4-83.3,43.5-127.2c3.9-17.2,6.7-34.6,8.6-52.2c2.5-23,4.7-46,3-69.2
	c-1.4-20.1-3.1-40.2-8.4-59.7C603.7,472.3,603,468.4,602.2,464.6L602.2,464.6z"/>
<path class="st0" d="M680.3,267.7c3.6-1.3,6.7-2.4,9.8-3.6c27.8-11.2,55.4-22.9,83.5-33.3c20-7.4,39.6-15.6,59.7-22.9
	c32.9-11.9,65.7-23.9,99.7-32.4c3.1-0.8,6.1-1.8,9.3-1.7c1.7,0.1,3.5,0.1,4.4,1.8c1,2-0.8,3-1.9,4.1c-4.5,4.5-10.1,7.7-15.4,11.1
	c-24.6,15.3-49.1,30.7-73.7,46.1c-26.7,16.8-53.9,32.4-81.3,47.9c-21.1,12-42,24.4-63.3,36.2c-12.2,6.8-25.1,12.3-37.4,18.9
	c-16,8.5-31.7,17.5-47.6,26.4c-2.8,1.6-5,3.8-6.4,6.8c-3.4,7.1-7.8,13.6-12.2,20c-8.4,12.2-7,26-7,39.6c0,1.5,0.6,2.7,2.2,2.8
	c3.8,0.2,4.7,3,5.8,5.9c8.4,23.2,16.1,46.6,19.2,71.2c1.7,13.4,2.1,26.9,1.2,40.4c-0.8,11.8-0.6,23.6-1.3,35.5
	c-1.5,24.4-3.1,48.8-7.6,72.9c-5.4,29-11.5,57.9-20.4,86c-7.2,22.9-16.5,45-28.5,65.9c-10.3,18-20.9,35.7-34,51.7
	c-23.4,28.5-51,52.4-86.8,63.4c-40.5,12.4-76.7,2-106-28.4c-15.8-16.4-23.3-37.3-26.2-59.9c-3.9-30,3.1-58.2,14.4-85.7
	c11.2-27.3,29.3-49.7,49.8-70.5c11.4-11.6,22.8-23.4,34.1-35.1c15.4-15.9,31.4-31.3,46.6-47.3c23.9-25.1,49.5-48.5,72.3-74.5
	c8.8-10,17.4-20.5,23.9-32.5c7.7-14.1,10.3-29.1,8.3-44.9c-3.2-25.7-11.3-50.3-18.5-75.1c-0.8-2.6-2.4-4.2-4.6-5.6
	c-35.1-21.5-71-20.6-107.2-3.4c-21.2,10-39.3,25.1-58.7,37.9c-29.3,19.3-57.7,40.1-86.6,60c-18.2,12.5-36.3,25.3-54.2,38.4
	c-27.3,20-57.7,33.5-90.6,40.5c-26,5.5-51.6,1.5-76.4-8c-36.5-13.9-61.4-51.6-60.6-90.5c0.7-34.4,14.3-62.8,38-87
	c12-12.3,24.4-24.2,38.4-34.1c18.8-13.3,38.9-24.3,60.4-32.8c19.7-7.8,39.1-16.3,59.9-20.6c29.2-6.1,58.4-11.8,88.5-11.5
	c38.8,0.4,77.2,3.9,114.9,13c23.5,5.7,46.2,14.2,66.7,27.5c7.3,4.7,15.6,7.5,23.2,11.7c4.7,2.5,10.5,4,11.7,10.6
	c0.2,1.2,1.5,1.3,2.5,1.3c15-0.5,30.4,2.3,44.8-4.8c1.8-0.9,3.5-1.9,4.6-3.6c13.6-19.8,27.3-39.4,42-58.4
	c15.4-20,30.1-40.7,45.5-60.7c20.3-26.4,39-54,60.7-79.3c21.5-25.2,43.1-50.3,66.5-73.9c9.3-9.3,18.2-19,27.8-28
	c0.8-0.8,1.5-2,2.9-1.5c1.3,0.5,1.3,1.8,1.5,2.9c0.6,4.4-1.7,8.1-3.2,11.9c-7.2,18.2-16.6,35.2-25.3,52.7
	c-13.9,28.1-29.2,55.4-44.2,82.8c-11.7,21.3-22.9,42.9-34.7,64.1c-6.8,12.2-14.2,24.1-21.3,36.2
	C681.4,263.8,680.2,265.1,680.3,267.7L680.3,267.7z M492.6,319.1c-23.5-10.2-46.1-22.4-71.3-28.6c-24.8-6.1-49.6-11.7-75.2-12.5
	c-16-0.5-31.9,0.1-47.9,0.2c-1,0-2,0.3-3,0.4c-11.9,1.5-23.8,3.7-35.7,4.3c-33.9,1.8-66,11.2-96.9,24.3
	c-36.1,15.3-68.1,36.8-94.4,66.4c-18,20.2-28.9,42.7-27.5,70.1C42,470,54,489.7,78.2,501.2c6.2,3,12.7,4.5,19.4,6
	c6.8,1.5,13.4,3.7,20.4,3.8c30.7,0.4,57.7-11.6,83.1-26.7c16.1-9.5,30.8-21.5,46.4-32.1c21.4-14.5,42-30,63.5-44.2
	c17.6-11.6,34.8-24,52.5-35.5c16.5-10.6,33.2-21,49.9-31.3C437.8,326.3,463.5,316.9,492.6,319.1L492.6,319.1z M603.2,464.6
	c-0.4,0.1-0.8,0.2-1.2,0.3c-0.1,1.1-0.5,2.3-0.4,3.4c1.2,16.1-4.8,30.3-11.8,44.3c-11,22.1-28,39.7-44.7,57.2
	c-19.6,20.6-40,40.6-60,60.9c-28.1,28.5-56,57-84.2,85.3c-14.6,14.7-26.5,31.1-34.5,50.3c-1.6,4-2.5,8.4-4.5,12.1
	c-10.7,19.6-13.9,40.5-10.8,62.3c3.6,25.7,19.3,43.4,41.3,55c23.1,12.2,46.6,9.4,69.3-2.9c27-14.6,47.7-36,66.7-59.4
	c12.2-15.1,21.3-32.1,30.6-49c22.1-39.9,33.4-83.3,43.5-127.2c3.9-17.2,6.7-34.6,8.6-52.2c2.5-23,4.7-46,3-69.2
	c-1.4-20.1-3.1-40.2-8.4-59.7C604.7,472.3,604,468.4,603.2,464.6L603.2,464.6z"/>
<path class="st0" d="M679.3,267.7c3.6-1.3,6.7-2.4,9.8-3.6c27.8-11.2,55.4-22.9,83.5-33.3c20-7.4,39.6-15.6,59.7-22.9
	c32.9-11.9,65.7-23.9,99.7-32.4c3.1-0.8,6.1-1.8,9.3-1.7c1.7,0.1,3.5,0.1,4.4,1.8c1,2-0.8,3-1.9,4.1c-4.5,4.5-10.1,7.7-15.4,11.1
	c-24.6,15.3-49.1,30.7-73.7,46.1c-26.7,16.8-53.9,32.4-81.3,47.9c-21.1,12-42,24.4-63.3,36.2c-12.2,6.8-25.1,12.3-37.4,18.9
	c-16,8.5-31.7,17.5-47.6,26.4c-2.8,1.6-5,3.8-6.4,6.8c-3.4,7.1-7.8,13.6-12.2,20c-8.4,12.2-7,26-7,39.6c0,1.5,0.6,2.7,2.2,2.8
	c3.8,0.2,4.7,3,5.8,5.9c8.4,23.2,16.1,46.6,19.2,71.2c1.7,13.4,2.1,26.9,1.2,40.4c-0.8,11.8-0.6,23.6-1.3,35.5
	c-1.5,24.4-3.1,48.8-7.6,72.9c-5.4,29-11.5,57.9-20.4,86c-7.2,22.9-16.5,45-28.5,65.9c-10.3,18-20.9,35.7-34,51.7
	c-23.4,28.5-51,52.4-86.8,63.4c-40.5,12.4-76.7,2-106-28.4c-15.8-16.4-23.3-37.3-26.2-59.9c-3.9-30,3.1-58.2,14.4-85.7
	c11.2-27.3,29.3-49.7,49.8-70.5c11.4-11.6,22.8-23.4,34.1-35.1c15.4-15.9,31.4-31.3,46.6-47.3c23.9-25.1,49.5-48.5,72.3-74.5
	c8.8-10,17.4-20.5,23.9-32.5c7.7-14.1,10.3-29.1,8.3-44.9c-3.2-25.7-11.3-50.3-18.5-75.1c-0.8-2.6-2.4-4.2-4.6-5.6
	c-35.1-21.5-71-20.6-107.2-3.4c-21.2,10-39.3,25.1-58.7,37.9c-29.3,19.3-57.7,40.1-86.6,60c-18.2,12.5-36.3,25.3-54.2,38.4
	c-27.3,20-57.7,33.5-90.6,40.5c-26,5.5-51.6,1.5-76.4-8c-36.5-13.9-61.4-51.6-60.6-90.5c0.7-34.4,14.3-62.8,38-87
	c12-12.3,24.4-24.2,38.4-34.1c18.8-13.3,38.9-24.3,60.4-32.8c19.7-7.8,39.1-16.3,59.9-20.6c29.2-6.1,58.4-11.8,88.5-11.5
	c38.8,0.4,77.2,3.9,114.9,13c23.5,5.7,46.2,14.2,66.7,27.5c7.3,4.7,15.6,7.5,23.2,11.7c4.7,2.5,10.5,4,11.7,10.6
	c0.2,1.2,1.5,1.3,2.5,1.3c15-0.5,30.4,2.3,44.8-4.8c1.8-0.9,3.5-1.9,4.6-3.6c13.6-19.8,27.3-39.4,42-58.4
	c15.4-20,30.1-40.7,45.5-60.7c20.3-26.4,39-54,60.7-79.3c21.5-25.2,43.1-50.3,66.5-73.9c9.3-9.3,18.2-19,27.8-28
	c0.8-0.8,1.5-2,2.9-1.5c1.3,0.5,1.3,1.8,1.5,2.9c0.6,4.4-1.7,8.1-3.2,11.9c-7.2,18.2-16.6,35.2-25.3,52.7
	c-13.9,28.1-29.2,55.4-44.2,82.8c-11.7,21.3-22.9,42.9-34.7,64.1c-6.8,12.2-14.2,24.1-21.3,36.2
	C680.4,263.8,679.2,265.1,679.3,267.7L679.3,267.7z M491.6,319.1c-23.5-10.2-46.1-22.4-71.3-28.6c-24.8-6.1-49.6-11.7-75.2-12.5
	c-16-0.5-31.9,0.1-47.9,0.2c-1,0-2,0.3-3,0.4c-11.9,1.5-23.8,3.7-35.7,4.3c-33.9,1.8-66,11.2-96.9,24.3
	c-36.1,15.3-68.1,36.8-94.4,66.4c-18,20.2-28.9,42.7-27.5,70.1C41,470,53,489.7,77.2,501.2c6.2,3,12.7,4.5,19.4,6
	c6.8,1.5,13.4,3.7,20.4,3.8c30.7,0.4,57.7-11.6,83.1-26.7c16.1-9.5,30.8-21.5,46.4-32.1c21.4-14.5,42-30,63.5-44.2
	c17.6-11.6,34.8-24,52.5-35.5c16.5-10.6,33.2-21,49.9-31.3C436.8,326.3,462.5,316.9,491.6,319.1L491.6,319.1z M602.2,464.6
	c-0.4,0.1-0.8,0.2-1.2,0.3c-0.1,1.1-0.5,2.3-0.4,3.4c1.2,16.1-4.8,30.3-11.8,44.3c-11,22.1-28,39.7-44.7,57.2
	c-19.6,20.6-40,40.6-60,60.9c-28.1,28.5-56,57-84.2,85.3c-14.6,14.7-26.5,31.1-34.5,50.3c-1.6,4-2.5,8.4-4.5,12.1
	c-10.7,19.6-13.9,40.5-10.8,62.3c3.6,25.7,19.3,43.4,41.3,55c23.1,12.2,46.6,9.4,69.3-2.9c27-14.6,47.7-36,66.7-59.4
	c12.2-15.1,21.3-32.1,30.6-49c22.1-39.9,33.4-83.3,43.5-127.2c3.9-17.2,6.7-34.6,8.6-52.2c2.5-23,4.7-46,3-69.2
	c-1.4-20.1-3.1-40.2-8.4-59.7C603.7,472.3,603,468.4,602.2,464.6L602.2,464.6z"/>
</svg>
