<?xml version="1.0" encoding="utf-8"?>
<!-- Generator: Adobe Illustrator 27.6.1, SVG Export Plug-In . SVG Version: 6.00 Build 0)  -->
<svg version="1.1" id="Lager_1" xmlns="http://www.w3.org/2000/svg" xmlns:xlink="http://www.w3.org/1999/xlink" x="0px" y="0px"
	 viewBox="0 0 90 93.2" style="enable-background:new 0 0 90 93.2;" xml:space="preserve">
<style type="text/css">
	.st0{fill:#D54848;}
</style>
<g>
	<path class="st0" d="M53.3,18.3c0.3-0.4,0.3-0.8,0.2-1.3c-0.1-0.4-0.4-0.8-0.8-1l-3.9-1.9c-0.3-0.1-0.5-0.2-0.8-0.1l-4.3,0.4
		c-0.4,0-0.8,0.3-1.1,0.6c-0.2,0.3-0.3,0.7-0.3,1.1c0,0,0.1,0,0.1,0C46.3,16,50,16.8,53.3,18.3z"/>
	<path class="st0" d="M18.1,45l1.8,0.8l-3.2,7.5c1.7,0.6,3.7,1.1,6,1.5l2.7-7.1l1.9,0.7l-2.6,6.7c1.9,0.2,3.9,0.3,6.1,0.3l2.4-6.1
		l1.9,0.7L33,55.3c2.7-0.2,5.5-0.8,8.5-1.7c0-0.1,0-0.2,0-0.3c0-2,0.7-3.8,1.7-5.3c-5.2-0.3-18.3-1.8-28.2-8.3l-4.6,10.7
		c0.8,0.5,2.3,1.3,4.5,2.2L18.1,45z"/>
	<path class="st0" d="M41.7,55.6c-3.1,0.9-6,1.5-8.8,1.7l2.1,4.8l-1.8,0.8l-2.4-5.4c-0.5,0-1.1,0-1.6,0c-1.5,0-2.9-0.1-4.3-0.2
		l2.9,7.3l-1.9,0.7L22.6,57c-2.1-0.3-4-0.8-5.6-1.4l3.8,10.9l-1.9,0.7l-4.3-12.4c-1.4-0.6-2.6-1.1-3.5-1.6l6.1,16.3
		c3.6-0.1,21-0.7,28.6-8.5C43.8,59.8,42.3,57.9,41.7,55.6z"/>
	<path class="st0" d="M76.2,30c-1.1,0-2.1-0.2-2.8-0.5c-2.9-1.1-5.1-4-6.2-8.2c-1.6-5.8-2.8-7.8-2.8-7.8l1.7-1.1
		c0.1,0.1,1.4,2.1,3.1,8.4c0.9,3.3,2.6,5.7,4.7,6.7c-1.9-1.6-3-4.5-3.2-8.5c-0.2-4.4-2.2-8.3-5.4-10.6C65,8.2,64.9,8.1,64.8,8
		c-4.6-3.1-9.9-2.3-13.6-1.1c-2.3,0.7-4.9,2.1-5.4,3.6c-0.2,0.5-0.1,1,0.2,1.6l1.8-0.2c0.4,0,0.8,0,1.2,0.1c1.6-1.4,7.2-5.4,15.3-1
		l-1,1.8c-6.1-3.3-10.4-1.2-12.3,0.2l2.2,1.1c1-0.3,3.7-0.7,6.5,0.8c2.8,1.6,4.8,4.7,5.8,9.3l-2,0.4c-0.9-4-2.5-6.7-4.8-8
		c-1.3-0.7-2.6-0.9-3.6-0.8c0.1,0.2,0.2,0.5,0.3,0.7c0.2,0.9,0.1,1.8-0.4,2.6c5.8,3.1,10.4,8.1,12.8,14.3c7,1.4,10.3-1.8,11.7-4.1
		C78.3,29.8,77.2,30,76.2,30z"/>
	<path class="st0" d="M50.3,55.3c1.1,0,2-0.9,2-2s-0.9-2-2-2c-1.1,0-2,0.9-2,2S49.2,55.3,50.3,55.3z"/>
	<path class="st0" d="M50.3,60.2c3.8,0,6.9-3.1,6.9-6.9s-3.1-6.9-6.9-6.9c-3.8,0-6.9,3.1-6.9,6.9S46.5,60.2,50.3,60.2z M50.3,49.4
		c2.2,0,4,1.8,4,4s-1.8,4-4,4s-4-1.8-4-4S48.1,49.4,50.3,49.4z"/>
	<path class="st0" d="M67.8,43.4c0-14-11.4-25.4-25.4-25.4c-12.3,0-22.9,9-25,21c10.9,6.4,25.4,7.1,27.7,7.2
		c1.5-1.1,3.3-1.7,5.2-1.7c4.9,0,8.9,4,8.9,8.9s-4,8.9-8.9,8.9c-0.9,0-1.8-0.1-2.7-0.4c-4.2,4.7-11.3,7.1-17.7,8.3l-0.6,12.8
		c0,0.3,0.1,0.6,0.3,0.8c0.2,0.2,0.5,0.3,0.8,0.4c4.7,0.2,16.4,0.1,23.5-6.1c5.3-4.6,9.9-5.7,12.8-5.8c0.6,0,0.8-0.4,0.9-0.6
		c0.2-0.4,0.2-0.8-0.1-1.1l-6-9.3c-0.2-0.4-0.2-0.9,0.1-1.2C65.6,55.4,67.8,49.5,67.8,43.4z M64.1,42.4h-2c0-0.9-0.1-1.8-0.2-2.6
		l2-0.3C64,40.5,64.1,41.5,64.1,42.4z M61.4,37.4c-1.6-5.6-5.9-10.2-11.4-12.1l0.7-1.9c6.1,2.2,10.9,7.2,12.7,13.4L61.4,37.4z"/>
</g>
</svg>
