<?xml version="1.0" encoding="utf-8"?>
<!-- Generator: Adobe Illustrator 27.6.1, SVG Export Plug-In . SVG Version: 6.00 Build 0)  -->
<svg version="1.1" id="Lager_1" xmlns="http://www.w3.org/2000/svg" xmlns:xlink="http://www.w3.org/1999/xlink" x="0px" y="0px"
	 viewBox="0 0 504 312" style="enable-background:new 0 0 504 312;" xml:space="preserve">
<style type="text/css">
	.st0{fill:#A52527;}
	.st1{fill:#2B3B87;}
</style>
<g>
	<path class="st0" d="M448.6,42.1C414.4,23,366.2,9.2,313.1,3.3c-1.1-0.1-2.1,0.2-3,0.9c-0.8,0.7-1.4,1.7-1.5,2.8
		c-0.9,10.4-5.8,16.8-9.9,16.8c-4.5,0-9.8-7.8-10-18.9c0-2.1-1.7-3.8-3.8-3.9c-10.9-0.6-22-1-33-1C185.2,0,122.4,11.5,75,32.3
		c-48.4,21.3-75,50-75,80.9s26.6,59.6,75,80.9c1.2,0.5,2.3,1,3.5,1.5l5.3,22.7c10.2,43.5,44.9,77.2,88.4,85.8
		c26.3,5.2,53.1,7.8,79.8,7.8c26.7,0,53.6-2.6,79.9-7.8c43.4-8.6,78.1-42.3,88.3-85.8l5.3-22.7c1.2-0.5,2.3-1,3.5-1.5
		c48.4-21.3,75-50.1,75-80.9C504,86.9,484.9,62.3,448.6,42.1z M412.4,216.5c-9.5,40.5-41.7,71.8-82.1,79.8
		c-4.4,0.9-8.9,1.7-13.3,2.4c5.2-13.7,8.3-28,9.2-42.7c0.1-2.2-1.5-4.1-3.8-4.2c-2.2-0.1-4.1,1.6-4.2,3.8
		c-0.8,14.3-3.9,28.3-9.1,41.5c-0.4,1-0.8,2-1.3,3.1c-5.2,0.7-10.3,1.3-15.5,1.9c0.3-0.7,0.6-1.3,0.8-2c5.5-14,8.8-28.8,9.6-44
		c0.1-2.2-1.6-4.1-3.8-4.2c-2.2-0.1-4.1,1.6-4.2,3.8c-0.8,14.3-3.9,28.3-9.1,41.5c-0.8,1.9-1.6,3.8-2.4,5.7
		c-10.4,0.8-20.9,1.2-31.3,1.2c-23.7,0-47.5-2.1-70.9-6.3c-0.1-0.2-0.2-0.5-0.3-0.7c-5.2-13.3-8.3-27.2-9.1-41.5
		c-0.1-2.2-2-3.9-4.2-3.8c-2.2,0.1-3.9,2-3.8,4.2c0.8,13.7,3.5,27.1,8.1,40c-5.8-1.2-11.3-3-16.7-5.1c-3.8-11.4-6.1-23.3-6.8-35.3
		c-0.1-2.2-2-3.9-4.2-3.8c-2.2,0.1-3.9,2-3.8,4.2c0.6,10.3,2.3,20.5,5.1,30.3c-26.7-14-46.7-39.3-53.9-69.8l-4-17.2
		c45.6,17.6,103.4,27.2,164.4,27.2c34.1,0,67.1-3,97.6-8.7c-3,10.8-7.1,21.4-12.2,31.4c-1,2-0.2,4.4,1.7,5.4
		c0.6,0.3,1.2,0.4,1.8,0.4c1.5,0,2.9-0.8,3.6-2.2c6-11.7,10.6-24,13.8-36.7c6.2-1.3,12.3-2.7,18.3-4.2c-2.9,9.6-6.6,18.9-11.2,27.8
		c-1,2-0.2,4.4,1.7,5.4c0.6,0.3,1.2,0.4,1.8,0.4c1.5,0,2.9-0.8,3.6-2.2c5.5-10.8,9.9-22.1,13.1-33.8c10.8-3,21.1-6.4,30.8-10.2
		L412.4,216.5z M465.1,114.2l30,7.9c-1,5.2-2.9,10.3-5.7,15.4l-28.3-7.4c-2.1-0.6-4.3,0.7-4.9,2.9s0.7,4.3,2.9,4.9l25.8,6.8
		c-11.5,15.7-31.5,30.1-59.1,42.3c-46.3,20.4-108,31.7-173.8,31.7s-127.4-11.2-173.8-31.7c-3.2-1.4-6.3-2.9-9.3-4.4l17.2-13.8
		c1.7-1.4,2-3.9,0.6-5.6c-1.4-1.7-3.9-2-5.6-0.6l-19.9,16c-5.3-2.9-10.2-5.8-14.8-8.9l24.8-20c1.7-1.4,2-3.9,0.6-5.6
		c-1.4-1.7-3.9-2-5.6-0.6l-26.6,21.4C19,149.1,8,131.5,8,113.2c0-27.5,25-53.6,70.2-73.6C124.6,19.2,186.3,8,252,8
		c9.6,0,19.4,0.2,29,0.8c1.4,13.3,8.7,23,17.8,23c8.3,0,15.2-8.2,17.3-20c50.5,6,96.1,19.2,128.6,37.3
		c33.1,18.4,51.3,41.2,51.3,64.2c0,0.3,0,0.5,0,0.8l-28.9-7.6c-2.1-0.6-4.3,0.7-4.9,2.8C461.7,111.5,463,113.7,465.1,114.2z"/>
	<path class="st0" d="M359.1,75.8c-28.7-9.1-66.7-14.1-107.1-14.1s-78.4,5-107.1,14.1c-30.1,9.5-46.7,22.8-46.7,37.4
		s16.6,27.9,46.7,37.4c28.7,9.1,66.7,14.1,107.1,14.1s78.4-5,107.1-14.1c30.1-9.5,46.6-22.8,46.6-37.4S389.2,85.4,359.1,75.8z
		 M228.6,98.2c15.9,0,28.8,11,28.8,24.5c0,2.7-0.5,5.2-1.5,7.7c-4.1-1.4-8.6-2.2-13.2-2.2c-8.2,0-15.8,2.4-21.9,6.4
		c-3.6-8.2-10.9-14.8-20-18.1C204,105.9,215.4,98.2,228.6,98.2z M206.6,154.5c-17.7-1.8-34.3-4.6-48.8-8.5c0.3-13.3,13.1-24,28.7-24
		c13.1,0,24.4,7.5,27.8,18.1C210.5,144.2,207.8,149.1,206.6,154.5z M252,156.8c-12.8,0-25.3-0.5-37.4-1.5c2.9-10.9,14.5-19,28-19
		c14,0,25.8,8.7,28.3,20.1C264.7,156.6,258.4,156.8,252,156.8z M268.4,137.7c-1.6-1.4-3.4-2.7-5.3-3.8c1.5-3.5,2.2-7.3,2.2-11.1
		c0-4-0.8-7.8-2.3-11.3c5.4-5.3,13.4-8.4,21.7-8.4c15.3,0,27.9,10.3,28.7,23.2c-4.5-1.7-9.5-2.7-14.7-2.7
		C286.6,123.5,275.2,128.9,268.4,137.7z M279,156c-0.7-4.4-2.5-8.6-5.1-12.2c5.1-7.5,14.6-12.3,24.9-12.3c13.4,0,25,8,28,18.9
		C312,153.1,295.9,155,279,156z"/>
	<path class="st0" d="M57,70.6c-1.5-1.6-4-1.8-5.7-0.3c-1.6,1.5-1.8,4-0.3,5.7l21.2,23.4c0.8,0.9,1.9,1.3,3,1.3c1,0,1.9-0.3,2.7-1
		c1.6-1.5,1.8-4,0.3-5.7L57,70.6z"/>
	<path class="st0" d="M39.3,87c-1.5-1.6-4-1.8-5.7-0.3s-1.8,4-0.3,5.7l21.2,23.4c0.8,0.9,1.9,1.3,3,1.3c1,0,1.9-0.3,2.7-1
		c1.6-1.5,1.8-4,0.3-5.7L39.3,87z"/>
</g>
<g>
	<path class="st1" d="M242.8,156.7c-9.6-0.2-19-0.7-28.2-1.4c3-10.9,14.5-19,28-19c0,0,0.1,0,0.1,0v-8c0,0-0.1,0-0.1,0
		c-8.2,0-15.8,2.4-21.9,6.4c-3.6-8.2-10.9-14.8-20-18.1c3.2-10.6,14.6-18.3,27.8-18.3c5.2,0,10,1.2,14.2,3.2V61.8
		c-36.9,0.7-71.4,5.6-97.9,14c-30.1,9.5-46.7,22.8-46.7,37.4s16.6,27.9,46.7,37.4c26.5,8.4,60.9,13.3,97.9,14V156.7z M206.6,154.5
		c-17.7-1.8-34.3-4.6-48.8-8.5c0.3-13.3,13.1-24,28.7-24c13.1,0,24.4,7.5,27.8,18.1C210.5,144.2,207.8,149.1,206.6,154.5z"/>
	<path class="st1" d="M57,70.6c-1.5-1.6-4-1.8-5.7-0.3c-1.6,1.5-1.8,4-0.3,5.7l21.2,23.5c0.8,0.9,1.9,1.3,3,1.3c1,0,1.9-0.3,2.7-1
		c1.6-1.5,1.8-4,0.3-5.6L57,70.6z"/>
	<path class="st1" d="M39.3,87c-1.5-1.6-4-1.8-5.6-0.3s-1.8,4-0.3,5.7l21.2,23.4c0.8,0.9,1.9,1.3,3,1.3c1,0,1.9-0.3,2.7-1
		c1.6-1.5,1.8-4,0.3-5.7L39.3,87z"/>
	<path class="st1" d="M242.8,303.9c-20.6-0.5-41.3-2.6-61.7-6.2c-0.1-0.2-0.2-0.5-0.3-0.7c-5.2-13.3-8.3-27.2-9.1-41.5
		c-0.1-2.2-2-3.9-4.2-3.8c-2.2,0.1-3.9,2-3.8,4.2c0.8,13.7,3.5,27.1,8.1,40c-5.8-1.2-11.3-3-16.7-5.1c-3.8-11.4-6.1-23.3-6.8-35.3
		c-0.1-2.2-2-3.9-4.2-3.8c-2.2,0.1-3.9,2-3.8,4.2c0.6,10.3,2.3,20.5,5.1,30.3c-26.7-14-46.7-39.3-53.9-69.8l-4-17.2
		c43.3,16.7,97.6,26.2,155.2,27.1v-8c-62.2-1-120.4-12.1-164.5-31.6c-3.2-1.4-6.3-2.9-9.3-4.4l17.1-13.8c1.7-1.4,2-3.9,0.6-5.6
		c-1.4-1.7-3.9-2-5.6-0.6l-19.9,16c-5.3-2.9-10.2-5.8-14.8-8.9l24.8-20c1.7-1.4,2-3.9,0.6-5.6c-1.4-1.7-3.9-2-5.6-0.6l-26.6,21.4
		C19,149.1,8,131.5,8,113.2c0-27.5,25-53.6,70.2-73.6C122.4,20.2,180.5,9.1,242.8,8.1v-8C179.4,1.1,120.2,12.4,75,32.3
		c-48.4,21.3-75,50-75,80.9s26.6,59.6,75,80.9c1.1,0.5,2.3,1,3.5,1.5l5.3,22.7c10.2,43.5,44.9,77.2,88.4,85.8
		c23.3,4.6,47,7.2,70.6,7.7V303.9z"/>
</g>
</svg>
