<?xml version="1.0" encoding="utf-8"?>
<!-- Generator: Adobe Illustrator 27.6.1, SVG Export Plug-In . SVG Version: 6.00 Build 0)  -->
<svg version="1.1" id="Lager_1" xmlns="http://www.w3.org/2000/svg" xmlns:xlink="http://www.w3.org/1999/xlink" x="0px" y="0px"
	 viewBox="0 0 90 112.5" style="enable-background:new 0 0 90 112.5;" xml:space="preserve">
<style type="text/css">
	.st0{fill:#EFBD29;}
</style>
<path class="st0" d="M45,5.6c-18.1,0-32.8,14.7-32.8,32.8v37.8H27c4.4,5,10.8,8.1,18,8.1s13.6-3.2,18-8.1h14.8V38.4
	C77.8,20.3,63.1,5.6,45,5.6z M45,82.4c-12.1,0-22-9.8-22-22v-22H67v22C67,72.5,57.1,82.4,45,82.4z"/>
<path class="st0" d="M53.3,63.2c-0.2-0.5-0.8-0.7-1.3-0.5l-7,3.2l-7-3.2c-0.5-0.2-1.1,0-1.3,0.5c-0.2,0.5,0,1.1,0.5,1.3l5.4,2.5
	l-5.4,2.5c-0.5,0.2-0.7,0.8-0.5,1.3c0.2,0.4,0.5,0.6,0.9,0.6c0.1,0,0.3,0,0.4-0.1l7-3.2l7,3.2c0.1,0.1,0.3,0.1,0.4,0.1
	c0.4,0,0.7-0.2,0.9-0.6c0.2-0.5,0-1.1-0.5-1.3L47.4,67l5.4-2.5C53.3,64.3,53.5,63.7,53.3,63.2z"/>
<path class="st0" d="M38.8,53.4c0.3,0,0.6-0.1,0.8-0.4c0.3-0.4,0.3-1.1-0.2-1.4c-1.8-1.4-4.8-1.4-6.5,0c-0.4,0.3-0.5,1-0.2,1.4
	s1,0.5,1.4,0.2c1.1-0.9,3-0.9,4.1,0C38.3,53.4,38.6,53.4,38.8,53.4z"/>
<path class="st0" d="M50.6,51.7c-0.4,0.3-0.5,1-0.2,1.4c0.2,0.2,0.5,0.4,0.8,0.4c0.2,0,0.4-0.1,0.6-0.2c1.1-0.9,3-0.9,4.1,0
	c0.4,0.3,1.1,0.3,1.4-0.2c0.3-0.4,0.3-1.1-0.2-1.4C55.3,50.2,52.4,50.2,50.6,51.7z"/>
</svg>
