<?xml version="1.0" encoding="utf-8"?>
<!-- Generator: Adobe Illustrator 27.6.1, SVG Export Plug-In . SVG Version: 6.00 Build 0)  -->
<svg version="1.1" id="Lager_1" xmlns="http://www.w3.org/2000/svg" xmlns:xlink="http://www.w3.org/1999/xlink" x="0px" y="0px"
	 viewBox="0 0 100 100.4" style="enable-background:new 0 0 100 100.4;" xml:space="preserve">
<style type="text/css">
	.st0{fill:#A52527;}
	.st1{fill:#2B3B87;}
</style>
<g>
	<path class="st0" d="M6.4,5.6h87.2c0.4,0,0.8-0.3,0.8-0.8S94,4.1,93.6,4.1H6.4C6,4.1,5.6,4.4,5.6,4.8S6,5.6,6.4,5.6z"/>
	<path class="st0" d="M93.6,36.9H6.4c-0.4,0-0.8,0.3-0.8,0.8c0,0.4,0.3,0.8,0.8,0.8h87.2c0.4,0,0.8-0.3,0.8-0.8
		C94.4,37.3,94,36.9,93.6,36.9z"/>
	<path class="st0" d="M93.6,45.1H6.4c-0.4,0-0.8,0.3-0.8,0.8c0,0.4,0.3,0.8,0.8,0.8h87.2c0.4,0,0.8-0.3,0.8-0.8
		C94.4,45.5,94,45.1,93.6,45.1z"/>
	<path class="st0" d="M93.6,53.4H6.4c-0.4,0-0.8,0.3-0.8,0.8s0.3,0.8,0.8,0.8h87.2c0.4,0,0.8-0.3,0.8-0.8S94,53.4,93.6,53.4z"/>
	<path class="st0" d="M93.6,61.6H6.4c-0.4,0-0.8,0.3-0.8,0.8s0.3,0.8,0.8,0.8h87.2c0.4,0,0.8-0.3,0.8-0.8S94,61.6,93.6,61.6z"/>
	<path class="st0" d="M93.6,69.8H6.4c-0.4,0-0.8,0.3-0.8,0.8s0.3,0.8,0.8,0.8h87.2c0.4,0,0.8-0.3,0.8-0.8S94,69.8,93.6,69.8z"/>
	<path class="st0" d="M93.6,78H6.4c-0.4,0-0.8,0.3-0.8,0.8s0.3,0.8,0.8,0.8h87.2c0.4,0,0.8-0.3,0.8-0.8S94,78,93.6,78z"/>
	<path class="st0" d="M93.6,86.2H6.4c-0.4,0-0.8,0.3-0.8,0.8s0.3,0.8,0.8,0.8h87.2c0.4,0,0.8-0.3,0.8-0.8S94,86.2,93.6,86.2z"/>
	<path class="st0" d="M93.6,12.3H6.4c-0.4,0-0.8,0.3-0.8,0.8c0,0.4,0.3,0.8,0.8,0.8h87.2c0.4,0,0.8-0.3,0.8-0.8
		C94.4,12.6,94,12.3,93.6,12.3z"/>
	<path class="st0" d="M93.6,20.5H6.4c-0.4,0-0.8,0.3-0.8,0.8C5.6,21.7,6,22,6.4,22h87.2c0.4,0,0.8-0.3,0.8-0.8
		C94.4,20.8,94,20.5,93.6,20.5z"/>
	<path class="st0" d="M93.6,28.7H6.4c-0.4,0-0.8,0.3-0.8,0.8s0.3,0.8,0.8,0.8h87.2c0.4,0,0.8-0.3,0.8-0.8S94,28.7,93.6,28.7z"/>
	<path class="st0" d="M62.7,94.4H6.4c-0.4,0-0.8,0.3-0.8,0.8s0.3,0.8,0.8,0.8h56.3c0.4,0,0.8-0.3,0.8-0.8S63.1,94.4,62.7,94.4z"/>
</g>
<g>
	<path class="st1" d="M50,94.4H6.4c-0.4,0-0.8,0.3-0.8,0.8s0.3,0.8,0.8,0.8H50V94.4z"/>
	<path class="st1" d="M50,86.2H6.4c-0.4,0-0.8,0.3-0.8,0.8s0.3,0.8,0.8,0.8H50V86.2z"/>
	<path class="st1" d="M50,78H6.4c-0.4,0-0.8,0.3-0.8,0.8s0.3,0.8,0.8,0.8H50V78z"/>
	<path class="st1" d="M50,69.8H6.4c-0.4,0-0.8,0.3-0.8,0.8s0.3,0.8,0.8,0.8H50V69.8z"/>
	<path class="st1" d="M50,61.6H6.4c-0.4,0-0.8,0.3-0.8,0.8s0.3,0.8,0.8,0.8H50V61.6z"/>
	<path class="st1" d="M50,53.4H6.4c-0.4,0-0.8,0.3-0.8,0.8s0.3,0.8,0.8,0.8H50V53.4z"/>
	<path class="st1" d="M50,45.1H6.4c-0.4,0-0.8,0.3-0.8,0.8s0.3,0.8,0.8,0.8H50V45.1z"/>
	<path class="st1" d="M50,36.9H6.4c-0.4,0-0.8,0.3-0.8,0.8s0.3,0.8,0.8,0.8H50V36.9z"/>
	<path class="st1" d="M50,28.7H6.4c-0.4,0-0.8,0.3-0.8,0.8c0,0.4,0.3,0.8,0.8,0.8H50V28.7z"/>
	<path class="st1" d="M50,20.5H6.4c-0.4,0-0.8,0.3-0.8,0.8S6,22,6.4,22H50V20.5z"/>
	<path class="st1" d="M50,12.3H6.4c-0.4,0-0.8,0.3-0.8,0.8s0.3,0.8,0.8,0.8H50V12.3z"/>
	<path class="st1" d="M50,4.1H6.4C6,4.1,5.6,4.4,5.6,4.8S6,5.6,6.4,5.6H50V4.1z"/>
</g>
</svg>
