<?xml version="1.0" encoding="utf-8"?>
<!-- Generator: Adobe Illustrator 27.6.1, SVG Export Plug-In . SVG Version: 6.00 Build 0)  -->
<svg version="1.1" id="Lager_1" xmlns="http://www.w3.org/2000/svg" xmlns:xlink="http://www.w3.org/1999/xlink" x="0px" y="0px"
	 viewBox="0 0 28 29.2" style="enable-background:new 0 0 28 29.2;" xml:space="preserve">
<style type="text/css">
	.st0{fill:#5C69AC;}
</style>
<g>
	<polygon class="st0" points="11.8,22.7 7.5,18.5 2.1,22.7 2.1,26 7.5,26 7.6,25.9 7.6,26 	"/>
	<path class="st0" d="M24.9,10.5h-1.2c-1-3.9-4.3-6.8-8.3-7.3C15.3,2.5,14.7,2,14,2c-0.6,0.1-1.1,0.6-1.2,1.2
		c-4,0.5-7.3,3.4-8.3,7.3H3.3c-0.5,0-1,0.4-1,1c0,0.5,0.4,1,1,1h4.5c0,0.1,0.1,0.1,0.1,0.2c0.1,0.2,0.2,0.4,0.3,0.6l0,0
		c0.1,0.2,0.2,0.4,0.2,0.5C8.9,15.2,9,16.6,8.6,18l3.1,3.1l8.3-8.7h4.8c0.5,0,1-0.4,1-1C25.9,11,25.4,10.5,24.9,10.5L24.9,10.5z
		 M13.1,15.4c-1.5,0.7-2-0.5-2.9-1.8c-0.1-0.1-0.2-0.3-0.3-0.4c0,0-0.1-0.1-0.1-0.1c-0.1-0.1-0.2-0.2-0.2-0.3c0,0-0.1-0.1-0.1-0.1
		c-0.1-0.1-0.2-0.2-0.3-0.2l0,0h8.2C15.8,13.3,14.1,15,13.1,15.4z M17.9,10.5C17.9,10.5,17.9,10.5,17.9,10.5c0-1.8-0.5-3.5-1.5-5
		c2.4,0.8,4.3,2.6,5.1,5H17.9z"/>
</g>
</svg>
