<?xml version="1.0" encoding="UTF-8"?><svg id="Lager_1" xmlns="http://www.w3.org/2000/svg" viewBox="0 0 267.13 267.13"><defs><style>.cls-1{fill:#2b3b87;}</style></defs><path class="cls-1" d="M198.92,266.94c-9.72-.44-23.44-1.56-33-3.71-2.29-.51-13.5-3.98-12.81-6.93l2.06-.83-24.25-55.92c4.27-5.15-5.75-17.06-9.53-10.34-2.56,4.56,1.23,10.68,5.62,12.47l25.56,57.97c-1.78,1.65-8.57-8.22-9.88-9.64-6.93-7.5-16.97-16.08-26.04-20.81-3.41-1.78-12.62-4.35-14.55-6.27-1.44-1.44-3.83-9.38-4.74-11.92-7.02-19.56-12.84-39.57-20.09-59.05-.39-1.3.09-2.56.46-3.77,3.56-11.47,30.38-21.04,39.67-11.31,8.72,18.43,18.07,36.65,28.7,54.06,1.71,2.79,8.79,12.17,9.35,14.07,1.43,4.83-1.03,13.78-1.32,19.02-.56,10.34,2.12,21.55,3.6,31.77,24.31,2.25,49.8,6.55,74.09,2.15,1.94-.35,7.88-1.43,9.27-2.19.23-.13.65-.6.52-.78-14.45-8.13-31.87-7.7-46.85-14.33-2.02-.9-5.48-2.44-7.04-3.89-5.64-5.2,2.76-8.8,6.91-10.77,14.48-6.89,33.18-9.33,45.89-19.19,6.95-5.39,11.6-11.59,5.24-19.72-8.47-10.82-44.54-21.39-28.89-39.31,12.16-13.92,36.37-24.8,37.75-46.05.35-5.4-1.52-9.69-1.81-14.83,10.3,17.21,7.67,37.08-7.3,50.47-7.35,6.57-29.34,16.82-16.34,28.32,9.54,8.43,42.56,15.05,30.58,34.31-9.94,15.97-42.79,24.81-59.06,33.08-.55.28-.98-.27-.74,1.08,4.12,1.05,8.04,2.65,12.17,3.72,11.56,2.98,23.21,3.71,33.81,9.92,4.89,2.87,15.35,10.75,4.53,13.69-9.94,2.7-25.26,4.89-35.42,5.46-4.97.28-11.15.23-16.14,0Z"/><path class="cls-1" d="M104.67,93.66c-21-1.39-41.54,7.47-53.37,24.98-7.75-20.96-21.13-39.06-32.44-58.12-3.62-6.1-10.45-16.4-12.8-22.59-2.54-6.68,3.12-14.64,8.01-18.94C23.19,10.95,48.58-.47,60.66.53c11.04.92,12.87,8.24,16.28,17.03,7.99,20.58,12.83,43.69,21.08,63.75,1.79,4.35,4.48,8.21,6.65,12.35Z"/><path class="cls-1" d="M76.54,154.54c-2.4-.17-5.45-.85-7.46-2.16-1.86-1.21-2.46-3.06-3.97-4.35-4.39-3.74-5.18-1.77-7.56-8.57-.66-1.89-4.49-15.83-4.17-16.62,12.04-16.97,32.48-26.62,53.37-24.73l13.29,18.46c-.05,3.16,1.79,7.91,1.86,10.67.04,1.75-1.9,8.39-3.88,8.03-7.28-8.85-21.44-4.25-30.12.19-7.43,3.8-14.59,9.88-11.35,19.1Z"/></svg>