<?xml version="1.0" encoding="UTF-8"?><svg id="Lager_1" xmlns="http://www.w3.org/2000/svg" viewBox="0 0 181.42 252.28"><defs><style>.cls-1{fill:#2b3b87;stroke-width:0px;}</style></defs><path class="cls-1" d="M147.3,190.61c-1.15,1.14-2.09,2.07-3.23,3.2-17.94-18.14-35.82-36.22-53.85-54.44-18.14,17.85-36.22,35.64-54.51,53.65-.93-1.2-1.81-2.33-2.81-3.61,17.77-17.6,35.78-35.45,54.34-53.83-4.12-3.9-8.19-7.64-12.13-11.52-4.84-4.77-9.5-9.72-14.37-14.46-1.8-1.75-4.08-3.01-5.99-4.66-1.93-1.68-3.8-3.46-5.47-5.39-2.48-2.87-4.76-5.92-7.13-8.89-.77-.96-1.52-1.19-2.79-.6-2.55,1.18-4.71.47-6.28-1.89-6.37-9.55-12.7-19.12-19.05-28.68-.16-.23-.27-.49-.18-.99,1,.68,2,1.36,2.99,2.04,8.26,5.62,16.54,11.22,24.77,16.89,1.27.87,2.55,1.91,3.39,3.16.68,1,1.07,2.48.96,3.68-.24,2.61.39,4.15,2.94,5.18,1.42.57,2.44,1.23,2.46,2.98,0,.51.72,1.06,1.2,1.49,1.62,1.46,3.39,2.77,4.89,4.34,9.44,9.86,18.83,19.78,28.23,29.68,1.45,1.52,2.89,3.05,4.78,5.05,3.43-3.61,6.6-7.05,9.88-10.37,5-5.05,10.1-10,15.12-15.03,2.24-2.24,4.36-4.48,6.06-7.28,1.6-2.62,4.44-4.51,6.84-6.6,2.33-2.04,4.8-3.93,7.21-5.88.96-.78,1.15-1.54.55-2.8-1.15-2.44-.47-4.68,1.73-6.16,9.79-6.55,19.62-13.06,29.73-19.39-.36.6-.68,1.22-1.07,1.79-5.88,8.66-11.73,17.33-17.67,25.94-.92,1.33-2.04,2.62-3.33,3.56-.92.67-2.33,1.09-3.46.98-2.82-.29-4.04.36-5.42,2.92-.54,1-1.79,1.63-2.74,2.39-.5.4-1.13.67-1.55,1.14-1.47,1.61-2.76,3.4-4.33,4.9-10.25,9.83-20.55,19.61-30.83,29.4-1.13,1.08-2.23,2.19-3.56,3.5,17.86,18.18,35.68,36.31,53.66,54.61Z"/></svg>