<?xml version="1.0" encoding="utf-8"?>
<!-- Generator: Adobe Illustrator 27.6.1, SVG Export Plug-In . SVG Version: 6.00 Build 0)  -->
<svg version="1.1" id="Lager_1" xmlns="http://www.w3.org/2000/svg" xmlns:xlink="http://www.w3.org/1999/xlink" x="0px" y="0px"
	 viewBox="0 0 290 270.3" style="enable-background:new 0 0 290 270.3;" xml:space="preserve">
<style type="text/css">
	.st0{fill-rule:evenodd;clip-rule:evenodd;fill:#2B3B87;}
	.st1{fill:#2B3B87;}
</style>
<g>
	<path class="st0" d="M119,235c5-6,12-15,19-17c21-6,49-4,61-19c-17,3-18,1-23-1c20-7,37-22,49-36c-7,2-11,4-19,2c28-15,46-36,51-57
		c-9,4-16,6-24,7c26-16,63-76,56-114c-34,22-61,51-75,69c-1-5,0-11,5-17c-29,14-44,34-48,58c-9-7-5-15-4-20c-18,19-34,61-31,81
		c-7-4-11-16-11-23c-10,25,9,60,4,65s-11,12-16,17L119,235z M142,201c65-36,61-92,113-151C203,91,211,148,142,201z"/>
	<path class="st0" d="M112,233l5,4l-13,17c-4-1-9,1-15,5L112,233z M103,246c1,0,2,1,2,2c0,2-2,2-3,2s-2-1-2-2
		C101,247,102,246,103,246z"/>
	<path class="st1" d="M174,257c0,3-2,4-6,4c-3,1-15,0-20,1c-2,1-2,2,1,3c27,4,79,0,109-2c-16,4-94,9-111,4c-3-1-6-4-2-6
		c3-2,26-2,26-3c-1-5-61,0-73,0C125,255,173,251,174,257z"/>
	<path class="st0" d="M21,266c-12-4-21-13-21-24s9-21,21-24v-4h-2c-1,0-2-1-2-3v-1c0-1,1-2,2-2h44c1,0,2,1,2,2v1c0,2-1,3-2,3h-2v4
		c12,4,21,13,21,24s-9,21-21,24v3c-13,0-27,0-40,0V266z M21,226c-14,6-18,27,4,32C7,247,11,237,21,226z"/>
</g>
</svg>
