<?xml version="1.0" encoding="UTF-8"?><svg id="Lager_1" xmlns="http://www.w3.org/2000/svg" viewBox="0 0 181.42 252.28"><defs><style>.cls-1{fill:#2b3b87;}.cls-1,.cls-2{stroke-width:0px;}.cls-2{fill:#fff;}</style></defs><path class="cls-1" d="M53.36,80.4c6.16-2.8,12.31-7.63,18.47-7.64,3.67,0,7.35,7.56,11.73,12.52-22.07,3.87-38.57,14.17-49.35,32.63-8.14,13.93-10.61,28.94-7.75,44.84,5.62,31.22,33.59,53.73,66.15,53.18,31.21-.53,58.34-24.56,62.73-55.56,5.13-36.2-14.37-62.39-56.58-75.35,2.83-3.79,5.16-7.85,8.44-10.88,1.49-1.37,5.17-1.57,7.35-.82,31.97,11.02,51.53,33.06,56.25,66.71,6.15,43.88-23.46,83.06-67.41,90.51-42.13,7.14-82.75-20.85-91.89-63.3-6.78-31.47,6.99-66.14,32.83-82.66-1.5,1.77-2.81,3.78-4.54,5.29-12.25,10.6-20.59,23.67-24.61,39.34-1.32,5.13-1.69,10.51-2.49,15.77,5.52-28.2,19.86-49.99,44.07-65.61-1.14.34-2.27.69-3.41,1.03ZM167.58,157.51c-5.25,28.2-19.97,49.7-46.25,64.41,23.47-4.84,48.02-39.57,46.25-64.41Z"/><path class="cls-1" d="M80.36,43.03h20.73c-3.27,13.17-6.45,25.99-9.63,38.82-.45.01-.9.02-1.35.04-3.18-12.68-6.37-25.37-9.76-38.86Z"/><path class="cls-1" d="M85.85,82.23c-9.56-12.73-19.11-25.46-29.27-38.99h20.62c3.23,12.87,6.44,25.67,9.66,38.47-.33.17-.67.35-1,.52Z"/><path class="cls-1" d="M104.38,42.98h19.78c-9.62,13.31-18.99,26.28-28.36,39.25-.37-.17-.73-.34-1.1-.51,3.19-12.78,6.39-25.57,9.68-38.74Z"/><path class="cls-2" d="M53.36,80.4c1.14-.34,2.27-.69,3.41-1.03-24.21,15.62-38.56,37.41-44.07,65.61.8-5.26,1.18-10.64,2.49-15.77,4.02-15.67,12.36-28.74,24.61-39.34,1.74-1.5,3.04-3.51,4.54-5.29,3.01-1.39,6.01-2.79,9.02-4.18Z"/><path class="cls-1" d="M114.91,22.26c3.43,5.93,6.42,11.09,9.82,16.96h-19.6c3.22-5.59,6.27-10.88,9.78-16.96Z"/><path class="cls-1" d="M90.79,22.29c3.55,6.16,6.44,11.16,9.77,16.94h-19.62c3.37-5.8,6.39-10.99,9.85-16.94Z"/><path class="cls-1" d="M57.1,39.19c3.25-5.63,6.2-10.76,9.64-16.72,3.29,5.68,6.28,10.84,9.69,16.72h-19.33Z"/><path class="cls-1" d="M78.67,37.55c-3.47-6.03-6.37-11.07-9.7-16.84h19.37c-3.19,5.56-6.23,10.84-9.68,16.84Z"/><path class="cls-1" d="M102.91,37.51c-3.43-5.9-6.42-11.02-9.82-16.87h19.41c-3.2,5.62-6.13,10.78-9.59,16.87Z"/><path class="cls-2" d="M167.58,157.51c1.78,24.85-22.78,59.57-46.25,64.41,26.28-14.71,41-36.21,46.25-64.41Z"/></svg>