<?xml version="1.0" encoding="UTF-8"?><svg id="Lager_1" xmlns="http://www.w3.org/2000/svg" viewBox="0 0 181.42 252.28"><defs><style>.cls-1{fill:#2b3b87;}.cls-1,.cls-2{stroke-width:0px;}.cls-2{fill:#fff;}</style></defs><path class="cls-1" d="M146.68,42.45c3.2,3.1,6.39,6.2,9.66,9.38,2.13-2.13,4.22-4.19,6.27-6.3.63-.65,1.22-.88,2.15-.6,1.56.47,3.16.85,4.77,1.1,1.2.19,1.85.72,1.91,1.94.02.32.03.67.15.97,1.5,3.54.25,6.14-2.61,8.39-1.3,1.03-2.28,2.47-3.47,3.79,2.36,2.36,4.92,4.87,7.42,7.44.5.52,1.06,1.26,1.07,1.9.01.61-.56,1.64-1.06,1.77-.75.19-1.9.02-2.46-.47-2.08-1.84-4-3.86-5.93-5.85-.41-.42-.62-1.04-1.13-1.36.03,2.79-.93,4.71-2.94,5.61-1.57.7-2.99.28-4.53-1.4.69-.74,1.5-1.42,2.06-2.26.38-.58.81-1.71.55-2.02-.77-.89-1.43.03-1.96.6-3.17,3.37-6.31,6.79-9.48,10.15-10.73,11.37-21.57,22.65-32.21,34.1-24.58,26.47-49.07,53.03-73.59,79.55-.4.44-.79.89-1.13,1.26-1.03-.98-1.96-1.87-2.96-2.82.36-.39.77-.83,1.18-1.25,39.09-40.27,78.18-80.54,117.27-120.81.38-.39.87-.74,1.07-1.21.18-.41.04-.96.04-1.45-.49.04-1.07-.05-1.46.17-.5.28-.87.81-1.29,1.24-38.75,39.92-77.5,79.84-116.24,119.76-.68.7-1.35,1.42-2.01,2.11-1.34-1.33-2.6-2.57-4.14-4.1.54-.41,1.11-.74,1.58-1.19,39.99-38.91,79.96-77.84,119.94-116.76.51-.49,1.05-.96,1.51-1.5.72-.85.73-1.56-.53-1.91-.23-.06-.52-.25-.61-.45-.61-1.43-.98-1.55-2.16-.48-2.38,2.15-4.73,4.34-7.37,6.28,1.3-1.53,2.61-3.05,3.99-4.68-1.48-1.61-2.78-3.33-1.26-5.58,1.2-1.77,2.79-2.7,5.51-1.89-2.63-2.62-4.91-4.86-7.16-7.14-1.58-1.6-1.49-2.58.27-4.02.44,0,.87,0,1.31,0Z"/><path class="cls-1" d="M102.57,126.65c-2.89,8.1-2.9,16.68-4.28,25.03-1.61,9.76-4.18,19.23-8.98,27.98-4.78,8.7-11.83,15.12-20.15,20.28-7.9,4.9-16.44,8.23-25.69,9.45-8.04,1.06-15.85.41-23.1-3.71-5.87-3.33-9.42-8.44-11.35-14.75-2.59-8.46-1.83-16.93.48-25.28,2.81-10.17,7.77-19.22,14.75-27.16,6.51-7.4,14.68-12.16,23.9-15.32,8.91-3.05,18.11-4.63,27.46-5.51,5.37-.5,10.67-1.37,15.74-3.33.09.11.19.22.28.33-.35.27-.72.51-1.04.81-21.4,19.7-42.8,39.41-64.18,59.13-.76.7-1.32.96-2.38.47-1.49-.69-3.17.07-4.39,1.67-1.08,1.41-1.16,2.98-.22,4.38.03.05.05.1.09.13,5.27,5.27,10.51,10.58,15.85,15.79,1.16,1.13,2.71,1.06,4.08.14,1.47-.99,2.46-2.25,2.26-4.21-.06-.64.08-1.51.48-1.95,19.72-21.24,39.47-42.44,59.22-63.65.29-.31.49-.72.73-1.08l.44.37ZM60.17,125.29c-.97,1.99-.31,4.26,1.7,5.83,2.12,1.66,5.56,1.59,7.57-.15,1.9-1.65,2.47-3.91,1.44-5.66-3.87,3.99-6,3.99-10.7-.02ZM93.07,147.26c-2.32-.87-4.65-.09-6.07,1.95-1.53,2.2-1.36,5.48.35,7.42,1.29,1.47,3.92,2.66,5.61,1.44-3.99-4.7-3.99-6.79.11-10.82Z"/><path class="cls-1" d="M30.5,180.41c-1.34-1.23-2.5-2.29-3.72-3.41,41.52-38.23,82.95-76.37,124.38-114.52.07.08.15.15.22.23-40.32,39.25-80.63,78.51-120.88,117.7Z"/><path class="cls-2" d="M60.17,125.29c4.71,4.01,6.83,4.02,10.7.02,1.04,1.75.46,4.01-1.44,5.66-2.01,1.74-5.45,1.81-7.57.15-2.01-1.58-2.67-3.84-1.7-5.83Z"/><path class="cls-2" d="M93.07,147.26c-4.1,4.02-4.1,6.11-.11,10.82-1.69,1.22-4.31.03-5.61-1.44-1.71-1.94-1.88-5.22-.35-7.42,1.42-2.04,3.75-2.82,6.07-1.95Z"/></svg>