<?xml version="1.0" encoding="utf-8"?>
<!-- Generator: Adobe Illustrator 28.2.0, SVG Export Plug-In . SVG Version: 6.00 Build 0)  -->
<svg version="1.1" id="Lager_1" xmlns="http://www.w3.org/2000/svg" xmlns:xlink="http://www.w3.org/1999/xlink" x="0px" y="0px"
	 viewBox="0 0 95.8 101.5" style="enable-background:new 0 0 95.8 101.5;" xml:space="preserve">
<style type="text/css">
	.st0{fill:#D57C50;}
</style>
<path class="st0" d="M75.5,26.6C68,20.5,60.3,19,51.3,21.7V84h-8.1c0-5.2,0-10.3,0-15.4c0-14.3-0.3-28.7,0.1-43
	c0.1-4.9-1.5-7.3-5.5-9.7c-5.8-3.4-11.5-4.4-18.5-2.5c3.8,9.4,7.5,18.5,11.2,27.7c3.3,8.1,3.1,9.6-1.9,14.5
	c-4.8,4.8-11.4,6.1-17.3,3.5c-7.9-3.5-10.4-9.4-7.1-17.3c3.8-9.2,7.5-18.5,11.1-27.2c-1.3-1.5-2.4-2.7-3.5-3.9
	c1.5-0.4,2.9-1.1,4.4-1.3c9.2-1.6,18.4-2,26.8,5.6c0.1-2.4-0.2-3.9,0.3-5.1c1-2,2.3-4.9,3.8-5.2c3.4-0.5,4.1,2.4,4,5.4
	c0,2.3,0,4.6,0,7.6c11.1-3.8,19.9,0.8,28.5,6.1c1.2,0.7,2,1.8,3.1,2.8c-1,0.9-2.1,1.8-3.2,2.8c3.9,9.6,7.7,19.4,11.9,28.9
	c1.6,3.6,1,6.2-1.2,9.1c-5.9,7.7-15.5,9.3-22.7,3.8c-6-4.6-6.9-7.9-4-14.8C67.4,46.4,71.4,36.6,75.5,26.6L75.5,26.6z M17.5,19.6
	C13.3,30,9.7,38.9,6,48h23C25.2,38.7,21.6,29.8,17.5,19.6z M76.9,33.6C72.7,43.9,69.1,52.8,65.3,62h23.1
	C84.7,52.8,81.1,43.9,76.9,33.6z"/>
<path class="st0" d="M70.8,97.2H24.1c-0.8-5.2,1-7.8,5.9-7.8c11.5-0.1,23-0.1,34.5,0C69.1,89.5,71.1,92.2,70.8,97.2L70.8,97.2z"/>
</svg>
