<?xml version="1.0" encoding="utf-8"?>
<!-- Generator: Adobe Illustrator 27.6.1, SVG Export Plug-In . SVG Version: 6.00 Build 0)  -->
<svg version="1.1" id="Lager_1" xmlns="http://www.w3.org/2000/svg" xmlns:xlink="http://www.w3.org/1999/xlink" x="0px" y="0px"
	 viewBox="0 0 2340 1861.8" style="enable-background:new 0 0 2340 1861.8;" xml:space="preserve">
<style type="text/css">
	.st0{fill:#EFBD29;}
</style>
<g>
	<path class="st0" d="M2132.2,922c-59.8-33.2-124.1-56.3-189.1-75.4c-38.9-11.4-78.2-21.4-116.9-31.3c-11.7-3-23.4-6-35.1-9
		c-9.1-2.3-18-4.6-27-6.9c2.2,2.7,4.2,5.6,6.1,8.6c3.9,6.3,7.4,13.3,10.5,20.6c5.5,13,9.6,27.3,11.8,41.4
		c2.3,14.6,0.9,25.7-12.8,36.2c-8.3,6.3-16.9,12.3-25.6,18.1c-0.6,0.4-1.1,0.8-1.7,1.2c-0.3,0.2-0.6,0.4-0.9,0.6
		c0.4,0.1,0.7,0.1,1.1,0.2c0.8,0.1,1.5,0.2,2.3,0.3c2.3,0.3,4.6,0.6,6.9,1c131.2,17.5,249.7,31.6,370.4,27.9
		c4.6-0.1,9.5-0.4,13.7-1.9s8.8-5.4,9.4-10C2155.4,942.7,2155.7,935.1,2132.2,922z"/>
	<path class="st0" d="M908.8,293.5c25.1,37.7,26.6,97.9,27.8,141.9l0.2,7.7c0.4,14,0.2,27.9-0.5,41.3c-0.8,14.1-2.1,28-4.1,41.4
		c-2.1,14-4.8,27.7-8.2,40.8c-1.6,6.3-3.4,12.6-5.3,18.7c-1.1,3.6-2.4,7.2-3.6,10.8l-0.4,1.1l-0.3,1c4.7,0,9.3,0,13.9,0
		c2.3,0,4.6,0,6.9,0c1.1,0,2.2,0,3.3,0c3.9,0,7.8-0.1,11.7-0.1c3.1-0.1,6.4,0,9.5,0c1.6,0,3.1,0,4.7,0.1c16.4,0.2,32.2,0.5,47.6,1.1
		c0.1,0,0.2,0,0.3,0h0.1c7.3,0.3,14.5,0.6,21.7,0.9c2.6,0.1,5.1,0.3,7.6,0.4c4.7,0.3,9.4,0.5,14,0.8c1.1,0.1,2.2,0.1,3.3,0.2
		c2.8,0.2,5.6,0.4,8.4,0.6c1.7,0.1,3.4,0.2,5,0.4c5.8,0.4,11.6,0.9,17.3,1.4c47.4,4.2,97.3,10.2,161.7,19.4
		c3.8,0.5,7.6,1.1,11.5,1.7c79.1,11.6,150,23.3,216.7,35.8c56.9,10.6,123.9,23.6,189.9,39.4c4,1,7.9,1.9,11.8,2.9
		c1.2,0.3,2.5,0.6,3.7,0.9c2.6,0.7,5.3,1.4,7.8,2c1.4,0.4,2.8,0.8,4.2,1.1c2.4,0.6,4.8,1.3,7.2,2c1.4,0.4,2.7,0.8,4.1,1.1
		c2.6,0.7,5.2,1.5,7.7,2.2c1,0.3,2,0.6,3,0.9c3.4,1,6.8,2,10.1,3.1c1.1,0.4,2.2,0.7,3.4,1.1c2.2,0.7,4.5,1.4,6.7,2.1
		c1.4,0.5,2.7,0.9,4.1,1.4c1.9,0.6,3.8,1.3,5.7,2c1.4,0.5,2.8,1,4.2,1.5c1.9,0.7,3.7,1.3,5.5,2c1.3,0.5,2.6,1,3.9,1.4
		c2.4,0.9,4.7,1.8,7,2.7c1.6,0.6,3.1,1.2,4.7,1.8c1.9,0.8,3.9,1.6,5.8,2.3c1.4,0.6,2.7,1.1,4,1.7c1.5,0.7,3.1,1.3,4.6,2
		c1.4,0.6,2.8,1.2,4.1,1.8c1.5,0.7,2.9,1.3,4.4,2c1.3,0.6,2.7,1.2,4,1.9c1.5,0.7,3,1.5,4.5,2.2c1.2,0.6,2.4,1.2,3.6,1.7l0,0l0,0
		c5.6,2.8,11.1,5.7,16.5,8.7c2.8,1.6,5.6,3.1,8.4,4.8c0-1.6,0-3.2,0-4.8c0-4.5,0.1-8.9,0.2-13.4c0.2-4.6,0.4-9.2,0.8-13.8
		c5.4-68.9,36.7-152.7,85.9-230c6.7-10.5,16-19.9,25.1-29c11.6-11.7,22.6-22.8,28-35.6c3.9-9.3,3.3-16.7,2.9-19.4
		c-4.7-30.2-48.2-50.6-74.2-62.8l-2.9-1.4c-201.3-94.5-448.5-155.8-696.3-172.5c-94.9-6.4-184-2.3-264.7,12.2
		c-2.1,0.4-4.3,0.7-6.4,1.1c-18.2,3.1-35.4,6-45.3,21.4c-2,3-6.5,11.2-6,21.7c0.3,7.2,2.8,12.3,7.2,20.5
		C900.5,278.5,907,290.7,908.8,293.5z"/>
	<path class="st0" d="M914.1,633.8c2.2,0.2,4.4,0.4,6.6,0.6c152.2,13.5,311.8,36.7,483.8,70.7c11.6,2.3,23.3,4.6,35,7
		c8.1,1.6,16.1,3.3,24.3,5c80.1,16.7,162.9,35.6,248.9,56.8c11,2.7,22,5.5,33.1,8.3c16,4,32.1,8.1,48.4,12.3c11.7,3,23.4,6,35,9
		c45.9,11.7,92.5,23.6,138.6,37.8l-129.6-63c-0.1,0-0.1-0.1-0.2-0.2s-0.2-0.1-0.3-0.2c-44.6-27.8-97.3-48-170.9-65.7
		c-65.7-15.8-132.6-28.7-189.3-39.3c-66.6-12.4-137.3-24.1-216.2-35.7c-3.8-0.6-7.6-1.1-11.4-1.7c-4.3-0.6-8.6-1.2-12.8-1.8
		c-1.3-0.2-2.5-0.3-3.8-0.5c-2.9-0.4-5.9-0.8-8.7-1.2c-1.4-0.2-2.8-0.4-4.2-0.6c-2.7-0.4-5.4-0.7-8.1-1.1c-1.3-0.2-2.6-0.4-3.9-0.5
		c-2.8-0.4-5.5-0.7-8.2-1.1c-1.2-0.2-2.4-0.3-3.5-0.5c-2.9-0.4-5.8-0.7-8.6-1.1c-0.9-0.1-1.8-0.2-2.7-0.3c-3.4-0.4-6.8-0.9-10.1-1.3
		c-0.3,0-0.6-0.1-1-0.1c-7.6-0.9-15.1-1.8-22.4-2.7c-3.9-0.5-7.7-0.9-11.5-1.3c-0.5-0.1-1.1-0.1-1.6-0.2c-3.5-0.4-7-0.8-10.4-1.1
		c-0.3,0-0.7-0.1-1-0.1c-7.8-0.8-15.4-1.6-23-2.3c-5.2-0.5-10.4-1-15.5-1.4c-40.1-3.6-82.3-5.5-129.1-5.9c-3.1,0-6.2,0-9.4,0
		c-5,0-10,0-14.9,0.1c-2.7,0-5.6,0-8.4,0l0,0c-0.1,0-0.3,0-0.4,0c-2.1,0-4.3,0-6.4,0c-0.1,0-0.2,0-0.4,0c-4.2,0-8.4,0-12.7-0.1
		l-132.5,14c43.8,2.1,88.1,5.1,132.9,8.9C909.7,633.4,911.9,633.6,914.1,633.8z"/>
	<path class="st0" d="M630.9,721.8c59.9,23.2,122,36.1,169.5,44.8c1.7,0.3,3.4,0.6,5.1,0.9c0-1.5,0.6-2.9,1.6-4l12.8-13.9
		c0,0,0,0,0.1-0.1c21.3-22.5,42-44.7,59.8-68.4c4.7-6.3,8.9-13,12.9-19.9c3.1-5.3,6-10.7,8.8-16.2c-35.5-3-70.7-5.3-105.5-7.3
		c-21.4-1.2-42.7-2.2-63.9-3c-7.7-0.3-15.3-0.4-23-0.4c-26.1,0-52,1.6-77.1,4.9c-1.9,0.2-4.2,0.5-6.9,0.8c-17.7,2-54.6,6-65.6,20
		c-2.4,3.1-3.3,6.3-2.9,10.2C559.5,694.2,613.3,715,630.9,721.8z"/>
	<path class="st0" d="M1525.1,872.3c12.2-3.9,24.3-8.3,36.4-13.6c28.6-12.5,56.1-28.4,82.9-44.9c12-7.4,23.8-14.9,35.5-22.4
		c4.8-3.1,9.7-6.2,14.5-9.2c-69.6-17-137-32.5-202.6-46.5c23.1,18.5,37.3,40.4,42.4,65.5c0,0.2,0.1,0.4,0.1,0.6
		c5.4,27.6-1.1,51.4-1.4,52.4C1532.2,856.6,1530.9,861.1,1525.1,872.3z"/>
	<path class="st0" d="M1010.9,832.3c-51.1,0-92.7,47.5-92.7,105.9s41.6,105.9,92.7,105.9c51.1,0,92.7-47.5,92.7-105.9
		S1062,832.3,1010.9,832.3z"/>
	<path class="st0" d="M1089.2,827.4c-3.3-2.8-6.6-5.4-10.1-7.9c-4.5-3.2-9.3-6.1-14.2-8.6c-16.4-8.5-34.7-13.3-54-13.3
		c-5.9,0-11.6,0.5-17.3,1.3c-5.4,0.8-10.7,2-15.9,3.6c-4,1.2-8,2.6-11.8,4.2c-48.1,20.1-82.4,71.5-82.4,131.5
		c0,77.5,57.2,140.6,127.4,140.6c70.3,0,127.4-63.1,127.4-140.6C1138.3,893.2,1119.1,853.1,1089.2,827.4z M1010.9,1056.3
		c-57.9,0-104.9-53-104.9-118.1s47.1-118.1,104.9-118.1c57.9,0,104.9,53,104.9,118.1S1068.8,1056.3,1010.9,1056.3z"/>
	<path class="st0" d="M1169.4,1462.8c0.7,0,1.4,0.1,2,0.1c6.6,0.3,10.7,0.1,14.9-0.3c82.2-7.9,137.3-41.7,169-68.7
		c37.3-31.7,58.4-67.2,67.4-82.3c11.6-19.4,29-48.8,37.7-90.1c7.1-33.8,4.7-63.5-0.1-122.8c-1.1-14.2-2.3-25.2-3.4-34.9
		c-0.9-7.9-1.6-14.7-2.1-21.3c-12,1.6-23.9,3-35.7,4.3c-9.6,1.1-19.3,2.2-28.9,3.4c-0.3,0-0.5,0-0.8,0c-3,0-5.6-2.2-6.1-5.3
		l-16-109.9l-0.3-2l-0.3-2l-3.4-23.4c-0.2-1.6,0.2-3.3,1.2-4.6c1-1.3,2.5-2.2,4.1-2.4c5.6-0.7,11.3-1.4,16.9-2.1
		c22.9-2.9,45.2-5.7,67.2-9.4c5.8-1,11.6-2,17.3-3.1c5.4-1,10.8-2.1,16.2-3.3c7.4-1.6,14.7-3.4,22-5.4
		c10.3-18.2,11.9-23.9,12.7-26.6c0.1-0.2,6.1-22.2,1-47.2c-0.2-1.1-0.5-2.2-0.8-3.3c-6.9-28.4-27.7-52.4-62-71.5
		c-195.5-40.6-374.7-67.7-544.8-82.5c-3.1,6-6.3,12.1-9.6,18c-4.7,8.3-9.7,16.6-15.5,24.3c-18.2,24.3-39.1,46.7-60.7,69.5
		l-10.6,11.4c0,0.1,0.1,0.2,0.1,0.4c0.5,2.1,1,4.3,1.4,6.4c0.5,2.2,1,4.3,1.5,6.5c6.3,30.1,9.4,60.3,9.2,90.1
		c-0.2,43.5-7.1,61.9-12.2,72c-14.3,27.9-37.2,42.4-50.9,51.1c-48.3,30.6-72.5,45.9-136.8,73.5c-70.5,30.3-120,65-152.8,87.9
		c-102.1,71.4-162,151.8-183.1,183.1c-44.3,65.7-66.8,125.3-77.6,153.9c-13.3,35.1-24.1,71.3-32.5,107.9
		c16.6-23.5,34.3-46,55.6-66.8c34.5-33.8,74.8-64.1,123.1-92.9c34.4-20.5,61-32.1,94.7-46.9c20.5-9,58.5-25.6,110.2-41.9
		c74.8-23.6,146.1-36,217.8-37.9c48.4-1.3,99.7,0.6,166.3,6c9.7,0.8,19.8,1.9,29.5,3c40.8,4.5,83,9.2,120.1-6.8
		c10.3-4.4,25.8-11.1,38.6-25.6c14.8-16.8,21.2-37.7,17.8-58.9c-3.8-24.1-19.8-46.6-42.8-60.2c-3.6-2.1-7.2-4.2-10.9-6.3
		c-16.7-9.7-33.9-19.8-49.8-31.6c-18.7-13.9-35.9-29.6-51.9-44.6c-73.4-4.4-131.9-71.2-131.9-152.6c0-58.4,30.1-109.2,74.1-134.9
		c2.9-1.7,5.9-3.3,8.9-4.7c3.4-1.6,6.8-3.1,10.3-4.5c14.5-5.6,30.1-8.7,46.4-8.7c31.3,0,60.3,11.4,83.6,30.5c3,2.4,5.8,5,8.6,7.7
		c2.5,2.4,4.9,4.8,7.2,7.4c24.9,27.6,40.3,65.5,40.3,107.3c0,80.6-57.3,146.8-129.7,152.4c13,12,26.8,24.1,41.4,34.9
		c15.4,11.4,32.3,21.3,48.7,30.9c3.6,2.1,7.3,4.2,10.9,6.4c26.1,15.4,44.3,41.1,48.7,68.8c3.9,24.9-3.4,49.4-20.7,69
		c-14.6,16.5-31.6,23.9-42.9,28.7c-40.1,17.3-84,12.4-126.4,7.7c-10.1-1.1-19.6-2.2-29.2-3c-66.1-5.4-117-7.2-165-6
		c-70.6,1.9-140.8,14.1-214.5,37.3c-51,16.1-88.7,32.6-109,41.5c-33.3,14.6-59.7,26.1-93.4,46.2c-47.4,28.2-86.9,58-120.8,91.1
		c-18.4,17.9-34,37.3-48.7,57.5c15.3-14.2,31.2-28,47.5-41.2c23-18.6,71.9-55.5,140.5-93.7c53.7-29.9,96.7-47.7,117.6-55.7
		c26.9-10.3,48.1-18.4,77.4-24c32.9-6.3,65.2-7.3,111.4-3.6c44.2,3.6,71.7,9.1,117.2,18.4c9.5,1.9,19.7,4,31.1,6.3
		c27.1,5.4,75.5,13.9,172,30.7c95.7,16.7,133.4,22.3,152.4,23.7C1168.1,1462.7,1168.8,1462.8,1169.4,1462.8z"/>
	<path class="st0" d="M1515.8,887.9c-2.6,0.7-5.1,1.4-7.7,2.1c-2.1,0.6-4.2,1.1-6.3,1.6c-0.7,0.2-1.4,0.4-2.1,0.5
		c-4.3,1.1-8.7,2-13.1,3c-32.4,7-65.4,11.2-99.5,15.5c-3.5,0.4-7.1,0.9-10.7,1.3l2.3,15.7l0.3,2l0.3,2l15.3,105.4
		c7.7-0.9,15.3-1.8,23-2.7c12-1.4,24.2-2.8,36.5-4.4c2-0.3,4.1-0.5,6.1-0.8c2.1-0.3,4.1-0.6,6.1-0.9c11.3-1.6,22.5-3.4,33.6-5.7
		c46-9.3,92.3-25.5,141.7-49.5c22.4-10.9,48.5-24.1,74.7-39.6c2.8-1.6,5.6-3.3,8.4-5c2.7-1.6,5.4-3.3,8.1-5
		c4.3-2.7,8.6-5.5,12.9-8.3c0.6-0.4,1.2-0.8,1.7-1.2c0.6-0.4,1.1-0.8,1.7-1.1c7.8-5.3,15.5-10.7,23-16.4c8.4-6.4,10.1-11.7,8.1-24.5
		c-2.4-15.4-7.3-31.1-13.8-44.8c-2.1-4.4-4.4-8.7-6.8-12.6c-4.5-7.2-11.2-15.3-19.1-21c-9.4-2.4-18.7-4.7-28-7
		c-2.8,0.7-5.5,1.9-8.1,3.6c-6,3.8-12,7.7-18.1,11.5c-7.4,4.7-14.9,9.5-22.4,14.2c-31.3,19.7-63.6,39.1-97.7,54
		c-16.5,7.2-33.1,13-49.8,17.7C1516.3,887.7,1516.1,887.8,1515.8,887.9z"/>
	<path class="st0" d="M1814.2,1289.6c-8.6-0.1-19.3-0.2-31.3-5.3c-35.9-15.1-40.5-52.5-38.1-81.2c1.7-20.3,3.9-40.8,6.1-60.7
		c2.9-26.9,6-54.7,7.7-82.2c0.5-7.7,1.1-15.5,1.8-23.4c2.7-32.6,5.4-66.2-1.7-97.3c-0.7-0.1-1.4-0.2-2.2-0.3
		c-0.7-0.1-1.4-0.2-2.1-0.3c-6.2-0.9-12.5-1.7-18.7-2.6c-30.9,19.1-62.3,35.1-88.5,47.9c-50.3,24.5-97.6,41-144.6,50.5
		c-11.7,2.4-23.6,4.3-35.5,6c0.5,6.6,1.2,13.6,2.1,21.6c1.1,9.8,2.3,20.9,3.4,35.2c4.9,60.5,7.3,90.8-0.1,126.4
		c-9.1,43.3-27.2,73.8-39.2,93.9c-9.3,15.7-31.1,52.3-70,85.4c-33.1,28.1-90.5,63.4-175.8,71.6c-4.9,0.5-9.7,0.8-17.5,0.3
		c-0.7,0-1.3-0.1-2-0.1s-1.3-0.1-2.1-0.1c-3.8,28.7-9.9,56.9-22.1,85c-3.3,7.5-6.3,13.8-9,19.3c-7.3,15.2-11.4,23.6-7.4,31.7
		c5.1,10.4,20.8,13.7,40.3,13.7c12.4,0,26.3-1.3,39.9-3c114.1-13.9,192.8-39.6,193.5-39.8c69.5-22.9,136.4-50.6,198.9-82.3
		c50.3-25.5,76.6-43.1,129-78.2c0.4-0.3,44.1-29.9,96.4-101.9c7.7-10.5,10-18.6,7-24.1C1829.4,1289.8,1822.7,1289.7,1814.2,1289.6z"
		/>
</g>
</svg>
