<?xml version="1.0" encoding="utf-8"?>
<!-- Generator: Adobe Illustrator 27.6.1, SVG Export Plug-In . SVG Version: 6.00 Build 0)  -->
<svg version="1.1" id="Lager_1" xmlns="http://www.w3.org/2000/svg" xmlns:xlink="http://www.w3.org/1999/xlink" x="0px" y="0px"
	 viewBox="0 0 847 839.2" style="enable-background:new 0 0 847 839.2;" xml:space="preserve">
<style type="text/css">
	.st0{fill:#5C69AC;}
</style>
<g>
	<g>
		<path class="st0" d="M616.2,167.6c0,19.5-3.2,38.2-9.7,56.3c-6.4,18-14.9,35.4-25.5,52c-10.6,16.7-22.6,32.5-36.1,47.6
			c-13.5,15-27.3,29.2-41.3,42.6s-27.8,25.9-41.3,37.7c-13.5,11.7-25.4,22.4-35.7,32c-7.5,6.9-11.5,13.6-12,20.1
			c-0.5,6.4,1.2,12.5,5.2,18.1s9.6,10.7,16.8,15.4c7.2,4.6,14.6,8.6,22.2,11.9s14.7,5.9,21.4,7.7c6.7,1.8,11.7,2.7,15.1,2.7
			c4.9,0,9.8-0.2,14.9-0.7c5-0.5,10.4-1.6,16-3.2c-10.6,8.9-21.2,18.3-32,28s-21.8,18.6-32.8,26.5c-11.1,7.9-22.3,14.5-33.8,19.8
			s-23.1,7.9-34.9,7.9c-6.9,0-14.8-1.2-23.6-3.5c-8.8-2.3-17.1-5.9-24.9-10.9c-7.9-5-14.4-11.2-19.7-18.6c-5.3-7.4-7.9-16.4-7.9-27
			c0-7.9,2.3-16.5,6.9-25.8c4.6-9.2,12.4-18.5,23.2-27.8c10.8-9.6,22.7-19.7,35.7-30.5c13-10.7,26.1-22.1,39.2-33.9
			c13.1-11.9,25.9-24.5,38.4-37.9s23.5-27.5,33-42.4s17.2-30.5,23-46.8c5.8-16.4,8.7-33.5,8.7-51.3c0-23.1-4.6-43-13.7-59.7
			c-9.1-16.7-20.7-30.4-34.7-41.1c-14-10.7-29.3-18.6-45.8-23.5c-16.5-5-32-7.4-46.7-7.4c-10.6,0-20.2,1.2-29,3.5
			s-16.3,6.3-22.6,11.9c-6.3,5.6-11.3,13.1-14.9,22.3c-3.6,9.3-5.4,20.7-5.4,34.2c0,9.3,0.9,18.7,2.7,28.2
			c1.8,9.6,4.8,18.7,8.9,27.3s9.4,16.3,15.8,23c6.4,6.8,14.2,11.8,23.2,15.1c-15.4,11.9-28.7,21.9-39.8,30
			c-11.1,8.1-20.2,14.6-27.4,19.6c-8.5,5.9-15.6,10.4-21.2,13.4c-10.8,4.6-19.9,4.8-27.4,0.5s-13.5-10.9-18.1-19.8s-8-19.2-10-30.7
			c-2.1-11.6-3.1-22.6-3.1-33.2c0-22.5,4.7-43.5,14.1-63.2c9.4-19.7,21.7-37.7,37.1-54c15.3-16.4,32.6-31.1,51.9-44.1
			s38.9-24,58.9-33c19.9-8.9,39.2-15.7,57.7-20.3s34.6-6.9,48.3-6.9c17.8,0,34.7,2.9,50.8,8.7s30.2,14.5,42.5,26.3
			c12.2,11.7,21.9,26.5,29,44.4C612.7,122.5,616.2,143.4,616.2,167.6z M508.1,734c-12.1,10.9-23.9,21.6-35.3,32
			c-11.5,10.4-22.2,19.6-32.2,27.5s-19,14.4-26.8,19.3c-7.9,5-14.1,7.4-18.7,7.4c-4.1-0.7-9.5-3.3-16.2-7.9
			c-5.9-4-13.5-10-22.8-18.1s-20.8-20.1-34.7-35.9l91.1-83.3c14.2,15.9,27.1,27.8,38.8,35.7c11.7,7.9,21.8,13.7,30.3,17.3
			C491.5,732.1,500.4,734,508.1,734z"/>
	</g>
</g>
</svg>
