<?xml version="1.0" encoding="utf-8"?>
<!-- Generator: Adobe Illustrator 27.6.1, SVG Export Plug-In . SVG Version: 6.00 Build 0)  -->
<svg version="1.1" id="Lager_1" xmlns="http://www.w3.org/2000/svg" xmlns:xlink="http://www.w3.org/1999/xlink" x="0px" y="0px"
	 viewBox="0 0 100 94.6" style="enable-background:new 0 0 100 94.6;" xml:space="preserve">
<style type="text/css">
	.st0{fill:#A52527;}
</style>
<g id="Lager_2_00000098207293694548572710000008597705851792264851_">
</g>
<g id="Lager_1_00000126295389633415269300000001945574316149692825_">
	<g>
		<path class="st0" d="M6.6,44.3c-2.6,1.5-4.1,4.3-3.7,7.6c0.6,3.9,4.1,6.7,8.2,6.7h24.7c-0.2,0.6-0.4,1.1-0.7,1.9
			c-1.5,3.7-4.3,10.8-4.3,17.9c0,8,5.6,12.9,9.5,13.2c2.4,0.2,4.3-1.3,4.7-4.1c0.7-5,4.1-12.5,5.4-15.5c0.4-0.9,0.9-1.7,1.5-2.4
			c2.2-2.6,8-8.9,13.4-12.7c0-0.2,0-0.4,0-0.7V8.5c0-0.4,0-0.7,0.2-1.3c-9.3-2.8-17.9-4.1-27-4.1H17.3c-3.7,0-7.1,2.4-7.8,6.1
			c-0.6,3,0.6,5.8,2.4,7.5c-3.4,0.7-6,3.9-6,7.5c0,2.2,1.1,4.5,2.6,5.8c-3.4,0.7-6,3.9-6,7.5C2.6,40.6,4.1,43,6.6,44.3z"/>
		<path class="st0" d="M76.2,60.5h16.6c2.2,0,4.3-1.9,4.3-4.3V8.5c0-2.2-1.9-4.3-4.3-4.3H76.2c-2.2,0-4.3,1.9-4.3,4.3v47.7
			C72.1,58.5,74,60.5,76.2,60.5z M84.6,11.9c2.4,0,4.5,2,4.5,4.5s-2,4.5-4.5,4.5s-4.5-2-4.5-4.5C80.1,13.7,82.2,11.9,84.6,11.9z"/>
	</g>
</g>
</svg>
