<?xml version="1.0" encoding="UTF-8"?><svg id="Lager_1" xmlns="http://www.w3.org/2000/svg" viewBox="0 0 181.42 252.28"><defs><style>.cls-1{fill:#d57c50;}.cls-1,.cls-2{stroke-width:0px;}.cls-2{fill:#fff;}</style></defs><path class="cls-1" d="M18.29,141.94c-.82,1.8-2.22,2.62-4.13,2.09-2.05-.57-4.02-1.46-4.47-3.86-.12-.65.15-1.55.56-2.07.61-.77,1.46-1.39,2.3-1.92,2.97-1.87,2.99-1.84,1.88-5.06-.1-.29-.33-.61-.28-.87.13-.68.37-1.34.57-2.01.56.31,1.27.49,1.64.95.86,1.09,1.46,2.39,2.36,3.44.27.32,1.5.38,1.75.09,4.37-5.12,8.68-10.29,12.94-15.5.53-.65.84-1.58,1.03-2.42.49-2.3,1.77-2.93,3.92-2.48,1.44.3,4.2.14,4.36-.4.51-1.73.16-3.75-.06-5.64-.03-.26-1.21-.38-1.85-.58-3.36-1.07-6.96-1.72-10.01-3.37-2.3-1.24-3.9-3.77-6.08-5.99,0,1.13-.04,2.21.01,3.29.07,1.42-.59,1.78-1.87,1.46-1.76-.43-3.54-.83-5.46-1.27.91-1.4,1.87-2.87,2.94-4.52-2.55-.22-4.18.6-5.1,2.83-.89,2.14-2.19,3.92-4.86,4.5-.06-.52-.12-.97-.19-1.53-.39.13-.77.26-1.21.41.17-.84.32-1.58.52-2.58-.75.29-1.26.49-2.11.81.49-.98.83-1.67,1.26-2.53-.74.13-1.31.22-2.52.43,1.24-1.43,2.25-2.36,2.96-3.47.86-1.33,1.8-2.76,2.13-4.26.96-4.38,4.76-6.08,8.64-3.66.38.24.72.52,1.08.79.19-.12.38-.24.57-.37-.82-1.54-1.64-3.08-2.43-4.57,2.35-.59,4.82-1.21,7.55-1.9-.42,1.41-.93,2.9-1.28,4.44-.16.72,0,1.51.03,2.26.53-.46,1.05-.92,1.58-1.37,2.24-1.94,4.47-3.87,6.7-5.81-.62.68-1.39,1.28-1.82,2.07-.5.93-.7,2.01-1.03,3.03,1.05-.14,2.1-.26,3.14-.44,1.82-.31,3.93-1.4,5.4-.83,3.34,1.31,5.67-1.08,8.48-1.52,1.75-.27,3.4-1.13,5.13-1.54,1.31-.31,2.69-.34,4.04-.5-.03-.22-.05-.45-.08-.67-5.64-2.42-9.72-2.9-14.4-1.72-2.98.75-5.97,1.46-8.95,2.19,3.52-2.9,7.84-3.46,12.12-3.9,4.57-.46,8.92.56,12.95,2.83.54.3,1.07.62,1.62.91.12.07.3.03.91.08.29-2.22.59-4.46.88-6.69,1.63.13,3.23.27,5.07.42-.21.93-.41,1.79-.68,2.94,1.1-.22,2.05-.56,3-.55,1.01,0,2.25.04,2.99.6,1.71,1.29,3.23.94,4.68-.13,2.22-1.64,2.17-1.7,4.98-.99-.48.62-.92,1.2-1.48,1.92.65.18,1.14.31,1.19.33-.11,2.05.9,3.37,2.33,4.79-.57.07-1.01.12-1.66.2.26.7.52,1.37.79,2.09-.63.3-2.39-.23-1.17,1.18-1.8.64-3.5,1.67-5.23,1.73-1.5.05-3.19-.74-4.52-1.6-1.74-1.12-3.41-1.41-5.28-1.04-.07.22-.14.43-.21.65,1.86.79,3.72,1.59,5.59,2.39-1.1,1.41-2.18,2.79-3.32,4.25-1.15-.95-2.23-1.85-3.63-3.01-.88,6.78-4.8,10.78-10.19,13.65-.43.23-.97.98-.88,1.35.5,2.09,1.17,4.15,1.79,6.21.27-.01.55-.02.82-.03.83-.96,1.65-1.92,2.58-3,.58.38,1.31.58,1.53,1.03,1.29,2.67,3.89,3.07,6.29,3.8,5.48,1.66,10.95,3.38,16.48,4.87,1.88.51,3.93.59,5.89.53,9.24-.26,17.17-5.02,25.72-7.69.48-.15.9-.78,1.18-1.28,1.36-2.48,1.99-2.59,3.74-.5.34.41.56.92.86,1.43,2.31-2.11,2.46-4.48,2.55-6.76.02-.51-1.02-1.21-1.7-1.57-3.45-1.77-6.47-4.01-8.29-7.53-.77-1.49-1.23-3.14-1.92-4.95-1.07.94-2.13,1.86-3.28,2.87-1.24-1.35-2.4-2.62-3.7-4.03,1.85-.87,3.74-1.75,5.88-2.75-1.99-1.18-6.04-.19-7.03,1.08-.71.92-1.85,2.03-2.82,2.06-.85.02-1.79-1.3-2.6-2.13-.65-.66-1.16-1.46-1.76-2.24.49-.61.91-1.14,1.52-1.89-.85.11-1.43.19-2.28.3.35-.6.61-1.05.87-1.5-.36-.21-.72-.42-1.37-.79.84-.58,1.44-.99,2.26-1.56-.68-.12-1.2-.2-2.12-.36.91-.67,1.55-1.13,2.32-1.69-.48-.3-.9-.56-1.45-.9.98-1.05,1.74-1.24,2.84-.06,1.91,2.06,3.97,2.23,6.52,1.2,1.45-.59,3.08-.72,4.73-1.08-.18-.55-.43-1.33-.78-2.41,1.83-.27,3.51-.53,5.23-.78.37,2.31.72,4.54,1.08,6.82,13.77-7.63,25.64-6.04,35.9,5.53.22-.05.43-.1.65-.15-.28-1.04-.55-2.08-.86-3.11-.34-1.15-.72-2.3-1.08-3.44,2.69.52,5.13,1,7.59,1.48-.66,1.42-1.43,3.08-2.2,4.74.15.07.31.14.46.21.86-.5,1.67-1.11,2.58-1.46,3.01-1.17,5.73-.41,7.22,2.7,1.75,3.65,4.5,5.29,8.28,5.76.18.02.33.26.73.59-1.15.07-2.04.12-3.28.19.64.47,1.07.78,1.74,1.27-.69.1-1.21.17-1.85.26.19.38.37.73.63,1.26-.74-.06-1.33-.1-2.01-.16.08.5.14.91.21,1.41-.54-.04-.98-.07-1.57-.11.15.91.3,1.78.51,3.04-.89-.54-1.48-.91-2.21-1.35v1.72c-1.98-.19-2.49-1.68-2.96-3.11-1.17-3.52-3.79-5.29-7.88-4.91,1.48,2.02,2.84,3.89,4.19,5.73-1.74.45-3.35.84-4.95,1.28-2.19.6-2.53.34-2.58-2.02-.02-.8,0-1.61,0-2.7-.59.38-.86.45-.93.62-2.82,6.18-8.16,8.58-14.4,9.63-2.47.42-3.29,2.28-2.47,5.67.32,1.31,2.24,2.05,4.09,1.15,2.38-1.15,3.75-.59,4.73,1.77.27.64.99,1.16,1.61,1.57,4.94,3.34,9.93,6.62,14.87,9.96,2.07,1.39,4.06,1.82,6.1-.03.45-.41.98-.83,1.54-1.02.42-.14,1.03-.05,1.41.18.18.11.13.85-.04,1.2-.61,1.28-1.95,2.6-1.79,3.74.14.99,1.95,1.72,2.97,2.63,1.57,1.39,1.54,2.98-.02,4.35-2.25,1.98-5.36,1.52-7.16-.83-1.15-1.49-2.9-2.53-3.98-4.05-3.62-5.13-9.79-6.33-14.52-9.71-.3-.22-.69-.32-1.39-.65.9,12.15,3.56,23.67,7.27,35.54-2.64.56-5.22,1.2-7.83,1.64-4.56.77-4.55.72-4,5.23.15,1.23.2,2.47.29,3.71.25,3.2.25,6.35,3.62,8.41,1.85,1.13,1.21,3.49-1,3.61-3.27.17-6.58-.4-9.87-.7-.67-.06-1.32-.32-2.42-.6.98-1.08,1.58-2.22,2.5-2.63,1.81-.82,1.75-2,1.42-3.57-.74-3.48-1.49-6.97-2.02-10.49-.24-1.58-.93-2.05-2.39-2.1-4.49-.13-8.97-.39-13.46-.47-.54,0-1.35.65-1.6,1.2-1.83,4.01-3.59,8.06-5.28,12.13-.4.98-.42,2.11-.69,3.15-.45,1.71-1.66,2.75-3.36,2.65-3.46-.2-6.38-1.94-9.33-3.51-.03-.26-.07-.52-.1-.78,1.8-.72,3.57-1.59,5.43-2.11,1.49-.42,2.39-1.13,2.87-2.63,1.13-3.53,2.38-7.02,3.37-9.93-4.22-2.33-8.18-4.64-12.26-6.71-1.88-.95-1.38-2.22-.82-3.44.44-.96,1.22-1.79,1.98-2.55,7.27-7.31,10.61-16.72,14.49-26.59-4.65,1.18-8.73,2.22-12.81,3.26-.15.04-.36.1-.4.21-1.86,4.91-6.71,3.15-10.15,4.39-2.35.85-4.46-.99-5.34-3.47-.18-.52-.82-1.13-1.34-1.25-3.91-.87-7.85-1.63-12.47-2.56,1.91,4.15,3.34,7.96,5.34,11.46,3.21,5.63,6.18,11.49,11.52,15.59.7.54,1.26,1.44,1.52,2.29.19.61,0,1.84-.41,2.06-3.84,2.06-7.79,3.94-11.67,5.94-.54.28-.89.93-1.33,1.4-1.21-.08-2.42-.16-4.11-.27,2.52,5.1,4.67,9.46,6.83,13.82.22-.07.45-.13.67-.2-1.03-4.1-2.05-8.19-3.08-12.29,1.23,2.91,2.63,5.77,3.61,8.76.66,1.99,1.68,2.42,3.56,2.07,2.64-.5,5.29-.77,7.29,2.46-3.73,1.09-7.28,2.25-10.89,3.14-1.53.38-4.17-1.61-4.8-3.02-1.91-4.3-3.85-8.59-5.87-12.84-.24-.51-1.03-1.12-1.55-1.1-4.51.19-9.02.5-13.53.8-1.45.1-2.1.93-2.28,2.38-.45,3.61-1.11,7.19-1.49,10.81-.1,1,.59,2.07.7,3.12.08.81.03,2.25-.36,2.4-4.08,1.6-8.18,3.39-12.75,2.12-.2-.06-.35-.28-1.04-.85,1.98-1.49,3.84-2.87,5.66-4.29.56-.44,1.45-.99,1.46-1.51.11-4.69.07-9.39.07-13.88-3.61-.64-7.51-1.34-11.41-2.03,1.91-10.96,5.54-21.14,4.65-32.05-.34.29-.85.67-1.3,1.13-3.43,3.47-6.89,6.92-10.25,10.45-.83.87-1.3,2.09-2.07,3.03-.52.63-1.28,1.05-1.94,1.56.99-1.58,1.99-3.16,2.98-4.74-.2-.18-.41-.36-.61-.54-1.27,4.03-4.4,5.33-8.43,5.68,2.06,1.31,3.72,1.21,5.38.26ZM65.77,121.05c0,.91-.22,1.7.03,2.26,2.19,4.77,4.44,9.52,6.71,14.25,2.42,5.05,1.64,8.54-2.65,12.06-1.37,1.13-2.6,2.42-4.32,4.05,1.1,0,1.4,0,1.71,0,4.94-.13,8.77-3.25,13.13-4.95.33-.13.48-1.59.21-2.21-1.25-2.82-2.57-5.63-4.07-8.32-2.29-4.1-4.72-8.12-7.17-12.13-.98-1.6-2.18-3.07-3.57-5.01ZM146.08,83.01c.09-.29.19-.58.28-.87-6.26-7.6-21.07-9.01-26.68-2.24,1.01.06,1.99.43,2.59.11,2.55-1.36,4.47,1.17,6.94.92,2.01-.21,4.14.85,6.23,1.27.28.06.62-.34.96-.44.43-.12.88-.21,1.32-.22,1.11-.03,2.22,0,3.94,0,1.03.34,2.73.91,4.42,1.48ZM111.09,152.38c-.23-.07-.47-.11-.69-.2-4.07-1.72-6.88-7.66-5.32-11.9,1.99-5.39,4.27-10.68,6.45-16,.62-1.52,1.32-3.02,1.98-4.52-.29-.18-.59-.36-.88-.54-.43.66-.94,1.27-1.27,1.97-3.13,6.62-6.11,13.31-9.38,19.86-1.4,2.8-3.36,5.32-5.26,8.28,4.66,1.29,9.02,3.59,14.36,3.05ZM124.94,112.46c-1.82,1.21-3.34,2.43-5.05,3.3-1.42.72-2.16-.12-2.15-1.64,0-1.16,0-2.33,0-3.5-.22,0-.45,0-.67,0-.36,2.14-2.19,4.52-.25,6.38,1.97,1.89,3.96,0,5.65-1.36.05-.04.15-.01.26-.02.67,1.67-.2,4.18,2.79,4.61,2.76.39,2.77-1.92,3.81-3.95.94,3.87,3.6,4.95,6.48,4.54,1.03-.15,1.74-2.52,2.68-4.03,2.79.66,3.46.17,3.64-3.46-1.6,2.66-3.35.94-4.48.55-1.13,1.77-1.81,4.2-3.17,4.68-3.16,1.11-3.46-2.48-4.83-4.46-.76,1.03-1.23,1.86-1.88,2.5-.55.54-1.3.86-1.97,1.28-.29-.75-.73-1.49-.83-2.27-.14-1.11-.04-2.26-.04-3.14ZM43.2,117.43c-2.26.68-4.07,1.23-5.74,1.73,1.34,1.15,2.95,1.11,5.49-.25,1.1.78,2.11,1.63,3.24,2.28,2.64,1.5,4.5.42,4.62-2.56.02-.48.17-.95.33-1.8,1.68,2.56,4.02,3.87,6.3,2.97,1.4-.56,2.06-3.01,3.3-5.03.34-.21,1.27-.77,2.2-1.33-.1-.18-.21-.35-.31-.53-1.1.29-2.2.59-3.31.89-.36,1.64.4,3.78-2.01,4.47-2.31.66-3.58-.77-4.84-2.33-.34-.42-.88-.68-1.39-1.07-2.36,6.49-2.88,6.62-7.87,2.56ZM112.9,157.82c-.17-.3-.33-.59-.5-.89-.97.27-2.5.25-2.83.87-1.93,3.66-3.59,7.47-5.42,11.42.96.34,1.55.55,2.18.77,2.25-4.18,4.41-8.17,6.57-12.17ZM52.46,83.03c-2.52.02-4.55,1.93-4.56,4.28,0,2.4,2.22,4.5,4.71,4.43,2.41-.06,4.57-2.11,4.6-4.35.03-2.4-2.12-4.39-4.75-4.36ZM40.64,90.15c-.02-2.47-2.1-4.36-4.75-4.31-2.51.04-4.4,1.93-4.4,4.4,0,2.43,1.97,4.33,4.48,4.34,2.58,0,4.69-1.99,4.67-4.43ZM141.22,92.49c2.54-.04,4.51-1.85,4.44-4.08-.07-2.31-2.17-4.07-4.79-4.03-2.45.04-4.26,1.7-4.28,3.95-.03,2.36,2.02,4.2,4.63,4.16ZM135.81,171.44v-13.58c-.99.09-1.79.17-2.57.24.21,8.55.75,11.43,2.57,13.34ZM124.74,89.7c2.42.04,4.36-1.65,4.38-3.81.02-2.15-1.92-4.09-4.15-4.16-2.19-.07-4.31,1.82-4.4,3.92-.09,2.13,1.84,4.01,4.18,4.05ZM67.59,80.08c.03-.11.06-.21.08-.32,1.69.29,3.38.59,5.18.9-2.61-3.96-5.7-4.38-8.4-1.34.53,1.01,1.05,1.99,1.39,2.65,2.13.17,4.05.32,5.97.48.06-.16.13-.32.19-.48-1.47-.63-2.94-1.25-4.41-1.88ZM163.62,89.79c-.97-1.97-.41-4.33-3.2-4.37-2.3-.03-3.87,1.04-4.31,3.06,1.73.46,3.46.92,5.14,1.37-.04-.37-.09-.91-.16-1.57.83.49,1.45.87,2.54,1.52ZM62,93.83c-4.28,2.64-8.28,5.12-12.18,7.53,2.2,1.9,8.67-1.77,12.18-7.53ZM32.35,125.68c-1.64-.34-7.46,4.34-11.67,9.6.81.07,1.76.1,2.26-.36,2.79-2.55,5.48-5.21,8.19-7.85.42-.41.78-.88,1.22-1.39ZM20.43,89.46c-.94-.78-1.48-1.33-2.12-1.73-2.76-1.74-3.49-1.43-4.36,1.7-.14.5-.54.93-.94,1.59.86-.33,1.54-.6,2.26-.88.12.54.24,1.06.38,1.69,1.63-.81,3.04-1.51,4.77-2.37ZM127.41,109.66c.17-2.27.33-4.39.5-6.62-.73-.21-1.36-.39-2.05-.58-.7,2.12-1.35,4.13-2.03,6.2,1.25.35,2.35.66,3.58,1ZM45.18,172.33c2.9-5.47,3.57-11.47,1.5-12.89-.51,4.37-1,8.63-1.5,12.89ZM55.02,111c-.71-2.4-1.33-4.53-1.96-6.65-.27-.05-.55-.1-.82-.15-.29.74-.77,1.47-.84,2.23-.13,1.48-.04,2.98-.04,4.57h3.65ZM162.11,127.66c-.37.42-1.08.88-1.16,1.44-.07.5.45,1.19.87,1.63,1.14,1.2,2.53,2.19,3.52,3.5,1.17,1.54,1.87,1.06,2.61.05-1.95-2.21-3.78-4.28-5.85-6.62ZM123.22,99.29c-.35-.46-.6-1.1-1.06-1.34-2.62-1.38-4.04-3.57-4.93-6.33-.28-.88-1.34-1.52-2.04-2.27.9,4.83,3.34,8.31,8.03,9.95ZM112.2,115.26c-.13-.21-.27-.43-.4-.64-4.94,1.48-9.88,2.97-14.83,4.45l.2.73c.3-.02.61.02.88-.07,4-1.35,7.9-3.04,12.26-3.04.63,0,1.25-.93,1.88-1.43ZM70.11,117.06c-.05.14-.09.28-.14.42.37.2.72.51,1.11.58,3.32.61,6.65,1.23,9.99,1.7.51.07,1.14-.65,1.71-1-.1-.17-.21-.34-.31-.5-4.12-.4-8.24-.79-12.36-1.19ZM105.1,79.69c1.49-.14,3.03-.58,4.45-.33,1.4.25,2.67,1.21,4.25,1.98-1.53-4.27-4.15-4.83-8.7-1.65ZM156.97,96.76c-.65-1.51-1.22-2.84-2.07-4.85-.37,2.29-.62,3.88-.93,5.8,1.29-.41,2.14-.68,3-.95ZM104.88,83.23c1.36-.06,2.58-.05,3.78-.21.42-.06.78-.54,1.17-.82-.38-.28-.73-.75-1.14-.82-1.65-.28-3.06.11-3.8,1.86Z"/><path class="cls-2" d="M73.49,158.62c1.03,4.1,2.05,8.19,3.08,12.29-.22.07-.45.13-.67.2-2.15-4.36-4.31-8.72-6.83-13.82,1.68.11,2.89.19,4.11.27.1.35.21.71.31,1.06Z"/><path class="cls-2" d="M18.29,141.94c-1.66.95-3.32,1.05-5.38-.26,4.03-.35,7.15-1.65,8.43-5.68.2.18.41.36.61.54-.99,1.58-1.99,3.16-2.98,4.74-.22.22-.45.44-.67.65Z"/><path class="cls-2" d="M65.77,121.05c1.39,1.94,2.59,3.41,3.57,5.01,2.45,4.01,4.88,8.03,7.17,12.13,1.5,2.69,2.82,5.5,4.07,8.32.27.62.12,2.08-.21,2.21-4.35,1.7-8.19,4.81-13.13,4.95-.3,0-.61,0-1.71,0,1.73-1.63,2.95-2.93,4.32-4.05,4.29-3.53,5.08-7.02,2.65-12.06-2.27-4.74-4.53-9.48-6.71-14.25-.26-.56-.03-1.34-.03-2.26Z"/><path class="cls-2" d="M33.6,79.79c2.98-.73,5.97-1.44,8.95-2.19,4.67-1.18,8.75-.7,14.4,1.72.03.22.05.45.08.67-1.35.16-2.73.19-4.04.5-1.74.41-3.38,1.27-5.13,1.54-2.81.44-5.13,2.82-8.48,1.52-1.47-.57-3.57.52-5.4.83-1.04.18-2.09.29-3.14.44.33-1.02.53-2.11,1.03-3.03.42-.79,1.2-1.38,1.82-2.07,0,0-.08.08-.08.08Z"/><path class="cls-2" d="M146.08,83.01c-1.7-.57-3.39-1.13-4.42-1.48-1.71,0-2.83-.02-3.94,0-.44.01-.89.1-1.32.22-.34.1-.68.5-.96.44-2.09-.43-4.22-1.48-6.23-1.27-2.47.25-4.39-2.28-6.94-.92-.6.32-1.58-.05-2.59-.11,5.61-6.76,20.42-5.35,26.68,2.24-.09.29-.19.58-.28.87Z"/><path class="cls-2" d="M111.09,152.38c-5.34.53-9.7-1.77-14.36-3.05,1.9-2.96,3.86-5.48,5.26-8.28,3.27-6.55,6.25-13.24,9.38-19.86.33-.7.84-1.32,1.27-1.97.29.18.59.36.88.54-.66,1.51-1.35,3-1.98,4.52-2.18,5.32-4.46,10.61-6.45,16-1.56,4.24,1.24,10.18,5.32,11.9.22.09.46.13.69.2Z"/><path class="cls-2" d="M124.94,112.46c0,.88-.11,2.02.04,3.14.1.78.54,1.51.83,2.27.66-.42,1.42-.74,1.97-1.28.65-.64,1.12-1.46,1.88-2.5,1.37,1.98,1.67,5.57,4.83,4.46,1.36-.48,2.04-2.91,3.17-4.68,1.12.39,2.88,2.11,4.48-.55-.18,3.63-.84,4.12-3.64,3.46-.95,1.51-1.65,3.88-2.68,4.03-2.88.41-5.54-.67-6.48-4.54-1.04,2.02-1.06,4.34-3.81,3.95-2.99-.42-2.12-2.93-2.79-4.61-.11,0-.21-.02-.26.02-1.69,1.37-3.68,3.25-5.65,1.36-1.93-1.86-.1-4.24.25-6.38.22,0,.45,0,.67,0,0,1.17,0,2.33,0,3.5-.01,1.52.73,2.36,2.15,1.64,1.71-.86,3.23-2.09,5.05-3.3Z"/><path class="cls-2" d="M43.2,117.43c4.99,4.05,5.51,3.93,7.87-2.56.51.39,1.05.65,1.39,1.07,1.26,1.56,2.53,2.99,4.84,2.33,2.4-.69,1.64-2.82,2.01-4.47,1.12-.3,2.22-.59,3.31-.89.1.18.21.35.31.53-.93.56-1.86,1.13-2.2,1.33-1.24,2.02-1.9,4.48-3.3,5.03-2.27.9-4.62-.41-6.3-2.97-.16.85-.31,1.32-.33,1.8-.12,2.98-1.98,4.06-4.62,2.56-1.13-.64-2.14-1.49-3.24-2.28-2.54,1.36-4.15,1.39-5.49.25,1.67-.5,3.48-1.05,5.74-1.73Z"/><path class="cls-2" d="M112.9,157.82c-2.16,4-4.31,7.99-6.57,12.17-.63-.22-1.22-.43-2.18-.77,1.83-3.94,3.48-7.75,5.42-11.42.32-.62,1.85-.6,2.83-.87.17.3.33.59.5.89Z"/><path class="cls-2" d="M52.46,83.03c2.62-.02,4.78,1.96,4.75,4.36-.03,2.24-2.19,4.28-4.6,4.35-2.48.07-4.72-2.04-4.71-4.43,0-2.35,2.04-4.26,4.56-4.28ZM55.42,87.55c.02-1.84-.75-3-2.48-3.19-1.72-.19-2.79.75-3.05,2.45-.25,1.62,1,3.18,2.58,3.21,1.73.04,2.68-.93,2.95-2.47Z"/><path class="cls-2" d="M40.64,90.15c.02,2.44-2.09,4.44-4.67,4.43-2.51,0-4.48-1.91-4.48-4.34,0-2.47,1.88-4.36,4.4-4.4,2.65-.05,4.73,1.85,4.75,4.31ZM35.88,87.26c-1.84-.05-3.13,1.12-3.22,2.66-.08,1.57,1.32,3.15,2.84,3.04,1.69-.12,2.77-1.12,2.79-2.82.02-1.68-.91-2.74-2.42-2.88Z"/><path class="cls-2" d="M141.22,92.49c-2.61.04-4.66-1.8-4.63-4.16.03-2.25,1.83-3.91,4.28-3.95,2.62-.04,4.72,1.72,4.79,4.03.07,2.23-1.91,4.05-4.44,4.08ZM140.93,85.42c-1.84.23-2.8,1.27-2.81,3.07,0,1.93,1.29,2.83,2.97,2.81,1.84-.03,2.67-1.39,2.66-3.13-.02-1.8-1.26-2.48-2.82-2.75Z"/><path class="cls-2" d="M135.81,171.44c-1.81-1.91-2.36-4.78-2.57-13.34.78-.07,1.57-.15,2.57-.24v13.58Z"/><path class="cls-2" d="M124.74,89.7c-2.33-.04-4.27-1.92-4.18-4.05.09-2.1,2.22-3.99,4.4-3.92,2.23.07,4.17,2.02,4.15,4.16-.02,2.16-1.96,3.85-4.38,3.81ZM127.54,85.4c0-1.67-1.27-2.91-2.96-2.8-1.76.12-2.63,1.19-2.61,2.88.02,1.71.97,2.72,2.71,2.81,1.66.09,2.87-1.17,2.86-2.9Z"/><path class="cls-2" d="M67.59,80.08c1.47.63,2.94,1.25,4.41,1.88-.06.16-.13.32-.19.48-1.92-.15-3.84-.31-5.97-.48-.35-.66-.86-1.64-1.39-2.65,2.7-3.04,5.79-2.62,8.4,1.34-1.8-.31-3.49-.6-5.18-.9-.03.11-.06.21-.08.32Z"/><path class="cls-2" d="M163.62,89.79c-1.09-.65-1.71-1.02-2.54-1.52.07.67.12,1.2.16,1.57-1.68-.45-3.41-.91-5.14-1.36.45-2.02,2.02-3.1,4.31-3.07,2.79.04,2.23,2.4,3.2,4.37Z"/><path class="cls-2" d="M62,93.83c-3.51,5.75-9.98,9.42-12.18,7.53,3.9-2.41,7.91-4.88,12.18-7.53Z"/><path class="cls-2" d="M32.35,125.68c-.44.51-.8.98-1.22,1.39-2.71,2.64-5.4,5.3-8.19,7.85-.5.46-1.45.43-2.26.36,4.22-5.26,10.04-9.94,11.67-9.6Z"/><path class="cls-2" d="M20.43,89.46c-1.73.86-3.15,1.56-4.77,2.37-.14-.63-.26-1.15-.38-1.69-.72.28-1.4.55-2.26.88.4-.66.8-1.09.94-1.59.87-3.12,1.6-3.43,4.36-1.7.64.4,1.18.95,2.12,1.73Z"/><path class="cls-2" d="M127.41,109.66c-1.23-.35-2.33-.65-3.58-1,.68-2.07,1.33-4.07,2.03-6.2.68.19,1.32.37,2.05.58-.17,2.23-.33,4.35-.5,6.62Z"/><path class="cls-2" d="M45.18,172.33c.5-4.26.99-8.51,1.5-12.89,2.07,1.41,1.4,7.42-1.5,12.89Z"/><path class="cls-2" d="M55.02,111h-3.65c0-1.59-.09-3.09.04-4.57.07-.76.55-1.49.84-2.23.27.05.55.1.82.15.63,2.12,1.25,4.25,1.96,6.65Z"/><path class="cls-2" d="M162.11,127.66c2.07,2.34,3.9,4.42,5.85,6.62-.75,1.01-1.44,1.49-2.61-.05-.99-1.3-2.38-2.3-3.52-3.5-.42-.45-.95-1.14-.87-1.63.08-.56.79-1.02,1.16-1.44Z"/><path class="cls-2" d="M123.22,99.29c-4.69-1.64-7.14-5.12-8.03-9.95.7.75,1.76,1.39,2.04,2.27.89,2.76,2.31,4.95,4.93,6.33.46.24.71.88,1.06,1.34Z"/><path class="cls-2" d="M112.2,115.26c-.63.5-1.25,1.43-1.88,1.43-4.36,0-8.26,1.7-12.26,3.04-.27.09-.59.05-.88.07l-.2-.73c4.94-1.48,9.88-2.97,14.83-4.45.13.21.27.43.4.64Z"/><path class="cls-2" d="M70.11,117.06c4.12.4,8.24.79,12.36,1.19.1.17.21.34.31.5-.57.35-1.2,1.07-1.71,1-3.34-.46-6.67-1.09-9.99-1.7-.39-.07-.74-.38-1.11-.58.05-.14.09-.28.14-.42Z"/><path class="cls-2" d="M105.1,79.69c4.55-3.19,7.17-2.62,8.7,1.65-1.58-.77-2.85-1.73-4.25-1.98-1.42-.25-2.96.19-4.45.33Z"/><path class="cls-2" d="M156.97,96.76c-.87.27-1.72.54-3,.95.31-1.91.56-3.51.93-5.8.86,2.01,1.43,3.34,2.07,4.85Z"/><path class="cls-2" d="M104.88,83.23c.74-1.75,2.15-2.14,3.8-1.86.41.07.76.54,1.14.82-.39.29-.75.77-1.17.82-1.2.16-2.42.15-3.78.21Z"/><path class="cls-1" d="M55.42,87.55c-.27,1.55-1.22,2.51-2.95,2.47-1.57-.03-2.82-1.59-2.58-3.21.26-1.69,1.33-2.63,3.05-2.45,1.73.19,2.49,1.35,2.48,3.19Z"/><path class="cls-1" d="M35.88,87.26c1.51.14,2.44,1.2,2.42,2.88-.02,1.71-1.1,2.7-2.79,2.82-1.52.11-2.92-1.47-2.84-3.04.08-1.54,1.38-2.71,3.22-2.66Z"/><path class="cls-1" d="M140.93,85.42c1.56.27,2.81.95,2.82,2.75.02,1.74-.81,3.1-2.66,3.13-1.69.03-2.98-.88-2.97-2.81,0-1.79.96-2.84,2.81-3.07Z"/><path class="cls-1" d="M127.54,85.4c0,1.73-1.2,2.99-2.86,2.9-1.74-.1-2.69-1.1-2.71-2.81-.02-1.7.85-2.77,2.61-2.88,1.69-.11,2.95,1.13,2.96,2.8Z"/></svg>