<?xml version="1.0" encoding="UTF-8"?><svg id="Lager_1" xmlns="http://www.w3.org/2000/svg" viewBox="0 0 617.63 932"><defs><style>.cls-1{fill:#2b3b87;}.cls-1,.cls-2{stroke-width:0px;}.cls-2{fill:#fff;}</style></defs><path class="cls-2" d="M39.08,631.84c6.99,5.8,4.5,4.51,14.35,8.86s44.6-32.06,44.6-32.06l31.97,16.03,6.05,22.18s.6,18.15.64,21.52-9.6,4.59-9.6,4.59l-10.3,56.36,61.25,37.53,197.88,5.6,110.86-15.51,20.81-48.81-16.59-34.59s-9.94-1.07-9.58-5,4.22-36.49,4.22-36.49l16.65-23.43h26.11l33.67,23.43-1.93,12s11.27-2.73,18.27-12.26,3.71-38.3,3.71-38.3l-84.75-29.51-59.02,57.89-56.37,5.68-183.12-5.68-34.05-27.62-88.91-37.83-43.51,31.4s-.3,38.22,6.69,44.01Z"/><path class="cls-1" d="M450.36,511.68c12-6.99,24.66-11.45,38.2-13.08,29.69-3.58,57.1,2.33,81.03,20.82,26.22,20.27,35.12,50.18,24.76,81.65-3.55,10.78-8.76,20.74-15.93,30.74-.41-3.42-.56-5.99-1.05-8.49-3.69-18.87-20.07-33.3-41.06-36.26-33.61-4.74-60.58,15.62-65.61,49.27-2.75,18.37.08,36.17,4.58,53.88.45,1.75.93,3.5.62,6.23-6.44-4.37-13.35-8.21-19.19-13.27-5.31-4.6-10.73-5.99-17.58-5.98-88.15.19-176.3.15-264.46.06-3.89,0-6.81,1.01-9.91,3.45-7.42,5.85-15.29,11.13-23.64,17.11,2.18-11.58,4.55-21.91,6-32.38,1.91-13.84,1.17-27.61-3.44-40.97-12.21-35.41-55.16-49.15-85.82-27.47-11.36,8.04-16.3,17.06-18.77,34.84-1.04-1.27-1.89-2.13-2.53-3.12-8.53-13.13-15.01-27.11-16.87-42.84-3.46-29.23,7.96-52.3,31.68-68.28,36.12-24.34,74.38-26.6,113.57-6.89.73.37,1.48.71,2.47,1.18,9.72-14.55,14.63-30.61,16.42-47.74,3.25-31.09-2.92-61.05-11.4-90.65-11.3-39.46-27.47-77.12-43.06-114.99-12.61-30.63-25.78-61.07-34.01-93.29-3.89-15.24-6.55-30.66-3.69-46.46,2.06-11.4,7.76-20.41,17.66-26.66,1.35-.85,2.75-1.99,3.51-3.35,10.52-18.83,27.77-24.55,48.65-20.03,3.4.74,6.77,1.61,10.38,2.48.45-.71.96-1.34,1.27-2.06,10.87-24.51,30.52-37.34,56.33-40.81,12.64-1.7,25.56-1.28,38.35-1.94,2.24-.12,4.71-.33,6.62-1.34,22.48-11.92,44.95-11.56,67.63-.58,2.68,1.3,6,1.91,9,1.84,17.56-.42,35.01-.09,51.94,5.32,18.77,5.99,32.48,17.85,40.84,35.77.49,1.05,1.05,2.07,1.59,3.1.07.14.24.23.49.47,5.55-1.09,11.19-2.55,16.92-3.26,17.72-2.19,31.69,3.87,41.15,19.41.93,1.53,1.91,3.33,3.35,4.19,16.42,9.81,20.54,25.39,19.99,42.93-.53,17.13-4.36,33.79-10.36,49.7-12.86,34.1-26.31,67.99-39.82,101.84-14.08,35.26-28.28,70.48-36.93,107.59-6.28,26.95-9.84,54.11-4.55,81.71,2.5,13.02,7,25.27,14.68,36.59ZM410.6,614.95c0-1.24.13-2.06-.02-2.82-3.83-18.87-2.87-37.42,3.5-55.67.59-1.68.27-3.94-.29-5.72-15.52-49.37-17.15-99.51-8.42-150.24,8.51-49.47,25.69-96.07,46.89-141.33,11.93-25.47,24.27-50.76,35.72-76.45,6.72-15.08,11.34-30.96,12.36-47.65,1.26-20.61-8.35-33.76-28.67-37.28-8.75-1.52-17.92-1.5-26.84-1.03-19.97,1.06-38.88-2.04-56.26-12.26-7.32-4.3-14.49-8.9-21.45-13.75-17.31-12.08-35.25-12.84-53.73-3.24-3.67,1.91-6.46,1.78-10.06-.08-18.12-9.34-35.82-8.87-52.88,2.89-4.93,3.41-10.02,6.59-15.01,9.92-19.75,13.21-41.43,18.29-65.07,16.33-7.57-.63-15.37-.31-22.91.69-18.76,2.5-29.64,13.17-30.56,30.01-.38,6.91.1,14.06,1.45,20.84,5.28,26.55,16.44,51,28.71,74.86,22.9,44.54,43.27,90.06,56.2,138.6,16.81,63.07,19.88,126.17.11,189.29-.59,1.88-.47,4.32.18,6.2,5.64,16.42,7,33.16,4.36,50.28-.21,1.36-.03,2.79-.03,4.46,67.98-14.46,135.33-13.44,202.7,3.14Z"/><path class="cls-1" d="M491,673.56c13.68,6.31,22.74,16.51,26.47,30.82,5.59,21.41.74,40.64-14.16,57.02-8.54,9.38-19.6,14.06-32.16,15.42-29.8,3.21-59.53,7.11-89.39,9.61-50.55,4.23-101.21,4.44-151.76.05-28.18-2.45-56.24-6.31-84.32-9.86-23.86-3.02-38.53-17.27-44.91-39.76-6.14-21.65-2.4-41.32,15.42-56.71,3.08-2.66,6.85-4.53,10.9-7.16,0,10.79-.17,20.65.07,30.5.14,5.92-.13,12.16,1.65,17.65,3.77,11.62,12.35,18.8,24.41,21.19,18.11,3.59,36.23,7.24,54.45,10.22,55.04,8.99,110.4,11.28,165.8,4.69,27.72-3.3,55.15-9.04,82.71-13.66,3.11-.52,6.29-.72,9.37-1.39,16.3-3.54,27.05-19.48,25.61-36.12-.91-10.53-.17-21.21-.17-32.48Z"/><path class="cls-1" d="M113.52,766.86c8.34,8.72,18.43,14.13,30.64,16.15-17.68,27.79-17.56,58.22-15.85,88.85.7,12.46,2.16,24.88,3.26,37.32.19,2.11.24,4.23.38,6.62-7.03,0-13.64,0-20.25,0-10.5-26.51-9.42-125.91,1.82-148.95Z"/><path class="cls-1" d="M504.95,766.13c13.78,50.62,8.26,100.11,2.09,149.64h-21.24c1.19-12.72,2.53-25.1,3.47-37.52,1.7-22.46,2.65-44.99-3.46-66.96-2.69-9.66-7.11-18.84-10.83-28.47,10.83-1.76,20.98-7.05,29.98-16.69Z"/><path class="cls-1" d="M480.2,668.52c-2.52-20.24-2.3-40.09,11.61-57,15.81-19.22,47.69-21.45,65.89-4.49,4.1,3.82,7.49,9.08,9.52,14.33,4.53,11.71-1.49,22.31-13.41,25.37-11.86,3.04-23.85-4.6-26.13-16.32-.66-3.37,1.52-7.85-3.61-9.86-7.88-3.09-15.98-5.29-23.33.13-4.25,3.14-8.61,7.57-10.37,12.36-3.75,10.21-5.86,21.03-8.58,31.61-.32,1.26-.25,2.61-.37,3.92-.41-.01-.82-.03-1.23-.04Z"/><path class="cls-1" d="M136.7,668.38c-.62-4.55-.8-9.21-1.97-13.62-1.99-7.52-3.73-15.3-7.11-22.22-6.84-13.94-19.23-17.84-33.6-12.21-3.89,1.52-4,4.01-4.27,7.28-.76,9.21-5.66,15.61-14.36,18.56-8.31,2.82-15.77.8-21.96-5.48-3.88-3.95-5.31-8.56-4.26-14.15,2.75-14.67,14.57-25.96,31.08-29.36,28.7-5.91,53.16,11.71,57.17,42.01,1.26,9.54.2,19.39.2,29.1-.3.03-.61.05-.91.08Z"/><path class="cls-2" d="M410.6,614.95c-67.36-16.58-134.72-17.6-202.7-3.14,0-1.67-.18-3.09.03-4.46,2.64-17.12,1.28-33.86-4.36-50.28-.65-1.88-.77-4.32-.18-6.2,19.76-63.12,16.69-126.22-.11-189.29-12.94-48.54-33.3-94.06-56.2-138.6-12.26-23.85-23.43-48.3-28.71-74.86-1.35-6.79-1.83-13.93-1.45-20.84.92-16.83,11.8-27.5,30.56-30.01,7.54-1.01,15.33-1.32,22.91-.69,23.64,1.96,45.33-3.13,65.07-16.33,4.98-3.33,10.07-6.51,15.01-9.92,17.05-11.77,34.76-12.23,52.88-2.89,3.6,1.86,6.4,1.99,10.06.08,18.47-9.6,36.42-8.84,53.73,3.24,6.96,4.86,14.13,9.45,21.45,13.75,17.38,10.21,36.3,13.32,56.26,12.26,8.92-.47,18.09-.49,26.84,1.03,20.32,3.52,29.93,16.67,28.67,37.28-1.02,16.69-5.64,32.57-12.36,47.65-11.45,25.69-23.79,50.98-35.72,76.45-21.2,45.26-38.38,91.86-46.89,141.33-8.73,50.73-7.11,100.86,8.42,150.24.56,1.78.87,4.04.29,5.72-6.38,18.25-7.34,36.8-3.5,55.67.15.76.02,1.58.02,2.82ZM359.31,177.63c2.19-.67,3.83-1.02,5.33-1.66,6.82-2.91,9.69-11.03,6.28-17.58-3.52-6.77-11.85-9.08-18.42-5.12-6.38,3.85-8.91,13.05-3.72,18.06,4.69,4.52,3.65,8.34,1.88,13.09-1.22,3.27-1.85,6.79-3.32,9.93-.64,1.37-2.67,2.87-4.14,2.95-6.15.33-12.33-.02-18.48.21-2.93.11-4.15-1.03-4.83-3.69-1.12-4.35-2.32-8.69-3.84-12.92-1.18-3.29-.95-5.47,1.89-8.14,4.97-4.66,4.5-12.68-.25-17.56-4.65-4.77-12.03-5.21-17.25-1.02-5.32,4.27-7.15,12.7-2.34,17.28,4.47,4.26,3.39,7.86,1.82,12.33-1.21,3.45-1.84,7.13-3.29,10.46-.6,1.38-2.63,2.95-4.08,3.03-6.31.33-12.66.33-18.97,0-1.42-.07-3.43-1.7-3.97-3.08-1.69-4.32-2.62-8.94-4.21-13.31-1.21-3.3-.96-5.52,1.87-8.14,4.24-3.91,4.49-10.33,1.49-15.19-2.91-4.71-8.61-7.18-13.75-5.96-5.72,1.36-9.94,6.41-10.16,12.14-.21,5.68,3.24,10.66,8.76,12.62,1.34.47,2.73.83,4.34,1.31v61.37h101.36v-61.4Z"/><path class="cls-1" d="M359.31,177.63v61.4h-101.36v-61.37c-1.61-.48-2.99-.83-4.34-1.31-5.53-1.95-8.98-6.94-8.76-12.62.21-5.73,4.44-10.78,10.16-12.14,5.14-1.22,10.84,1.25,13.75,5.96,3,4.86,2.75,11.28-1.49,15.19-2.84,2.61-3.08,4.83-1.87,8.14,1.6,4.37,2.52,8.99,4.21,13.31.54,1.38,2.55,3.01,3.97,3.08,6.31.33,12.66.33,18.97,0,1.45-.08,3.47-1.64,4.08-3.03,1.45-3.33,2.08-7.01,3.29-10.46,1.57-4.47,2.65-8.07-1.82-12.33-4.81-4.59-2.99-13.01,2.34-17.28,5.22-4.19,12.61-3.75,17.25,1.02,4.75,4.88,5.21,12.9.25,17.56-2.84,2.66-3.07,4.85-1.89,8.14,1.51,4.22,2.72,8.57,3.84,12.92.68,2.66,1.9,3.8,4.83,3.69,6.15-.24,12.33.11,18.48-.21,1.47-.08,3.5-1.57,4.14-2.95,1.47-3.14,2.1-6.66,3.32-9.93,1.77-4.74,2.81-8.56-1.88-13.09-5.19-5-2.65-14.21,3.72-18.06,6.57-3.97,14.9-1.65,18.42,5.12,3.41,6.56.54,14.68-6.28,17.58-1.51.64-3.14.99-5.33,1.66Z"/></svg>