<?xml version="1.0" encoding="UTF-8"?><svg id="Lager_1" xmlns="http://www.w3.org/2000/svg" viewBox="0 0 111.13 109.47"><defs><style>.cls-1{fill:#a52527;}.cls-1,.cls-2{stroke-width:0px;}.cls-2{fill:#fff;}</style></defs><path class="cls-1" d="M98.92,3.8c-.73,16.9,1.79,33.62-3.09,49.92-6.38,21.29-18.04,38.71-37.09,50.78-2.38,1.51-4.09,1.63-6.57,0C28.99,89.31,15.82,67.77,12.84,40.49c-1.31-11.97-.22-24.21-.22-36.69h86.3ZM71.74,62.92c-.06-3.91-2.65-6.38-6.71-6.41-3.64-.03-6.82,2.96-6.87,6.46-.05,3.78,3.22,6.84,7.18,6.71,3.9-.12,6.47-2.84,6.41-6.76ZM76.11,35.59c-3.52-.12-6.81,2.89-7.02,6.45-.21,3.44,2.85,6.85,6.39,7.13,3.64.29,7.19-3.05,7.2-6.76,0-3.67-2.89-6.69-6.56-6.82ZM40.93,42.3c-.02-4.02-2.51-6.62-6.43-6.7-4.11-.09-6.77,2.66-6.69,6.91.06,3.58,3.15,6.65,6.72,6.67,3.55.02,6.43-3.06,6.41-6.88ZM48.67,42.24c-.01,3.9,2.71,6.87,6.35,6.94,3.56.06,6.65-2.95,6.75-6.59.11-3.99-2.82-7.07-6.68-7-3.92.07-6.41,2.65-6.42,6.65ZM64.97,15.49c-3.69.03-6.79,2.96-6.82,6.47-.03,3.55,3.04,6.57,6.7,6.61,4.14.04,6.97-2.76,6.88-6.8-.08-3.92-2.65-6.3-6.76-6.27ZM50.78,22.16c0-4.26-2.52-6.72-6.8-6.67-3.9.05-6.39,2.64-6.25,6.62.15,4.17,2.43,6.33,6.56,6.43,3.95.1,6.49-2.47,6.49-6.39ZM29.97,22.11c-.11-4.37-2.61-6.73-6.65-6.62-4.19.11-6.59,2.75-6.42,7.06.16,3.87,2.8,6.19,6.88,5.98,4.28-.22,6.13-2.68,6.18-6.41ZM61.76,84.68c.09-3.67-2.7-6.83-6.22-7.06-3.94-.25-6.88,2.66-6.87,6.81,0,3.95,2.57,6.68,6.39,6.8,3.48.1,6.61-2.95,6.7-6.55ZM44.29,69.7c3.88,0,6.49-2.62,6.48-6.51-.01-4.17-2.08-6.5-6.28-6.67-4.17-.17-6.87,2.56-6.77,6.69.1,3.94,2.69,6.5,6.57,6.5ZM85.98,28.57c3.72-.06,6.67-2.98,6.68-6.6,0-3.88-3.04-6.64-7.16-6.49-3.64.14-6.6,3.25-6.45,6.77.15,3.6,3.21,6.38,6.94,6.32Z"/><path class="cls-2" d="M71.74,62.92c.06,3.93-2.51,6.64-6.41,6.76-3.96.13-7.23-2.93-7.18-6.71.05-3.51,3.23-6.5,6.87-6.46,4.07.04,6.65,2.51,6.71,6.41Z"/><path class="cls-2" d="M76.11,35.59c3.67.13,6.57,3.14,6.56,6.82,0,3.71-3.56,7.05-7.2,6.76-3.54-.28-6.59-3.69-6.39-7.13.21-3.55,3.5-6.57,7.02-6.45Z"/><path class="cls-2" d="M40.93,42.3c.02,3.81-2.86,6.9-6.41,6.88-3.57-.02-6.65-3.09-6.72-6.67-.07-4.25,2.58-7,6.69-6.91,3.92.08,6.41,2.68,6.43,6.7Z"/><path class="cls-2" d="M48.67,42.24c.01-4,2.5-6.58,6.42-6.65,3.86-.07,6.79,3.01,6.68,7-.1,3.63-3.19,6.65-6.75,6.59-3.64-.06-6.36-3.03-6.35-6.94Z"/><path class="cls-2" d="M64.97,15.49c4.11-.03,6.68,2.35,6.76,6.27.09,4.04-2.74,6.84-6.88,6.8-3.66-.03-6.73-3.06-6.7-6.61.03-3.51,3.12-6.44,6.82-6.47Z"/><path class="cls-2" d="M50.78,22.16c0,3.92-2.54,6.48-6.49,6.39-4.13-.1-6.41-2.26-6.56-6.43-.14-3.98,2.35-6.57,6.25-6.62,4.28-.06,6.8,2.41,6.8,6.67Z"/><path class="cls-2" d="M29.97,22.11c-.05,3.73-1.9,6.19-6.18,6.41-4.08.21-6.73-2.11-6.88-5.98-.18-4.31,2.22-6.95,6.42-7.06,4.04-.11,6.54,2.25,6.65,6.62Z"/><path class="cls-2" d="M61.76,84.68c-.09,3.6-3.22,6.65-6.7,6.55-3.82-.12-6.39-2.84-6.39-6.8,0-4.15,2.93-7.06,6.87-6.81,3.53.22,6.31,3.38,6.22,7.06Z"/><path class="cls-2" d="M44.29,69.7c-3.88,0-6.47-2.55-6.57-6.5-.11-4.13,2.59-6.86,6.77-6.69,4.2.17,6.27,2.5,6.28,6.67.01,3.9-2.6,6.51-6.48,6.51Z"/><path class="cls-2" d="M85.98,28.57c-3.73.06-6.79-2.72-6.94-6.32-.15-3.52,2.82-6.63,6.45-6.77,4.12-.16,7.17,2.6,7.16,6.49,0,3.62-2.95,6.53-6.68,6.6Z"/></svg>