<?xml version="1.0" encoding="utf-8"?>
<!-- Generator: Adobe Illustrator 27.6.1, SVG Export Plug-In . SVG Version: 6.00 Build 0)  -->
<svg version="1.1" xmlns="http://www.w3.org/2000/svg" xmlns:xlink="http://www.w3.org/1999/xlink" x="0px" y="0px"
	 viewBox="0 0 100 98.3" style="enable-background:new 0 0 100 98.3;" xml:space="preserve">
<style type="text/css">
	.st0{fill:#EFBD29;}
</style>
<g id="Lager_2">
</g>
<g id="Lager_1">
	<path class="st0" d="M42,62.6c-0.6-0.8-1.3-1.7-2.1-2.5s-1.6-1.5-2.5-2.1c-3.9-2.9-8-4-9.4-2.5l6.2,6.2l-11,11l4.1,4.1l11-11
		l6.2,6.2C46,70.6,44.9,66.6,42,62.6z"/>
	<path class="st0" d="M75.1,24.9c0,0-6.9,2.3-11,6.4c-0.8,0.8-8.4,8.4-14.9,14.9c-6.7-6.5-14.2-14.1-15-14.9c-4.1-4.1-11-6.4-11-6.4
		s2.3,6.9,6.4,11c1,1,8.4,8.4,14.9,14.9C41.3,54,39,56.3,39,56.3c0.8,0.6,1.7,1.3,2.5,2.1s1.5,1.6,2.1,2.5c0,0,2.3-2.3,5.5-5.5
		c3.2,3.2,5.5,5.5,5.5,5.5c0.6-0.8,1.3-1.7,2.1-2.5s1.6-1.5,2.5-2.1c0,0-2.3-2.3-5.5-5.5c6.5-6.5,13.9-13.9,14.9-14.9
		C72.8,31.8,75.1,24.9,75.1,24.9z"/>
	<path class="st0" d="M56.3,62.6c0.6-0.8,1.3-1.7,2.1-2.5s1.6-1.5,2.5-2.1c3.9-2.9,8-4,9.4-2.5l-6.2,6.2l11,11L71,76.8l-11-11
		L53.8,72C52.3,70.6,53.3,66.6,56.3,62.6z"/>
</g>
</svg>
