<?xml version="1.0" encoding="UTF-8"?><svg id="Lager_1" xmlns="http://www.w3.org/2000/svg" viewBox="0 0 204.34 204.34"><defs><style>.cls-1{fill:#fff;}.cls-2{fill:#2b3b87;}</style></defs><path class="cls-2" d="M161.76,50.6c24.39-2.37,30.62,14.2,22.8,34.92,35.06,20.76-10.09,49.58-29.13,60.71-1.5-1.16-.01-1.22.57-1.68,4.14-3.24,9.14-5.92,13.38-9.36,14.84-12.04,30.24-30.43,7.82-44.58,5.44-18.98,2.67-35.13-20.71-33.63-2.06-19.96-15.9-27.29-34.44-20.29-3.23-6.27-10.22-13.13-17.55-13.79-9.14-.82-18.16,7.77-23.3,14.48-17.89-13.18-31.44-.82-33.03,18.49-7.62,1.82-15.48,2.07-19.92,9.48-4.7,7.85-2.37,17.17.3,25.31-30.14,16.63.76,39.31,16.99,51.15-3.57-1.05-7.11-3.55-10.23-5.57-18.09-11.73-45.59-34.72-14.2-50.62-9.19-19.51-.95-36.23,21.48-35.68.52-9.81,6.08-24.49,17.27-25.72,8.11-.89,12.6,2.55,19.73,5.08,9.24-11.65,22.53-20.36,36.44-9.8,3.37,2.56,5.51,6.26,8.66,9.01,19.41-6.24,35.7.35,37.05,22.09Z"/><path class="cls-2" d="M100.55,108.2c32.31-1.92,38.53,45.26,8.25,52.4-38.06,8.97-45.73-50.17-8.25-52.4ZM86.08,124.08c3.66,2.27,13.16-4.47,10.26-9.15-3.16-3.98-13.33,4.7-10.26,9.15Z"/><path class="cls-2" d="M121.28,179.31c-7.65,14.08-30.42,13.46-38.6.01-8.35,6.64-21.1,5.83-29.08-1.08-.84-.73-1.33-2.54-1.93-2.66-1.12-.22-4.95.92-7.23.82-6.38-.27-18.62-7.5-13.63-14.42,2.21-3.07,20.44-7.27,24.89-8.18,3.89-.79,18.96-3.74,21.84-3.17,1.77.35,2.81,3.05,4.04,4.41-11.92,1.66-24.5,2.39-36.17,5.37-2.36.6-9.33,2.58-11.08,3.62-.94.56-1.52.75-1.26,2.04,5.2,1.08,11.02,2.54,16.16.74-1.33,4.4,7.51,5.47,10.75,5.79,6.55.66,14.21-.71,20.51.07,2.84.35,5.52,2.34,8.88,2.88,7.79,1.24,19.69,1.26,27.38-.4,2.54-.55,5.67-2.83,7.18-2.98,5.69-.57,13.68,1.17,20.39.42,3.67-.41,11.85-.94,10.76-5.79,5.46,1.95,11.37.04,16.9-.74.3-1.67-.09-1.17-.94-1.64-2.87-1.58-10.99-3.81-14.47-4.63-10.81-2.55-22.79-3.58-33.84-4.76l3.99-4.89c12.32,2.51,25.2,3.48,37.18,7.47,7.43,2.48,14.96,4.46,8.07,13.23-2.75,3.51-8.47,5.46-12.85,5.57-1.85.05-4.73-.91-5.74-.68-.46.11-4.63,3.96-6.17,4.88-8.66,5.18-17.62,3.77-25.93-1.32Z"/><path class="cls-2" d="M125.67,42.6c-5.87,15.56-12.39,30.61-15.83,47.01-.91,4.34-.98,9.22-2.02,13.42-.18.74-.21,2.21-1.25,2.04.91-21.85,6.39-43.25,13.93-63.65l5.18,1.18Z"/><path class="cls-2" d="M86.71,40.38c6.77,20.34,11.05,41.63,10.29,63.21-1.03-.08-1.29-3.31-1.37-4.13-.21-2.21.14-4.43-.1-6.51-1.97-17.13-7.36-33.51-13.94-49.33l.04-1.69,5.07-1.54Z"/><path class="cls-2" d="M124.93,109.47c-1.45.11-.57-2.22-.4-2.97,3.76-16.48,16.9-33.91,27.24-46.97l4.02,3.96c-12.4,13.62-25.18,28.08-30.85,45.98Z"/><path class="cls-2" d="M81.56,105.8l-5.56-9.49c-7.74-12.01-16.33-23.71-27.49-32.77l4.03-4.03c12.81,12.7,23.23,29.16,29.03,46.29Z"/><path class="cls-2" d="M67.6,128.59c-12.23-11.54-24.07-23.99-38.21-33.09l3.68-4.79,16.55,15.82,17.99,22.06Z"/><path class="cls-2" d="M141.11,129.32c6.66-15.23,18.85-26.8,30.5-38.21,1.09,1.05,3.9,3.44,2.99,5.13-.51.95-13.21,10.31-15.51,12.48-6.66,6.28-11.84,13.84-17.98,20.6Z"/><path class="cls-1" d="M86.08,124.08c-3.07-4.45,7.1-13.13,10.26-9.15,2.9,4.68-6.6,11.42-10.26,9.15Z"/></svg>