<?xml version="1.0" encoding="UTF-8"?><svg id="Lager_1" xmlns="http://www.w3.org/2000/svg" viewBox="0 0 1000 1080"><defs><style>.cls-1{fill:#2b3c87;}</style></defs><polygon class="cls-1" points="583.7 174 529.88 932.33 469.41 931.62 416.3 174 583.7 174"/><path class="cls-1" d="M779.46,98.81l-38.3,119.16h-140.44c.26-5.89-.34-11.89-.06-17.79.49-10.32,4.62-28.94,2.86-38.21-.92-4.84-7.32-8.3-11.95-7.9l-188.11.7c-1.49.45-4.94,2.96-5.69,4.24-5.19,8.78,4.51,46.65,1.51,58.97h-140.44l-38.3-119.16h558.93Z"/><path class="cls-1" d="M254.58,994.66l94.27-80.22,5.65-1.44,94.41.1c3.58,11.53-3.65,36.86,11.98,38.38,25.72,2.5,55.87-1.79,82.07-.39,10.02-2.88,4.29-30.28,8.93-38.09l96.32.11,97.2,81.54v33.34H254.58v-33.34Z"/><polygon class="cls-1" points="783.72 52 783.72 78.25 781.59 80.37 218.41 80.37 216.28 78.25 216.28 52 783.72 52"/></svg>