<?xml version="1.0" encoding="UTF-8"?><svg id="Lager_1" xmlns="http://www.w3.org/2000/svg" viewBox="0 0 288.58 337.49"><defs><style>.cls-1{fill:#2b3b87;}.cls-1,.cls-2{stroke-width:0px;}.cls-2{fill:#fff;}</style></defs><path class="cls-1" d="M144.3,60.88c1.06-2.08,1.82-3.63,2.63-5.15,9.88-18.43,24.4-30.53,45.65-33.35,28.21-3.74,54.81,15.53,59.22,41.84,2.23,13.3-.09,25.77-7.08,37.35-4.11,6.81-8.03,13.71-9.2,21.78-.79,5.46-.31,10.76,1.32,15.41,3.37-.26,6.38-1.03,9.23-.62,6.54.96,10.58,7.56,9.1,14.09-1.33,5.87-7.84,10.04-13.66,8.75-6.56-1.46-10.88-7.88-9.03-14.17.75-2.57.12-3.67-1.85-5.04-11.75-8.2-14.68-19.59-11.99-33.12,1.4-7.06,2.72-14.16,3.41-21.31.6-6.22-1.68-9.59-6.3-11.33-5.9-2.23-11.75-.93-15.37,3.62-4.98,6.24-6.46,13.79-7.15,21.4-.76,8.42-1.01,16.89-1.23,25.35-.49,18.92-4.88,36.78-14.06,53.4-2.25,4.08-1.36,6.05,2.95,6.97,20.31,4.32,40.62,8.65,60.94,12.98.3.06.62.08.92.11,6.72-9.07,13.78-11.05,20.08-5.64,5.28,4.53,5.6,12.55.7,17.59-5.31,5.47-12.97,4.59-19.58-2.52-14.85,8.45-30.72,12.51-48.89,8.65,14.71,12.17,17.61,29,21.23,45.39,9.81,1.47,14.38,6.47,13.29,14.38-.84,6.08-7.08,10.88-13.08,10.05-7.85-1.08-11.55-7.12-10.31-17.02-14.47-6.66-28.97-13.43-39.55-27.65-.38,18.7-7.75,34.25-16.18,49.35,7.09,8.49,7.63,15.14,1.73,20.14-5.16,4.38-12.44,3.94-16.9-1.01-4.88-5.41-3.86-12.63,2.9-18.9-8.33-15.2-15.97-30.8-16.22-49.65-10.48,14.17-24.95,20.97-39.63,27.7.19,1.55.49,3.07.54,4.6.22,6.7-4.71,12.07-11.42,12.51-6.01.39-11.94-4.71-12.54-10.8-.66-6.7,3.85-12.67,10.45-13.25,2.55-.22,3.2-1.13,3.65-3.45,1.05-5.32,2.34-10.61,3.88-15.81,2.98-10.03,7.42-19.26,15.86-26.17-17.33,3.39-33.11-.53-47.92-8.95-9.13,7.47-16.07,7.76-21.02,1.01-3.99-5.45-2.54-13.42,3.12-17.12,6.7-4.37,13.89-1.89,18.66,6.62,6.4-1.58,12.82-3.38,19.34-4.73,13.7-2.84,27.45-5.44,41.18-8.14.51-.1,1.03-.19,1.54-.3,4.29-.92,5.25-2.86,3.14-6.65-6.16-11.06-10.58-22.78-12.34-35.3-1.14-8.14-1.53-16.41-1.88-24.64-.45-10.55-.43-21.16-3.75-31.32-1.05-3.22-2.77-6.31-4.66-9.14-2-2.99-5.15-4.43-8.84-4.64-8.51-.48-13.41,3.79-12.8,12.24.51,6.94,2.12,13.81,3.21,20.71.36,2.27.66,4.55.93,6.83,1.37,11.74-3.72,20.44-12.93,27.1-1.76,1.27-2.4,2.32-1.72,4.59,1.58,5.31-.93,10.76-5.72,13.28-4.74,2.49-10.5,1.53-14.06-2.36-3.69-4.03-4.15-9.95-1.12-14.46,3.05-4.54,8.58-6.33,13.8-4.45.76.28,1.52.58,2.53.98,2.45-6.52,2.93-13.11.81-19.44-2.01-5.98-4.64-11.88-7.84-17.32-8.53-14.52-11.03-29.68-5.74-45.75,6.44-19.54,26.35-34.23,46.97-34.92,26.03-.87,44.1,11.55,56.13,33.91.77,1.43,1.49,2.89,2.53,4.9ZM144.33,129.07c-.96-1.62-1.56-2.72-2.24-3.77-5.14-7.92-15.39-11.73-24.46-9.12-8.63,2.49-13.32,9.18-13.22,19.66.19,19.91,6.44,37.82,18.95,53.3,11.99,14.84,27.94,15.66,40.21,1.73,14.34-16.28,21.1-35.69,20.42-57.36-.44-13.92-13.42-21.73-26.74-16.75-5.86,2.19-9.95,6.32-12.92,12.3ZM210.12,265.83c0-1.29.15-2.04-.02-2.71-1.96-7.45-3.72-14.98-6.05-22.31-2.39-7.53-6.87-13.8-13.3-18.54-8.58-6.32-17.19-12.59-25.74-18.94-1.96-1.45-3.84-2.1-5.99-.55-2.17,1.56-1.72,3.56-.88,5.61,3.02,7.45,5.74,15.03,9.14,22.3,2.27,4.87,4.85,9.87,8.39,13.82,9.21,10.27,21.62,15.72,34.45,21.32ZM78.08,265.75c1.45-.51,2.34-.72,3.14-1.12,6.24-3.16,12.59-6.12,18.64-9.6,6.74-3.88,13.36-8.42,16.87-15.51,5.21-10.55,9.56-21.54,14.05-32.43.44-1.08-.2-3.35-1.12-4.05-1.08-.83-3.01-.72-4.56-.67-.7.02-1.38.87-2.05,1.36-8.24,6.07-16.46,12.17-24.74,18.19-5.01,3.64-9.29,8.03-11.51,13.77-2.81,7.27-4.94,14.8-7.22,22.27-.71,2.34-.94,4.83-1.49,7.79Z"/><path class="cls-2" d="M144.33,129.07c2.97-5.98,7.06-10.11,12.92-12.3,13.32-4.98,26.3,2.83,26.74,16.75.68,21.66-6.08,41.08-20.42,57.36-12.26,13.92-28.22,13.1-40.21-1.73-12.51-15.48-18.76-33.39-18.95-53.3-.1-10.49,4.59-17.17,13.22-19.66,9.06-2.61,19.32,1.2,24.46,9.12.68,1.05,1.28,2.15,2.24,3.77Z"/><path class="cls-2" d="M210.12,265.83c-12.84-5.61-25.25-11.05-34.45-21.32-3.54-3.95-6.12-8.95-8.39-13.82-3.39-7.27-6.12-14.85-9.14-22.3-.83-2.05-1.29-4.04.88-5.61,2.15-1.55,4.03-.9,5.99.55,8.55,6.35,17.16,12.62,25.74,18.94,6.43,4.74,10.91,11,13.3,18.54,2.33,7.34,4.08,14.86,6.05,22.31.18.67.02,1.42.02,2.71Z"/><path class="cls-2" d="M78.08,265.75c.55-2.96.77-5.45,1.49-7.79,2.27-7.47,4.41-15,7.22-22.27,2.22-5.74,6.51-10.13,11.51-13.77,8.28-6.02,16.49-12.13,24.74-18.19.67-.49,1.36-1.34,2.05-1.36,1.55-.05,3.48-.15,4.56.67.92.7,1.56,2.97,1.12,4.05-4.49,10.89-8.84,21.88-14.05,32.43-3.5,7.09-10.13,11.63-16.87,15.51-6.05,3.48-12.4,6.44-18.64,9.6-.79.4-1.69.61-3.14,1.12Z"/></svg>