<?xml version="1.0" encoding="utf-8"?>
<!-- Generator: Adobe Illustrator 27.6.1, SVG Export Plug-In . SVG Version: 6.00 Build 0)  -->
<svg version="1.1" id="Lager_1" xmlns="http://www.w3.org/2000/svg" xmlns:xlink="http://www.w3.org/1999/xlink" x="0px" y="0px"
	 viewBox="0 0 512 501.3" style="enable-background:new 0 0 512 501.3;" xml:space="preserve">
<style type="text/css">
	.st0{fill:#2B3B87;}
</style>
<g>
	<path class="st0" d="M441.1,30.4c-0.2,0-1.8-0.2-4.2-0.1l-290.3,0.1c-0.6-0.1-16.1-2.1-31,12.9c-19.3,19.5-38.4,69.3-19.4,196.3
		c2.5,16.5,4.5,31.6,6.2,45.9c-13.5,2.6-24.1,8.5-24.1,17.9l0,0l0,0L79,338l-0.1,0.1c-13,4.9-20.8,9.3-23,12.9
		c-2.7,4.5-4,10-3.5,16.3l11.7,57.3H34.5c-3.3,0-6,2.7-6,6v9.9c0,17.8,11.3,33.6,28.1,39.2c5.7,1.9,10.4,1.9,16.9,2
		c2,0,272.1,0,286.6,0c1.4,0.1,2.8,0.2,4.3,0.2c13.4,0,26.2-6.6,33.7-18.1c20.2-31.3,22.7-90.7,8.3-198.3c8-12.3,8.8-20.2,8.9-20.9
		c0.2-2.2-0.9-4.3-2.7-5.4c-1.8-1.2-4.1-1.3-6.1-0.3c-0.1,0.1-5.9,3.1-14.1,4.9c86.6-69.5,80.5-128.5,80.1-131.1
		c-0.3-2.2-1.8-4.1-3.9-4.9c-2.1-0.7-4.5-0.2-6.1,1.4c-0.2,0.2-18.5,17.9-34.6,29.9c0.5-2.3,0.9-4.7,1.3-7.4
		c0.4-2.6-1.1-5.2-3.6-6.3c-2.5-1.1-5.3-0.4-7,1.7c-0.1,0.1-7.3,8.6-23.7,17.6c0.1-23,2.2-41.1,5.4-54.9h77.3c1.7,0,3.3-0.7,4.4-2
		s1.7-2.9,1.5-4.6C477.7,31,440.6,30.3,441.1,30.4z M90.2,303.3c0.6-2.2,10.2-7.8,28.4-7.8c18.1,0,27.7,5.6,28.4,7.8l0,0
		c-0.7,2.2-10.3,7.8-28.4,7.8C100.3,311,90.7,305.4,90.2,303.3L90.2,303.3z M118.4,469.6c-26.5,0-39.2,0-45.3,0.9l-0.1-0.9
		c-5.5,0-8.7,0-12.6-1.3c-11.9-4-19.9-15.2-19.9-27.9v-3.9h282.6v3.9c0,11.2,4.5,21.7,12,29.3L118.4,469.6L118.4,469.6z
		 M412.4,147.8c-0.6,1.4-1.1,2.1-1.1,2.1c-1.4,2.2-1.2,5.2,0.6,7.2c1.8,2,4.6,2.6,7,1.4c12-5.7,29.4-20.5,40.7-30.7
		c-3.9,22-20.5,67.6-89.4,117.6c-2,1.4-2.9,3.9-2.3,6.2c0.6,2.4,2.5,4.1,4.9,4.5c9.8,1.5,19.2,0,26.3-2c-6,11-20.5,29.4-55.1,50.2
		c-1.9,1.1-3,3.2-2.9,5.4c0.1,2.2,1.4,4.1,3.3,5.1c3.7,1.8,9.7,2.2,15.7,2.1c-10.3,9.4-27.5,22.5-50.2,30
		c36-80.2,75.9-137.3,76.3-137.9c1.9-2.7,1.3-6.4-1.4-8.3c-2.7-1.9-6.4-1.2-8.3,1.4c-0.4,0.6-42.6,60.9-79.7,144.9
		c-18.4-13.9-20-37.9-18.5-53.6c5.5,7.4,11.5,14.1,12.5,15.2c1.9,2,4.8,2.5,7.3,1.2c2.4-1.3,3.6-4.1,2.9-6.8
		c-0.1-0.2-6-23.2-4.5-41.5c1.1-12.3,4.3-20.4,7.2-25.3c8.6,14,23,17.6,23.7,17.8c2,0.5,4.1-0.1,5.6-1.6s2.1-3.6,1.6-5.6
		c-8-34.3,12.9-69.9,49.8-84.6c2.3-0.9,4.3-1.8,6.4-2.8c0.1,0,0.2-0.1,0.3-0.1C400,155.6,407,151.5,412.4,147.8z M382.8,150.2
		c-0.9,0.4-1.7,0.8-2.7,1.2c-22.6,9-39.8,25.1-49.6,44.1H134c-3.3,0-6,2.7-6,6s2.7,6,6,6h191.4c-3.3,9.9-4.9,20.2-4.1,30.7
		c-4-2.9-8.2-7.5-10.4-14.6c-0.6-1.8-2-3.3-3.8-3.9c-1.8-0.6-3.8-0.3-5.4,0.8c-0.3,0.2-3.2,2.5-6.6,7.5H134c-3.3,0-6,2.7-6,6
		s2.7,6,6,6h155.2c-2,5.5-3.8,12.3-4.5,20.8c-0.6,7.3-0.2,15,0.6,22c-2.1-3.1-3.7-5.9-4.4-7.9c-0.8-2.5-3.4-4.2-5.8-4
		c-2.6,0.1-4.9,1.8-5.6,4.3c-0.2,0.6-15.9,57.5,22.5,83.4c-5.5,13.1-10.1,26.6-13.4,40.1c-0.8,3.2,1.2,6.4,4.4,7.2
		c0.5,0.1,1,0.2,1.4,0.2c2.7,0,5.1-1.8,5.8-4.5c3.3-13.3,7.7-26.5,13.2-39.4c0.1-0.3,0.3-0.6,0.4-1c47.2-11.7,75.3-46.2,76.4-47.7
		c1.5-1.9,1.7-4.6,0.5-6.7s-3.5-3.2-6-2.9c-2.9,0.4-6.1,0.8-9.2,1c13.6-9.4,23.3-18.3,30.5-26.2c12.1,96,9.6,151.4-8,178.6
		c-5.7,8.8-15.9,13.4-26.1,12.6c-0.3-0.1-0.7-0.1-1.1-0.1c-2-0.2-3.9-0.7-5.9-1.3c-11.9-4-19.9-15.2-19.9-27.9v-9.9c0-3.3-2.7-6-6-6
		H173l11.9-58c0.4-5.5-0.9-11-3.6-15.6c-2.2-3.6-10-8-22.4-12.1v-35.1c0-0.2,0.1-0.3,0.1-0.4c0-13.9-23.3-20.3-44.8-19.2
		c-1.7-14.3-3.8-29.6-6.3-46.3c-19.1-128,1.6-171.4,15.7-186c10.6-11,20.9-9.9,22.1-9.8h265.6C391.9,60.6,382.3,96.9,382.8,150.2z
		 M403.6,77.7c4.8-14,10.8-22.4,16.4-27.5c7.2-6.5,13.9-7.8,17.5-8h2.6c1,0,24,0.9,30.4,35.5H403.6L403.6,77.7z"/>
	<path class="st0" d="M364.9,86.9H134c-3.3,0-6,2.7-6,6s2.7,6,6,6h230.8c3.3,0,6-2.7,6-6S368.1,86.9,364.9,86.9z"/>
	<path class="st0" d="M364.9,119.4H134c-3.3,0-6,2.7-6,6c0,3.3,2.7,6,6,6h230.8c3.3,0,6-2.7,6-6
		C370.8,122.1,368.1,119.4,364.9,119.4z"/>
	<path class="st0" d="M267.2,151.9H134c-3.3,0-6,2.7-6,6s2.7,6,6,6h133.2c3.3,0,6-2.7,6-6S270.5,151.9,267.2,151.9z"/>
	<path class="st0" d="M134,272.4h118.5c3.3,0,6-2.7,6-6s-2.7-6-6-6H134c-3.3,0-6,2.7-6,6C128.1,269.7,130.7,272.4,134,272.4z"/>
</g>
</svg>
