<?xml version="1.0" encoding="UTF-8"?><svg id="Lager_1" xmlns="http://www.w3.org/2000/svg" viewBox="0 0 168.97 134.95"><defs><style>.cls-1{fill:#2b3b87;stroke-width:0px;}</style></defs><path class="cls-1" d="M52.39,15.14c.65.4,1.19.72,1.71,1.06,10.99,7.15,21.99,14.3,32.98,21.45.26.17.69.28.67.62-.03.48-.54.36-.86.46-3.4,1.01-4.59,5.43-1.9,7.76,1.98,1.72,1.32,2.77-.36,4.69-.17.19-.53.39-.74.34-1.39-.34-1.76.73-2.31,1.58-3.79,5.84-7.57,11.67-11.38,17.5-.42.64-.6,1.11-.21,1.93.66,1.37-.55,2.29-1.26,3.24-.56.74-1.35.64-2.17.25-3.65-1.74-7.13.63-6.9,4.64.02.34.29.78-.07,1-.35.21-.66-.18-.94-.37-3.56-2.29-7.12-4.59-10.68-6.9-7.54-4.89-15.07-9.78-22.61-14.68-.17-.11-.34-.21-.5-.33-.21-.16-.57-.25-.51-.59.07-.36.44-.26.7-.34,3.05-.87,4.49-4.14,3-6.84-.34-.61-.83-1.07-1.36-1.5-.84-.68-1.02-1.5-.43-2.43.69-1.1,1.2-2.45,2.96-2.06.41.09.58-.37.77-.67,4.05-6.24,8.08-12.48,12.14-18.72.33-.51.43-.87.1-1.49-.77-1.45.47-2.38,1.18-3.37.59-.82,1.46-.64,2.27-.22,1.73.89,3.42.79,4.96-.38,1.6-1.22,2.28-2.84,1.75-4.87-.05-.18,0-.38,0-.77Z"/><path class="cls-1" d="M148.81,124.35c-1.85-.12-3.6-.49-5.19-1.58-4.58-3.15-8.87-6.69-13.25-10.11-2.54-1.98-4.96-4.1-7.47-6.12-2.58-2.08-5.11-4.24-7.65-6.37-2.51-2.11-5.02-4.22-7.52-6.34-3.75-3.18-7.5-6.35-11.22-9.55-.49-.42-.79-.58-1.4-.1-1.34,1.06-2.76,1.06-3.98.17-1.14-.83-1.67-2.29-1.19-3.74.24-.72.11-1.05-.55-1.41-2.9-1.55-5.93-2.57-9.25-2.61-1.55-.02-3-.46-4.25-1.43-1.61-1.25-2.06-3.19-.97-4.91,2.83-4.45,5.7-8.88,8.62-13.28,1.17-1.77,3.27-2.12,5.08-1.01,1.26.77,2.28,1.79,2.81,3.18,1.21,3.21,3.83,5.23,6.22,7.44.45.41.83.48,1.34.02,1.19-1.08,2.56-1.26,3.98-.48,1.28.7,1.82,1.97,1.49,3.72-.15.8.22,1.07.8,1.37,7.19,3.75,14.4,7.48,21.57,11.29,10.24,5.44,20.41,11,30.47,16.76,5.81,3.32,6.95,11.1,4.1,16.03-1.85,3.2-3.84,6.31-7.45,7.86-1.63.7-3.33,1.12-5.12,1.18Z"/><path class="cls-1" d="M44.15,118.11c-12.27,0-24.54,0-36.82,0q-2.01,0-2.01-2.06c0-.68-.02-1.36.04-2.04.13-1.43.94-2.41,2.3-2.69.52-.11.75-.32.85-.82.4-1.96,1.68-3.19,3.39-4.09.32-.17.59-.17.91-.17,20.27,0,40.53,0,60.8,0,3.52,0,4.88.96,6.01,4.28.14.42.32.69.8.76,1.39.2,2.01,1.18,2.32,2.42.29,1.14.15,2.31.15,3.46,0,.64-.32.96-.97.93-.24,0-.48,0-.72,0-12.35,0-24.7,0-37.06,0Z"/><path class="cls-1" d="M44.01,127.72c-12.31,0-24.62,0-36.93,0-1.74,0-1.74,0-1.74-1.72,0-1.36.02-2.72,0-4.08,0-.7.28-1.05,1-1.02.28.01.56,0,.84,0,24.66,0,49.33,0,73.99,0,1.74,0,1.75.02,1.76,1.72,0,1.2-.05,2.4.02,3.6.06,1.13-.34,1.54-1.51,1.53-5.12-.05-10.23-.02-15.35-.02-7.35,0-14.71,0-22.06,0Z"/><path class="cls-1" d="M62.26,5.24c3.47.13,6.68.97,9.58,2.84,4.97,3.21,9.97,6.37,14.87,9.67,4.28,2.89,6.83,6.99,7.72,12.08.07.4.33.95-.1,1.22-.37.23-.72-.22-1.04-.43-11.97-7.76-23.94-15.52-35.9-23.3-.35-.23-.97-.38-.9-.84.09-.53.75-.49,1.19-.61,1.51-.4,3.06-.59,4.57-.64Z"/><path class="cls-1" d="M50.14,91.9c-3.62-.12-6.85-.93-9.75-2.8-4.98-3.2-9.96-6.4-14.88-9.67-4.32-2.87-6.85-6.95-7.78-12.04-.08-.41-.33-.94.1-1.22.38-.25.73.18,1.05.39,9.22,5.98,18.44,11.97,27.66,17.95,2.78,1.81,5.57,3.61,8.35,5.42.29.19.76.34.73.72-.05.48-.6.45-.96.56-1.54.48-3.14.56-4.53.69Z"/><path class="cls-1" d="M61.6,87.1c.01,1.98-2.07,3.2-3.85,2.18-1.49-.86-2.9-1.84-4.34-2.78-11.43-7.42-22.86-14.85-34.29-22.27-.33-.22-.68-.43-.99-.68-1.11-.91-1.34-2.26-.6-3.43.71-1.11,2.15-1.5,3.38-.77,1.52.89,2.97,1.88,4.45,2.84,11.53,7.49,23.06,14.98,34.59,22.46.91.59,1.66,1.26,1.64,2.46Z"/><path class="cls-1" d="M95.01,35.55c.04,1.93-1.84,3.23-3.56,2.33-1.48-.77-2.88-1.73-4.28-2.64-11.7-7.6-23.4-15.21-35.1-22.81-.98-.63-1.67-1.41-1.54-2.63.11-1.03.7-1.76,1.67-2.17.98-.41,1.8-.03,2.59.48,2.99,1.93,5.98,3.87,8.96,5.8,9.93,6.45,19.85,12.9,29.78,19.34.85.55,1.49,1.21,1.49,2.3Z"/></svg>