<?xml version="1.0" encoding="UTF-8"?><svg id="Lager_1" xmlns="http://www.w3.org/2000/svg" viewBox="0 0 91.37 314.12"><defs><style>.cls-1{fill:#d57c50;}.cls-1,.cls-2{stroke-width:0px;}.cls-2{fill:#fff;}</style></defs><path class="cls-1" d="M53.74,86.11c-.77-.07-1.64-.15-2.56-.24.52,2.61,7.45,1.89,3.63,6.64,8.86,1.06,18.03,2.17,26.58,3.19-1.17,5.61-2.19,10.53-3.25,15.62-6.97-5.42-13.93-13.95-26.14-6.87h5.12c0,9.32,0,18.44,0,27.55,0,34.49.06,68.99-.04,103.48-.04,16.45-6.22,49.67-11.7,63.71-5.39-19.9-10.89-39.34-11.09-59.52-.43-44.49-.08-88.98-.03-133.48,0-.48.15-.95.27-1.68h4.02c-8.44-5.32-12.8-4.03-25.64,7.06-.89-4.83-1.81-9.83-2.91-15.81,8.18-1.03,17.28-2.18,26.74-3.38,1.39-2.23-2.63-7.46,2.74-8.48-1.16-1.36-4.2-3.38-4.07-5.17.19-2.73,2.58-5.3,4.09-8.05-.64-.45-2.22-1.55-3.69-2.57,1.27-3.54,2.37-6.6,3.63-10.13-.41-.34-1.64-1.35-2.93-2.41,2.02-4.23,4.84-8.28.62-12.95,3.23-2.39,1.99-4.09-.54-6.51-4.87-4.65-4.7-12.37-.24-17.16,4.57-4.9,12.12-5.43,17.16-1.2,5.21,4.37,6.67,12,2.04,16.89-3.35,3.54-3.68,7.01-3.43,11.17.05.82-.46,1.68-.87,3.04.37.29,1.48,1.16,2.22,1.74-.42,3.85-.79,7.26-1.24,11.42.15.11,1.31.99,2.96,2.25-4.25,1.77.8,7.5-3.96,9.53,1,.71,2.65,1.89,3.97,2.84-.51,3.33-.97,6.28-1.46,9.47ZM55.22,106.9c-5.06-.15-6.12,1.88-6.11,5.83.11,52.43.06,104.86.06,157.3,0,1.15.19,2.29.3,3.44.45,0,.91.01,1.36.02,1.36-10.5,3.63-20.97,3.9-31.5.66-25.28.41-50.59.47-75.89.05-19.62,0-39.24,0-59.19ZM45.16,258.62c.27.02.54.04.8.06V107.35c-.27,0-.54,0-.8,0v151.27ZM46.09,20.95c-3.83-.05-6.85,2.77-6.98,6.12-.14,3.54,2.91,6.87,6.35,6.93,3.53.06,6.59-3.04,6.48-6.71-.12-4.01-2.61-5.78-5.85-6.34Z"/><path class="cls-2" d="M55.22,106.9c0,19.94.04,39.57,0,59.19-.06,25.3.19,50.61-.47,75.89-.27,10.53-2.54,21-3.9,31.5-.45,0-.91-.01-1.36-.02-.1-1.15-.3-2.29-.3-3.44,0-52.43.05-104.86-.06-157.3,0-3.95,1.05-5.98,6.11-5.83Z"/><path class="cls-2" d="M45.16,258.62V107.35c.27,0,.54,0,.8,0v151.33c-.27-.02-.54-.04-.8-.06Z"/><path class="cls-2" d="M46.09,20.95c3.24.55,5.73,2.33,5.85,6.34.11,3.67-2.95,6.77-6.48,6.71-3.44-.06-6.5-3.39-6.35-6.93.14-3.35,3.15-6.17,6.98-6.12ZM40.17,26.82l1.04.97c2.94-.85,5.87-1.7,8.81-2.56-1.81-1.63-4.07-2.77-6.02-2.37-1.48.31-2.56,2.56-3.83,3.95Z"/><path class="cls-1" d="M40.17,26.82c1.26-1.39,2.34-3.65,3.83-3.95,1.95-.4,4.21.74,6.02,2.37-2.94.85-5.87,1.7-8.81,2.56l-1.04-.97Z"/></svg>