<?xml version="1.0" encoding="utf-8"?>
<!-- Generator: Adobe Illustrator 27.6.1, SVG Export Plug-In . SVG Version: 6.00 Build 0)  -->
<svg version="1.1" id="Lager_1" xmlns="http://www.w3.org/2000/svg" xmlns:xlink="http://www.w3.org/1999/xlink" x="0px" y="0px"
	 viewBox="0 0 100 94.6" style="enable-background:new 0 0 100 94.6;" xml:space="preserve">
<style type="text/css">
	.st0{fill:#2B3B87;}
</style>
<g id="Lager_2_00000098207293694548572710000008597705851792264851_">
</g>
<g id="Lager_1_00000126295389633415269300000001945574316149692825_">
	<g>
		<path class="st0" d="M93,50.4c2.6-1.5,4.1-4.3,3.7-7.6c-0.6-3.9-4.1-6.7-8.2-6.7H63.8c0.2-0.6,0.4-1.1,0.7-1.9
			c1.5-3.7,4.3-10.8,4.3-17.9c0-8-5.6-12.9-9.5-13.2c-2.4-0.2-4.3,1.3-4.7,4.1c-0.7,5-4.1,12.5-5.4,15.5c-0.4,0.9-0.9,1.7-1.5,2.4
			c-2.2,2.6-8,8.9-13.4,12.7c0,0.2,0,0.4,0,0.7v47.7c0,0.4,0,0.7-0.2,1.3c9.3,2.8,17.9,4.1,27,4.1h21.2c3.7,0,7.1-2.4,7.8-6.1
			c0.6-3-0.6-5.8-2.4-7.5c3.4-0.7,6-3.9,6-7.5c0-2.2-1.1-4.5-2.6-5.8c3.4-0.7,6-3.9,6-7.5C97,54.1,95.5,51.7,93,50.4z"/>
		<path class="st0" d="M23.4,34.2H6.8c-2.2,0-4.3,1.9-4.3,4.3v47.7c0,2.2,1.9,4.3,4.3,4.3h16.6c2.2,0,4.3-1.9,4.3-4.3V38.5
			C27.5,36.2,25.6,34.2,23.4,34.2z M15,82.8c-2.4,0-4.5-2-4.5-4.5s2-4.5,4.5-4.5s4.5,2,4.5,4.5C19.5,81,17.4,82.8,15,82.8z"/>
	</g>
</g>
</svg>
