<?xml version="1.0" encoding="UTF-8"?><svg id="Lager_1" xmlns="http://www.w3.org/2000/svg" viewBox="0 0 191.83 189.83"><defs><style>.cls-1{fill:#5890ac;}.cls-1,.cls-2{stroke-width:0px;}.cls-2{fill:#fff;}</style></defs><path class="cls-1" d="M12.52,30.68c2.44-3.1,4.87-6.2,7.32-9.29,9-11.29,26.48-13.96,38.81-8.94,3.66,1.49,6.4,4.29,9.15,7.08,2.32,2.35,4.83,4.58,7.55,6.43,2.95,2,6.49,2.46,9.77,1.03,4.36-1.9,8.59-4.14,12.7-6.54,3.65-2.13,7.03-4.7,10.56-7.05,5.35-3.56,11.14-5.96,17.62-6.25,1.7-.08,3.47.12,5.13.52,4.62,1.13,9.21,2.43,13.88,3.69-3.52,6.05-3.35,8.95,2.89,14.95,4.69,4.5,10.58,7.08,16.24,10.02,5.4,2.8,10.46,6.01,14.28,10.89,3.85,4.91,5.9,10.5,6.45,16.64.65,7.26-.49,14.35-2.28,21.82-2.52-4.56-6.25-7.15-10.58-9.04-8.11-3.54-16.23-3.46-23.82.97-6.33,3.69-12.25,8.1-18.23,12.37-5.72,4.08-11.43,8.12-18.08,10.58-4.35,1.61-8.83,2.41-13.48,1.86-2.9-.34-4.25-1.49-4.68-4.41-.45-3.08-.61-6.21-.81-9.32-.23-3.62-1.43-4.74-4.75-3.4-5.32,2.14-10.56,4.52-15.64,7.18-3.38,1.77-5.82,4.67-7.13,8.38-.42,1.19-.36,2.11.46,3.24,18.63,25.49,37.21,51.02,55.8,76.55.4.55.77,1.11,1.42,2.05-3.76,0-7.18.08-10.6-.08-.59-.03-1.23-1-1.69-1.65-18.26-25.76-36.52-51.51-54.72-77.31-15.96-22.62-31.85-45.3-47.77-67.95-2.06-2.94-2.06-3.11-.13-4.94,1.92-1.83,2.29-1.83,4.33-.08ZM137.34,14.13c-7.72-4.07-15.11-3.35-21.98,1-4,2.53-7.67,5.74-11.04,9.09-3.78,3.77-7.92,6.64-13.03,8.24-8.69,2.73-16.29,1.29-22.59-5.56-1.46-1.58-2.89-3.19-4.4-4.73-2.6-2.65-5.45-4.98-9.2-5.79-10.57-2.28-19.7.62-27.11,8.31-3.44,3.58-6.15,7.86-9.23,11.79-.88,1.12-.76,1.93.08,3.07,10.66,14.55,21.27,29.15,31.89,43.74,3.25,4.47,6.52,8.92,9.69,13.25,1.93-2.42,3.62-4.88,5.64-7.02,4.41-4.66,9.5-8.52,15.07-11.72,4.11-2.36,8.55-3.63,13.27-3.82,3.76-.15,5.53,1.5,5.85,5.22.07.76.09,1.53.04,2.29-.25,4.08-.64,8.16-.76,12.25-.11,3.44.99,4.32,4.25,3.36,9.88-2.92,18.98-7.27,26.58-14.48,4.62-4.38,9.25-8.87,14.41-12.56,8.29-5.92,17.4-6.49,26.57-1.91,3.31,1.65,6.33,3.88,9.54,5.87.06-.59.27-1.41.22-2.21-.22-3.11-.48-6.22-.8-9.32-.97-9.45-5.99-15.85-14.69-19.52-4.47-1.89-8.86-3.95-13.27-5.99-6.25-2.89-10.58-7.73-13.76-13.7-1.53-2.86-2.69-5.82-1.25-9.16Z"/><path class="cls-2" d="M137.34,14.13c-1.44,3.34-.28,6.29,1.25,9.16,3.18,5.97,7.51,10.81,13.76,13.7,4.41,2.04,8.8,4.1,13.27,5.99,8.71,3.68,13.72,10.07,14.69,19.52.32,3.1.58,6.21.8,9.32.06.8-.15,1.62-.22,2.21-3.21-2-6.23-4.22-9.54-5.87-9.17-4.58-18.29-4.01-26.57,1.91-5.16,3.69-9.79,8.18-14.41,12.56-7.6,7.21-16.7,11.56-26.58,14.48-3.26.96-4.36.08-4.25-3.36.13-4.09.51-8.17.76-12.25.05-.76.03-1.53-.04-2.29-.32-3.72-2.09-5.37-5.85-5.22-4.72.19-9.16,1.46-13.27,3.82-5.57,3.2-10.66,7.05-15.07,11.72-2.02,2.14-3.71,4.6-5.64,7.02-3.16-4.33-6.43-8.78-9.69-13.25-10.62-14.58-21.23-29.18-31.89-43.74-.84-1.14-.96-1.96-.08-3.07,3.09-3.93,5.79-8.21,9.23-11.79,7.4-7.69,16.53-10.59,27.11-8.31,3.75.81,6.6,3.13,9.2,5.79,1.51,1.54,2.94,3.14,4.4,4.73,6.3,6.86,13.9,8.29,22.59,5.56,5.1-1.6,9.24-4.47,13.03-8.24,3.37-3.35,7.04-6.56,11.04-9.09,6.87-4.35,14.26-5.07,21.98-1Z"/></svg>