<?xml version="1.0" encoding="UTF-8"?><svg id="Lager_1" xmlns="http://www.w3.org/2000/svg" viewBox="0 0 181.42 180.44"><defs><style>.cls-1{fill:#2b3b87;}.cls-1,.cls-2{stroke-width:0px;}.cls-2{fill:#fff;}</style></defs><path class="cls-1" d="M152.59,150.86c-5.55-2.56-11.05-5.25-16.67-7.63-4.26-1.8-8.67-3.26-13.04-4.78-.64-.22-1.52-.13-2.19.11-19.03,6.64-38.17,6.96-57.35.84-12.95-4.14-24.17-11.09-32.9-21.67-14.07-17.05-15.6-39.04-3.99-57.34,6.71-10.58,16.11-18.14,27.36-23.37,19.53-9.08,39.8-10.45,60.51-4.94,14.44,3.85,26.94,11.1,36.6,22.72,7.67,9.23,11.9,19.82,11.79,31.94-.1,11.35-4.01,21.36-11.08,30.14-1.52,1.88-2.24,3.8-2.2,6.12.01.68-.02,1.36.01,2.04.29,7.31,1.8,14.42,3.54,21.49.4,1.62.78,3.23,1.23,5.09-.7-.33-1.17-.54-1.63-.75ZM142.24,130.37c-.43-3.98-.74-7.97.08-11.94.39-1.92,1.22-3.6,2.48-5.12,6.93-8.33,10.77-17.8,10.29-28.77-.41-9.37-3.96-17.55-9.86-24.73-7.44-9.06-16.98-15.15-27.98-18.85-20.7-6.96-41.08-6.05-60.9,3.28-9.01,4.24-16.66,10.3-22.36,18.56-11.26,16.33-10.03,35.94,3.16,51.09,8.17,9.39,18.53,15.38,30.35,18.84,17.38,5.1,34.65,4.56,51.68-1.74,1.71-.63,3.39-.44,5.07-.04,5.71,1.34,11.04,3.74,16.41,6.01.84.35,1.68.72,2.63,1.13-.37-2.67-.77-5.19-1.04-7.72Z"/><path class="cls-2" d="M140.65,136.97c-5.37-2.27-10.7-4.67-16.41-6.01-1.68-.39-3.36-.59-5.07.04-17.03,6.3-34.3,6.83-51.68,1.74-11.82-3.46-22.18-9.45-30.35-18.84-13.19-15.15-14.42-34.76-3.16-51.09,5.7-8.26,13.35-14.32,22.36-18.56,19.82-9.32,40.2-10.24,60.9-3.28,11.01,3.7,20.55,9.79,27.98,18.85,5.9,7.18,9.45,15.36,9.86,24.73.48,10.97-3.36,20.44-10.29,28.77-1.26,1.52-2.09,3.2-2.48,5.12-.81,3.98-.51,7.96-.08,11.94.27,2.53.68,5.05,1.04,7.72-.96-.41-1.79-.78-2.63-1.13ZM99.58,84.29c-.94-3.46-4.78-5.67-8.64-4.97-3.71.67-6.28,3.83-5.92,7.27.36,3.48,3.59,6.12,7.46,6.09,4.78-.03,8.26-4.14,7.11-8.39ZM133.24,84.26c-1-3.6-5.04-5.79-9-4.87-3.8.88-6.13,4.24-5.43,7.81.62,3.15,3.69,5.48,7.25,5.48,4.85.01,8.38-4.12,7.19-8.42ZM65.78,84.84c-.76-3.89-5.1-6.32-9.35-5.23-3.87.98-6.13,4.71-5.05,8.31.86,2.86,3.81,4.91,7.07,4.94,4.64.03,8.15-3.8,7.33-8.02Z"/><path class="cls-1" d="M92.47,92.68c4.78-.03,8.26-4.14,7.11-8.39-.94-3.46-4.78-5.67-8.64-4.97-3.71.67-6.28,3.83-5.92,7.27.36,3.48,3.59,6.12,7.46,6.09Z"/><path class="cls-1" d="M126.05,92.68c4.85.01,8.38-4.12,7.19-8.42-1-3.6-5.04-5.79-9-4.87-3.8.88-6.13,4.24-5.43,7.81.62,3.15,3.69,5.48,7.25,5.48Z"/><path class="cls-1" d="M58.46,92.86c4.64.03,8.15-3.8,7.33-8.02-.76-3.89-5.1-6.32-9.35-5.23-3.87.98-6.13,4.71-5.05,8.31.86,2.86,3.81,4.91,7.07,4.94Z"/></svg>