<?xml version="1.0" encoding="UTF-8"?><svg id="Lager_1" xmlns="http://www.w3.org/2000/svg" viewBox="0 0 335.76 247.3"><defs><style>.cls-1{fill:#2b3b87;}.cls-1,.cls-2{stroke-width:0px;}.cls-2{fill:#fff;}</style></defs><path class="cls-1" d="M158.05,161.54c.36-9.28,5.52-16.39,11.43-22.62,19.06-20.11,48.92-20.05,69.46-5.89,11.66,8.04,18.78,20.07,21.07,34.46.16.98.4,1.94.62,3,4.17,1.29,5.69-.77,6.56-4.42,8.17-34.26,16.26-68.53,24.73-102.72,2.75-11.09,6.3-22,9.95-32.84,1.24-3.68,3.46-7.27,6.04-10.19,5.39-6.11,14.09-5.27,17.31,2.15,2.58,5.96,4.07,12.69,4.58,19.2,1.21,15.38-1.33,30.54-4.26,45.61-.69,3.53-.55,7.2-.95,10.79-.2,1.78-.38,3.74-1.24,5.22-.6,1.04-2.68,2.21-3.52,1.87-1.21-.48-2.28-2.16-2.7-3.54-.34-1.12.15-2.64.62-3.85,6.46-16.55,7.2-33.93,7.16-51.35-.01-5.26-1.27-10.53-2.14-15.76-.27-1.6-1.05-3.16-1.81-4.63-2.14-4.17-5.65-5.05-8.72-1.55-2.58,2.92-4.97,6.48-6.05,10.17-5.23,17.86-10.4,35.76-14.84,53.83-6.81,27.77-13.01,55.68-19.47,83.54-1.77,7.62-2.14,7.91-11.19,8.72-.47,2.64-.88,5.4-1.45,8.12-5.51,26.33-28.27,40.19-53.15,38.4-27.4-1.97-44.16-17.4-49.34-44.54-.97-5.07-5.65-5.34-8.47-7.79-7.1-6.19-16.89-5.27-23.99.99-1.4,1.23-3.33,1.86-5.61,3.09-.21,15.61-4.38,30.33-17.59,41.03-10.31,8.35-22.35,11.42-35.43,11.06-29.59-.81-46.94-19.32-51.16-54.6-8.98-1.33-11.2-6.86-6.23-15.77,6.14-11,12.44-21.92,18.55-32.94,13.69-24.73,27.07-49.65,41.08-74.2,4.67-8.19,10.42-15.89,16.5-23.13,8.03-9.57,18.07-15.78,31.36-13.94,10.81,1.49,17.79,7.8,21.28,17.93,5.13,14.87,3.32,29.88.56,44.89-1.04,5.68-1.48,11.48-2.76,17.1-.44,1.94-2.65,4.98-3.96,4.93-3.7-.13-3.95-3.65-2.55-5.98,5.17-8.65,6.17-18.25,7.15-27.9,1.02-10.02.76-19.96-2.42-29.63-5.38-16.35-20.28-21.56-34.92-12.25-8.84,5.62-15.06,13.83-20.05,22.61-15.77,27.76-30.92,55.87-46.27,83.87-2.76,5.03-5.34,10.17-7.7,15.57,14.2-17.85,33.01-22.43,54.11-18.21,21.91,4.38,33.67,19.79,39.9,41.11,12.05-9.73,24.57-9.61,37.52-2.62.9-2.32,1.7-4.41,2.51-6.49-.03,3.63.21,7.28-.12,10.87-.83,8.87,3.93,23.29,8.87,28.28-1.65-4.93-4.31-10.51-5.31-16.38-1.82-10.72-1.59-21.45,4.65-31.12-.28,1.12-.5,2.26-.86,3.36-4.67,14.52-3.78,28.63,4.02,41.81,10.51,17.79,30.04,25.09,52.01,20.02,10.14-2.34,18.61-7.3,24.16-16.26,1.99-3.21,2.83-7.11,4.28-10.67.96-2.37,2.51-4.6,3.01-7.05,2.98-14.45-2.35-26.74-10.44-38.22-.55-.77-1.36-1.39-2.15-1.96-3.62-2.61-7.18-5.33-10.95-7.71-2.36-1.49-4.95-2.95-7.62-3.52-5.01-1.06-10.15-1.45-15.24-2.15-2.07-.29-4.12-.68-6.18-1.03,3.18-.61,6.43-1.98,9.53-1.7,9.73.88,18.84,3.96,26.58,10.12,3.28,2.61,6.11,5.8,9.14,8.73.14-2.13-.26-4.26-1.53-5.46-10.34-9.66-21.93-16.42-36.8-15.99-15.86.46-29.92,4.75-39.46,18.28-3.09,4.39-4.65,9.84-7.05,14.74-.58,1.18-1.73,2.07-2.62,3.1ZM50.03,89.98c5.07-8.74,9.77-17.73,15.28-26.18,10.98-16.85,19.43-36.04,39.63-44.86-8.03,1.31-14.02,6.11-18.95,11.89-15.1,17.7-25.99,38.09-36.37,58.76-6.06,11.01-12.12,22.02-18.18,33.03.51.27,1.02.54,1.53.81,5.69-11.15,11.37-22.3,17.06-33.45ZM63.59,224.38c23.61,1.75,50.83-15.26,47.41-46.71-1.55-14.28-9.12-25.39-19.26-33.96-10.51-8.9-23.92-10.68-37.61-7.43-10.13,2.41-19.13,7.65-24.64,15.96-5.97,9-8.88,20.12-6,31.01,2.24,8.48,6.59,16.43,10.24,24.51.92,2.03,2.39,4.29,4.24,5.31,5.31,2.93,10.93,5.28,16.42,7.88.21.1.3.45.51.78-.49.12-.95.21-1.39.35-.12.04-.21.19-1.29,1.22,4.86-.46,8.65-.82,13.09-1.24-.94,1.28-1.29,1.75-1.72,2.33ZM111.78,199.8c1.32-4,4-8.11,3.69-11.98-.73-8.88,1.52-18.29-3.82-26.55-2.83-4.39-5.16-9.13-8.29-13.28-1.98-2.62-4.97-4.52-7.62-6.6-2.41-1.89-4.96-3.61-7.5-5.32-.35-.23-1.05.14-1.5-.03-5.1-1.83-10.11-5.03-15.29-5.34-21.36-1.26-39.54,4.41-49.49,25.68-4.04,8.63-4.6,17.52-2.75,26.89-.17-15.09,2.33-29,14.98-39.03,12.23-9.69,26.04-13.16,41.18-9.8,12.05,2.68,22.2,9.28,29.24,19.35,9.75,13.94,11.85,29.49,7.18,46.01ZM317.07,18.96c-3.66-1.17-6.95-.12-8.83,3.05-2.78,4.67-5.84,9.48-7.22,14.64-6.98,26.26-13.46,52.65-20.08,79-.55,2.17-.81,4.41-1.21,6.62,4.98-17.09,8.91-34.38,13.19-51.58,3.76-15.13,6.77-30.53,14.32-44.46,2.15-3.96,5.13-6.68,9.83-7.27ZM250.27,153.41c9.79,24.01,6.48,45.04-13.84,62.2,19.28-10.17,28.39-41.14,13.84-62.2ZM151.82,169.92c.21-.68.41-1.36.62-2.04-4.59-1.39-9.18-2.78-13.77-4.17-.07.26-.15.52-.22.78,4.46,1.81,8.91,3.62,13.37,5.43Z"/><path class="cls-2" d="M200.26,129.72c2.06.35,4.11.74,6.18,1.03,5.08.71,10.23,1.09,15.24,2.15,2.68.57,5.27,2.03,7.62,3.52,3.77,2.38,7.33,5.1,10.95,7.71.78.56,1.6,1.18,2.15,1.96,8.09,11.48,13.42,23.76,10.44,38.22-.51,2.45-2.05,4.68-3.01,7.05-1.44,3.56-2.29,7.46-4.28,10.67-5.55,8.95-14.01,13.92-24.16,16.26-21.97,5.07-41.5-2.23-52.01-20.02-7.79-13.19-8.69-27.3-4.02-41.81.35-1.1.57-2.24.86-3.36,4.21-8.08,9.87-14.81,18.53-18.28,5.04-2.02,10.34-3.41,15.52-5.08ZM222.58,139.79c.15-.41.3-.82.45-1.22-6.02-1.12-12.04-2.24-18.06-3.36-.05.26-.09.53-.14.79,5.92,1.27,11.84,2.53,17.75,3.8Z"/><path class="cls-2" d="M63.59,224.38c.42-.57.77-1.05,1.72-2.33-4.44.42-8.23.78-13.09,1.24,1.08-1.03,1.17-1.18,1.29-1.22.44-.13.9-.23,1.39-.35-.2-.33-.3-.68-.51-.78-5.49-2.6-11.12-4.95-16.42-7.88-1.85-1.02-3.32-3.29-4.24-5.31-3.65-8.08-8-16.03-10.24-24.51-2.88-10.89.03-22.01,6-31.01,5.51-8.31,14.52-13.55,24.64-15.96,13.69-3.25,27.1-1.47,37.61,7.43,10.13,8.58,17.7,19.68,19.26,33.96,3.42,31.46-23.8,48.46-47.41,46.71ZM32.95,198.94c.45-.12.89-.24,1.34-.37-2.21-7.74-4.43-15.47-6.64-23.21-.25.06-.5.12-.75.18,2.02,7.8,4.04,15.6,6.06,23.4ZM100.6,164.55c.35-.33.7-.65,1.06-.98l-12.81-14.03c-.13.13-.25.27-.38.4,4.04,4.87,8.09,9.74,12.13,14.61Z"/><path class="cls-2" d="M111.78,199.8c4.67-16.52,2.58-32.07-7.18-46.01-7.04-10.06-17.19-16.67-29.24-19.35-15.14-3.36-28.95.11-41.18,9.8-12.65,10.02-15.15,23.94-14.98,39.03-1.85-9.37-1.28-18.26,2.75-26.89,9.95-21.26,28.14-26.94,49.49-25.68,5.18.31,10.19,3.51,15.29,5.34.45.16,1.16-.21,1.5.03,2.54,1.72,5.09,3.44,7.5,5.32,2.65,2.08,5.64,3.97,7.62,6.6,3.13,4.15,5.46,8.89,8.29,13.28,5.33,8.26,3.09,17.68,3.82,26.55.32,3.87-2.37,7.98-3.69,11.98Z"/><path class="cls-2" d="M200.26,129.72c-5.18,1.67-10.48,3.06-15.52,5.08-8.65,3.47-14.31,10.2-18.53,18.28-6.24,9.67-6.47,20.39-4.65,31.12,1,5.87,3.66,11.45,5.31,16.38-4.94-4.99-9.7-19.41-8.87-28.28.33-3.59.1-7.24.12-10.87,0-.01-.1.14-.09.13.9-1.04,2.05-1.93,2.63-3.11,2.4-4.9,3.96-10.35,7.05-14.74,9.53-13.53,23.59-17.82,39.46-18.28,14.87-.43,26.46,6.32,36.8,15.99,1.28,1.19,1.67,3.33,1.53,5.46-3.03-2.93-5.86-6.11-9.14-8.73-7.74-6.17-16.85-9.24-26.58-10.12-3.1-.28-6.35,1.09-9.53,1.7Z"/><path class="cls-2" d="M317.07,18.96c-4.7.59-7.69,3.31-9.83,7.27-7.55,13.92-10.55,29.33-14.32,44.46-4.28,17.2-8.21,34.49-13.19,51.58.4-2.21.67-4.45,1.21-6.62,6.62-26.35,13.1-52.74,20.08-79,1.37-5.17,4.44-9.97,7.22-14.64,1.88-3.17,5.18-4.21,8.83-3.05Z"/><path class="cls-2" d="M49.62,89.59c10.38-20.67,21.27-41.06,36.37-58.76,4.93-5.78,10.92-10.59,18.95-11.89-20.2,8.82-28.66,28.01-39.63,44.86-5.51,8.46-10.21,17.44-15.28,26.18-.14-.13-.27-.26-.41-.39Z"/><path class="cls-2" d="M250.27,153.41c14.55,21.06,5.43,52.03-13.84,62.2,20.32-17.16,23.63-38.19,13.84-62.2Z"/><path class="cls-2" d="M50.03,89.98c-5.69,11.15-11.37,22.3-17.06,33.45-.51-.27-1.02-.54-1.53-.81,6.06-11.01,12.12-22.02,18.18-33.03.14.13.27.26.41.39Z"/><path class="cls-2" d="M151.82,169.92c-4.46-1.81-8.91-3.62-13.37-5.43.07-.26.15-.52.22-.78,4.59,1.39,9.18,2.78,13.77,4.17-.21.68-.41,1.36-.62,2.04Z"/><path class="cls-1" d="M222.58,139.79c-5.92-1.27-11.84-2.53-17.75-3.8.05-.26.09-.53.14-.79,6.02,1.12,12.04,2.24,18.06,3.36-.15.41-.3.82-.45,1.22Z"/><path class="cls-1" d="M32.95,198.94c-2.02-7.8-4.04-15.6-6.06-23.4.25-.06.5-.12.75-.18,2.21,7.74,4.43,15.47,6.64,23.21-.45.12-.89.24-1.34.37Z"/><path class="cls-1" d="M100.6,164.55c-4.04-4.87-8.09-9.74-12.13-14.61.13-.13.25-.27.38-.4l12.81,14.03c-.35.33-.7.65-1.06.98Z"/></svg>