<?xml version="1.0" encoding="utf-8"?>
<!-- Generator: Adobe Illustrator 27.6.1, SVG Export Plug-In . SVG Version: 6.00 Build 0)  -->
<svg version="1.1" id="Lager_1" xmlns="http://www.w3.org/2000/svg" xmlns:xlink="http://www.w3.org/1999/xlink" x="0px" y="0px"
	 viewBox="0 0 100 101.7" style="enable-background:new 0 0 100 101.7;" xml:space="preserve">
<style type="text/css">
	.st0{fill:#EFBD29;}
</style>
<g>
	<path class="st0" d="M8.6,30.6v41c3.4,0.9,6.7,0.9,10.1,0v-41c-1.7,0.3-3.4,0.5-5,0.5S10.3,31,8.6,30.6z"/>
	<path class="st0" d="M18.7,75v-1.3c-1.7,0.4-3.4,0.6-5,0.6s-3.4-0.2-5-0.6V75C12,75.8,15.4,75.8,18.7,75z"/>
	<path class="st0" d="M18.7,25.4v-6c-3.4,1.3-6.7,1.3-10.1,0v6C12,26.2,15.4,26.2,18.7,25.4z"/>
	<path class="st0" d="M13.7,77.6c-1.7,0-3.4-0.2-5-0.5v5h10.1v-5C17,77.4,15.3,77.6,13.7,77.6z"/>
	<path class="st0" d="M8.6,27.5v1.1c3.4,0.8,6.7,0.8,10.1,0v-1.1c-1.7,0.3-3.4,0.5-5,0.5S10.3,27.8,8.6,27.5z"/>
</g>
<g>
	<path class="st0" d="M53.5,52.4c0,6.8,0.7,11.2,1.3,13c0.6-1.8,1.3-6.2,1.3-13s-0.7-11.2-1.3-13C54.2,41.2,53.5,45.6,53.5,52.4z"/>
	<path class="st0" d="M47.6,31v43.2c4.8,0.9,9.7,0.9,14.5,0V31c-2.4,0.4-4.8,0.6-7.3,0.6C52.4,31.6,50,31.4,47.6,31z M58.2,52.4
		c0,5.9-0.4,15.8-3.4,15.8s-3.4-9.9-3.4-15.8s0.4-15.8,3.4-15.8C57.8,36.6,58.2,46.5,58.2,52.4z"/>
	<path class="st0" d="M62.1,28.9v-6.5c-4.8,1.3-9.7,1.3-14.5,0v6.5C52.4,29.8,57.2,29.8,62.1,28.9z"/>
	<path class="st0" d="M54.8,76.9c-2.4,0-4.8-0.2-7.3-0.6v5.9H62v-5.9C59.7,76.6,57.2,76.9,54.8,76.9z"/>
</g>
<g>
	<path class="st0" d="M32.1,74.7V31.6c-1.8,0.5-3.7,0.7-5.6,0.7c-1.8,0-3.7-0.2-5.5-0.7v43C24.7,75.7,28.4,75.7,32.1,74.7z
		 M23.4,65.1c0-0.6,0.5-1,1.1-1h0.9V42.2h-0.9c-0.6,0-1.1-0.4-1.1-1s0.5-1,1.1-1h4c0.6,0,1.1,0.4,1.1,1s-0.5,1-1.1,1h-0.9v21.9h0.9
		c0.6,0,1.1,0.4,1.1,1s-0.5,1-1.1,1h-4C23.8,66.1,23.4,65.6,23.4,65.1z"/>
	<path class="st0" d="M32.1,29.5v-6c-3.7,1.2-7.4,1.2-11.1,0v6C24.7,30.6,28.4,30.5,32.1,29.5z"/>
	<path class="st0" d="M26.6,77.4c-1.9,0-3.7-0.2-5.6-0.7v5.4h11.1v-5.4C30.2,77.2,28.4,77.4,26.6,77.4z"/>
</g>
<g>
	<path class="st0" d="M80,78.2c-0.1,0-0.2,0-0.3,0l1.2,3.9l9-2.8l-1.1-3.6C86,77.2,83.1,78,80,78.2z"/>
	<path class="st0" d="M88.1,73.6l-13.2-43c-2.8,1.6-5.8,2.5-9,2.8L79,76.2C82.2,76.1,85.3,75.2,88.1,73.6z"/>
	<path class="st0" d="M74.2,28.6L74.2,28.6L72.5,23c-2.6,2.1-5.6,3.1-9,2.8l1.7,5.5C68.4,31.2,71.5,30.2,74.2,28.6z"/>
</g>
<g>
	<path class="st0" d="M34.3,31.6v43c3.7,1,7.4,1,11.1,0v-43c-1.8,0.5-3.7,0.7-5.6,0.7C37.9,32.3,36.1,32.1,34.3,31.6z"/>
	<path class="st0" d="M34.3,23.6v6c3.7,1,7.4,1,11.1,0v-6C41.7,24.8,38,24.8,34.3,23.6z"/>
	<path class="st0" d="M34.3,76.7v5.4h11.1v-5.4c-1.8,0.4-3.7,0.7-5.5,0.7C38,77.4,36.1,77.2,34.3,76.7z"/>
</g>
</svg>
