<?xml version="1.0" encoding="UTF-8"?><svg id="Lager_1" xmlns="http://www.w3.org/2000/svg" viewBox="0 0 512 512"><defs><style>.cls-1{fill:#2b3b87;}</style></defs><path class="cls-1" d="M490,130c2.6,17.39-.76,52.55-20.56,58.94-9.17,2.96-20.95,3.91-30.65,6.35-24.8,6.24-49.06,14.27-72.47,24.53l-38.32,20.17c-2.16-37.9-31.1-75.53-66-89.49,34.71-34.54,60.51-76.71,81-121,10.54-12.25,27.26-11.61,41.99-10.5l-2.99,20.99,26.32-14.81c36.31,13.72,67.1,40.86,77.44,79.35l-29.77,23.48c-.27.4,1.32,1.98,1.5,1.98h32.5Z"/><path class="cls-1" d="M179.99,429.99l-7.27-31.21c-11.91-39.46-33.5-76.36-63.6-104.48l14.87-33.31-36.56,15.99c-10.66-4.17-20.7-9.75-32.42-10.49,42.59-17.31,85.83-33.41,125.96-56.04,18.66-4.82,42.95,16.97,53.43,30.63,13.93,18.18,24.95,43.92,17,66.8-29.77,36.78-53.35,78.41-71.41,122.09Z"/><path class="cls-1" d="M491.99,446.01c.29,1.34-1.04,1.13-2,1.47-30.95,10.83-66.41.53-94.99-12.47l23.98,54.51c.4,2.11-.8,1.62-2.28,1.29-20.61-4.57-43.96-26.63-55.12-43.89-35.45-54.87-23.04-108.56-98.39-130.63-1.35-.4-2.63.32-2.19-1.77l24.54-23.54c19.74,4.1,39.18,13.52,54.92,26.05,24.28,19.33,37.54,48.41,57.55,71.45,24.57,28.27,57.83,47.8,93.97,57.54Z"/><path class="cls-1" d="M45.01,350.01c-.29,1.3,1.04,1.19,1.99,1.48,9.56,2.88,20.58,2.61,29.69,7.33,19.06,9.89,33.37,43.32,26.37,63.73-5.14,14.99-18.66,10.46-29.35,4.25-34.54-20.05-68.26-92.37-46.5-129.1,17.37-29.33,58.65-1.56,74.76,15.87l-56.96,36.44Z"/><path class="cls-1" d="M272.01,284c-3.71-36.99-31.19-73.15-65-88.01l.62-2.07,36.08-26.71c15.09-4.48,37.62,16.39,46.27,27.32,11.23,14.18,21.48,34.22,18.94,52.88-1.37,10.04-11.03,13.93-17.93,20.07-4.62,4.12-12.06,12.49-16.47,15.53-.85.58-.99,1.4-2.51.98Z"/><path class="cls-1" d="M482,368.01c1.55,1.74-9.89,10.59-11.68,11.81-12.43,8.41-24.68,10.73-39.37,7.74-13.36-2.72-17.65-9.22-25.92-19.08-23.41-27.88-39.63-59.67-73.35-77.65-8.25-4.4-17.05-6.85-25.65-10.33l20.71-15.34c35.36,4.79,55.36,36.88,79.25,59.36,21.36,20.1,47.44,36.28,76.01,43.49Z"/><path class="cls-1" d="M97,450.01c5.61.01,10.84-4.04,15.01-7.5,14.54-12.05,27.12-29.43,41.98-41.51,1.94,8.22,4.41,16.42,5.72,24.79,1.5,9.54,3.74,20.37-1.52,28.9-12.13,19.69-47.52,7.9-61.19-4.68Z"/><path class="cls-1" d="M123.01,404c-2.51-21.78-13.63-46.59-33-58.01l.62-2.06,24.04-14.78c1.79-.18,7.3,8,8.72,9.98,9.34,13,16.92,27.76,23.34,42.4-6.79,5.62-14.32,16.75-21.22,21.5-.85.58-.99,1.4-2.51.98Z"/></svg>