<?xml version="1.0" encoding="utf-8"?>
<!-- Generator: Adobe Illustrator 27.6.1, SVG Export Plug-In . SVG Version: 6.00 Build 0)  -->
<svg version="1.1" id="Lager_1" xmlns="http://www.w3.org/2000/svg" xmlns:xlink="http://www.w3.org/1999/xlink" x="0px" y="0px"
	 viewBox="0 0 100 98.5" style="enable-background:new 0 0 100 98.5;" xml:space="preserve">
<style type="text/css">
	.st0{fill-rule:evenodd;clip-rule:evenodd;fill:#A52527;}
</style>
<path class="st0" d="M14.1,4.9v40.9c0,8.2,4.5,17,10.3,24.8c9.6,12.8,23.5,23,26.2,23s16.5-10.2,26.1-23
	c5.8-7.8,10.4-16.6,10.4-24.8V4.9H14.1z M57.2,22V10.9L62.4,7l5.2,3.9V22l5.5,4H51.6L57.2,22z M55.9,30.9V42l5.5,4H39.9l5.5-4V30.9
	l5.2-3.9L55.9,30.9z M33.7,22V10.9L38.9,7l5.2,3.9V22l5.5,4H28.1L33.7,22z M17.2,7.7l4.3,3.2V22l5.5,4h-9.9V7.7z M18.4,46
	c0-0.2,0-0.5,0-0.7L23,42V30.9l5.1-3.9l5.2,3.9V42l5.5,4H18.4z M28.1,66l5.5-4V50.9l5.2-3.9l5.2,3.9V62l5.5,4H28.1z M50.6,89.6
	l-7.2-6.1l2-1.4V70.9l5.2-3.9l5.2,3.9v11.1l2,1.4L50.6,89.6z M51.6,66.1l5.5-4V50.9l5.2-3.9l5.2,3.9V62l5.5,4L51.6,66.1z M82.9,46
	H62.4l5.5-4V30.9l5.2-3.9l5.2,3.9V42l4.7,3.4C82.9,45.6,82.9,45.8,82.9,46z M84,26h-9.9l5.5-4V10.9L84,7.7V26z"/>
</svg>
