<?xml version="1.0" encoding="UTF-8"?><svg id="Lager_1" xmlns="http://www.w3.org/2000/svg" viewBox="0 0 578.6 848.8"><defs><style>.cls-1{fill:#2b3b87;}.cls-1,.cls-2{stroke-width:0px;}.cls-2{fill:#fff;}</style></defs><path class="cls-1" d="M361.35,59.38v-26.08h127.37v26.14c-11.37,4.71-13.07,7.26-13.07,19.79,0,56.83.16,113.66-.14,170.49-.05,10.1,3.84,15.76,12.97,19.91,38.67,17.58,59.07,47.91,59.17,90.46.32,134.99.12,269.99.11,404.98,0,29.63-20.75,50.44-50.24,50.44-48.16,0-96.33,0-144.49,0-28.27,0-49.58-20.78-49.61-49.09-.12-135.99-.18-271.99.03-407.98.06-41.25,23.8-74.92,62.46-90.35,6.4-2.56,9.51-7.26,9.53-14.87.05-21.83.03-43.66.03-65.5,0-36.33,0-72.66,0-108.99,0-12.05-2.44-15.43-14.12-19.34ZM515.46,559.83c0-36.65.02-73.31,0-109.96-.02-29.99.25-59.98-.24-89.96-.39-23.96-12.08-41.72-32.3-54.07-6.47-3.95-13.29-2.71-16.68,2.87-3.4,5.59-1.6,12.3,4.86,16.17,15.34,9.2,21.9,22.78,21.88,40.44-.12,131.45-.06,262.9-.06,394.36,0,2-.1,4.02.17,5.99.74,5.46,5.64,9.69,11.05,9.71,5.42.02,10.32-4.14,11.09-9.62.3-2.13.23-4.32.23-6.48.01-66.48,0-132.95.01-199.43Z"/><path class="cls-1" d="M228.04,356.05c0,2.25,0,3.91,0,5.57,0,65.49,0,130.99,0,196.48,0,14.97-1.77,29.6-8.25,43.32-8.91,18.87-24.38,29.95-43.71,36.18-5.52,1.78-11.26,2.98-16.98,4.06-10.91,2.06-15.25,7.02-15.26,18.02,0,36.5.27,73-.15,109.49-.15,13.15,6.64,19.09,19.28,19.19,17.33.14,34.66.03,51.99.05,1.45,0,2.9.18,4.6.29v26.46H30.77v-26.76c2.07,0,4.02,0,5.96,0,20,0,40,.02,59.99,0,12.82-.01,19.1-6.25,19.1-18.89,0-36.33,0-72.66,0-108.99,0-11.96-3.67-16.58-15.51-18.78-12.88-2.39-25.26-6.07-36.44-13.1-20.83-13.11-29.51-33.11-31.72-56.63-.54-5.8-.66-11.65-.66-17.48-.04-63.99-.03-127.99-.03-191.98,0-2.12,0-4.23,0-6.49h196.57ZM202.9,481.68c0-29.48.02-58.95-.02-88.43-.01-7.88-4.64-13.09-11.36-13.05-6.75.04-11.27,5.23-11.29,13.1-.03,14.49,0,28.98,0,43.46,0,43.46-.03,86.93.03,130.39.01,8.79-3.21,15.47-11.33,19.45-6.92,3.39-9.54,9.42-6.79,15.4,2.83,6.15,9.7,8.4,16.53,4.98,15.95-7.99,24.04-21.17,24.18-38.88.22-28.81.06-57.62.06-86.43Z"/><path class="cls-2" d="M515.46,559.83c0,66.48,0,132.95,0,199.43,0,2.16.07,4.35-.23,6.48-.77,5.48-5.67,9.65-11.09,9.62-5.41-.02-10.31-4.25-11.05-9.71-.27-1.97-.17-3.99-.17-5.99,0-131.45-.06-262.9.06-394.36.02-17.66-6.55-31.24-21.88-40.44-6.46-3.87-8.25-10.58-4.86-16.17,3.39-5.57,10.21-6.82,16.68-2.87,20.23,12.36,31.92,30.11,32.3,54.07.48,29.98.22,59.97.24,89.96.02,36.65,0,73.31,0,109.96Z"/><path class="cls-2" d="M202.9,481.68c0,28.81.16,57.62-.06,86.43-.14,17.72-8.23,30.9-24.18,38.88-6.82,3.42-13.7,1.17-16.53-4.98-2.75-5.99-.13-12.02,6.79-15.4,8.12-3.98,11.35-10.66,11.33-19.45-.06-43.46-.03-86.93-.03-130.39,0-14.49-.03-28.98,0-43.46.02-7.87,4.54-13.06,11.29-13.1,6.71-.04,11.35,5.17,11.36,13.05.04,29.48.02,58.95.02,88.43Z"/></svg>