<?xml version="1.0" encoding="utf-8"?>
<!-- Generator: Adobe Illustrator 27.6.1, SVG Export Plug-In . SVG Version: 6.00 Build 0)  -->
<svg version="1.1"
	 id="Lager_1" xmlns:svg="http://www.w3.org/2000/svg" xmlns:cc="http://creativecommons.org/ns#" xmlns:dc="http://purl.org/dc/elements/1.1/" xmlns:rdf="http://www.w3.org/1999/02/22-rdf-syntax-ns#" xmlns:inkscape="http://www.inkscape.org/namespaces/inkscape" xmlns:sodipodi="http://sodipodi.sourceforge.net/DTD/sodipodi-0.dtd"
	 xmlns="http://www.w3.org/2000/svg" xmlns:xlink="http://www.w3.org/1999/xlink" x="0px" y="0px" viewBox="0 0 100 89.9"
	 style="enable-background:new 0 0 100 89.9;" xml:space="preserve">
<style type="text/css">
	.st0{fill-rule:evenodd;clip-rule:evenodd;fill:#2B3B87;}
</style>
<g transform="translate(0,-952.36218)">
	<path class="st0" d="M16.9,959.9c-1.5,0-2.1,0.9-2.2,2.4c0,21.6,0,44.5,0,63.3H8.5c-1,0-2,1-2,2v4c0,1,1,2,2,2h83c1,0,2-1,2-2v-4
		c0-1-1-2-2-2h-6.3c0-23.8,0-41.3,0-63.3c0-1.6-0.8-2.4-2.3-2.4h-4c-1.7,0-2.3,0.8-2.4,2.4v7.8h-2.9c-0.8-2.1-2.9-3.5-5.2-3.5
		c-2.3,0-4.3,1.5-5.1,3.5H61c-0.8-2.1-2.8-3.5-5.2-3.5c-2.3,0-4.3,1.5-5.2,3.5h-1.5c-0.8-2.1-2.8-3.5-5.1-3.5
		c-2.3,0-4.4,1.5-5.2,3.5h-3c-0.8-2.1-2.8-3.5-5.2-3.5c-2.3,0-4.3,1.5-5.2,3.5h-2.1v-7.8c0-1.6-0.7-2.4-2.2-2.4L16.9,959.9
		L16.9,959.9z M18.8,963.9h0.7v6.2h-0.7V963.9z M80.5,963.9h0.7v6.2h-0.7V963.9z M23.5,974.1h2.1c0.8,2.1,2.8,3.5,5.2,3.5
		c2.3,0,4.3-1.5,5.2-3.5h3c0.8,2.1,2.8,3.5,5.2,3.5c2.3,0,4.3-1.5,5.1-3.5h1.5c0.8,2.1,2.8,3.5,5.2,3.5c2.3,0,4.3-1.5,5.2-3.5h2.2
		c0.8,2.1,2.8,3.5,5.1,3.5c2.3,0,4.4-1.5,5.2-3.5h2.9v15.5h-9.1c-0.8-2.1-2.8-3.5-5.2-3.5c-2.3,0-4.3,1.5-5.2,3.5H35.9
		c-0.8-2.1-2.8-3.5-5.2-3.5c-2.3,0-4.3,1.5-5.2,3.5h-2.1V974.1z M23.5,993.5h2.1c0.8,2.1,2.8,3.5,5.2,3.5c2.3,0,4.3-1.5,5.2-3.5
		h21.2c0.8,2.1,2.8,3.5,5.2,3.5c2.3,0,4.3-1.5,5.2-3.5h9.1v13.3h-2.1c-0.8-2.1-2.8-3.5-5.2-3.5c-2.3,0-4.3,1.5-5.2,3.5h-1.6
		c-0.8-2.1-2.9-3.5-5.2-3.5c-2.3,0-4.4,1.5-5.2,3.5h-1.5c-0.8-2.1-2.8-3.5-5.2-3.5c-2.3,0-4.3,1.5-5.2,3.5h-2.1
		c-0.8-2.1-2.8-3.5-5.2-3.5c-2.3,0-4.3,1.5-5.2,3.5h-4.3C23.5,1006.9,23.5,993.5,23.5,993.5z M23.5,1010.9h4.4
		c0.8,2,2.8,3.5,5.1,3.5c2.3,0,4.3-1.5,5.1-3.5h2.2c0.8,2,2.8,3.5,5.1,3.5c2.3,0,4.3-1.5,5.1-3.5h1.6c0.8,2.1,2.8,3.5,5.2,3.5
		c2.3,0,4.3-1.5,5.2-3.5h1.7c0.8,2,2.8,3.5,5.1,3.5s4.3-1.5,5.1-3.5h2.2v14.7h-53L23.5,1010.9L23.5,1010.9z"/>
</g>
</svg>
