<?xml version="1.0" encoding="UTF-8"?>
<svg id="Lager_1" data-name="Lager 1" xmlns="http://www.w3.org/2000/svg" version="1.1" viewBox="0 0 100 130">
  <defs>
    <style>
      .cls-1 {
        fill-rule: evenodd;
      }

      .cls-1, .cls-2 {
        fill: #a52527;
      }

      .cls-1, .cls-2, .cls-3 {
        stroke-width: 0px;
      }

      .cls-3 {
        fill: #fff;
      }
    </style>
  </defs>
  <path class="cls-1" d="M14.1,36.4v40.9c0,8.2,4.5,17,10.3,24.8,9.6,12.8,23.5,23,26.2,23s16.5-10.2,26.1-23c5.8-7.8,10.4-16.6,10.4-24.8v-40.9H14.1ZM57.2,53.5v-11.1l5.2-3.9,5.2,3.9v11.1l5.5,4h-21.5l5.6-4ZM55.9,62.4v11.1l5.5,4h-21.5l5.5-4v-11.1l5.2-3.9,5.3,3.9ZM33.7,53.5v-11.1l5.2-3.9,5.2,3.9v11.1l5.5,4h-21.5l5.6-4ZM17.2,39.2l4.3,3.2v11.1l5.5,4h-9.9v-18.3h.1ZM18.4,77.5v-.7l4.6-3.3v-11.1l5.1-3.9,5.2,3.9v11.1l5.5,4h-20.4ZM28.1,97.5l5.5-4v-11.1l5.2-3.9,5.2,3.9v11.1l5.5,4h-21.4ZM50.6,121.1l-7.2-6.1,2-1.4v-11.2l5.2-3.9,5.2,3.9v11.1l2,1.4-7.2,6.2ZM51.6,97.6l5.5-4v-11.2l5.2-3.9,5.2,3.9v11.1l5.5,4h-21.4ZM82.9,77.5h-20.5l5.5-4v-11.1l5.2-3.9,5.2,3.9v11.1l4.7,3.4c0,.2,0,.4,0,.6ZM84,57.5h-9.9l5.5-4v-11.1l4.4-3.2v18.3Z"/>
  <g>
    <path class="cls-2" d="M85.6,18.9c-.5,1-1,2-1.4,3.1-1.1,2.4-2.2,4.9-3.3,7.4,0,.2,0,.4,0,.7,0,0,0,.1,0,.2.3.4.7.8,1.1,1.3-.5.3-.9.5-1.3.7-.2,0-.5,0-.7-.1-.2,0-.4,0-.5.2-.2.3-.4.6-.5.9-.5,1.2-.9,2.4-1.4,3.6,0,.1,0,.3-.1.4.3,0,.6,0,.9.1.5,0,.8.5.7.9,0,.4-.6.8-1,.8-.3,0-.4,0-.4.3,0,.3,0,.5-.1.7.2.3.4.5.6.7,0,0,0,0-.1.1,0,0-.2-.1-.3-.2-.1-.2-.3-.2-.5,0-.1.1-.3.3-.4.4-.5.8-.7,1.7-.6,2.7,0,.1,0,.3.1.4.2.3.3.3.6,0,0,0,.2-.1.4-.2,0,.4-.4.6-.8.6,0,.4-.2.8-.2,1.2.5,0,.6.4.7.8,0,.4-.2.7-.5.8-.1,0-.3.1-.4,0-3-.3-6-.6-9-.9-2.1-.2-4.1-.3-6.2-.3-4.6,0-9.3-.1-13.9-.1-3.7,0-7.4,0-11.1.3-3.5.2-7,.6-10.5.9-.2,0-.4,0-.6,0-.4,0-.8,0-1-.5-.2-.3,0-.7.2-1,0,0,.3-.1.4-.2,0-.2,0-.4-.1-.6,0-.3,0-.5-.5-.6-.2,0-.3-.3-.5-.4,0,0,0,0,0-.1.1,0,.2,0,.3.2.3.3.6.3.7-.2.1-.4.2-.9,0-1.3-.1-.6-.3-1.2-.6-1.7,0-.2-.3-.3-.4-.4-.1-.1-.3,0-.4,0,0,0-.2.2-.3.3,0,0,0,0-.1-.1.1-.2.2-.4.4-.5.2-.1.2-.2.2-.4,0-.1,0-.2,0-.3,0-.3-.1-.5-.5-.4-.3,0-.9-.4-.9-.8,0-.4.3-.9.7-.9.2,0,.5,0,.8,0-.1-.3-.2-.6-.3-.9-.4-1.1-.8-2.2-1.2-3.3,0,0,0-.2,0-.2-.3-.6-.4-.7-1-.5-.3,0-.5,0-.7,0-.3-.2-.6-.3-.9-.5,0,0,0,0,0,0,.4-.4.5-1.1,1.3-1.3-1.7-3.8-3.4-7.6-5.1-11.4,1.3-.3,2.2,0,4,1,0-.4-.1-.8-.2-1.1-.3-2-.4-4,0-6,.5-2.3,2-3.8,4.3-4.4,0,0,.2,0,.2,0,.2,0,.3,0,.4-.3.3-.7.8-1.3,1.6-1.4.6,0,1.2-.3,1.8-.4.8-.1,1.9.4,2.2,1.5,0,.1,0,.3.1.4.6,0,1.2.2,1.8.2,2.1.1,4.2.7,6.2,1.2,2.1.5,4.2,1.1,6.3,1.6,1.2.3,2.4.4,3.5.6.2,0,.7-.4.8-.7.1-.4.2-.8.3-1.1,0,0,0-.2-.1-.3-.7-.5-1.1-1.2-1.3-2,0-.2-.3-.4-.5-.7.4-.2.4-.6.6-1,.4-1.2,1.1-1.9,2.3-2.3.3,0,.5-.3.9-.5.2.4.7.5,1.2.6,1.1.5,1.7,1.3,2,2.4,0,.3.3.6.4.9-.3.2-.4.5-.5.9-.2.6-.6,1.2-1.1,1.5-.2.1-.2.2-.2.4,0,.2.1.5.2.7,0,.4.3.7.6,1,0,0,.2,0,.4,0,3.1-.4,6.1-1.1,9.1-2,2.3-.6,4.5-1.2,6.9-1.4.5,0,1,0,1.6-.2,0,0,.2-.1.2-.2.2-1,.8-1.6,1.8-1.8.4,0,.8.1,1.1.2.2,0,.4.1.6.1,1,0,1.6.5,2,1.3.1.3.3.4.7.5,2,.3,3.4,1.4,4.2,3.4.6,1.5.7,3.1.6,4.6,0,1.1-.2,2.1-.4,3.2,0,0,0,.2,0,.3,0,0,.1,0,.2,0,1-.8,2.2-1.1,3.4-1,.1,0,.2,0,.3,0v.3ZM50.4,37.6s0,0,0,0c-2.8,0-5.6,0-8.4.1-2.2,0-4.5.1-6.7.2-.9,0-1.8,0-2.7.2-1.7.1-3.5.3-5.2.4-1.2.1-2.4.2-3.6.4-.1,0-.3.1-.3.2,0,.3,0,.8.3,1,.6.5.9,1.2,1.1,1.9.1.7.2,1.3,0,2-.2.3-.2.6,0,.9,0,.1,0,.3,0,.4,0,.3.2.3.4.3,2.9-.3,5.8-.6,8.7-.8,3-.2,5.9-.3,8.9-.4,8.1,0,16.2-.2,24.4.3,1.8.1,3.6.3,5.4.5,1.1.1,2.2.2,3.3.4.3,0,.4,0,.5-.4,0-.2,0-.4.1-.6,0-.1,0-.3,0-.3-.3-.5-.4-1.1-.3-1.6,0-.8.3-1.7.9-2.3.3-.3.4-.5.5-.8,0-.5,0-.5-.4-.5-2.3-.2-4.6-.5-6.9-.6-2-.2-4-.3-6-.4-2.3,0-4.5-.2-6.8-.2-2.3,0-4.6,0-6.9,0ZM52,28.1c0-.3,0-.6,0-.8,0-.5,0-1,.2-1.5.2-.8.9-.9,1.4-.4.4.4.4.9.5,1.3,0,.4.2.9.4,1.2.5.8,1.7,1.3,2.6,1,0-.2-.2-.5-.3-.7-.4-.8-.3-1.5,0-2.3.1-.3.2-.6.3-.9.4-1.5,0-2.7-1.2-3.4-.4-.3-.9-.4-1.4-.3-.5.1-.9.3-1.4.4-.1,0-.2,0-.4.1,1-2.8-.4-5.2-2.4-6.9-2.2,1.8-3.2,4-2.3,6.9-.5-.2-.9-.3-1.3-.4-1.5-.4-3,.6-3.2,2.1,0,.7,0,1.5.3,2.1.4.9.4,1.8,0,2.6,0,.2-.1.4-.2.6.7,0,1.4,0,2-.5.6-.5,1-1.1,1-1.9,0-.5.2-1,.6-1.4.4-.4.9-.3,1.2.2.1.3.2.6.2.9,0,.5,0,1,.1,1.4,0,.2.1.3.3.3.3,0,.6,0,.9,0,.6,0,1.3,0,2,0ZM79.3,31.9c-.4,0-.6-.2-.9-.2-.1,0-.3,0-.4.1-.4.4-.8.9-1.3,1.3-1.5,1.2-3,1.9-5,1.5-1.6-.4-2.8-1.2-3.5-2.7-.1-.3-.2-.6-.4-.8-.1-.2-.2-.4-.4-.5-.9-.4-1.6-.3-2.2.4-1.3,1.3-2.9,2.4-4.7,2.8-3.2.8-7.3-.2-9.1-3.5,0,0-.2-.2-.3-.2-.4,0-.8,0-1.2,0-.3,0-.4,0-.6.3-.5.9-1.1,1.7-2,2.2-2.2,1.5-4.7,1.8-7.3,1.1-1.9-.5-3.4-1.6-4.7-3-.7-.7-2.2-.4-2.5.5-.4.9-.8,1.9-1.7,2.4-1.6,1-3.4,1.4-5.2.5-1.2-.5-2.2-1.4-3.1-2.4,0-.1-.3-.2-.4-.2-.3,0-.7.2-1,.2,0,.1.1.3.2.3.8.8,1.5,1.7,2.4,2.5.9.8,1.9,1.3,3.1,1.4,1.7,0,3.2,0,4.6-1.1.4-.3.8-.6,1.1-1,.5-.5,1.1-1.1,1.6-1.6.4.3.7.5,1.1.8,1.2.9,2.5,1.6,3.9,2,1.2.3,2.4.3,3.6.3.9,0,1.7-.1,2.5-.3,1.7-.4,3-1.5,4.2-2.7.2-.2.3-.4.5-.6.3.3.4.5.6.7,1.3,1.2,2.7,2.3,4.4,2.7,1.3.3,2.7.3,4.1.2.8,0,1.5-.2,2.2-.4,1.6-.5,3-1.4,4.3-2.4.1,0,.2-.1.2-.2.8.8,1.6,1.5,2.4,2.2,1,.9,2.1,1.4,3.5,1.5,1.7.1,3.2-.2,4.5-1.3.7-.7,1.4-1.4,2.1-2.1.2-.2.4-.5.6-.8ZM49.8,35.9c-3.8,0-8.1.2-12.5.3-1.5,0-3.1.1-4.6.2-2,.1-4.1.3-6.1.5-1.4.1-2.8.3-4.1.4-.1,0-.3.1-.4.2,0,.2-.2.5,0,.6.1.2.4.3.6.4.3,0,.7,0,1-.1,3-.3,5.9-.6,8.9-.8,3.5-.2,7-.4,10.5-.4,7.9-.1,15.8-.1,23.6.3,1.7.1,3.5.2,5.2.4,2,.2,4,.4,6,.6.4,0,.8-.2.8-.6,0-.4-.2-.6-.7-.7-1.7-.2-3.4-.4-5.2-.5-3.7-.3-7.5-.5-11.2-.7-3.8-.1-7.5-.2-11.9-.2ZM49.8,44.5s0,0,0-.1c-3.5,0-7,.1-10.6.2-1.7,0-3.5.1-5.2.3-2.1.1-4.2.3-6.2.5-1.1,0-2.1.2-3.2.4-.1,0-.3.1-.4.2-.2.2-.2.5,0,.7.2.3.4.3.7.3,3-.3,6.1-.7,9.1-.9,3.2-.2,6.5-.3,9.7-.3,7.9,0,15.8-.2,23.7.4,2,.1,4,.4,6.1.5.9,0,1.7.2,2.6.3.3,0,.6-.1.7-.4,0-.2,0-.5-.1-.7,0-.1-.4-.2-.6-.2-1.6-.2-3.2-.4-4.8-.5-4.1-.4-8.1-.6-12.2-.7-3.1,0-6.2,0-9.2,0ZM30.2,29.6c0,.5-.2.9-.2,1.3,0,.1.1.3.3.3.3.1.6,0,.9-.2.4-.3.8-.7,1.1-1,.3-.2.5-.2.7.1,0,0,0,.1,0,.2.7-.3,1.4-.4,2.1-.2.3-.7.6-.8,1.2-.4.6.4,1.3.7,1.9,1.1.3.1.6.2.8.2.5,0,.6-.2.5-.6-.1-.4-.3-.7-.5-1.1.3,0,.6-.2.9-.2.4,0,1.2-.9,1.2-1.3,0,0,0,0,0-.1-.4-.6-.8-1.2-1.6-1.3-.3,0-.6-.1-1-.2,0-.2.2-.4.2-.6,0-.2,0-.5,0-.7,0-.1-.1-.3-.2-.3-.4-.2-.7,0-1,.2-.5.4-1.1.8-1.6,1.1,0,0-.2,0-.4.2.2-.5.3-1,.5-1.5.2-.4.4-.9.5-1.3.1-.4.2-.8.2-1.2,0-.8-.5-1-1.2-.6-.2.1-.4.2-.6.4-.1-.5-.3-1-.4-1.4,0-.2,0-.3-.3-.2-.4,0-.9.9-.8,1.3.2,1,.4,1.9.7,2.9,0,.1,0,.3,0,.4.4-.5.8-1.1,1.1-1.6h0c0,.1,0,.2-.1.3-.5.9-.9,1.8-1,2.9,0,.1,0,.3,0,.4.3.3.6.6,1,1,.8-.1,1.4-.8,2.2-1.3-.2.4-.4.8-.7,1.2,1,.1,2,.3,3,.4,0,0,0,0,0,.1-.5,0-.9.2-1.4.2-.5,0-.9,0-1.5,0,.4.5.7.9,1,1.4-.2,0-.3-.2-.4-.3-.6-.5-1.2-.9-1.9-1.1-.3,0-.4,0-.5.2-.4,1.1-1.7,1.3-2.5.4-.1-.2-.2-.4-.4-.7-.5.5-.9.9-1.3,1.3.1-.4.3-.8.4-1.2-.9-.1-1.8-.2-2.7-.4,0,0,0-.1,0-.2.8-.1,1.7-.2,2.6-.3-.2-.4-.4-.7-.6-1.1.2,0,.4.2.5.4.3.2.7.5,1,.7,0,0,.3,0,.3,0,.2-.5.7-.7,1.2-.9-.3-.6-.5-1.2-.8-1.7-.3-.5-.7-1-1-1.6,0,0,0,0,.1-.1.5.5,1,.9,1.5,1.4,0,0,0-.2,0-.3,0-.8-.2-1.6-.1-2.5,0-.7-.3-1.2-.8-1.6-.2-.1-.4-.2-.6-.3,0,.6,0,1.1-.1,1.7-.3-.2-.5-.3-.7-.4-.2,0-.4-.1-.6-.2-.3,0-.4,0-.5.4,0,.6.1,1.1.4,1.5.5.8,1,1.6,1.6,2.4,0,0,.1.2.2.3,0,0,0,0,0,0-.4-.2-.8-.3-1.1-.5-.3-.1-.5-.3-.8-.4-.2,0-.3-.2-.5-.2-.4,0-.6.1-.5.5,0,.2.2.4.3.6,0,.2.2.3.3.5-.2,0-.4.2-.6.2-.6,0-1,.4-1.3.8-.3.5-.3.6,0,1.1.4.5.8.9,1.6,1,.2,0,.4.1.6.2ZM69.7,29.7s0,0,0,0c-.1-.1-.2-.3-.3-.4-.2-.2-.5-.5-.8-.7-.1-.1-.2,0-.3,0-.3.6-.8,1-1.4.9-.6,0-1.1-.4-1.3-1,0-.2-.2-.2-.3-.2-.4.2-.8.3-1.2.5-.5.3-.9.6-1.3,1,.4-.5.7-.9,1-1.4,0,0,0,0,0-.1-1,.1-1.9,0-2.8-.3,1-.1,1.9-.3,3-.4-.2-.5-.5-.9-.7-1.3.7.6,1.4,1.2,2.2,1.4.3-.3.6-.6.9-.9.2-.1.2-.2.2-.4,0-1-.4-1.8-.9-2.7,0-.1-.1-.3-.2-.4,0,0,0,0,.1,0,.3.5.7,1,1,1.4,0,0,0-.2,0-.2.2-1,.4-2,.7-3,.1-.5-.3-1.2-.7-1.4,0,0-.2,0-.3,0-.2.6-.3,1.1-.5,1.6-.2-.2-.4-.3-.6-.3-.2,0-.4-.2-.6-.2-.2,0-.4,0-.5.3-.2.4-.2.8-.1,1.2.2.7.5,1.3.7,2,.1.4.3.8.4,1.3-.2,0-.3,0-.3-.1-.5-.3-.9-.6-1.4-.9-.2-.1-.4-.3-.6-.4-.3-.2-.6-.1-.8,0-.1.1-.1.4-.1.6,0,.1,0,.3.1.4.2.6.2.6-.4.7,0,0,0,0-.1,0-.8,0-1.2.5-1.6,1-.2.3-.3.5,0,.8.3.5.6,1,1.3,1,.2,0,.4.1.6.2-.2.4-.4.8-.5,1.2,0,.2,0,.3.2.4.4.1.7,0,1-.1.7-.4,1.5-.8,2.2-1.2.4-.2.8-.1.9.3,0,0,0,.1,0,.2.7-.2,1.4-.1,2,.2.2-.6.5-.7,1-.2.3.3.6.6,1,.9.3.3.8.4,1,.1.3-.3.1-.6,0-.9,0-.2-.1-.4-.2-.6.4,0,.7-.2,1-.2.4,0,1.4-.9,1.5-1.3,0,0,0,0,0-.1,0-.4-.8-1.2-1.2-1.3-.3,0-.6-.1-.9-.2.1-.2.2-.3.3-.5.1-.3.2-.5.3-.8,0-.2,0-.4-.3-.4-.3,0-.5,0-.8.2-.6.3-1.2.6-1.8.9,0,0,0,0,0-.1,0-.1.1-.2.2-.3.5-.8,1.1-1.7,1.6-2.5.2-.4.3-.9.3-1.3,0-.4,0-.5-.5-.4-.2,0-.4.1-.6.2-.2,0-.4.2-.6.3,0-.6,0-1.1,0-1.7-.2,0-.4.1-.5.2-.2.1-.4.3-.5.5-.2.2-.3.4-.3.6,0,.6,0,1.2,0,1.9,0,.5,0,1,0,1.4.5-.5,1-1,1.5-1.4,0,0,0,0,.1.1-.8,1-1.5,2.1-1.9,3.3.4.3.8.5,1,.8.2.3.4.3.6.1.2-.1.4-.2.5-.4.3-.2.6-.5.9-.8,0,0,0,0,0,0-.2.4-.5.8-.7,1.2.9.1,1.7.2,2.6.3,0,0,0,.1,0,.2-.9.1-1.8.2-2.7.4.1.4.3.8.4,1.2ZM78.4,33.4c0,0-.1,0-.1,0-.1.1-.2.2-.3.4-1.5,1.6-3.3,2.7-5.6,2.5-1.3-.1-2.6-.4-3.6-1.3-.7-.6-1.5-1.3-2.1-2-.3-.3-.4-.3-.7,0-1.1.8-2.3,1.6-3.6,2.1-1.5.6-3.1.6-4.8.6-2.2,0-4.2-.7-5.9-2.2-.4-.4-.9-.8-1.4-1.3-.1.2-.2.3-.3.5-1.3,1.3-2.7,2.4-4.5,2.8-1.7.4-3.5.4-5.3.1-1.6-.2-3-1-4.4-1.9-.4-.3-.9-.6-1.4-.9,0,0-.1.2-.2.2-.8.7-1.5,1.5-2.4,2.2-2.4,1.8-5.7,1.7-8.1-.3-.6-.5-1.1-1-1.6-1.5.4,1.1.8,2.2,1.2,3.3,0,.3.2.3.5.3,1.1-.1,2.1-.2,3.2-.3,2.1-.2,4.3-.3,6.4-.4,3.1-.2,6.1-.3,9.2-.4,4.1,0,8.3,0,12.4,0,2.7,0,5.5,0,8.2.2,1.6,0,3.1.2,4.7.3,1.4,0,2.9.2,4.3.3,1.5.1,3,.3,4.6.4.1,0,.3,0,.3-.2.4-1.1.8-2.2,1.3-3.4ZM79.7,24.1c-.4-.4-.7-.6-1.1-.9-.4-.3-.8-.5-1.3-.3-1,.3-1.7.8-1.9,1.8-.2.6-.2,1.2-.3,1.8,0,.6-.2,1.1-.6,1.6-.2.2-.4.5-.6.7,1.1.6,2.3.3,2.9-.7.1-.2.2-.5.4-.7.2-.3.5-.5.8-.7.4-.2.8,0,.8.5,0,.3,0,.6,0,.8-.1.5-.3,1-.5,1.5.6.2,1.2.3,1.7.4.3,0,.4,0,.4-.2,1.5-3.2,2.9-6.4,4.4-9.7.2-.4.3-.8.5-1.2-1.1,0-2,0-2.9.6-1.6,1.1-2.6,2.5-2.7,4.6ZM15.4,18.9c0,.1,0,.2.1.3.6,1.3,1.1,2.5,1.7,3.8,1,2.3,2,4.5,3.1,6.8,0,.1,0,.3.3.3.6-.2,1.2-.3,1.8-.5-.2-.6-.4-1.1-.5-1.6,0-.3-.1-.5,0-.8,0-.4.4-.6.8-.4.3.2.6.4.8.7.2.2.3.5.4.7.6,1,1.8,1.3,2.9.7,0,0,0-.2-.2-.2-.8-.7-1.1-1.7-1.1-2.8,0-.6-.2-1.2-.5-1.8-.7-1.3-2.2-1.5-3.3-.6-.1,0-.2.2-.3.3-.1.1-.2.2-.4.4-.2-3.4-3.3-5.6-5.6-5.2ZM47.3,19.4c.2-.6.5-1.3.7-2,0-.2.1-.4.2-.5.1-.3.2-.6.4-.9,0-.2,0-.3,0-.4-.3-.4-.4-.9-.4-1.4,0-.9.5-1.6,1.4-1.9.8-.3,1.6-.2,2.2.4.7.6.9,1.5.5,2.3-.2.6-.2,1,0,1.5.2.7.5,1.3.7,2,.1.3.2.7.3,1.1.3-1.5.3-3,1.2-4.3,0,0-.2-.1-.3-.2-.6-.6-1.2-1.1-1.7-1.8-.7-.9-1.7-1.6-1.6-2.9,0,0,0-.1-.1-.1-.4,0-.7,0-1.1,0,0,.2,0,.3,0,.4,0,.4,0,.8-.4,1.1-.8.9-1.5,1.8-2.3,2.7-.3.3-.6.5-.9.8.9,1.4.9,2.9,1.1,4.3ZM70.2,24.8c.3-.1.4-.2.6-.3.1,0,.3-.2.3-.3,1.6-5.2,3.6-10.4,5.9-15.3,0,0,0-.2.1-.3-.7-.1-.7-.1-.9.4-2,4.3-3.7,8.7-5.2,13.2-.3.9-.5,1.7-.8,2.7ZM23.5,8.5s0,0,0,0c0,0,0,.2.1.3,2.2,4.9,4.1,9.8,5.7,15,.2.7.2.7.9.7,0-.1,0-.3-.1-.4-1.6-5.2-3.5-10.3-5.8-15.3-.2-.5-.3-.5-.8-.4ZM50.3,14.8c.4.2.8.3,1.2.5.4.2.4.2.6-.2.3-.7.3-1.5-.2-2.1-.5-.6-1.2-.9-2-.7-.8.2-1.3.8-1.5,1.6-.1.6,0,1.2.4,1.6.5-.3,1-.5,1.5-.7ZM72.1,14.6c.8-.3,1.2-1.4.8-2.3-.3-1-1.4-1.6-2.4-1.3-1,.3-1.6,1.3-1.4,2.2,0,.3.2.4.5.3.8-.2,1.4,0,2,.5.2.2.3.4.5.6ZM29.5,10.9c-.8,0-1.6.5-1.9,1.3-.3.8-.1,1.7.5,2.2.1.1.3.3.5,0,.6-.9,1.4-1.2,2.5-.9.2,0,.3,0,.3-.2.3-1.2-.6-2.4-1.9-2.4ZM53.2,7.6h-5.6c.2,1.2,1.5,2.2,2.8,2.2,1.3,0,2.6-1,2.8-2.2ZM26.4,10c0-.1.1-.2.2-.3.5-.9,1.4-1.3,2.4-1.1.4,0,.4,0,.4-.4,0-.1,0-.2,0-.3-.2-1.1-1.1-1.8-2-1.7-1.1.1-1.9,1-1.9,2.1,0,.7.3,1.3,1,1.7ZM74.1,10c.1,0,.2-.1.3-.2.7-.6.9-1.6.5-2.4-.4-.9-1.4-1.3-2.3-1.1-.9.2-1.4,1-1.4,2,0,.3,0,.4.4.3,1-.2,1.9.2,2.4,1.1,0,0,.1.2.2.3ZM70.4,8.4c-.6,0-.7,0-.9.4,0,.2-.2.4-.3.5-1.7,3.5-3,7.3-4.1,11-.2.6-.1.6.5.8,1.3-4.4,2.7-8.7,4.8-12.8ZM30.2,13.6c-.7,0-1.3.4-1.7,1.2-.4.8-.2,1.5.3,2.2.1.2.3.3.5,0,.7-1,1.5-1.3,2.6-.9.2,0,.3,0,.3-.2.2-1.2-.7-2.3-2.1-2.3ZM68.3,16.1c0,0,0,0,.1,0,1.2-.4,2,0,2.7.9.2.2.3.1.4,0,.6-.6.7-1.5.3-2.3-.4-.8-1.2-1.3-2.1-1.1-1.2.1-2,1.5-1.5,2.5ZM30.2,8.4c0,0,0,.2,0,.2,1.7,3.2,2.9,6.6,3.9,10.1.3.8.6,1.6.8,2.4,0,0,0,0,0,.1.4-.1.5-.3.3-.7-.2-.5-.3-.9-.4-1.4-1.1-3.5-2.3-7-4-10.3-.2-.4-.4-.5-.9-.4ZM27.3,12.4c0-.2.1-.3.2-.4.5-1,1.5-1.4,2.5-1.2.5.1.5,0,.4-.4-.2-1.2-1.3-1.9-2.4-1.6-1.1.3-1.8,1.5-1.5,2.6.1.4.3.7.7,1ZM73.2,12.3c.7-.3,1.1-1.4.7-2.3-.4-1-1.5-1.6-2.5-1.2-.9.3-1.4,1.3-1.2,2.1,1.4-.4,2.4,0,3,1.4ZM50.3,3.4c-.3.3-.5.6-.5,1,0,.7,0,1.3,0,2-.7,0-1.3,0-1.9,0-.4,0-.7.2-1,.5.3.3.6.5,1,.5,1.5,0,3,0,4.5,0,.4,0,.8-.1,1.1-.5-.3-.3-.5-.5-1-.5-.6,0-1.2,0-1.9,0,0-.7,0-1.3,0-2,0-.4-.1-.8-.4-1ZM67.5,18.3c1.5-.7,2.6-.2,3.3,1.2.6-.5.8-1.6.3-2.4-.5-.9-1.6-1.2-2.5-.8-.7.3-1.3,1.3-1.1,2ZM29.8,19.5c.3-.6.7-1.1,1.4-1.4.7-.3,1.3,0,1.9.2.2-.9-.4-1.8-1.3-2.1-.9-.3-1.9.2-2.4,1-.4.8-.2,2,.4,2.2ZM29.7,21.5s0,0,.1,0c0-.6-.1-1.2-.2-1.8,0,0,0,0,0,0-.5-.6-.6-1.2-.5-2,0-.1,0-.3-.1-.4-.6-.6-.8-1.3-.6-2.2,0-.2,0-.3-.2-.5-.6-.5-.8-1-.8-1.8,0-.2,0-.4-.2-.5-.6-.5-.8-1.2-.7-2,0-.1,0-.3-.1-.4-.5-.4-.8-.8-.9-1.4,0-.2-.1-.3-.3-.2-.1,0-.3,0-.4,0,2,4.3,3.7,8.6,5.2,13ZM76,8.5q-.6-.2-.8.4c-.1.5-.4.8-.8,1.1-.2.1-.3.3-.2.5,0,.8-.2,1.5-.8,2,0,0-.1.2-.1.3,0,.8-.2,1.4-.8,1.9-.2.1-.2.3-.2.5.2.8,0,1.5-.7,2.2,0,.1-.1.3-.1.5,0,.6,0,1.2-.4,1.7-.2.3-.3.5-.3.9,0,.1,0,.3,0,.5,0,.2,0,.3,0,.5,1.5-4.3,3.2-8.6,5.1-12.7ZM76.2,30c.3.6.6,1,1.3,1.1.8.1,1.6.3,2.4.6.6.2,1.1,0,1.6-.4-.3-.3-.4-.8-.9-1-1.1-.2-2.1-.5-3.2-.8-.1,0-.3,0-.4,0-.3.1-.5.3-.8.4ZM24.5,30.1c-.5-.4-1-.6-1.6-.4-.8.3-1.7.5-2.6.6-.7.1-.8.6-1.1,1,.2.1.4.3.6.3.2,0,.4.2.6.1,1.1-.3,2.2-.5,3.3-.8.1,0,.2-.1.3-.2.2-.2.3-.5.5-.7ZM53.1,29.1c-.1-.1-.2-.2-.3-.3-.3-.4-.6-.4-1.1-.4-.9,0-1.8,0-2.7,0-.7,0-.9.4-1.3.8.1.1.3.2.3.3.3.3.6.4,1.1.4.8,0,1.7,0,2.5,0,.7,0,1.1-.3,1.5-.8ZM32.8,18.4c0,0-.1-.1-.2-.1-.6-.3-1.5-.2-2.1.3-.6.5-.9,1.4-.7,2.1,0,0,.2.2.3.2.2,0,.5,0,.8.1.4.1.7,0,.7-.5,0-.2,0-.5,0-.7.1-.6.5-1.1,1.1-1.4ZM67.8,18.4c0,0,0,0,.1.1.7.2,1,.8,1.1,1.5,0,.2,0,.5,0,.7,0,.4.2.5.6.3.2,0,.4-.1.7-.2.2,0,.3-.1.4-.3.2-1-.4-2-1.4-2.3-.5-.2-1-.2-1.5.1ZM68,28.2c0-.7-.5-1.2-1.2-1.2-.6,0-1.1.5-1.1,1.1,0,.7.5,1.2,1.2,1.2.6,0,1.1-.5,1.1-1.1ZM33.8,29.3c.7,0,1.2-.5,1.2-1.2,0-.6-.5-1.2-1.2-1.2-.6,0-1.1.5-1.1,1.2,0,.7.5,1.2,1.1,1.2ZM47,21.4h.1c0,0,0-.1,0-.2-.1-1-.2-2-.3-3-.2-1-.3-2.1-1-3,.2-.1.3-.2.5-.4.9-1,1.8-2,2.7-3,.4-.5.5-1,.4-1.6,0,0,0-.2-.1-.3,0,0,0,0-.1,0,0,.3,0,.6,0,.9,0,.2,0,.4-.2.5-1,1.3-2,2.5-3.3,3.6-.1.1-.3.2-.4.4.6.5.8,1.2,1,2,.3,1.3.4,2.6.7,3.9,0,.1,0,.2.1.3ZM54.9,15.1c-1.1,2-1.1,4.2-1.3,6.3.1,0,.2-.2.2-.3,0-.5.1-1.1.2-1.6.3-1.5.4-3,1.4-4.3,0,0,0,0-.1,0-1.3-1.1-2.4-2.3-3.5-3.7-.2-.2-.3-.5-.2-.7,0-.3,0-.5,0-.8-.1,0-.2,0-.2,0,0,0,0,0,0,0,0,.5-.1.9.2,1.4.8,1.2,1.7,2.2,2.7,3.2.2.2.5.4.6.5ZM53.2,6.1c-.1-1.1-1.3-2.3-2.2-2.3v2.3h2.2ZM49.6,6.1v-2.3c-1,0-2.2,1.4-2.2,2.3h2.2ZM33.3,20.8c.4-.3.5-1,1.2-.9-.3-.6-.6-1-1.3-1.2,0,.3,0,.6,0,.9,0-.2,0-.3-.1-.5,0-.1,0-.3-.1-.4-.5.1-.9.6-.9,1.2.7,0,.9.5,1.3.9ZM67.5,18.7c-.6.2-1,.6-1.3,1.2.7,0,.8.6,1.2.9.4-.4.6-1,1.3-.9,0-.6-.4-1.1-.9-1.2,0,.3-.2.7-.3,1h0v-1.1ZM68.9,12.5s0,0-.1,0c-.7,2.1-1.5,4.2-2.2,6.3.6-.3.6-.3.6-.5,0-.7.2-1.3.7-1.8,0,0,.2-.3.1-.4-.1-.9,0-1.6.8-2.2,0,0,.2-.2.2-.3,0-.3,0-.7-.1-1ZM33.9,18.7c-.8-2.2-1.5-4.3-2.2-6.4-.1.4-.2.8-.2,1.2,0,0,0,.2.2.3.7.6,1,1.3.8,2.2,0,.2,0,.3.2.5.4.4.7.9.7,1.5,0,.4.1.6.6.7ZM63.7,31.7c0,0,.1,0,.2,0,.4-.4.9-.8,1.3-1.2.2-.2,0-.6-.2-.7-.3-.1-1.5.6-1.5.9,0,.3.1.7.2,1ZM36.7,31.6c0,0,.1,0,.2,0,0-.3.1-.7.1-1,0,0,0-.2-.2-.3-.3-.2-.5-.4-.8-.5-.1,0-.4,0-.5,0,0,.1-.1.4,0,.5.4.4.8.8,1.2,1.2ZM74.6,6.6c0,0,0,.2,0,.2.4.3.5.7.6,1.2,0,0,.1.1.2.1.3,0,.7,0,1,0,0-.8-1-1.7-1.9-1.6ZM25.9,6.6c-.8-.1-1.9.8-1.8,1.6.3,0,.7,0,1,0,0,0,.2,0,.2-.2.2-.5.4-.9.6-1.4ZM53,28.5v-3.2c-.1.1-.3.2-.3.3-.1.2-.2.5-.2.7,0,.5,0,1.1,0,1.6,0,.3.1.5.5.6ZM47.8,28.4s0,0,.1,0c.1-.2.3-.3.3-.5,0-.3.1-.7.1-1,0-.4,0-.8-.2-1.2,0-.2-.2-.4-.4-.4v3ZM61.6,33s0,0,0,0c.2-.2.6-.3.7-.5.2-.5.3-1.1.5-1.7,0,0,0,0,0,0-.2.2-.6.3-.7.5-.2.5-.3,1.1-.5,1.6ZM38.9,33c-.1-.4-.3-.8-.3-1.2,0-.6-.4-.8-1-.9.1.4.3.8.3,1.3,0,.5.4.7.9.9ZM31.8,32.5c.5-.5.6-1,.2-1.8-.2.2-.6.3-.5.7,0,.4.2.7.3,1.1ZM68.6,30.6c-.3.6-.4,1.2.2,1.7,0-.3.1-.5.2-.8.2-.6.1-.6-.4-1ZM52.9,31.8v-2c-.4.2-.7.5-.4,1,0,.1,0,.3,0,.4,0,.3.1.5.4.7ZM48.5,30.2c-.2-.2-.4-.3-.6-.5v2c.6-.4.2-1.1.6-1.5ZM47.2,28.9h.1v-3.3s0,0-.1,0v3.3ZM53.4,25.6v3.3c.2-.4.2-3.1,0-3.3ZM62.9,32.4s0,0,0,0c.2-.1.4-.3.6-.4,0,0,0-.2,0-.2,0-.3-.2-.6-.3-1-.2.6-.3,1.1-.4,1.6ZM31.3,25.1c-.2-.6-.6-1.1-.9-1.6.3.5,0,1.4.9,1.6ZM37.7,32.3c-.1-.5-.3-1-.4-1.5-.4,1-.4,1.1.4,1.5ZM53.4,29.2c-.2.3-.2,2.8,0,3v-3ZM47.4,29.3s0,0,0,0v2.9s0,0,0,0v-2.9ZM51,15.3c.4.5.8,1,1.3,1.5,0-.7-.6-1.3-1.3-1.5ZM64.1,24.2c-.3.8-.3.8.3,1.1,0-.4-.2-.7-.3-1.1ZM51.5,30.1c.2.4.5.7.7,1,.1-.7-.1-1.1-.7-1ZM48.5,31.1c.2-.3.4-.6.7-1-.5-.1-.8.3-.7,1ZM69.2,11.6c.7-.4.8-.7.6-1.4-.2.5-.4.9-.6,1.4ZM69.9,24.1c-.2.4-.5.7-.7,1.1.7,0,.6-.7.7-1.1ZM31.3,11.6c-.2-.4-.4-.8-.6-1.3-.2.7-.1.7.6,1.3ZM36.1,25.3c.7-.2.7-.4.4-.9-.1.3-.3.6-.4.9ZM32.5,31.2c.1-.4.3-.7,0-1-.4.2-.4.2,0,1ZM48.6,16.5c.3-.4.6-.7,1-1.1-.5.2-.9.6-1,1.1ZM30.1,9.2s0,0,0,0c0-.2-.2-.4-.3-.5,0,0-.1-.1-.2-.2,0,0-.1,0-.1.1,0,.1,0,.2,0,.3.1.1.3.3.5.4ZM70.4,9.1s0,0,0,0c.2-.1.3-.2.5-.4,0,0,0-.2,0-.3,0,0-.2,0-.3.1-.1.2-.2.4-.3.5ZM68,30.8s0,0,0,0c0-.2.1-.3.1-.5,0,0,0-.1-.1-.2,0,0-.1.1-.1.2,0,.2,0,.3,0,.5ZM48.7,10.8c-.2.3-.3.5-.5.8.3-.2.6-.4.5-.8Z"/>
    <path class="cls-3" d="M50.4,37.6c2.3,0,4.6,0,6.9,0,2.3,0,4.5.1,6.8.2,2,0,4,.2,6,.4,2.3.2,4.6.4,6.9.6.5,0,.5,0,.4.5,0,.3-.2.6-.5.8-.6.6-.9,1.4-.9,2.3,0,.6,0,1.1.3,1.6,0,0,0,.2,0,.3,0,.2-.1.4-.1.6,0,.3-.2.4-.5.4-1.1-.1-2.2-.3-3.3-.4-1.8-.2-3.6-.3-5.4-.5-8.1-.5-16.2-.4-24.4-.3-3,0-5.9.2-8.9.4-2.9.2-5.8.5-8.7.8-.3,0-.4,0-.4-.3,0-.1,0-.3,0-.4,0-.3,0-.6,0-.9.3-.6.2-1.3,0-2-.2-.7-.5-1.4-1.1-1.9-.2-.2-.2-.6-.3-1,0,0,.2-.1.3-.2,1.2-.1,2.4-.3,3.6-.4,1.7-.1,3.5-.3,5.2-.4.9,0,1.8-.1,2.7-.2,2.2,0,4.5-.2,6.7-.2,2.8,0,5.6,0,8.4-.1,0,0,0,0,0,0ZM41.8,40.1c.4.2.9.1,1.3,0-.4.7-.4.9.2,1.6-.3,0-.6-.2-.9-.1-.6,0-.9.7-.7,1.3.2.4.6.6,1,.6.4,0,.8-.3.9-.7.1-.4,0-.7-.4-1,.1,0,.3,0,.4,0,.6,0,1.1-.3,1.2-.9,0-.6-.4-1-1-1-.3,0-.5.1-.8.2,0,0,.1-.2.2-.3.2-.3.2-.6,0-.9-.2-.4-.6-.5-1-.5-.4,0-.7.2-.9.6-.2.4,0,.8.3,1,0,0,0,0,0,.1-.1,0-.3-.1-.4-.2-.5-.1-1.1.2-1.2.6-.1.5.1,1,.7,1.2.5.2,1.1,0,1.3-.6.2-.4,0-.8-.3-1.1ZM73.3,42.6c-.3-.1-.7-.2-1-.4.3-.5.2-.8,0-1.2-.3-.3-.8-.4-1.2-.2-.4.2-.6.6-.5.9.2.7.7.8,1.3.7-.4.7-.3,1.3.4,1.5.4.1.8,0,1.1-.3.3-.4.2-.8,0-1.2.2,0,.3.2.5.2.4,0,.7,0,1-.3.2-.3.3-.6.1-.9-.2-.4-.5-.5-.9-.6-.1,0-.2,0-.3,0,.3-.6.3-.9,0-1.3-.3-.3-.9-.4-1.2-.1-.3.2-.5.6-.4,1,0,.2.3.5.5.6.2.1.5,0,.8.1-.3.5-.3.7,0,1.3ZM27.9,41.1c0,0,0-.2.1-.2.2-.4.2-.7,0-1-.3-.3-.7-.4-1.2-.3-.4.1-.6.5-.6.8,0,.2.1.4.2.7-.6,0-1,0-1.2.7-.1.3,0,.7.4.9.4.3.9.2,1.2,0,.4-.3.4-.6.2-1.3.3,0,.6-.2,1-.2-.3.4-.3.8,0,1.3-.7,0-1.1.1-1.3.6-.1.4,0,.8.3,1,.4.3.9.3,1.2,0,.2-.2.3-.4.3-.6,0-.2-.1-.5-.2-.7.2,0,.4,0,.5,0,.4,0,.7-.5.7-.9,0-.4-.3-.8-.8-.9-.4,0-.7,0-.9.3ZM59.1,39.9c.3-.6.3-1,0-1.3-.3-.3-.9-.4-1.3-.1-.4.2-.6.6-.5,1,.1.5.5.7,1.4.7-.3.7-.2,1.1.2,1.4.5.3,1,.2,1.7-.4.1,0,.2.1.3.2,1.4.7,2.8,1.4,4.2,2.1.2.1.4.1.6,0,1.4-.6,2.8-1.2,4.3-1.9.1,0,.2-.1.4-.2-.2,0-.3-.2-.4-.2-1.3-.7-2.7-1.5-4-2.2-.3-.1-.5-.2-.7,0-1.4.6-2.8,1.2-4.2,1.9-.1,0-.3.1-.4.2-.2-.9-.6-1.2-1.5-1.1ZM50.4,38.4s0,0,0,0c-.8,0-1.6,0-2.4,0-.7,0-1.3.2-1.9.7-1,.8-1.1,2.2-.1,3.1.6.6,1.3.8,2.1.8,1.5,0,3,0,4.5,0,.4,0,.9,0,1.3-.3,1.1-.5,1.7-1.6,1.3-2.6-.3-.9-1.1-1.5-2-1.6-.9,0-1.9,0-2.8,0ZM39.9,41c-.2,0-.3-.1-.4-.2-1.5-.6-3-1.2-4.5-1.8-.2,0-.4,0-.6,0-1.2.7-2.4,1.5-3.7,2.2-.2.1-.4.2-.7.4,0,0,.1,0,.2,0,1.5.6,3.1,1.2,4.6,1.8.1,0,.3,0,.4,0,.9-.5,1.8-1,2.6-1.4.6-.3,1.3-.7,2-1.1ZM57.3,41.6c-.4.5-.4.9-.1,1.3.3.4.8.5,1.3.3.4-.2.7-.6.6-1-.2-.8-.8-.9-1.4-.8.3-.7.2-1.1-.2-1.4-.4-.3-1-.3-1.4,0-.3.3-.4.7-.2,1.1.2.5.8.6,1.5.5Z"/>
    <path class="cls-3" d="M52,28.1c-.7,0-1.3,0-2,0-.3,0-.6,0-.9,0-.2,0-.3,0-.3-.3,0-.5,0-1-.1-1.4,0-.3,0-.6-.2-.9-.2-.5-.7-.6-1.2-.2-.4.4-.6.8-.6,1.4,0,.8-.4,1.4-1,1.9-.6.4-1.3.5-2,.5,0-.2.1-.4.2-.6.4-.9.4-1.8,0-2.6-.3-.7-.4-1.4-.3-2.1.2-1.5,1.7-2.6,3.2-2.1.4.1.8.3,1.3.4-.8-2.9.2-5.1,2.3-6.9,2,1.6,3.5,4.1,2.4,6.9.1,0,.3,0,.4-.1.5-.1.9-.3,1.4-.4.5-.1,1,0,1.4.3,1.2.7,1.6,1.9,1.2,3.4,0,.3-.2.6-.3.9-.3.8-.3,1.5,0,2.3.1.2.2.5.3.7-.8.3-2-.2-2.6-1-.2-.4-.3-.8-.4-1.2-.1-.5-.1-1-.5-1.3-.6-.6-1.2-.4-1.4.4-.1.5-.1,1-.2,1.5,0,.3,0,.5,0,.8Z"/>
    <path class="cls-3" d="M79.3,31.9c-.2.3-.4.6-.6.8-.7.7-1.4,1.4-2.1,2.1-1.3,1.1-2.8,1.4-4.5,1.3-1.3-.1-2.5-.6-3.5-1.5-.8-.7-1.6-1.5-2.4-2.2,0,0-.1,0-.2.2-1.3,1-2.7,2-4.3,2.4-.7.2-1.5.3-2.2.4-1.4,0-2.7,0-4.1-.2-1.8-.4-3.2-1.5-4.4-2.7-.2-.2-.4-.4-.6-.7-.2.2-.4.4-.5.6-1.2,1.2-2.5,2.2-4.2,2.7-.8.2-1.7.3-2.5.3-1.2,0-2.4,0-3.6-.3-1.5-.4-2.7-1.1-3.9-2-.4-.3-.7-.5-1.1-.8-.5.5-1,1.1-1.6,1.6-.4.3-.7.6-1.1,1-1.4,1.1-2.9,1.2-4.6,1.1-1.2,0-2.2-.6-3.1-1.4-.8-.8-1.6-1.6-2.4-2.5,0,0-.1-.2-.2-.3.4,0,.7-.2,1-.2.1,0,.3.1.4.2.9,1,1.9,1.8,3.1,2.4,1.9.8,3.6.5,5.2-.5.9-.5,1.3-1.5,1.7-2.4.4-.9,1.8-1.2,2.5-.5,1.3,1.4,2.8,2.5,4.7,3,2.6.7,5,.4,7.3-1.1.8-.6,1.5-1.3,2-2.2.1-.2.3-.3.6-.3.4,0,.8,0,1.2,0,.1,0,.3,0,.3.2,1.7,3.3,5.9,4.3,9.1,3.5,1.9-.5,3.4-1.5,4.7-2.8.7-.7,1.4-.8,2.2-.4.2,0,.3.3.4.5.1.3.2.6.4.8.7,1.5,1.9,2.3,3.5,2.7,2,.4,3.5-.3,5-1.5.5-.4.8-.9,1.3-1.3.1,0,.3-.2.4-.1.3,0,.6.1.9.2Z"/>
    <path class="cls-3" d="M49.8,35.9c4.4,0,8.1,0,11.9.2,3.7.1,7.5.4,11.2.7,1.7.1,3.4.3,5.2.5.4,0,.7.3.7.7,0,.3-.4.6-.8.6-2-.2-4-.4-6-.6-1.7-.2-3.5-.3-5.2-.4-7.9-.5-15.8-.4-23.6-.3-3.5,0-7,.2-10.5.4-3,.2-5.9.5-8.9.8-.4,0-.7.1-1,.1-.2,0-.5-.2-.6-.4,0-.1,0-.4,0-.6,0-.1.2-.2.4-.2,1.4-.2,2.8-.3,4.1-.4,2-.2,4.1-.3,6.1-.5,1.5-.1,3.1-.2,4.6-.2,4.3-.1,8.7-.2,12.5-.3Z"/>
    <path class="cls-3" d="M49.8,44.5c3.1,0,6.2,0,9.2,0,4.1,0,8.1.3,12.2.7,1.6.2,3.2.3,4.8.5.2,0,.5,0,.6.2.1.2.2.5.1.7,0,.3-.4.4-.7.4-.9-.1-1.7-.2-2.6-.3-2-.2-4-.4-6.1-.5-7.9-.6-15.8-.5-23.7-.4-3.2,0-6.5.1-9.7.3-3.1.2-6.1.6-9.1.9-.3,0-.6,0-.7-.3-.2-.2-.1-.5,0-.7,0-.1.3-.2.4-.2,1.1-.1,2.1-.3,3.2-.4,2.1-.2,4.2-.4,6.2-.5,1.7-.1,3.5-.2,5.2-.3,3.5,0,7-.1,10.6-.2,0,0,0,0,0,.1Z"/>
    <path class="cls-3" d="M30.2,29.6c-.2,0-.4-.2-.6-.2-.7,0-1.2-.5-1.6-1-.4-.4-.4-.6,0-1.1.3-.5.6-.8,1.3-.8.2,0,.4-.1.6-.2-.1-.2-.2-.4-.3-.5,0-.2-.2-.4-.3-.6-.1-.4,0-.6.5-.5.2,0,.3,0,.5.2.3.1.5.3.8.4.4.2.8.3,1.1.5,0,0,0,0,0,0,0-.1-.1-.2-.2-.3-.5-.8-1.1-1.6-1.6-2.4-.3-.5-.5-.9-.4-1.5,0-.3.2-.5.5-.4.2,0,.4.1.6.2.2,0,.4.2.7.4,0-.6,0-1.1.1-1.7.2,0,.4.1.6.3.5.4.8.8.8,1.6,0,.8,0,1.6.1,2.5,0,.1,0,.2,0,.3-.5-.5-1-.9-1.5-1.4,0,0,0,0-.1.1.4.5.7,1,1,1.6.3.5.5,1.1.8,1.7-.5.2-1,.4-1.2.9,0,0-.2,0-.3,0-.3-.2-.7-.4-1-.7-.2-.1-.3-.3-.5-.4.2.4.4.7.6,1.1-.9.1-1.7.2-2.6.3,0,0,0,.1,0,.2.9.1,1.7.2,2.7.4-.2.4-.3.9-.4,1.2.4-.4.8-.8,1.3-1.3.2.3.3.5.4.7.7.9,2.1.6,2.5-.4.1-.3.2-.3.5-.2.7.2,1.3.6,1.9,1.1.1.1.3.2.4.3-.3-.4-.6-.8-1-1.4.6,0,1.1,0,1.5,0,.5,0,.9-.1,1.4-.2,0,0,0,0,0-.1-1-.1-1.9-.3-3-.4.2-.4.4-.8.7-1.2-.7.5-1.4,1.2-2.2,1.3-.4-.4-.7-.6-1-1,0,0,0-.3,0-.4,0-1,.5-2,1-2.9,0,0,0-.2.1-.2h0c-.4.4-.7,1-1.1,1.5,0-.1,0-.3,0-.4-.2-1-.4-1.9-.7-2.9,0-.4.4-1.2.8-1.3.2,0,.3,0,.3.2.1.5.3.9.4,1.4.2-.2.4-.3.6-.4.7-.4,1.2-.2,1.2.6,0,.4,0,.8-.2,1.2-.1.5-.3.9-.5,1.3-.2.5-.3.9-.5,1.5.2,0,.3,0,.4-.2.5-.4,1.1-.7,1.6-1.1.3-.2.6-.4,1-.2.1,0,.2.2.2.3,0,.2,0,.5,0,.7,0,.2-.1.4-.2.6.3,0,.6.2,1,.2.8.1,1.2.7,1.6,1.3,0,0,0,0,0,.1,0,.4-.8,1.3-1.2,1.3-.3,0-.6.1-.9.2.2.4.4.7.5,1.1.1.4,0,.7-.5.6-.3,0-.6,0-.8-.2-.7-.3-1.3-.7-1.9-1.1-.6-.4-.9-.3-1.2.4-.7-.2-1.4-.1-2.1.2,0,0,0-.2,0-.2-.2-.3-.4-.4-.7-.1-.4.4-.8.7-1.1,1-.3.2-.6.3-.9.2-.1,0-.3-.2-.3-.3,0-.4.1-.8.2-1.3Z"/>
    <path class="cls-3" d="M69.7,29.7c-.1-.4-.3-.8-.4-1.2.9-.1,1.8-.2,2.7-.4,0,0,0-.1,0-.2-.8-.1-1.7-.2-2.6-.3.2-.4.5-.8.7-1.2,0,0,0,0,0,0-.3.3-.6.5-.9.8-.2.1-.3.2-.5.4-.3.2-.4.2-.6-.1-.2-.3-.6-.5-1-.8.3-1.2,1.1-2.2,1.9-3.3,0,0,0,0-.1-.1-.5.5-1,1-1.5,1.4,0-.4,0-.9,0-1.4,0-.6,0-1.2,0-1.9,0-.3,0-.5.3-.6.2-.2.3-.4.5-.5.1-.1.3-.1.5-.2,0,.6,0,1.1,0,1.7.3-.1.4-.2.6-.3.2,0,.4-.2.6-.2.4,0,.5,0,.5.4,0,.4-.1.9-.3,1.3-.5.9-1.1,1.7-1.6,2.5,0,.1-.1.2-.2.3,0,0,0,0,0,.1.6-.3,1.2-.6,1.8-.9.2-.1.5-.2.8-.2.2,0,.3.1.3.4,0,.3-.2.5-.3.8,0,.1-.2.3-.3.5.3,0,.6.2.9.2.4,0,1.2.9,1.2,1.3,0,0,0,0,0,.1-.1.4-1.1,1.3-1.5,1.3-.3,0-.7.1-1,.2,0,.2.2.4.2.6,0,.3.2.7,0,.9-.2.2-.7.1-1-.1-.3-.3-.7-.5-1-.9-.5-.5-.8-.3-1,.2-.7-.3-1.3-.4-2-.2,0,0,0-.1,0-.2-.2-.4-.5-.5-.9-.3-.7.4-1.5.8-2.2,1.2-.3.2-.7.3-1,.1-.2,0-.3-.2-.2-.4.2-.4.3-.8.5-1.2-.2,0-.4-.2-.6-.2-.7,0-1-.5-1.3-1-.2-.3-.2-.6,0-.8.5-.5.9-1,1.6-1,0,0,0,0,.1,0,.6-.1.6-.1.4-.7,0-.1-.1-.3-.1-.4,0-.2,0-.5.1-.6.2-.2.5-.2.8,0,.2.1.4.3.6.4.5.3.9.6,1.4.9,0,0,.2,0,.3.1-.2-.5-.3-.9-.4-1.3-.2-.7-.5-1.3-.7-2-.1-.4,0-.8.1-1.2.1-.2.2-.3.5-.3.2,0,.4.1.6.2.2,0,.3.2.6.3.2-.6.3-1.1.5-1.6,0,0,.2,0,.3,0,.4.1.8.9.7,1.4-.2,1-.4,2-.7,3,0,0,0,.2,0,.2-.4-.5-.7-1-1-1.4,0,0,0,0-.1,0,0,.1.1.3.2.4.4.8.8,1.7.9,2.7,0,.2,0,.3-.2.4-.3.2-.6.5-.9.9-.9-.2-1.5-.8-2.2-1.4.2.4.4.8.7,1.3-1,.1-2,.3-3,.4.9.4,1.8.5,2.8.3,0,0,0,0,0,.1-.3.4-.7.9-1,1.4.5-.4.9-.7,1.3-1,.4-.2.8-.4,1.2-.5.2,0,.3,0,.3.2.2.6.6,1,1.3,1,.7,0,1.2-.3,1.4-.9,0-.2.2-.2.3,0,.3.2.5.5.8.7.1.1.2.3.3.4,0,0,0,0,0,0Z"/>
    <path class="cls-3" d="M78.4,33.4c-.4,1.2-.8,2.3-1.3,3.4,0,0-.2.2-.3.2-1.5-.1-3-.3-4.6-.4-1.4-.1-2.9-.2-4.3-.3-1.6-.1-3.1-.2-4.7-.3-2.7,0-5.5-.1-8.2-.2-4.1,0-8.3,0-12.4,0-3.1,0-6.2.2-9.2.4-2.1.1-4.3.3-6.4.4-1.1,0-2.1.2-3.2.3-.3,0-.4,0-.5-.3-.4-1.1-.8-2.2-1.2-3.3.5.5,1.1,1,1.6,1.5,2.4,2,5.7,2.1,8.1.3.9-.7,1.6-1.5,2.4-2.2,0,0,.1-.1.2-.2.5.3.9.6,1.4.9,1.3.9,2.7,1.7,4.4,1.9,1.8.2,3.5.3,5.3-.1,1.8-.4,3.2-1.5,4.5-2.8.1-.1.2-.3.3-.5.6.5,1,.9,1.4,1.3,1.7,1.5,3.6,2.2,5.9,2.2,1.6,0,3.2,0,4.8-.6,1.3-.5,2.5-1.3,3.6-2.1.3-.2.4-.2.7,0,.7.7,1.4,1.4,2.1,2,1,.9,2.3,1.2,3.6,1.3,2.3.2,4.1-.9,5.6-2.5.1-.1.2-.2.3-.4,0,0,0,0,.1,0Z"/>
    <path class="cls-3" d="M79.7,24.1c0-2.1,1.1-3.5,2.7-4.6.8-.6,1.8-.7,2.9-.6-.2.4-.4.8-.5,1.2-1.5,3.2-2.9,6.4-4.4,9.7,0,.2-.2.3-.4.2-.6-.2-1.1-.3-1.7-.4.2-.5.3-1,.5-1.5,0-.3.1-.6,0-.8,0-.4-.4-.7-.8-.5-.3.1-.6.4-.8.7-.2.2-.3.5-.4.7-.6,1-1.8,1.3-2.9.7.2-.2.4-.5.6-.7.4-.4.6-1,.6-1.6,0-.6.1-1.2.3-1.8.3-1,1-1.6,1.9-1.8.5-.1,1,0,1.3.3.3.3.7.6,1.1.9Z"/>
    <path class="cls-3" d="M15.4,18.9c2.3-.4,5.4,1.8,5.6,5.2.2-.1.3-.3.4-.4.1,0,.2-.2.3-.3,1.1-1,2.6-.8,3.3.6.3.5.5,1.2.5,1.8,0,1.1.3,2,1.1,2.8,0,0,.1.1.2.2-1.1.6-2.3.3-2.9-.7-.1-.2-.2-.5-.4-.7-.2-.3-.5-.5-.8-.7-.4-.2-.7,0-.8.4,0,.3,0,.5,0,.8.1.5.3,1.1.5,1.6-.6.2-1.2.3-1.8.5-.2,0-.3-.1-.3-.3-1-2.3-2-4.5-3.1-6.8-.6-1.3-1.1-2.5-1.7-3.8,0,0,0-.2-.1-.3Z"/>
    <path class="cls-3" d="M47.3,19.4c-.2-1.4-.3-2.9-1.1-4.3.3-.3.6-.5.9-.8.8-.9,1.5-1.8,2.3-2.7.3-.3.4-.7.4-1.1,0-.1,0-.3,0-.4.4,0,.8,0,1.1,0,0,0,.2.1.1.1-.2,1.3.9,2,1.6,2.9.5.6,1.1,1.2,1.7,1.8,0,0,.2.2.3.2-.9,1.3-.9,2.8-1.2,4.3-.1-.4-.2-.7-.3-1.1-.2-.7-.5-1.3-.7-2-.2-.6-.2-1,0-1.5.4-.8.2-1.7-.5-2.3-.7-.6-1.4-.7-2.2-.4-.8.4-1.3,1-1.4,1.9,0,.5,0,1,.4,1.4.1.2.1.3,0,.4-.2.3-.3.6-.4.9,0,.2-.1.4-.2.5-.2.7-.5,1.4-.7,2Z"/>
    <path class="cls-3" d="M70.2,24.8c.3-.9.6-1.8.8-2.7,1.4-4.5,3.2-8.9,5.2-13.2.2-.5.2-.5.9-.4,0,.1,0,.2-.1.3-2.3,5-4.2,10.1-5.9,15.3,0,.1-.2.2-.3.3-.1,0-.3.1-.6.3Z"/>
    <path class="cls-3" d="M23.5,8.5c.6-.1.6-.1.8.4,2.3,4.9,4.2,10,5.8,15.3,0,.1,0,.3.1.4-.7,0-.7,0-.9-.7-1.6-5.1-3.5-10.1-5.7-15,0,0,0-.2-.1-.3,0,0,0,0,0,0Z"/>
    <path class="cls-3" d="M50.3,14.8c-.5.2-1,.5-1.5.7-.5-.5-.5-1-.4-1.6.2-.8.7-1.4,1.5-1.6.8-.2,1.5,0,2,.7.5.6.6,1.4.2,2.1-.2.4-.2.4-.6.2-.4-.2-.7-.3-1.2-.5Z"/>
    <path class="cls-3" d="M72.1,14.6c-.2-.2-.3-.4-.5-.6-.6-.6-1.3-.7-2-.5-.3,0-.4,0-.5-.3-.2-1,.4-2,1.4-2.2,1-.3,2.1.3,2.4,1.3.3.9,0,2-.8,2.3Z"/>
    <path class="cls-3" d="M29.5,10.9c1.2,0,2.2,1.2,1.9,2.4,0,.2-.1.3-.3.2-1-.2-1.9,0-2.5.9-.2.3-.3.1-.5,0-.6-.6-.8-1.4-.5-2.2.3-.8,1-1.3,1.9-1.3Z"/>
    <path class="cls-3" d="M53.2,7.6c-.2,1.2-1.5,2.2-2.8,2.2-1.3,0-2.6-1-2.8-2.2h5.6Z"/>
    <path class="cls-3" d="M26.4,10c-.7-.4-1-1-1-1.7,0-1.1.8-2,1.9-2.1,1,0,1.8.6,2,1.7,0,.1,0,.2,0,.3,0,.4,0,.4-.4.4-1-.2-1.9.2-2.4,1.1,0,0,0,.2-.2.3Z"/>
    <path class="cls-3" d="M74.1,10c0-.1-.1-.2-.2-.3-.5-.9-1.4-1.3-2.4-1.1-.3,0-.4,0-.4-.3,0-.9.6-1.8,1.4-2,.9-.2,1.9.2,2.3,1.1.4.8.2,1.9-.5,2.4,0,0-.2.1-.3.2Z"/>
    <path class="cls-3" d="M70.4,8.4c-2.1,4.1-3.5,8.4-4.8,12.8-.6-.2-.6-.3-.5-.8,1.1-3.8,2.3-7.5,4.1-11,0-.2.2-.4.3-.5.2-.4.3-.5.9-.4Z"/>
    <path class="cls-3" d="M30.2,13.6c1.4,0,2.3,1.1,2.1,2.3,0,.2-.1.3-.3.2-1.2-.3-1.9,0-2.6.9-.2.3-.3.1-.5,0-.6-.7-.7-1.4-.3-2.2.4-.8,1-1.2,1.7-1.2Z"/>
    <path class="cls-3" d="M68.3,16.1c-.4-1,.4-2.4,1.5-2.5.9-.1,1.7.4,2.1,1.1.4.8.2,1.7-.3,2.3-.1.1-.2.2-.4,0-.7-1-1.5-1.3-2.7-.9,0,0,0,0-.1,0Z"/>
    <path class="cls-3" d="M30.2,8.4c.6,0,.7,0,.9.4,1.7,3.3,2.9,6.8,4,10.3.1.5.3.9.4,1.4.1.4,0,.6-.3.7,0,0,0,0,0-.1-.3-.8-.6-1.6-.8-2.4-1.1-3.5-2.3-6.9-3.9-10.1,0,0,0-.1,0-.2Z"/>
    <path class="cls-3" d="M27.3,12.4c-.4-.3-.6-.6-.7-1-.3-1.1.3-2.3,1.5-2.6,1.1-.3,2.1.4,2.4,1.6,0,.5,0,.5-.4.4-1-.2-2,.2-2.5,1.2,0,.1,0,.2-.2.4Z"/>
    <path class="cls-3" d="M73.2,12.3c-.6-1.4-1.6-1.8-3-1.4-.3-.8.3-1.7,1.2-2.1,1-.4,2.2.2,2.5,1.2.3.9,0,2-.7,2.3Z"/>
    <path class="cls-3" d="M50.3,3.4c.3.3.5.6.4,1,0,.6,0,1.3,0,2,.7,0,1.3,0,1.9,0,.4,0,.7.2,1,.5-.3.3-.6.5-1.1.5-1.5,0-3,0-4.5,0-.4,0-.7-.2-1-.5.3-.3.5-.5,1-.5.6,0,1.2,0,1.9,0,0-.7,0-1.4,0-2,0-.4.1-.7.5-1Z"/>
    <path class="cls-3" d="M67.5,18.3c-.3-.7.3-1.7,1.1-2,.9-.4,2,0,2.5.8.5.8.4,1.9-.3,2.4-.7-1.4-1.8-1.9-3.3-1.2Z"/>
    <path class="cls-3" d="M29.8,19.5c-.5-.2-.8-1.5-.4-2.2.5-.9,1.5-1.3,2.4-1,.9.3,1.5,1.2,1.3,2.1-.6-.3-1.3-.4-1.9-.2-.7.3-1.1.8-1.4,1.4Z"/>
    <path class="cls-3" d="M29.7,21.5c-1.4-4.4-3.2-8.8-5.2-13,.2,0,.3,0,.4,0,.2,0,.3,0,.3.2,0,.6.4,1.1.9,1.4,0,0,.2.2.1.4,0,.8.2,1.4.7,2,.1.1.2.3.2.5,0,.7.3,1.3.8,1.8.2.1.2.3.2.5-.2.8,0,1.6.6,2.2,0,0,.2.3.1.4,0,.7,0,1.4.5,2,0,0,0,0,0,0,0,.6.1,1.2.2,1.8,0,0,0,0-.1,0Z"/>
    <path class="cls-3" d="M76,8.5c-1.9,4.2-3.6,8.4-5.1,12.7,0-.2,0-.3,0-.5,0-.2,0-.3,0-.5,0-.3,0-.6.3-.9.4-.5.5-1.1.4-1.7,0-.1,0-.4.1-.5.6-.6.8-1.3.7-2.2,0-.2,0-.3.2-.5.6-.5.9-1.1.8-1.9,0,0,0-.2.1-.3.6-.5.9-1.2.8-2,0-.2,0-.4.2-.5.4-.3.6-.7.8-1.1q.2-.6.8-.4Z"/>
    <path class="cls-3" d="M76.2,30c.3-.1.5-.3.8-.4.1,0,.3,0,.4,0,1.1.3,2.1.5,3.2.8.5.1.6.6.9,1-.5.4-.9.6-1.6.4-.8-.3-1.6-.5-2.4-.6-.7-.1-1-.5-1.3-1.1Z"/>
    <path class="cls-3" d="M24.5,30.1c-.2.3-.3.5-.5.7,0,0-.2.2-.3.2-1.1.3-2.2.6-3.3.8-.2,0-.4,0-.6-.1-.2,0-.4-.2-.6-.3.3-.4.5-.9,1.1-1,.9-.1,1.7-.4,2.6-.6.6-.2,1.1,0,1.6.4Z"/>
    <path class="cls-3" d="M53.1,29.1c-.4.5-.8.8-1.5.8-.8,0-1.7,0-2.5,0-.4,0-.8,0-1.1-.4,0-.1-.2-.2-.3-.3.4-.4.7-.8,1.3-.8.9,0,1.8,0,2.7,0,.4,0,.8,0,1.1.4,0,0,.2.2.3.3Z"/>
    <path class="cls-3" d="M32.8,18.4c-.7.3-1,.7-1.1,1.4,0,.2,0,.5,0,.7,0,.4-.3.6-.7.5-.2,0-.5,0-.8-.1-.1,0-.3-.1-.3-.2-.2-.6,0-1.5.7-2.1.6-.5,1.5-.6,2.1-.3,0,0,0,0,.2.1Z"/>
    <path class="cls-3" d="M67.8,18.4c.5-.3,1-.3,1.5-.1,1,.3,1.5,1.3,1.4,2.3,0,.2-.1.3-.4.3-.2,0-.5,0-.7.2-.3.1-.5,0-.6-.3,0-.2,0-.5,0-.7-.1-.7-.4-1.2-1.1-1.5,0,0,0,0-.1-.1Z"/>
    <path class="cls-3" d="M68,28.2c0,.6-.5,1.1-1.1,1.1-.6,0-1.2-.5-1.2-1.2,0-.6.5-1.1,1.1-1.1.6,0,1.2.5,1.2,1.2Z"/>
    <path class="cls-3" d="M33.8,29.3c-.6,0-1.1-.5-1.1-1.2,0-.7.5-1.2,1.1-1.2.7,0,1.2.5,1.2,1.2,0,.7-.5,1.2-1.2,1.2Z"/>
    <path class="cls-3" d="M47,21.4c0-.1,0-.2-.1-.3-.2-1.3-.4-2.6-.7-3.9-.1-.7-.4-1.4-1-2,.2-.1.3-.2.4-.4,1.2-1,2.3-2.3,3.3-3.6,0-.1.1-.3.2-.5,0-.3,0-.6,0-.9,0,0,0,0,.1,0,0,0,.1.2.1.3,0,.6,0,1.1-.4,1.6-.9,1-1.8,2-2.7,3-.1.2-.3.3-.5.4.7.9.9,2,1,3,.2,1,.2,2,.3,3,0,0,0,0,0,.1h-.1Z"/>
    <path class="cls-3" d="M54.9,15.1c-.2-.1-.4-.3-.6-.5-1-1-2-2-2.7-3.2-.3-.4-.1-.9-.2-1.4,0,0,0,0,0,0,0,0,0,0,.2,0,0,.3,0,.6,0,.8,0,.3,0,.5.2.7,1,1.3,2.1,2.6,3.5,3.7,0,0,0,0,.1,0-1.1,1.3-1.2,2.8-1.4,4.3,0,.5-.1,1.1-.2,1.6,0,0,0,.2-.2.3.2-2.1.1-4.3,1.3-6.3Z"/>
    <path class="cls-3" d="M53.2,6.1h-2.2v-2.3c.9,0,2.1,1.2,2.2,2.3Z"/>
    <path class="cls-3" d="M49.6,6.1h-2.2c0-.9,1.2-2.2,2.2-2.3v2.3Z"/>
    <path class="cls-3" d="M33.3,20.8c-.4-.3-.7-1-1.3-.9,0-.6.4-1.1.9-1.2,0,.1,0,.3.1.4,0,.1,0,.3.1.5,0-.3,0-.6,0-.9.6.2.9.6,1.3,1.2-.7,0-.8.6-1.2.9Z"/>
    <path class="cls-3" d="M67.5,18.7v1h0c0-.3.2-.7.3-1,.5,0,.9.6.9,1.2-.7,0-.9.5-1.3.9-.4-.3-.5-1-1.2-.9.3-.6.6-1,1.3-1.2Z"/>
    <path class="cls-3" d="M68.9,12.5c0,.3,0,.7.1,1,0,0,0,.2-.2.3-.7.6-1,1.3-.8,2.2,0,.1,0,.3-.1.4-.5.5-.8,1.1-.7,1.8,0,.2,0,.2-.6.5.7-2.1,1.5-4.2,2.2-6.3,0,0,0,0,.1,0Z"/>
    <path class="cls-3" d="M33.9,18.7c-.5-.1-.7-.3-.6-.7,0-.6-.2-1.1-.7-1.5-.2-.1-.2-.3-.2-.5.2-.9-.1-1.6-.8-2.2,0,0-.2-.2-.2-.3,0-.4,0-.8.2-1.2.7,2.1,1.5,4.2,2.2,6.4Z"/>
    <path class="cls-3" d="M63.7,31.7c0-.3-.2-.7-.2-1,0-.3,1.2-1,1.5-.9.2,0,.3.5.2.7-.4.4-.9.8-1.3,1.2,0,0-.1,0-.2,0Z"/>
    <path class="cls-3" d="M36.7,31.6c-.4-.4-.8-.7-1.2-1.2,0,0,0-.4,0-.5,0,0,.3-.1.5,0,.3.1.6.3.8.5,0,0,.2.2.2.3,0,.3,0,.7-.1,1,0,0-.1,0-.2,0Z"/>
    <path class="cls-3" d="M74.6,6.6c.8-.1,1.9.8,1.9,1.6-.3,0-.7,0-1,0,0,0-.2,0-.2-.1-.1-.5-.3-.9-.6-1.2,0,0,0-.1,0-.2Z"/>
    <path class="cls-3" d="M25.9,6.6c-.2.5-.4.9-.6,1.4,0,0-.1.2-.2.2-.3,0-.7,0-1,0,0-.8,1-1.8,1.8-1.6Z"/>
    <path class="cls-3" d="M53,28.5c-.3-.2-.5-.3-.5-.6,0-.5,0-1.1,0-1.6,0-.2.1-.5.2-.7,0-.1.2-.2.3-.3v3.2Z"/>
    <path class="cls-3" d="M47.8,28.4v-3c.3,0,.4.2.4.4,0,.4.1.8.2,1.2,0,.3,0,.7-.1,1,0,.2-.2.3-.3.5,0,0,0,0-.1,0Z"/>
    <path class="cls-3" d="M61.6,33c.1-.5.2-1.1.5-1.6.1-.2.5-.3.7-.5,0,0,0,0,0,0-.2.6-.3,1.1-.5,1.7,0,.2-.4.3-.7.5,0,0,0,0,0,0Z"/>
    <path class="cls-3" d="M38.9,33c-.5-.1-.9-.3-.9-.9,0-.4-.2-.8-.3-1.3.5.1.9.4,1,.9,0,.4.2.8.3,1.2Z"/>
    <path class="cls-3" d="M31.8,32.5c-.1-.4-.2-.8-.3-1.1,0-.4.3-.4.5-.7.4.8.4,1.3-.2,1.8Z"/>
    <path class="cls-3" d="M68.6,30.6c.6.4.6.4.4,1,0,.2-.1.5-.2.8-.6-.5-.5-1.1-.2-1.7Z"/>
    <path class="cls-3" d="M52.9,31.8c-.3-.2-.4-.4-.4-.7,0-.1,0-.3,0-.4-.2-.5,0-.8.4-1v2Z"/>
    <path class="cls-3" d="M48.5,30.2c-.4.4,0,1.1-.6,1.5v-2c.2.1.4.3.6.5Z"/>
    <path class="cls-3" d="M47.2,28.9v-3.3s0,0,.1,0v3.3h-.1Z"/>
    <path class="cls-3" d="M53.4,25.6c.2.2.2,2.9,0,3.3v-3.3Z"/>
    <path class="cls-3" d="M62.9,32.4c.1-.5.3-1,.4-1.6.1.4.2.7.3,1,0,0,0,.2,0,.2-.2.2-.4.3-.6.4,0,0,0,0,0,0Z"/>
    <path class="cls-3" d="M31.3,25.1c-.9-.2-.6-1.1-.9-1.6.3.5.8,1,.9,1.6Z"/>
    <path class="cls-3" d="M37.7,32.3c-.8-.4-.8-.5-.4-1.5.1.5.3,1,.4,1.5Z"/>
    <path class="cls-3" d="M53.4,29.2v3c-.2-.2-.2-2.7,0-3Z"/>
    <path class="cls-3" d="M47.4,29.3v2.9s0,0,0,0v-2.9s0,0,0,0Z"/>
    <path class="cls-3" d="M51,15.3c.7.2,1.2.8,1.3,1.5-.4-.5-.8-1-1.3-1.5Z"/>
    <path class="cls-3" d="M64.1,24.2c.1.3.4.6.3,1.1-.6-.2-.7-.3-.3-1.1Z"/>
    <path class="cls-3" d="M51.5,30.1c.6,0,.9.4.7,1-.3-.4-.5-.7-.7-1Z"/>
    <path class="cls-3" d="M48.5,31.1c-.1-.7.2-1.1.7-1-.2.3-.4.7-.7,1Z"/>
    <path class="cls-3" d="M69.2,11.6c.2-.5.4-.9.6-1.4.2.7,0,1-.6,1.4Z"/>
    <path class="cls-3" d="M69.9,24.1c-.1.4,0,1.1-.7,1.1.2-.4.5-.7.7-1.1Z"/>
    <path class="cls-3" d="M31.3,11.6c-.7-.5-.7-.6-.6-1.3.2.4.4.8.6,1.3Z"/>
    <path class="cls-3" d="M36.1,25.3c.1-.3.3-.6.4-.9.3.5.3.7-.4.9Z"/>
    <path class="cls-3" d="M32.5,31.2c-.3-.8-.3-.8,0-1,.2.3,0,.6,0,1Z"/>
    <path class="cls-3" d="M48.6,16.5c.1-.6.4-.9,1-1.1-.3.4-.6.7-1,1.1Z"/>
    <path class="cls-3" d="M30.1,9.2c-.2-.1-.3-.2-.5-.4,0,0,0-.2,0-.3,0,0,0-.1.1-.1,0,0,.2.1.2.2.1.2.2.4.3.5,0,0,0,0,0,0Z"/>
    <path class="cls-3" d="M70.4,9.1c0-.2.2-.4.3-.5,0,0,.2,0,.3-.1,0,.1,0,.3,0,.3-.1.2-.3.3-.5.4,0,0,0,0,0,0Z"/>
    <path class="cls-3" d="M68,30.8c0-.2,0-.3,0-.5,0,0,0-.1.1-.2,0,0,.1.1.1.2,0,.2,0,.3-.1.5,0,0,0,0,0,0Z"/>
    <path class="cls-3" d="M48.7,10.8c0,.4-.3.6-.5.8.2-.3.3-.5.5-.8Z"/>
    <path class="cls-2" d="M59.1,39.9c1,0,1.3.1,1.5,1.1.1,0,.3,0,.4-.2,1.4-.6,2.8-1.2,4.2-1.9.3-.1.5-.1.7,0,1.3.8,2.7,1.5,4,2.2.1,0,.2.1.4.2-.2,0-.3.1-.4.2-1.4.6-2.8,1.2-4.3,1.9-.2.1-.4,0-.6,0-1.4-.7-2.8-1.4-4.2-2.1-.1,0-.2-.1-.3-.2-.7.7-1.2.8-1.7.4-.5-.3-.5-.7-.2-1.4-.9,0-1.3-.2-1.4-.7-.1-.4,0-.8.5-1,.4-.2,1-.2,1.3.1.4.3.4.7,0,1.3ZM61.1,41.1c0,0,.1.1.2.1,1.3.7,2.6,1.3,3.9,2,.1,0,.3,0,.5,0,1.2-.5,2.5-1.1,3.7-1.6,0,0,.2,0,.3-.2,0,0-.1,0-.2-.1-1.2-.7-2.5-1.4-3.7-2.1-.1,0-.3,0-.4,0-.5.2-.9.4-1.4.6-.9.4-1.9.8-2.8,1.2ZM59.1,39.2c0-.4-.4-.8-.8-.8-.5,0-.8.4-.8.8,0,.4.4.8.9.8.5,0,.8-.4.8-.8ZM59.5,40.1c-.5,0-.8.3-.8.8,0,.4.4.8.8.8.5,0,.9-.4.9-.8,0-.4-.4-.8-.9-.8Z"/>
    <path class="cls-2" d="M50.4,38.4c.9,0,1.9,0,2.8,0,1,0,1.7.7,2,1.6.4,1-.2,2.2-1.3,2.6-.4.2-.9.2-1.3.3-1.5,0-3,0-4.5,0-.8,0-1.5-.2-2.1-.8-.9-.9-.9-2.3.1-3.1.5-.4,1.2-.7,1.9-.7.8,0,1.6,0,2.4,0,0,0,0,0,0,0ZM50.3,38.6c-.7,0-1.3,0-2,0-.3,0-.7,0-1,0-1,.2-1.7,1-1.7,1.8,0,.9.6,1.7,1.5,2,.3,0,.6.1.8.1,1.5,0,3.1,0,4.6,0,.4,0,.8-.1,1.2-.3.7-.3,1.1-.9,1.1-1.7,0-.8-.4-1.4-1.1-1.7-.4-.2-.8-.3-1.3-.3-.8,0-1.5,0-2.3,0Z"/>
    <path class="cls-2" d="M39.9,41c-.7.4-1.3.7-2,1.1-.9.5-1.7,1-2.6,1.4-.1,0-.3,0-.4,0-1.5-.6-3.1-1.2-4.6-1.8,0,0,0,0-.2,0,.2-.1.4-.3.7-.4,1.2-.7,2.4-1.5,3.7-2.2.2-.1.4-.1.6,0,1.5.6,3,1.2,4.5,1.8.1,0,.2.1.4.2ZM30.7,41.6c.2,0,.3.1.4.2,1.2.5,2.4,1,3.7,1.5.2,0,.4,0,.6,0,1.2-.7,2.4-1.3,3.6-2,0,0,.2-.1.3-.2,0,0,0,0,0,0-1.4-.6-2.8-1.1-4.2-1.7-.1,0-.3,0-.4,0-.7.4-1.3.8-1.9,1.1-.6.4-1.2.7-1.9,1.1Z"/>
    <path class="cls-2" d="M57.3,41.6c-.7.2-1.2,0-1.5-.5-.2-.4,0-.8.2-1.1.4-.3,1-.3,1.4,0,.4.3.5.7.2,1.4.7,0,1.3,0,1.4.8,0,.4-.2.8-.6,1-.5.2-1,0-1.3-.3-.3-.4-.3-.8.1-1.3ZM56.8,41.5c.5,0,.8-.3.9-.8,0-.4-.4-.8-.9-.8-.5,0-.8.4-.8.8,0,.4.4.8.8.8ZM58,43.1c.5,0,.8-.3.8-.8,0-.4-.4-.8-.8-.8-.5,0-.9.4-.9.8,0,.4.4.8.8.8Z"/>
    <path class="cls-2" d="M27.9,41.1c-.3,0-.6.2-1,.2.2.7.2,1-.2,1.3-.3.3-.8.3-1.2,0-.3-.2-.5-.6-.4-.9.2-.6.7-.7,1.2-.7,0-.2-.2-.4-.2-.7,0-.4.2-.7.6-.8.4-.2.9,0,1.2.3.3.3.3.6,0,1,0,0,0,.2-.1.2,0,0,0,0,0,0ZM26.1,42.6c.4,0,.8-.3.8-.7,0-.4-.4-.7-.8-.7-.4,0-.8.3-.8.7,0,.4.4.7.8.7ZM27.2,39.6c-.4,0-.8.3-.8.7,0,.4.4.7.8.7.4,0,.8-.3.8-.7,0-.4-.3-.7-.8-.7Z"/>
    <path class="cls-2" d="M73.3,42.6c.3.4.4.8,0,1.2-.2.3-.7.4-1.1.3-.7-.2-.8-.8-.4-1.5-.6,0-1.1,0-1.3-.7,0-.4.1-.7.5-.9.4-.2.9-.1,1.2.2.3.3.3.7,0,1.2.3.1.7.2,1,.4,0,0,0,0,0,0ZM71.5,42.4c.4,0,.8-.3.8-.7,0-.4-.3-.7-.8-.7-.4,0-.8.3-.8.7,0,.4.4.7.8.7ZM72.6,42.5c-.4,0-.8.3-.8.7,0,.4.4.7.8.7.4,0,.8-.3.8-.7,0-.4-.3-.7-.8-.7Z"/>
    <path class="cls-2" d="M73.3,42.6s0,0,0,0c-.4-.6-.4-.8,0-1.3-.2,0-.5,0-.8-.1-.2-.1-.4-.3-.5-.6-.2-.4,0-.7.4-1,.4-.2.9-.2,1.2.1.3.3.4.7,0,1.3.1,0,.2,0,.3,0,.4,0,.7.2.9.6.1.3,0,.6-.1.9-.3.3-.6.4-1,.3-.2,0-.3-.1-.5-.2ZM74,42.6c.4,0,.8-.3.8-.7,0-.4-.4-.7-.8-.7-.4,0-.8.3-.8.7,0,.4.3.7.7.7ZM72.9,39.6c-.4,0-.8.3-.8.7,0,.4.3.7.8.7.4,0,.8-.3.8-.7,0-.4-.3-.7-.8-.7Z"/>
    <path class="cls-2" d="M27.9,41.1s0,0,0,0c.3-.2.6-.3.9-.3.4,0,.8.5.8.9,0,.4-.3.8-.7.9-.2,0-.4,0-.5,0,0,.2.2.5.2.7,0,.2-.1.5-.3.6-.3.3-.9.3-1.2,0-.3-.2-.5-.6-.3-1,.2-.4.6-.6,1.3-.6-.3-.4-.4-.9,0-1.3ZM28.6,42.4c.4,0,.8-.3.8-.7,0-.4-.3-.7-.8-.7-.4,0-.8.3-.8.7,0,.4.4.7.8.7ZM27.5,42.5c-.4,0-.8.3-.8.7,0,.4.4.7.8.7.4,0,.8-.3.7-.7,0-.4-.4-.7-.8-.7Z"/>
    <path class="cls-2" d="M43.2,41.6c-.6-.7-.6-.8-.2-1.6h0c.3,0,.5-.2.8-.2.6,0,1.1.4,1,1,0,.6-.6,1-1.2.9-.2,0-.3,0-.4,0,0,0,0,0,0,0ZM43.8,41.5c.5,0,.8-.3.8-.8,0-.4-.4-.8-.9-.8-.5,0-.8.4-.8.8,0,.4.4.8.8.8Z"/>
    <path class="cls-2" d="M43.1,40c-.4.2-.8.2-1.3,0h0s0,0,0,0c-.3-.3-.5-.6-.3-1,.1-.4.4-.6.9-.6.5,0,.8.1,1,.5.2.3.2.6,0,.9,0,0-.1.2-.2.3,0,0,0,0,0,0ZM42.4,40c.5,0,.8-.4.8-.8,0-.4-.4-.8-.9-.8-.4,0-.8.4-.8.8,0,.4.4.8.9.8Z"/>
    <path class="cls-2" d="M43.2,41.6s0,0,0,0c.4.3.5.7.4,1-.1.4-.5.6-.9.7-.4,0-.9-.2-1-.6-.2-.5,0-1.2.7-1.3.3,0,.6,0,.9.1ZM42.6,43.1c.5,0,.8-.3.8-.8,0-.4-.4-.8-.8-.8-.4,0-.8.4-.9.8,0,.4.4.8.9.8Z"/>
    <path class="cls-2" d="M41.8,40.1c.3.3.5.6.3,1.1-.2.5-.8.8-1.3.6-.5-.2-.8-.7-.7-1.2.1-.5.7-.8,1.2-.6.1,0,.3.1.4.2,0,0,0,0,0,0ZM42,40.9c0-.4-.4-.8-.8-.8-.5,0-.9.4-.9.8,0,.4.4.8.8.8.5,0,.8-.4.8-.8Z"/>
    <path class="cls-3" d="M61.1,41.1c1-.4,1.9-.8,2.8-1.2.5-.2.9-.4,1.4-.6.1,0,.3,0,.4,0,1.2.7,2.5,1.4,3.7,2.1,0,0,0,0,.2.1-.1,0-.2.1-.3.2-1.2.5-2.5,1.1-3.7,1.6-.1,0-.3,0-.5,0-1.3-.6-2.6-1.3-3.9-2,0,0-.1,0-.2-.1Z"/>
    <path class="cls-3" d="M59.1,39.2c0,.4-.4.8-.8.8-.5,0-.9-.4-.9-.8,0-.4.4-.8.8-.8.5,0,.8.3.8.8ZM58.3,38.7c-.4,0-.7.2-.7.5,0,.3.1.5.4.6.3.1.7,0,.9-.3.1-.2,0-.5-.1-.7.2.4,0,.7-.3.9-.3.1-.7,0-.8-.3-.1-.4,0-.6.6-.7Z"/>
    <path class="cls-3" d="M59.5,40.1c.5,0,.8.3.9.8,0,.4-.4.8-.9.8-.5,0-.8-.4-.8-.8,0-.4.4-.8.8-.8ZM59,41.1h0c0,.3.3.4.5.3.2,0,.4-.2.6-.4.2-.2,0-.4-.1-.6-.2-.2-.6-.3-.9,0-.1.1-.2.4-.3.6,0,0,.1.1.2.2Z"/>
    <path class="cls-3" d="M50.3,38.6c.8,0,1.6,0,2.3,0,.4,0,.9.1,1.3.3.7.3,1.1.9,1.1,1.7,0,.8-.5,1.3-1.1,1.7-.4.2-.8.3-1.2.3-1.5,0-3.1,0-4.6,0-.3,0-.6,0-.8-.1-1-.3-1.6-1.1-1.5-2,0-.9.7-1.6,1.7-1.8.3,0,.7,0,1,0,.7,0,1.3,0,2,0Z"/>
    <path class="cls-3" d="M30.7,41.6c.7-.4,1.3-.8,1.9-1.1.6-.4,1.3-.8,1.9-1.1.1,0,.3-.1.4,0,1.4.6,2.8,1.1,4.2,1.7,0,0,0,0,0,0,0,0-.2.1-.3.2-1.2.7-2.4,1.3-3.6,2-.2.1-.4.1-.6,0-1.2-.5-2.4-1-3.7-1.5-.1,0-.2,0-.4-.2Z"/>
    <path class="cls-3" d="M56.8,41.5c-.5,0-.8-.3-.8-.8,0-.4.4-.8.8-.8.5,0,.9.4.9.8,0,.4-.4.8-.9.8ZM56.5,41.2c.3.2.7,0,.9-.2.2-.3.2-.4,0-.7.2.6,0,.9-.8.8ZM56.2,40.9c0-.5.2-.7.6-.8-.6,0-.8.3-.6.8Z"/>
    <path class="cls-3" d="M58,43.1c-.5,0-.8-.4-.8-.8,0-.4.4-.8.9-.8.5,0,.9.4.8.8,0,.4-.4.8-.8.8ZM58.3,41.8c-.4,0-.7,0-.8.3,0,.2,0,.4,0,.6,0,.2.4.3.7.2-.5,0-.7-.2-.7-.6,0-.3.3-.5.8-.6ZM58.6,42.7c.1-.3.1-.5,0-.7,0,.2,0,.5,0,.7Z"/>
    <path class="cls-3" d="M26.1,42.6c-.4,0-.8-.3-.8-.7,0-.4.4-.7.8-.7.4,0,.8.3.8.7,0,.4-.3.7-.8.7ZM26.4,41.4c-.3-.1-.7,0-.8.2-.1.2-.1.5,0,.6.2.2.6.2.8,0,.2-.2.3-.3.1-.6,0,.4-.2.6-.5.6-.3,0-.5-.2-.5-.5,0-.3.2-.5.8-.4Z"/>
    <path class="cls-3" d="M27.2,39.6c.4,0,.8.3.8.7,0,.4-.4.7-.8.7-.4,0-.8-.3-.8-.7,0-.4.4-.7.8-.7ZM27.2,39.8c-.3,0-.6.3-.6.6,0,.3.3.6.6.6.3,0,.6-.3.6-.6,0-.3-.3-.6-.6-.5Z"/>
    <path class="cls-3" d="M71.5,42.4c-.4,0-.8-.3-.8-.7,0-.4.4-.7.8-.7.4,0,.8.3.8.7,0,.4-.3.7-.8.7ZM71.7,42.2c.3-.1.5-.3.4-.7-.1-.3-.4-.4-.7-.4-.3,0-.5.3-.5.6,0,.3.3.4.6.5-.3-.1-.5-.3-.4-.6,0-.2.3-.4.5-.4.2,0,.4.1.5.3.2.3,0,.5-.2.7Z"/>
    <path class="cls-3" d="M72.6,42.5c.4,0,.8.3.8.7,0,.4-.3.7-.8.7-.4,0-.8-.3-.8-.7,0-.4.4-.7.8-.7ZM72.6,42.7c-.4,0-.6.3-.6.6,0,.3.3.5.6.5.4,0,.7-.2.7-.5,0-.3-.3-.5-.6-.5Z"/>
    <path class="cls-3" d="M74,42.6c-.4,0-.8-.3-.7-.7,0-.4.4-.7.8-.7.4,0,.8.3.8.7,0,.4-.4.7-.8.7ZM74.2,42.4c.3-.1.5-.3.5-.6,0-.3-.3-.5-.6-.4-.3,0-.6.2-.6.5,0,.2.1.4.4.5-.3-.3-.4-.5-.2-.8.2-.2.6-.3.8,0,.3.2.2.5-.2.9Z"/>
    <path class="cls-3" d="M72.9,39.6c.4,0,.8.3.8.7,0,.4-.3.7-.8.7-.4,0-.8-.3-.8-.7,0-.4.3-.7.8-.7ZM73.6,40.3c0-.3-.3-.5-.6-.5-.3,0-.6.3-.6.6,0,.3.3.5.6.5.3,0,.6-.3.6-.6Z"/>
    <path class="cls-3" d="M28.6,42.4c-.4,0-.8-.3-.8-.7,0-.4.4-.7.8-.7.4,0,.8.3.8.7,0,.4-.3.7-.8.7ZM28.8,42.2c.3-.2.5-.4.4-.7,0-.3-.3-.4-.6-.4-.3,0-.5.2-.6.4,0,.3.1.5.5.7-.4-.4-.5-.6-.3-.9.2-.2.5-.2.8,0,.2.2.2.5-.2.9Z"/>
    <path class="cls-3" d="M27.5,42.5c.4,0,.8.3.8.7,0,.4-.3.7-.7.7-.4,0-.8-.3-.8-.7,0-.4.4-.7.8-.7ZM27.4,42.7c-.4.1-.5.4-.4.6,0,.3.4.4.7.4.3,0,.5-.2.5-.5,0-.3-.1-.5-.6-.6.3.1.6.3.5.7,0,.2-.3.3-.5.3-.2,0-.4-.2-.5-.3-.2-.3,0-.5.3-.6Z"/>
    <path class="cls-3" d="M43.8,41.5c-.5,0-.8-.3-.8-.8,0-.4.4-.8.8-.8.5,0,.9.4.9.8,0,.4-.4.8-.8.8ZM43.8,41.3c.4,0,.7-.3.7-.6,0-.3-.4-.6-.7-.6-.4,0-.6.3-.6.6,0,.3.3.6.7.6Z"/>
    <path class="cls-3" d="M42.4,40c-.5,0-.9-.4-.9-.8,0-.4.4-.8.8-.8.5,0,.9.4.9.8,0,.4-.4.8-.8.8ZM42.7,38.8c-.4-.2-.7-.1-.9.1-.2.2-.2.5,0,.7.2.3.6.3.9.2.3-.2.4-.4.2-.8,0,.6-.3.8-.7.8-.3,0-.6-.3-.5-.6,0-.4.4-.5.9-.4Z"/>
    <path class="cls-3" d="M42.6,43.1c-.5,0-.9-.4-.9-.8,0-.4.4-.8.9-.8.5,0,.9.4.8.8,0,.4-.4.8-.8.8ZM43.1,42.7c.2-.4.1-.6-.2-.8-.3-.2-.7-.1-.9.1-.1.2-.2.4,0,.6,0-.2.1-.4.3-.6.2-.2.4-.2.7,0,.3.2.3.4.2.7Z"/>
    <path class="cls-3" d="M42,40.9c0,.4-.4.8-.8.8-.5,0-.8-.4-.8-.8,0-.4.4-.8.9-.8.5,0,.8.3.8.8ZM41.1,40.3c-.4,0-.7.3-.7.6,0,.3.3.6.7.6.4,0,.7-.3.7-.6,0-.3-.3-.6-.6-.6Z"/>
    <path class="cls-2" d="M58.3,38.7c-.5.1-.7.4-.6.7,0,.3.4.4.8.3.3-.1.4-.4.3-.9.2.2.2.5.1.7-.2.3-.6.4-.9.3-.3-.1-.4-.3-.4-.6,0-.3.4-.5.7-.5Z"/>
    <path class="cls-2" d="M59,41.1c0,0-.2-.1-.2-.2,0-.2.1-.5.3-.6.2-.2.6-.2.9,0,.2.2.3.4.1.6-.1.2-.4.3-.6.4-.2,0-.4,0-.5-.3,0,0,.1.1.2.2.3.1.5.1.7-.1.1-.1.1-.4,0-.6,0-.3-.4-.3-.7-.3-.4,0-.5.4-.3.8Z"/>
    <path class="cls-2" d="M56.5,41.2c.8,0,1-.2.8-.8.2.2.3.4,0,.7-.2.3-.5.3-.9.2Z"/>
    <path class="cls-2" d="M56.2,40.9c-.1-.5,0-.7.6-.8-.4,0-.7.3-.6.8Z"/>
    <path class="cls-2" d="M58.3,41.8c-.6,0-.8.2-.8.6,0,.3.2.5.7.6-.3,0-.6,0-.7-.2,0-.2,0-.4,0-.6.1-.3.4-.4.8-.3Z"/>
    <path class="cls-2" d="M58.6,42.7c0-.2,0-.5,0-.7.2.2.2.5,0,.7Z"/>
    <path class="cls-2" d="M26.4,41.4c-.5,0-.8.1-.8.4,0,.3.2.5.5.5.3,0,.5-.2.5-.6.1.2,0,.4-.1.6-.2.2-.6.1-.8,0-.2-.2-.2-.4,0-.6.1-.3.5-.3.8-.2Z"/>
    <path class="cls-2" d="M27.2,39.8c.3,0,.6.3.6.5,0,.3-.3.6-.6.6-.3,0-.6-.3-.6-.6,0-.3.3-.6.6-.6ZM27.2,39.9c-.3,0-.5.2-.5.5,0,.3.2.5.5.5.3,0,.5-.2.5-.5,0-.3-.2-.5-.5-.5Z"/>
    <path class="cls-2" d="M71.7,42.2c.2-.2.4-.4.2-.7,0-.2-.4-.3-.5-.3-.2,0-.4.2-.5.4,0,.3.2.5.4.6-.3,0-.5-.2-.6-.5,0-.3.2-.5.5-.6.3,0,.6,0,.7.4.1.3,0,.5-.4.7Z"/>
    <path class="cls-2" d="M72.6,42.7c.3,0,.6.2.6.5,0,.3-.3.5-.7.5-.3,0-.6-.2-.6-.5,0-.3.3-.6.6-.6ZM72.6,42.7c-.3,0-.6.2-.5.5,0,.3.2.5.5.5.3,0,.5-.2.5-.5,0-.3-.2-.5-.5-.5Z"/>
    <path class="cls-2" d="M74.2,42.4c.4-.4.5-.7.2-.9-.2-.2-.6-.2-.8,0-.2.2-.1.5.2.8-.3,0-.4-.3-.4-.5,0-.3.3-.5.6-.5.3,0,.6.2.6.4,0,.3-.1.5-.5.6Z"/>
    <path class="cls-2" d="M73.6,40.3c0,.3-.3.6-.6.6-.3,0-.6-.3-.6-.5,0-.3.3-.6.6-.6.3,0,.6.3.6.5ZM72.9,40.8c.3,0,.5-.2.5-.5,0-.2-.3-.5-.5-.5-.3,0-.5.3-.5.5,0,.3.3.5.5.5Z"/>
    <path class="cls-2" d="M28.8,42.2c.4-.4.4-.7.2-.9-.2-.2-.6-.2-.8,0-.2.2-.2.5.3.9-.4-.2-.5-.3-.5-.7,0-.3.3-.4.6-.4.3,0,.5,0,.6.4,0,.3,0,.5-.4.7Z"/>
    <path class="cls-2" d="M27.4,42.7c-.2.2-.5.3-.3.6,0,.2.3.3.5.3.2,0,.4-.2.5-.3.1-.3-.1-.5-.5-.7.4,0,.6.2.6.6,0,.3-.2.5-.5.5-.3,0-.6-.1-.7-.4,0-.3,0-.5.4-.6Z"/>
    <path class="cls-2" d="M43.8,41.3c-.4,0-.7-.2-.7-.6,0-.3.3-.6.6-.6.3,0,.7.3.7.6,0,.3-.3.6-.7.6ZM43.8,41.3c.3,0,.6-.2.6-.5,0-.3-.3-.6-.6-.6-.3,0-.5.2-.6.5,0,.3.2.5.6.5Z"/>
    <path class="cls-2" d="M42.7,38.8c-.5-.1-.8,0-.9.4,0,.3.2.6.5.6.4,0,.6-.2.7-.8.1.4,0,.6-.2.8-.3.2-.7.1-.9-.2-.2-.2-.2-.5,0-.7.2-.3.5-.3.9-.1Z"/>
    <path class="cls-2" d="M43.1,42.7c0-.3,0-.6-.2-.7-.2-.1-.5-.2-.7,0-.1.2-.2.4-.3.6-.1-.1,0-.4,0-.6.2-.3.6-.3.9-.1.3.2.3.4.2.8Z"/>
    <path class="cls-2" d="M41.1,40.3c.4,0,.6.3.6.6,0,.3-.3.6-.7.6-.3,0-.7-.3-.7-.6,0-.3.3-.6.7-.6ZM41.1,40.3c-.3,0-.6.2-.6.5,0,.3.3.5.6.6.3,0,.6-.2.6-.5,0-.3-.2-.5-.6-.5Z"/>
    <path class="cls-3" d="M59,41.1c-.2-.4,0-.7.3-.8.3,0,.6,0,.7.3,0,.2,0,.4,0,.6-.2.2-.4.3-.7.1,0,0-.1-.1-.2-.2,0,0,0,0,0,0Z"/>
    <path class="cls-3" d="M27.2,39.9c.3,0,.5.2.5.5,0,.3-.2.5-.5.5-.3,0-.5-.2-.5-.5,0-.3.3-.5.5-.5Z"/>
    <path class="cls-3" d="M72.6,42.7c.3,0,.5.2.5.5,0,.3-.2.5-.5.5-.3,0-.5-.2-.5-.5,0-.3.2-.5.5-.5Z"/>
    <path class="cls-3" d="M72.9,40.8c-.3,0-.5-.2-.5-.5,0-.3.3-.5.5-.5.3,0,.5.2.5.5,0,.3-.2.5-.5.5Z"/>
    <path class="cls-3" d="M43.8,41.3c-.3,0-.6-.2-.6-.5,0-.3.3-.5.6-.5.3,0,.6.3.6.6,0,.3-.3.5-.6.5Z"/>
    <path class="cls-3" d="M41.1,40.3c.3,0,.6.2.6.5,0,.3-.3.5-.6.5-.3,0-.6-.3-.6-.6,0-.3.2-.5.6-.5Z"/>
  </g>
</svg>