<?xml version="1.0" encoding="UTF-8"?><svg id="Lager_1" xmlns="http://www.w3.org/2000/svg" viewBox="0 0 181.42 252.28"><defs><style>.cls-1{fill:#5890ac;stroke-width:0px;}</style></defs><path class="cls-1" d="M75.46,110.5c-.13,1.33-.27,2.67-.39,4-.98,10.69.17,21.18,2.99,31.52.24.88.37,1.89.18,2.76-2.06,9.04-6.56,16.65-13.43,22.92-3.39,3.1-7.46,4.22-11.81,4.7-9.78,1.09-19.58,1.19-29.38.24-4.07-.39-8.15-.78-12.15-1.56-1.94-.38-3.78-1.53-5.52-2.56-1.64-.97-1.67-2.47-.59-3.96,1.59-2.18,3.81-2.98,6.45-3.14,7.44-.47,14.89-.94,22.31-1.67,6.08-.6,10.91-3.42,14.98-8.18,4.42-5.17,8.16-10.52,9.39-17.31.32-1.78.41-3.63.41-5.45,0-6.98.54-13.91,2.39-20.66,1.48-5.38,4.28-10.06,7.92-14.29.58-.67.9-2,.68-2.86-1.52-6.06-5-11-9.26-15.44-2.66-2.77-2.33-3.08-.29-6.23,2.93-4.54,7.16-4.06,11.67-3.96-.31,1.26-.62,2.47-.92,3.68.12.06.24.12.36.18.78-1.06,1.56-2.11,2.58-3.49,4.72,7.66,8.46,15.34,9.55,24.26-1.21.13-2.04.21-2.92.3.11.25.13.45.22.49,11.4,4.24,17.27,13.22,20.6,24.26,2.75,9.12,6.4,17.75,12.39,25.25,3.45,4.32,7.76,7.51,13,9.4,11.63,4.2,23.27,8.35,34.86,12.67,3.76,1.4,7.36,3.24,11.01,4.93.79.36,1.54.86,2.23,1.4,2.43,1.93,2.52,4.45-.22,5.79-3.23,1.59-6.72,3.02-10.25,3.58-13.81,2.18-27.3.22-40.43-4.22-6.32-2.14-12.57-4.36-19.25-5.11-5.97-.68-10.48-3.79-13.98-8.58-8-10.92-12.96-23.06-14.27-36.55-.55-5.65-.5-11.36-.73-17.05-.12-.02-.25-.05-.37-.07Z"/><path class="cls-1" d="M107.27,129.67c9.21,4.57,18.49,4.32,27.78,4.37,5.39.03,10.77.71,16.15,1.14.79.06,1.57.34,2.33.59,3.53,1.15,4.14,3.69,1.42,6.17-4.43,4.03-9.59,6.71-15.53,7.61-3.39.52-6.85.55-10.25.97-3.63.45-6.54-.97-9.27-3.11-5.74-4.51-9.37-10.53-12.63-17.75Z"/><path class="cls-1" d="M57.09,137.56c-.94,6.16-4.18,11.48-8.86,16.01-.32.31-.92.42-1.4.47-11.4,1.37-21.05-2.18-28.96-10.44-1.13-1.18-2.14-2.66-2.7-4.18-1.09-2.98.27-5.07,3.44-5.05,2.95.02,5.94.48,8.84,1.08,5.42,1.12,10.73,3.08,16.18,3.56,4.37.38,8.88-.9,13.45-1.46Z"/></svg>