<?xml version="1.0" encoding="UTF-8"?><svg id="Lager_1" xmlns="http://www.w3.org/2000/svg" viewBox="0 0 600 434"><defs><style>.cls-1{fill:none;}.cls-2{fill:#fff;}.cls-3{fill:#2b3b87;}</style></defs><path class="cls-3" d="M490.26,57.4l.36,19.73,4.01,4.01,19.73.39v-21.43c.91-1.02,22.65,5.16,21.42,12.04l10.72,286.6c-.02,3.43-1.95,4.58-4.3,6.42-19.89,15.56-97.23,14.19-119.61,2.31-14.36-7.62-7.12-11.06-7.22-22.01-.66-70.75,5.37-141.17,8.03-211.6.65-17.1-2.93-43.82-.05-58.98,1.87-9.81,15.46-13.1,24.03-14.78v21.43s21.46,0,21.46,0l-.03-24.13h21.45ZM487.58,148.49c3.73-37.64-18.42-40.4-13.42,0h13.42ZM487.58,247.59l-1.19-26.96-12.2-2.53-.03,29.49h13.42Z"/><path class="cls-3" d="M131.36,57.4l.36,19.73,4.01,4.01,19.73.39v-21.43c.91-1.02,22.66,5.16,21.42,12.04l10.72,286.6c-1.95,10.36-29.88,15.56-39.59,16.66-17.71,2.01-91.37,4.06-94.42-19.5-.72-5.55,2.74-12.17,2.87-18.49,1.77-87.46,6.36-174.86,7.98-262.53-1.34-8,22.69-16.29,24.03-14.78v21.43s17.06-.39,17.06-.39l4.01-4.01.36-19.73h21.45ZM128.68,148.49c4.67-38.86-20.79-38.73-16.1,0h16.1ZM128.66,247.59l-1.18-26.95-11.97-2.26c-3.14,8.38-4.57,17.9-1.75,26.69l14.89,2.52Z"/><path class="cls-3" d="M192.94,357.39l-8.05-190.18,18.78.03-.03-21.45h21.45s1.53,21.49,1.53,21.49l19.9-.03-.03-21.45h21.45l1.53,21.49,19.9-.03-.03-21.45h21.45s-.03,21.45-.03,21.45c4.73-.6,22.3,2.52,23.43-3.91l-2-17.54h21.45s1.16,18.93,1.16,18.93l22.95,2.52,1.53-21.49,19.9.03-.03,21.45,16.1-.03-5.37,190.18h-40.18v-73.66c0-4.07-12.42-25.33-16.08-29.45-30.09-33.94-87.34-29.42-112.04,8.48-2.73,4.19-11.16,22.62-11.16,26.33v68.3h-37.5Z"/><path class="cls-3" d="M292.03,271.71h16.1c.57-5.39-3.15-12.55,5.33-10.75v10.75s18.77-.04,18.77-.04l-.07,19.9,10.75,1.57-10.72,2.64v18.78s10.76,1.32,10.76,1.32l-10.76,1.32v18.78s10.76,1.32,10.76,1.32l-10.76,1.32v16.08c-7.85-1.12-4.26-14.94-5.34-16.07h-13.4s-3.98,16.08-3.98,16.08l-1.35-16.1h-16.1s-1.32,16.11-1.32,16.11l-1.32-16.11h-16.1s-1.32,16.11-1.32,16.11l-2.48-13.61-12.23-2.51c-.62-4.84,5.45-1.95,8.89-3.1,6.44-2.15,6.1-12.74,1.96-17.12l-10.85-1.21,13.07-7.01-.82-11.94-9.57-2.48,10.72-2.64-2.69-21.42h21.43s1.32-10.76,1.32-10.76l1.32,10.76ZM289.38,274.35h-16.1v18.78h16.1v-18.78ZM308.11,274.35l-14.9,2.51-1.18,16.26h16.1s-.02-18.77-.02-18.77ZM326.88,274.35h-13.42v18.78h13.42v-18.78ZM289.38,295.77h-16.1v18.78h16.1v-18.78ZM308.11,295.77l-14.9,2.51-1.18,16.26h16.1s-.02-18.77-.02-18.77ZM326.88,295.77h-13.42v18.78h13.42v-18.78ZM289.38,317.2h-16.1v18.78h16.1v-18.78ZM308.13,317.2h-16.1s2.52,17.59,2.52,17.59l13.56,1.19.02-18.77ZM326.88,317.2h-13.42v18.78h13.42v-18.78Z"/><path class="cls-3" d="M356.32,268.96l-16.84,5.05c-14.07-8.45-16.23-17.75-.74-26.35,3.12,3.56,20.51,17.27,17.58,21.3Z"/><polygon class="cls-3" points="367.05 357.4 348.28 357.4 348.28 333.27 365.87 335.79 367.05 357.4"/><polygon class="cls-3" points="254.56 357.4 235.78 357.4 235.79 333.27 253.38 335.79 254.56 357.4"/><polygon class="cls-3" points="367.05 327.94 348.28 327.94 348.28 303.81 365.87 306.33 367.05 327.94"/><polygon class="cls-3" points="254.56 327.94 235.78 327.94 235.79 303.81 253.38 306.33 254.56 327.94"/><path class="cls-3" d="M267.88,247.59l5,14.33-14.26,12.47-11.89-5.69c-3.42-4.85,13.76-23.1,21.15-21.11Z"/><polygon class="cls-3" points="329.53 242.26 322.42 258.46 303.1 251.25 302.76 236.85 329.53 242.26"/><path class="cls-3" d="M297.4,236.85l-.16,18.61c-13.42,2.4-20.72,5.92-26.28-9.62-1.38-5.11.5-2.93,3.06-4.21,7.09-3.54,15.45-5.33,23.38-4.79Z"/><path class="cls-3" d="M254.4,298.31l-18.61.16,5.4-26.78c17.15,4.36,17.1,11.23,13.21,26.62Z"/><polygon class="cls-3" points="367.04 298.44 348.64 298.12 344.16 279.58 359.07 272.9 367.04 298.44"/><polygon class="cls-2" points="487.58 247.59 474.16 247.59 474.19 218.1 486.39 220.63 487.58 247.59"/><path class="cls-2" d="M487.58,148.49h-13.42c-5.01-40.4,17.15-37.64,13.42,0Z"/><path class="cls-2" d="M128.66,247.59l-14.89-2.52c-2.82-8.79-1.39-18.32,1.75-26.69l11.97,2.26,1.18,26.95Z"/><path class="cls-2" d="M128.68,148.49h-16.1c-4.69-38.73,20.76-38.86,16.1,0Z"/><rect class="cls-1" x="273.28" y="317.2" width="16.1" height="18.78"/><rect class="cls-1" x="273.28" y="295.77" width="16.1" height="18.78"/><rect class="cls-1" x="273.28" y="274.35" width="16.1" height="18.78"/><polygon class="cls-1" points="308.13 317.2 308.11 335.97 294.55 334.79 292.03 317.2 308.13 317.2"/><polygon class="cls-1" points="308.11 295.77 308.13 314.55 292.03 314.55 293.21 298.29 308.11 295.77"/><polygon class="cls-1" points="308.11 274.35 308.13 293.12 292.03 293.12 293.21 276.86 308.11 274.35"/><rect class="cls-1" x="313.46" y="295.77" width="13.42" height="18.78"/><rect class="cls-1" x="313.46" y="274.35" width="13.42" height="18.78"/><rect class="cls-1" x="313.46" y="317.2" width="13.42" height="18.78"/></svg>