<?xml version="1.0" encoding="UTF-8"?><svg id="Lager_1" xmlns="http://www.w3.org/2000/svg" viewBox="0 0 111.13 109.47"><defs><style>.cls-1{fill:#fff;}.cls-2{fill:#a52527;}</style></defs><path class="cls-2" d="M11.91,3.21h86.38c3.09,33.88.41,66.27-26.35,90.83-17.7,16.25-14.99,16.17-32.29.55-18.2-16.43-27.02-37.86-27.69-62.43-.26-9.47-.04-18.96-.04-28.94h0Z"/><path class="cls-1" d="M40.39,30.26l-3.52,1.02-5.4-18.57c-.04-.13-1.18-1.47-1.55-.85-.31.25-.47,1.99-.39,2.29l5.16,17.76-3.25.95-5.16-17.76c-.09-.3-1.16-1.69-1.56-1.73l-.64.34c.14.33-.25,1.09-.21,1.21l5.4,18.57-3.52,1.02-5.32-18.3c-.04-.13-1.24-1.36-1.65-1.14-.44.24-.48,1.56-.41,2.06.78,5.44,4.19,11.91,5.03,17.34.13.84-.37,1.42-.29,1.88.06.34.79,1.05.97,1l7.18-2.09c.74,1.83.97,4.34,1.79,6.08.38.81,1.37,1.22,1.52,2.21l14.12,47.69c.96.7,3.3-.31,2.78-1.7l-13.67-46.92c-.4-.91.21-1.79.1-2.68-.24-1.9-1.4-4.14-1.75-6.09l7.18-2.09c.18-.05.41-1.04.28-1.36-.18-.43-.91-.65-1.25-1.43-2.2-5.04-2.79-12.32-5.05-17.34-.2-.45-.95-1.55-1.45-1.52-.47.03-.82,1.72-.78,1.84l5.32,18.3Z"/><path class="cls-1" d="M73.13,27.03c.55-2.19-2.31-4.11-3.41-5.49-3.25-4.05-2.59-10.03,1.81-12.94-3.82,11.11,10.79,8.95,13.16,17.7,1.01,3.74.03,6.6-1.21,10.12l1.32.27,2.03-3.41c-.16,3.27-1.52,7.93-4.63,9.55-2.67,1.39-10.97.61-12.7-1.98-.58-.87-.6-3.43-1.1-4.64s-1.35-1.86-1.96-2.9l3.18.94c.51.01,1-.67,1.07-1.16.29-1.88-3.73-4.74-3.57-8,.02-.33.12-1.66.7-1.43-1.08,2.92,4.49,6.6,5.3,3.36ZM75.64,29.78c-.51.78-1.68,1.55-1.93,2.16-.66,1.61.93,3.17-1.22,4.77-1.15.86-2.27.04-1.68,2.43,1.32,5.27,10.54,3.89,12.13-.65l-1.36-.56c-.09-2.77,1.57-4.98,1.03-7.79s-3.22-4.8-5.9-5.63c.05,2.18.17,3.37-1.08,5.28Z"/><polygon class="cls-1" points="67.1 56.23 62.01 88.91 61.88 90.67 62.67 91.13 74.95 58.25 67.1 56.23"/><path class="cls-1" d="M64.87,43.65c2.51,3.57-.48,8.76,3.4,11.45,1.96,1.36,4.03,1.73,6.38,1.43,3.91-.5,3.6-3.55,5.39-6.06.64-.9,1.82-1.31,2.24-2.34l-17.41-4.48Z"/><path class="cls-1" d="M78.46,31.86l-.84-.94-.46,3.16-1.02-.02c-.16.82-.72,1.55-.98,2.28-.28.78.47,1.7-.7,1.47l-.17.42c1,3.82,3.89,4.03,5.66.57l-1.11.08c2.25-2.21,1.78-5.33,1.32-8.16l-1.15-3.8-.55,4.95Z"/></svg>