<?xml version="1.0" encoding="utf-8"?>
<!-- Generator: Adobe Illustrator 27.6.1, SVG Export Plug-In . SVG Version: 6.00 Build 0)  -->
<svg version="1.1" id="Lager_1" xmlns="http://www.w3.org/2000/svg" xmlns:xlink="http://www.w3.org/1999/xlink" x="0px" y="0px"
	 viewBox="0 0 64 64.5" style="enable-background:new 0 0 64 64.5;" xml:space="preserve">
<style type="text/css">
	.st0{fill:#2B3B87;}
</style>
<g>
	<path class="st0" d="M57,49h-0.2c-0.5-1.6-2.2-2.4-3.8-1.8c-0.9,0.3-1.5,1-1.8,1.8H51V32c0-0.3-0.1-0.5-0.3-0.7L49.4,30l1.3-1.3
		c0.2-0.2,0.3-0.4,0.3-0.7V15h0.2c0.5,1.6,2.2,2.4,3.8,1.8c0.9-0.3,1.5-1,1.8-1.8H57c3.3,0,6-2.7,6-6s-2.7-6-6-6h-0.2
		c-0.5-1.6-2.2-2.4-3.8-1.8c-0.9,0.3-1.5,1-1.8,1.8H12.8C12.3,1.4,10.6,0.6,9,1.2C8.2,1.5,7.5,2.1,7.2,3H7C3.7,3,1,5.7,1,9
		s2.7,6,6,6h0.2c0.5,1.6,2.2,2.4,3.8,1.8c0.9-0.3,1.5-1,1.8-1.8H13v6c0,0.3,0.1,0.5,0.3,0.7l1.3,1.3l-1.3,1.3
		C13.1,24.5,13,24.7,13,25v12c0,0.3,0.1,0.5,0.3,0.7l1.3,1.3l-1.3,1.3C13.1,40.5,13,40.7,13,41v8h-0.2c-0.5-1.6-2.2-2.4-3.8-1.8
		c-0.9,0.3-1.5,1-1.8,1.8H7c-3.3,0-6,2.7-6,6s2.7,6,6,6h0.2c0.5,1.6,2.2,2.4,3.8,1.8c0.9-0.3,1.5-1,1.8-1.8h38.4
		c0.5,1.6,2.2,2.4,3.8,1.8c0.9-0.3,1.5-1,1.8-1.8H57c3.3,0,6-2.7,6-6S60.3,49,57,49z M51,51v8H13v-8H51z M13,13V5h38v8H13z M53,4
		c0-0.6,0.4-1,1-1s1,0.4,1,1v10c0,0.6-0.4,1-1,1s-1-0.4-1-1V4z M11,14c0,0.6-0.4,1-1,1s-1-0.4-1-1V4c0-0.6,0.4-1,1-1s1,0.4,1,1V14z
		 M15,41.4l1.7-1.7c0.4-0.4,0.4-1,0-1.4L15,36.6V25.4l1.7-1.7c0.4-0.4,0.4-1,0-1.4L15,20.6V15h34v12.6l-1.7,1.7
		c-0.4,0.4-0.4,1,0,1.4l1.7,1.7V49H15V41.4z M11,60c0,0.6-0.4,1-1,1s-1-0.4-1-1V50c0-0.6,0.4-1,1-1s1,0.4,1,1V60z M55,60
		c0,0.6-0.4,1-1,1s-1-0.4-1-1V50c0-0.6,0.4-1,1-1s1,0.4,1,1V60z"/>
</g>
</svg>
