<svg viewBox="0 0 111.13 109.47" xmlns="http://www.w3.org/2000/svg"><path d="m11.93 3.33h86.41c3.22 35.27-.93 68.33-29.48 92.94-15.12 13.04-11.95 13.08-26.71.64-19.65-16.58-29.58-38.39-30.18-64.21-.22-9.63-.04-19.27-.04-29.37zm58.92 58.58c3.75 5.34 7.51 10.68 11.4 16.22 13.06-18.31 19.42-52.38 13.76-73.16-7.88 10.2-15.57 20.16-23.46 30.37-2.13-2.75-4.02-5.2-6-7.77 5.6-7.41 11.03-14.6 16.74-22.16h-56.34c2.45 3.29 4.41 6.12 6.58 8.78 3.97 4.85 8.06 9.59 12.11 14.37.74 1.12 1.47 2.24 2.21 3.36 2.05 3.15 4.11 6.31 6.23 9.56-1.89 2.45-3.7 4.81-5.86 7.61-5.77-7.53-11.29-14.79-16.86-22.01-5.5-7.13-11.04-14.23-17.04-21.97-2.96 32.79 1.86 58.21 13.64 72.52 3.1-3.93 6.16-7.81 9.49-12.02 2.12 2.72 4.02 5.15 5.94 7.6-3.43 4.59-6.58 8.81-10.32 13.81 6.66 5.39 12.87 10.62 19.35 15.48 1.15.86 4.02.97 5.11.14 5.92-4.53 11.6-9.38 17.15-14.36.77-.69.97-3.22.34-4.08-3.84-5.16-8-10.07-12.06-15.07l.18.18c-2.26-3.38-4.52-6.75-6.97-10.4 1.82-2.33 3.68-4.71 5.55-7.1 2.57 2.52 4.75 4.66 6.93 6.8l2.2 3.32z" fill="#a52527"/><path d="m62.95 69.12c4.05 5 8.22 9.91 12.06 15.07.64.86.43 3.39-.34 4.08-5.55 4.98-11.23 9.83-17.15 14.36-1.09.83-3.95.72-5.11-.14-6.48-4.86-12.69-10.09-19.35-15.48 3.74-5.01 6.89-9.23 10.32-13.81-1.91-2.45-3.81-4.88-5.94-7.6-3.32 4.21-6.38 8.09-9.49 12.02-11.77-14.32-16.59-39.73-13.63-72.52 6 7.73 11.54 14.83 17.04 21.97 5.57 7.22 11.09 14.48 16.86 22.01 2.16-2.81 3.97-5.16 5.86-7.61-2.12-3.25-4.17-6.4-6.23-9.56 4.37 3.17 4.28-2.87 7.26-3.41 4.72 6.11 9.42 12.46 14.43 18.56 1.82 2.21 1.86 3.64.18 5.96-1.01 1.39-.76 3.69-1.08 5.57-2.18-2.14-4.36-4.28-6.93-6.8-1.87 2.39-3.73 4.77-5.55 7.1 2.45 3.65 4.71 7.03 6.97 10.4-1.22-.99-2.43-1.97-3.63-2.96-1.72 1.94-3.3 3.73-5.01 5.65-5.24-6.73-10.22-12.96-14.97-19.37-.77-1.03-1.16-3.17-.61-4.22 3.33-6.43 3.42-6.45-2.63-11.59-3.19 4.2-6.36 8.39-9.55 12.59 9.58 12.37 18.94 24.44 28.55 36.84 3.37-4.61 6.47-8.86 9.52-13.03-.67-1.49-1.25-2.8-1.84-4.1zm-12.84-4.92c.67-.72 1.05-1.05 1.35-1.44 3.15-4.07 6.33-8.14 9.44-12.24q4.91-6.48-.23-12.62c-.29-.34-.8-.5-1.43-.87-4.98 6.5-9.93 12.95-14.99 19.55 1.9 2.47 3.7 4.82 5.86 7.62z" fill="#fff"/><path d="m45.64 28.55c-4.04-4.78-8.14-9.52-12.11-14.37-2.17-2.66-4.13-5.49-6.58-8.78h56.34c-5.71 7.56-11.14 14.75-16.74 22.16 1.98 2.56 3.87 5.02 6 7.77 7.89-10.21 15.58-20.16 23.46-30.37 5.66 20.78-.7 54.85-13.76 73.16-3.89-5.54-7.65-10.88-11.4-16.22 1.32-.19 3.2.1 3.85-.66 2.81-3.25 5.25-6.82 8.02-10.52-9.48-12.23-18.86-24.33-28.49-36.77-3.05 3.82-5.88 7.08-8.34 10.6-.65.93-.2 2.64-.25 3.99z" fill="#fff"/><g fill="#a52527"><path d="m45.64 28.55c.05-1.35-.4-3.06.25-3.99 2.46-3.51 5.28-6.78 8.34-10.6 9.63 12.43 19.01 24.53 28.49 36.77-2.77 3.71-5.21 7.27-8.02 10.52-.66.76-2.54.47-3.85.66-.73-1.11-1.47-2.21-2.2-3.32.32-1.89.07-4.18 1.08-5.57 1.68-2.32 1.63-3.75-.18-5.96-5.01-6.1-9.71-12.45-14.43-18.56-2.98.54-2.89 6.58-7.26 3.41-.74-1.12-1.47-2.24-2.21-3.36z"/><path d="m62.95 69.12c.59 1.31 1.17 2.61 1.84 4.1-3.05 4.17-6.15 8.42-9.52 13.03-9.61-12.4-18.96-24.47-28.55-36.84 3.19-4.21 6.37-8.39 9.55-12.59 6.05 5.15 5.96 5.17 2.63 11.59-.54 1.05-.16 3.18.61 4.22 4.75 6.4 9.73 12.64 14.97 19.37 1.71-1.93 3.29-3.72 5.01-5.65 1.21.98 2.42 1.97 3.63 2.96 0 0-.18-.18-.18-.18z"/><path d="m50.11 64.2c-2.16-2.8-3.96-5.15-5.86-7.62 5.06-6.6 10.01-13.05 14.99-19.55.63.37 1.14.53 1.43.87q5.12 6.12.23 12.62c-3.11 4.11-6.28 8.17-9.44 12.24-.3.39-.68.73-1.35 1.44z"/></g></svg>