<?xml version="1.0" encoding="UTF-8"?><svg id="Lager_1" xmlns="http://www.w3.org/2000/svg" viewBox="0 0 288 302"><defs><style>.cls-1{fill:#5890ac;stroke-width:0px;}</style></defs><path class="cls-1" d="M273.25,194.54c-6.12,41.14-59.55,84.12-110.99,89.77-60.11,6.6-117.24-27.94-138.75-83.84-21.66-56.27-.5-113.6,34.53-143.5-13.96,66.96,6.04,119.68,66.72,153.99,38.99,22.04,99.12,23.71,148.48-16.42Z"/><path class="cls-1" d="M134.15,37.38c2.02,6.67,4.22,13.29,6,20.03,2.18,8.25,7.35,13.04,15.53,15.12,6.7,1.7,13.3,3.79,20.04,6.87-2.9.86-5.8,1.72-8.7,2.57-4.47,1.31-8.92,2.65-13.4,3.93-6.63,1.88-10.87,6.11-12.86,12.7-2.19,7.24-4.44,14.46-7.87,21.73-1.48-4.99-3.38-9.9-4.34-14.98-2.32-12.28-9.49-19.18-21.66-21.55-5.28-1.03-10.38-2.92-15.59-5.39,6.31-1.88,12.54-4.07,18.94-5.57,9.66-2.27,15.19-8.12,17.46-17.66,1.43-6.06,3.47-11.97,5.24-17.94l1.23.17Z"/><path class="cls-1" d="M211.36,158.13c-1.28-4.28-2.7-8.53-3.81-12.85-1.44-5.55-4.88-8.88-10.35-10.39-4.43-1.22-8.8-2.63-13.16-4.96,4.21-1.23,8.4-2.58,12.65-3.67,5.69-1.46,9.27-4.83,10.8-10.56,1.18-4.45,2.69-8.82,4.84-13.69,1.57,17.14,10.32,26.78,28.19,27.21-.19.53-.38,1.05-.56,1.58-2.84.91-5.63,2.13-8.55,2.66-9.19,1.69-14.95,6.58-16.46,16.13-.46,2.91-1.69,5.7-2.57,8.54-.34,0-.67,0-1.01.01Z"/><path class="cls-1" d="M225.62,45.78c-17.36.64-26.51,9.64-27.06,27.4-.6-.37-1.2-.73-1.81-1.1-1.31-4.15-2.78-8.26-3.89-12.47-1.5-5.7-4.93-9.21-10.65-10.7-4.3-1.13-8.51-2.55-12.88-4.81,3.68-1.11,7.3-2.53,11.06-3.27,7.21-1.42,11.43-5.5,13.02-12.66.84-3.8,2.18-7.49,4.27-11.29,1.05,3.43,2.38,6.81,3.1,10.31,1.58,7.76,6.04,12.25,13.84,13.76,3.51.68,6.88,2.03,10.32,3.08.23.58.45,1.16.68,1.74Z"/></svg>