<?xml version="1.0" encoding="UTF-8"?>
<svg id="Lager_1" xmlns="http://www.w3.org/2000/svg" version="1.1" viewBox="0 0 841.9 595.3">
  <!-- Generator: Adobe Illustrator 29.0.1, SVG Export Plug-In . SVG Version: 2.1.0 Build 192)  -->
  <defs>
    <style>
      .st0 {
        fill: #d57c50;
      }

      .st1 {
        fill: #fff;
      }
    </style>
  </defs>
  <path class="st1" d="M246,296.3v201.5c0,5,12.8,7.5,14-2V210.8l6.6-11.5,17.4,1.9-14,51.4c.4,3.6,4,6.6,7.5,6.5,7.8-.2,9.7-17.1,11.5-22.9.8-.7,18.1,6.4,19.3,7.2,1,.6,1.7.9,1.7,2.3v285c1.1,10.2,14,6,14,1V187.3c2,1.2,2.1,3.4,4.6,4.9,7.2,4.1,24.5,4.2,32.7,3,14.2-2.1,26.9-8.5,37.6-17.9v66.5c-.6,1.1-1.5,1.2-2.5,1.4-7.9,1.9-21.7,2-29.8.9-6-.8-21.3-7.1-24.7-1.4-6.8,11.3,11.8,14.1,18.9,15.3,12.6,2,25.7,2,38.2-.7v270.5c0,5.3,7,9.5,12,6,.8-.5,3-3.4,3-4V160.3c5.9.6,21.8,12.6,24.8,2.3,3.5-11.8-13.2-12-19.9-16.9,3.9-18.2,13.7-35.6,14.1-54.3,17,12.8,38,17.8,59,13.5,10.5-2.2,19.3-8,29.2-10.8,23.3-6.7,44.4-.3,62.3,15.2,14.6,12.6,33.4,33.5,47,48,9.9,10.5,24.7,22,18,38l-26,42.1-49.1-12.1c6.1-20.2,15-34.4-4.5-50.4-14.4-11.8-34.5-21.1-49.7-32.4-6.9-1.4-11.9,6.1-7.7,11.8l33,23c-9.9,5.7-21.2,13-33.1,13-10.6,0-32.6-9.6-40.7-7.8-6.6,1.5-6.8,10.9.7,13.8,15.3,6,40.2,10.4,56,5.9,6.4-1.8,30.2-16.2,32.6-15.6,5.6,1.5,6.5,10,5.7,14.9-.3,1.8-5.6,18-6.2,18.8-1.7,2-8.6-.6-11,5-2.8,6.5,1.9,9.1,7,10.9,22.8,8,50.1,10.8,73.2,18.8,10.6,2.2,14.3-5.2,8.7-13.7,13.8-25.7,42-49.6,18-79-14.5-17.9-37.6-39-54.5-55.5-21.8-21.3-37.8-32.2-70.5-29.6-15.6,1.2-25.7,9.6-39.3,12.7-48.5,11.1-65.5-39.2-105.4-33.4-10.5,1.5-23.3,11.6-26.8,21.7-1.1.8-7.2-6.9-9.1-8.4-14.3-11.1-35-12-49.4-.6-13,10.4-16.1,30.8-20.5,46-19.9-25.3-57-23.8-70,7.5-10.9,26.4-21,63.7-29.2,91.8-.8,2.8-3.6,10.3-3.7,12.4-.4,9.8,19,10.6,26,10.4l-16.9,54.5c-1.9,10.1,25.4,10,25.9,12.1l.9,144c4.2,5,12,3.7,13-3.1v-141.8l20.1-6.6h0ZM470.7,208.5l-42.3,23.7c-4.5,7,.2,14.5,8.6,11.6l41.5-23.5c4.1-6.8.8-13.6-7.8-11.8ZM563,314.3c5.7,4.2,15.8,15.6,23.4,10.9l31.8-51.2c3.8-7.9-4.6-15.2-11.3-9.3-8,7.2-17.8,31.6-25.5,41.5-.7.9-1.5,2.2-2.8,2-11-8.6-18.4-22.3-18.5-36.5,0-6.6,7.2-22.2-1.8-24.2-12.7-2.8-12.8,20.1-12.3,28.4.3,4.8,1.9,9.1,2.1,13.9,3.1,67.8-2.4,138,0,206.1.4,5.5,8.6,8.9,12.5,4.4.4-.5,2.5-5.2,2.5-5.5v-180.5h0Z"/>
  <path class="st0" d="M246,296.3l-20.1,6.6v141.8c-1.1,6.8-8.8,8.2-13,3.1l-.9-144c-.6-2.1-27.8-2-25.9-12.1l16.9-54.5c-7,.2-26.3-.7-26-10.4,0-2.1,2.9-9.5,3.7-12.4,8.2-28.1,18.3-65.4,29.2-91.8,13-31.3,50.2-32.8,70-7.5,4.4-15.1,7.5-35.6,20.5-46,14.4-11.4,35.1-10.6,49.4.6,1.9,1.5,7.9,9.2,9.1,8.4,3.4-10.2,16.2-20.2,26.8-21.7,39.9-5.8,57,44.6,105.4,33.4,13.6-3.1,23.7-11.5,39.3-12.7,32.8-2.6,48.7,8.3,70.5,29.6,16.9,16.5,40,37.6,54.5,55.5,23.9,29.4-4.2,53.4-18,79,5.5,8.6,1.8,15.9-8.7,13.7-23.1-8-50.4-10.9-73.2-18.8-5.1-1.8-9.8-4.4-7-10.9,2.4-5.6,9.3-3,11-5,.6-.8,6-17,6.2-18.8.8-4.9-.2-13.4-5.7-14.9-2.4-.6-26.1,13.7-32.6,15.6-15.8,4.4-40.7,0-56-5.9-7.6-3-7.3-12.4-.7-13.8,8.1-1.8,30.1,7.9,40.7,7.8,11.9,0,23.1-7.4,33.1-13l-33-23c-4.2-5.7.9-13.3,7.7-11.8,15.2,11.4,35.2,20.6,49.7,32.4,19.6,16,10.6,30.2,4.5,50.4l49.1,12.1,26-42.1c6.7-16.1-8.1-27.5-18-38-13.6-14.5-32.4-35.4-47-48-17.8-15.5-38.9-21.9-62.3-15.2-9.9,2.8-18.7,8.7-29.2,10.8-21,4.3-42.1-.7-59-13.5-.4,18.8-10.2,36.2-14.1,54.3,6.7,5,23.4,5.1,19.9,16.9-3,10.3-18.9-1.7-24.8-2.3v371.5c0,.6-2.3,3.4-3,4-4.9,3.5-12-.7-12-6v-270.5c-12.5,2.7-25.6,2.7-38.2.7-7.1-1.1-25.6-4-18.9-15.3,3.4-5.6,18.7.7,24.7,1.4,8.1,1,22,.9,29.8-.9,1.1-.3,1.9-.4,2.5-1.4v-66.5c-10.8,9.4-23.4,15.8-37.6,17.9-8.2,1.2-25.5,1.1-32.7-3-2.6-1.4-2.6-3.7-4.6-4.9v344.5c0,5-12.9,9.2-14-1V245.8c0-1.4-.7-1.7-1.7-2.3-1.2-.8-18.5-7.9-19.3-7.2-1.8,5.8-3.7,22.7-11.5,22.9-3.5.1-7.1-2.9-7.5-6.5l14-51.4-17.4-1.9-6.6,11.5v285c-1.3,9.5-14.1,6.9-14.1,2v-201.5h0ZM342.1,180.2c20,4.6,43.2-6,54.7-22.6,5.9-8.5,19.7-48.5,21.1-58.9,3.5-26.9-31.5-39-45.1-16.1l-30.7,97.6h0ZM274.5,186.3c2.5.7,12.5,0,16,0,12,0,31.3-14.3,37.9-24.1,6.2-9.2,18.1-44.5,20.1-55.9,5.7-31.1-33.6-41.3-45.3-17.3l-30.1,94c-.5,1.1.3,2.9,1.3,3.2h0ZM194,222.3c25.5,4.4,51.1-9.8,61-33.5,3.5-8.3,15.8-44.7,16-52.1.5-18.8-22.4-30.9-38-20.9-7.4,4.7-9.6,13-12.3,20.7-9.9,28.1-17.3,57.5-26.7,85.8h0ZM310,196.3l-10.5,3-5.5,21.5,1,2,13,5.1,2-1.1v-30.5h0ZM246,224.3c-5,1.9-9.1,5.4-14,7.5-4.2,1.8-8.8,2.7-13.1,4.1l-15.9,50.9c14.5,3.9,31.6,1,43-9v-53.5h0Z"/>
  <path class="st0" d="M563,314.3v180.5c0,.3-2.1,5-2.5,5.5-3.9,4.5-12.1,1.1-12.5-4.4-2.3-68.1,3.2-138.3,0-206.1-.2-4.8-1.8-9.1-2.1-13.9-.5-8.2-.4-31.1,12.3-28.4,9.1,2,1.8,17.6,1.8,24.2.1,14.2,7.6,27.9,18.5,36.5,1.4.2,2.1-1.1,2.8-2,7.7-9.9,17.5-34.3,25.5-41.5,6.7-6,15.1,1.4,11.3,9.3l-31.8,51.2c-7.6,4.8-17.7-6.7-23.4-10.9h0Z"/>
  <path class="st0" d="M470.7,208.5c8.6-1.8,11.9,5,7.8,11.8l-41.5,23.5c-8.4,3-13-4.6-8.6-11.6l42.3-23.7Z"/>
  <path class="st1" d="M194,222.3c9.5-28.3,16.8-57.6,26.7-85.8,2.7-7.7,5-16,12.3-20.7,15.6-10,38.5,2.1,38,20.9-.2,7.4-12.5,43.7-16,52.1-10,23.7-35.5,37.9-61,33.5h0Z"/>
  <path class="st1" d="M342.1,180.2l30.7-97.6c13.6-22.9,48.6-10.8,45.1,16.1-1.4,10.4-15.2,50.4-21.1,58.9-11.5,16.6-34.7,27.2-54.7,22.6h0Z"/>
  <path class="st1" d="M274.5,186.3c-1-.3-1.9-2.1-1.3-3.2l30.1-94c11.7-24,51-13.8,45.3,17.3-2.1,11.4-13.9,46.6-20.1,55.9-6.6,9.8-25.9,24.1-37.9,24.1s-13.5.7-16,0h0Z"/>
  <path class="st1" d="M246,224.3v53.5c-11.5,10-28.5,12.9-43,9l15.9-50.9c4.3-1.4,8.9-2.4,13.1-4.1,4.9-2.1,9-5.6,14-7.5h0Z"/>
  <polygon class="st1" points="310 196.3 310 226.8 308 227.8 295 222.8 294 220.8 299.5 199.3 310 196.3"/>
</svg>