<?xml version="1.0" encoding="UTF-8"?><svg id="Lager_1" xmlns="http://www.w3.org/2000/svg" viewBox="0 0 181.42 252.28"><defs><style>.cls-1{fill:#d57c50;}.cls-1,.cls-2{stroke-width:0px;}.cls-2{fill:#fff;}</style></defs><path class="cls-1" d="M95.25,222.57c13.21,4.76,26.04,9.38,39.28,14.16-2.42,1.73-82.24,2.12-86.27.64,1.44-.66,2.4-1.18,3.42-1.56,10.64-4.02,21.27-8.08,31.95-11.98,2.27-.83,2.99-1.73,2.18-4.19-1.6-4.89-2.8-9.91-4.26-14.85-.29-.97-.83-2.06-1.59-2.65-9.83-7.63-19.81-15.08-29.59-22.78-10.64-8.38-21.13-16.94-31.61-25.52-.87-.71-1.57-2.17-1.56-3.28.01-1.85.72-3.61,3.1-3.8.63-.05,1.26-.27,1.86-.51,4.85-1.9,9.05-1.44,13.48,1.85,5.18,3.85,11.32,6.1,17.86,6.85.96.11,1.92.26,2.88.26,6.48.01,8.36-2.38,6.69-8.62-8.49-31.73-16.98-63.45-25.49-95.17-2.7-10.05-5.5-20.08-8.13-30.14-.24-.91.08-2.6.71-2.96.87-.52,2.73-.64,3.39-.06,8.96,7.88,19.76,10.87,31.26,12.34,19.01,2.43,37.94,2.53,56.72-1.67,8.99-2.01,17.35-5.5,24.47-11.62,1-.86,2.98-1.13,4.31-.83.63.14,1.28,2.33,1.13,3.49-.45,3.48-1.1,6.96-2.01,10.35-10.04,37.64-20.14,75.27-30.23,112.9-.39,1.45-.9,2.87-1.34,4.3-1.05,3.43-.02,5.74,3.51,6.07,3.45.33,7.22.32,10.46-.73,5.15-1.67,10.1-4.11,14.91-6.65,2.55-1.35,4.86-2.05,7.62-1.13,2.03.68,4.28.96,6.09,2,1.27.73,2.31,2.33,2.78,3.77.25.77-.69,2.3-1.52,2.99-17.87,14.98-35.81,29.89-53.73,44.81-.66.55-1.27,1.29-2.04,1.56-5.03,1.8-6.56,5.91-7.53,10.64-.79,3.87-2.04,7.64-3.17,11.73ZM47.88,162.59c-.23.44-.45.88-.68,1.32.92.8,1.71,1.89,2.78,2.36,4.08,1.82,8.18,3.68,12.41,5.09,23.35,7.82,45.87,6.82,67.47-6.08,7.5-4.48,15.59-7.96,23.38-11.97,1.86-.95,3.58-2.17,5.99-3.64-2.25-.96-3.77-1.72-5.37-2.26-1.09-.37-2.47-.9-3.4-.54-4.26,1.64-8.43,3.52-12.59,5.4-6.27,2.84-12.75,4.66-19.99,4.08,1.74,1.88,3.35,3.53,4.87,5.27,1.79,2.05.52,3.98-.75,5.47-.58.68-2.27.6-3.44.56-2.12-.08-4.29-.8-6.34-.52-7.11.94-14.19,2.09-21.25,3.34-9.89,1.76-19.43.15-28.83-2.76-4.82-1.5-9.51-3.4-14.26-5.13ZM135.25,30.35c-6.58,28.11-13.05,55.8-19.53,83.5.32.08.65.17.97.25,3-10.27,5.94-20.55,9.02-30.79,3.09-10.27,6.31-20.5,9.52-30.73,3.17-10.11,6.39-20.19,9.59-30.29-.34-.15-.67-.31-1.01-.46-.68.47-1.31,1.02-2.04,1.39-5.4,2.76-10.57,6.25-16.27,8.08-15.41,4.95-31.43,5.44-47.48,4.81-4.23-.17-8.45-.56-12.67-.85.01.36.03.73.04,1.09,23.34,2.76,46.49,2.76,69.86-5.98ZM87.86,230.33c-1.42-1.52-2.64-2.96-4.03-4.22-.44-.4-1.45-.68-1.95-.46-5.37,2.41-10.69,4.92-16.03,7.41.05.18.09.35.14.53,7.23-1.08,14.46-2.16,21.87-3.26ZM33.77,150.21c-3.25-3.59-6.15-3.65-12.78-.56,3.16,2.21,6.05,4.24,8.95,6.28.38-.43.75-.87,1.13-1.3-1.47-.84-2.94-1.68-4.41-2.52.18-.27.35-.55.53-.82,2.03-.33,4.06-.66,6.58-1.07Z"/><path class="cls-2" d="M47.88,162.59c4.75,1.72,9.44,3.63,14.26,5.13,9.39,2.92,18.94,4.52,28.83,2.76,7.06-1.25,14.14-2.41,21.25-3.34,2.05-.27,4.22.45,6.34.52,1.17.04,2.86.12,3.44-.56,1.27-1.49,2.54-3.42.75-5.47-1.52-1.74-3.13-3.4-4.87-5.27,7.24.58,13.71-1.24,19.99-4.08,4.16-1.88,8.33-3.77,12.59-5.4.93-.36,2.31.18,3.4.54,1.59.54,3.11,1.29,5.37,2.26-2.41,1.48-4.13,2.69-5.99,3.64-7.79,4-15.88,7.49-23.38,11.97-21.6,12.9-44.12,13.89-67.47,6.08-4.23-1.42-8.32-3.28-12.41-5.09-1.06-.47-1.86-1.56-2.78-2.36.23-.44.45-.88.68-1.32Z"/><path class="cls-2" d="M135.25,30.35c-23.37,8.74-46.52,8.75-69.86,5.98-.01-.36-.03-.73-.04-1.09,4.22.29,8.45.69,12.67.85,16.05.63,32.06.14,47.48-4.81,5.7-1.83,10.87-5.32,16.27-8.08.73-.37,1.36-.92,2.04-1.39.34.15.67.31,1.01.46-3.2,10.1-6.43,20.18-9.59,30.29-3.21,10.23-6.43,20.47-9.52,30.73-3.09,10.24-6.02,20.53-9.02,30.79-.32-.08-.65-.17-.97-.25,6.48-27.69,12.96-55.39,19.53-83.5Z"/><path class="cls-2" d="M87.86,230.33c-7.41,1.11-14.64,2.18-21.87,3.26-.05-.18-.09-.35-.14-.53,5.34-2.49,10.66-5.01,16.03-7.41.5-.22,1.51.05,1.95.46,1.38,1.27,2.61,2.71,4.03,4.22Z"/><path class="cls-2" d="M33.77,150.21c-2.51.41-4.55.74-6.58,1.07-.18.27-.35.55-.53.82,1.47.84,2.94,1.68,4.41,2.52-.38.43-.75.87-1.13,1.3-2.9-2.03-5.8-4.06-8.95-6.28,6.63-3.1,9.53-3.03,12.78.56Z"/></svg>