<?xml version="1.0" encoding="utf-8"?>
<!-- Generator: Adobe Illustrator 27.6.1, SVG Export Plug-In . SVG Version: 6.00 Build 0)  -->
<svg version="1.1" id="Lager_1" xmlns="http://www.w3.org/2000/svg" xmlns:xlink="http://www.w3.org/1999/xlink" x="0px" y="0px"
	 viewBox="0 0 100 98.9" style="enable-background:new 0 0 100 98.9;" xml:space="preserve">
<style type="text/css">
	.st0{fill:#2B3B87;}
</style>
<path class="st0" d="M12.3,81.6c0,0.6,0.4,1,1,1h73.4c0.6,0,1-0.4,1-1v-6.7H12.3V81.6z"/>
<path class="st0" d="M93.8,28.5c-0.4-0.2-0.8-0.2-1.2,0L74,42.5c-2.4,1.8-5.7,1.2-7.5-1.2l-0.2-0.2L50.8,17.9
	c-0.2-0.4-1-0.6-1.4-0.2c-0.2,0-0.2,0.2-0.2,0.2L33.7,41.1c-1.6,2.6-4.9,3.1-7.5,1.6l-0.2-0.2L7.4,28.5c-0.4-0.2-0.8-0.2-1.2,0
	s-0.6,0.6-0.4,1l6.1,41.2h76L94,29.5C94.2,29.1,94,28.7,93.8,28.5z"/>
</svg>
