<?xml version="1.0" encoding="UTF-8"?><svg id="Lager_1" xmlns="http://www.w3.org/2000/svg" viewBox="0 0 536.17 341.2"><defs><style>.cls-1{fill:#2b3b87;stroke-width:0px;}</style></defs><path class="cls-1" d="M321.82,93.68h-24.07c13.1,16.67,25.44,32.38,38.48,48.98h-19.77c16.87,21.47,32.86,41.82,49.47,62.96h-28.32c18.83,23.96,36.75,46.76,55.38,70.47h-104.31v39.67h-41.04v-39.34h-104.75c18.75-23.84,36.73-46.7,55.36-70.4h-28.35c16.77-21.33,32.82-41.74,49.64-63.14h-19.77c13.07-16.65,25.37-32.31,38.38-48.87h-24.05c18.39-23.37,35.95-45.69,53.97-68.59,17.83,22.64,35.4,44.95,53.76,68.26Z"/><path class="cls-1" d="M443.52,114.88h-21.8c11.83,15.05,22.95,29.22,34.69,44.17h-17.9c15.36,19.54,29.85,37.98,45.04,57.3h-25.66c16.93,21.53,33.01,41.98,49.95,63.53-2.75,0-4.44,0-6.14,0-27.82,0-55.65-.03-83.47.06-1.96,0-3.92.86-6.65,1.51-16.08-20.45-32.82-41.72-50.43-64.12h28.34c-9.75-12.41-18.68-23.79-27.61-35.16-3.91-4.98-7.69-10.07-11.82-14.86-2.2-2.56-3.05-4.69-.28-6.91-3.22-1.42-6.37-2.81-9.51-4.2.19-.68.37-1.36.56-2.04h18.64c-4.14-5.42-7.52-9.85-11.11-14.55,6.24-8.02,12.41-15.93,19.18-24.63h-21.7c16.62-21.13,32.5-41.32,48.85-62.1,16.15,20.51,32.05,40.7,48.83,62.01Z"/><path class="cls-1" d="M168.23,114.57c7.15,9.14,13.27,16.97,19.59,25.05-3.53,4.56-6.95,8.98-10.96,14.17h18.24c-.59,5.97-4.87,5.28-8.98,5.61.89,1.65,1.62,3,2.46,4.56-13.71,17.45-27.38,34.83-41.78,53.14h28.34c-17.63,22.42-34.34,43.68-50.64,64.4-2.54-.62-4.64-1.56-6.74-1.57-27.49-.1-54.98-.07-82.47-.07-1.92,0-3.85,0-6.98,0,16.83-21.39,32.92-41.86,49.78-63.29h-25.67c15.31-19.48,29.76-37.86,44.93-57.15h-17.88c12.01-15.3,23.11-29.45,34.84-44.4h-21.76c16.74-21.28,32.68-41.54,48.88-62.14,16.22,20.6,32.06,40.73,48.56,61.69h-21.76Z"/><path class="cls-1" d="M159.64,315.78h-36.37v-27.79h36.37v27.79Z"/><path class="cls-1" d="M413.04,288.01v27.57h-36.54v-27.57h36.54Z"/></svg>