<?xml version="1.0" encoding="utf-8"?>
<!-- Generator: Adobe Illustrator 27.6.1, SVG Export Plug-In . SVG Version: 6.00 Build 0)  -->
<svg version="1.1" id="Lager_1" xmlns="http://www.w3.org/2000/svg" xmlns:xlink="http://www.w3.org/1999/xlink" x="0px" y="0px"
	 viewBox="0 0 32 32.8" style="enable-background:new 0 0 32 32.8;" xml:space="preserve">
<style type="text/css">
	.st0{fill:#2B3B87;}
</style>
<g>
	<circle class="st0" cx="11" cy="21.9" r="0.4"/>
	<path class="st0" d="M12.5,19.6c-0.4,0-0.8,0.3-0.8,0.8c0,0.2,0.1,0.4,0.2,0.5c0.1,0.1,0.3,0.2,0.5,0.2l0,0c0.2,0,0.4-0.1,0.5-0.2
		c0.1-0.1,0.2-0.3,0.2-0.5C13.2,19.9,12.9,19.6,12.5,19.6z M12.2,20.3c0-0.1,0-0.1,0.1-0.2c0,0,0.1-0.1,0.2-0.1c0,0,0.1,0,0.2,0.1
		c0,0,0.1,0.1,0.1,0.2C12.7,20.6,12.2,20.6,12.2,20.3z"/>
	<path class="st0" d="M11.8,18c0-0.1-0.1-0.2-0.2-0.2c0,0,0,0,0,0c-0.1,0-0.2,0.1-0.2,0.2c0,0,0,0,0,0c0,0.1,0.1,0.2,0.2,0.2
		C11.7,18.2,11.8,18.1,11.8,18L11.8,18z"/>
	<path class="st0" d="M21.3,8.9c-0.2-0.2-0.6-0.2-0.8,0L14.4,15c-0.2,0.2-0.2,0.6,0,0.8c0.2,0.2,0.6,0.2,0.8,0l6.1-6.1
		C21.5,9.5,21.5,9.2,21.3,8.9z"/>
	<path class="st0" d="M29.9,5.5l-3.4-3.4C26.3,1.9,26,2,25.8,2.2l-0.6,0.7l3.9,3.9l0.7-0.6C30,6,30.1,5.8,29.9,5.5
		C29.9,5.5,29.9,5.5,29.9,5.5z"/>
	<path class="st0" d="M28.3,7.4l-3.8-3.7l-0.2-0.2c-0.3-0.2-0.6-0.4-0.9-0.4c-0.3,0-0.7,0.1-0.9,0.4C22.1,3.9,22,4.5,22.3,5h-0.1
		l-8.4,8.5c-3.2-1.3-6.9-0.6-9.3,1.9c-0.2,0.2-0.5,0.5-0.7,0.7c-2.3,2.9-2.5,7-0.4,10.1c0.3,0.5,0.7,0.9,1.1,1.3
		c1.6,1.6,3.8,2.5,6.1,2.5c2.3,0,4.4-0.9,6-2.5c0.4-0.4,0.8-0.9,1.1-1.4c1.2-1.7,1.6-3.8,1.3-5.9c-0.1-0.7-0.3-1.4-0.6-2.1l8.4-8.4
		c0,0,0,0,0-0.1c0.2,0.2,0.5,0.2,0.7,0.2c0.3,0,0.7-0.1,0.9-0.4C29,9,29,8.2,28.5,7.7c0,0,0,0,0,0L28.3,7.4z M8.5,26.7
		c0.2-0.2,0.5-0.2,0.7,0c0.2,0.2,0.2,0.5,0,0.7c-0.2,0.2-0.5,0.2-0.7,0C8.3,27.2,8.3,26.9,8.5,26.7z M10.4,26.2
		c0.1-0.1,0.3-0.1,0.4,0c0,0,0,0,0,0c0.1,0.1,0.1,0.3,0,0.4c-0.1,0.1-0.3,0.1-0.4,0C10.3,26.5,10.3,26.3,10.4,26.2
		C10.4,26.2,10.4,26.2,10.4,26.2z M17.4,18.2c0.3,0.7,0.5,1.4,0.6,2.1c0,0.1,0,0.2,0,0.3c-3.1,2.3-8.4,3.3-13.2,2.2
		C4.9,22.9,5,23,5,23.1c0,0.8,0.5,1.5,1.1,2c0.2,0.1,0.5,0.2,0.8,0.2c0.3,0,0.5,0.3,0.5,0.5c0,0.3-0.2,0.5-0.5,0.5l0,0
		c-0.4,0-0.8-0.1-1.2-0.3c-1-0.6-1.6-1.7-1.7-2.8c0-0.2,0.1-0.4,0.3-0.5c-0.4-0.1-0.9-0.3-1.3-0.4c0-0.1,0-0.1,0-0.2
		c-0.1-1.9,0.4-3.8,1.6-5.3c0.2-0.2,0.4-0.4,0.6-0.6c2.2-2.2,5.7-2.9,8.5-1.5c0.2,0.1,0.4,0.1,0.6-0.1L21.8,7l0,0
		c-0.2,0.2-0.2,0.4,0,0.6l2.7,2.7c0.1,0.1,0.3,0.1,0.4,0.1l-7.3,7.3C17.4,17.9,17.3,18.1,17.4,18.2L17.4,18.2z"/>
</g>
</svg>
