<?xml version="1.0" encoding="UTF-8"?><svg id="Lager_1" xmlns="http://www.w3.org/2000/svg" viewBox="0 0 181.42 252.28"><defs><style>.cls-1{fill:#5890ac;}.cls-1,.cls-2{stroke-width:0px;}.cls-2{fill:#fff;}</style></defs><path class="cls-1" d="M142.66,141.25c.2-.81.4-1.61.6-2.4,1.03-4.02.48-5.19-3.48-6.24-4.15-1.1-8.37-1.99-12.58-2.85-2.66-.55-4.22.65-4.74,3.33-.24,1.21-.54,2.41-.82,3.66-13.77-7.47-22.4-25.85-15.33-43.67,6.93-17.46,24.08-25.5,40.57-21.9,20.42,4.46,30.33,22.67,28.05,39.47-2.72,20.1-19.93,30.73-32.27,30.6ZM117.39,84.87c13.87-9.3,27.57-10.52,39.98.59,12.41,11.11,12.85,24.89,5.28,39.3,10.18-10.97,10.35-29.94-2.88-41.88-13.09-11.8-32.22-9.61-42.38,1.98Z"/><path class="cls-1" d="M62.1,114c0,7.27.08,14.37-.09,21.46-.02,1.03-1,2.5-1.93,2.96-3.07,1.52-6.3,2.74-9.53,3.92-1.35.49-2.84.6-4.3.88-1.44-3.62-4.47-5.81-7.03-8.33-1.86-1.83-4.19-1.25-6.35,1.03-1.74,1.83-1.87,4.09-.32,6.02.5.62,1.05,1.21,1.57,1.81-.06.19-.13.38-.19.58-4.82-.49-9.67-.74-14.43-1.55-3.17-.54-6.25-1.76-9.28-2.91-2.69-1.03-4.12-2.95-4.03-6.11.16-5.72,0-11.44-.02-17.17,0-.68,0-1.36,0-2.23,8.7,5.92,18.43,6.54,28.12,6.47,9.63-.07,19.31-.76,27.82-6.84Z"/><path class="cls-1" d="M41.7,103.12c5.96.42,11.83.93,17.09,4.03.47.28.93.58,1.35.92,2.66,2.25,2.75,4.69-.32,6.33-3.26,1.74-6.81,3.11-10.39,4.02-7.16,1.82-14.53,1.65-21.84,1.31-5.85-.27-11.6-1.26-17-3.7-.32-.14-.66-.25-.94-.44-1.6-1.09-3.53-2.05-3.4-4.35.13-2.21,1.9-3.26,3.65-4.19,4.82-2.56,10.09-3.46,15.43-4,3.59-.36,7.2-.54,10.89-.81-.25,1.09-.44,1.88-.69,2.95-.26.02-.8.15-1.32.11-5.24-.42-10.29.69-15.3,1.99-.53.14-1.11.34-1.49.69-.7.66-1.81,1.5-1.76,2.19.05.75,1.13,1.84,1.94,2.04,3.96.96,7.98,2.25,12,2.33,5.74.13,11.51-.58,17.25-1.16,1.59-.16,3.21-.94,4.64-1.75,1.75-.99,1.77-2.38.01-3.32-1.69-.9-3.56-1.73-5.43-1.97-2.15-.28-3.5-1.18-4.35-3.22Z"/><path class="cls-1" d="M135.06,136.16c-1.25-2.3-3.4-1.56-5.15-1.21-1.92.38-2.91,2.02-3.05,3.98-.1,1.36-.02,2.72-.02,4.28-1.42-.36-2.66-.34-3.35-.94-.75-.65-1.46-1.94-1.36-2.85.28-2.39.95-4.76,1.6-7.09.55-1.97,2.16-1.94,3.73-1.58,3.58.81,7.11,1.84,10.72,2.51,5.65,1.05,4.8,2.56,3.81,6.72-.27,1.15-.42,2.34-.79,3.45-.25.75-.63,1.69-1.24,2.04-.68.39-1.76.45-2.51.2-.43-.14-.75-1.17-.78-1.82-.07-1.46.19-2.93.08-4.38-.1-1.31,0-2.86-1.74-3.38l.07.07Z"/><path class="cls-1" d="M134.99,136.09c.22,3.34.57,6.68.6,10.02.01,1.06-.8,2.13-1.41,3.01.25-2.96.56-5.93.72-8.89.13-2.44-1.02-3.68-3.15-3.69-1.98-.01-3.01,1.2-3.04,3.58-.01,1.11-.08,2.23-.01,3.34.11,1.79.3,3.57.52,6.03-.71-1.25-1.59-2.1-1.65-3-.16-2.49-.13-5.02.13-7.5.29-2.8,2.78-4.07,5.78-3.21.52.15,1.05.27,1.57.4,0,0-.07-.07-.07-.07Z"/><path class="cls-1" d="M41.28,147.81c-1-.36-2.21-.49-2.96-1.14-1.71-1.48-3.24-3.18-4.78-4.85-1.58-1.73-1.51-4.05.09-5.62,1.85-1.82,4.03-1.87,5.85-.04,1.56,1.57,3.16,3.13,4.51,4.88.69.89.86,2.17,1.36,3.52-2.43-2.79-4.51-5.23-6.65-7.62-1.22-1.37-2.63-1.42-3.99-.19-1.77,1.6-1.86,2.53-.41,4.22,1.09,1.26,2.18,2.53,3.4,3.65,1.13,1.03,2.44,1.87,3.66,2.8-.02.13-.05.27-.07.4Z"/><path class="cls-1" d="M42.36,141.98c-.96.46-1.8.66-2.33,1.17-1.01.98-1.83.79-2.68-.07-.87-.88-1.94-1.7-2.46-2.76-.36-.73-.26-2.19.25-2.7.51-.51,2.14-.68,2.67-.25,1.68,1.36,3.07,3.06,4.55,4.61Z"/><path class="cls-1" d="M133.81,144.91c-.75-.38-1.15-.62-1.57-.78-.89-.33-2.54-.56-2.57-.92-.12-1.7.06-3.46.48-5.12.1-.39,1.56-.69,2.32-.57.51.08,1.22.95,1.28,1.52.16,1.79.06,3.6.06,5.87Z"/><path class="cls-1" d="M129.66,164.08c0,.73.27,1.61-.05,2.16-1.51,2.71-3.13,5.37-4.84,7.97-.31.47-1.23.54-1.86.79.03-.65-.15-1.43.14-1.94,1.44-2.59,2.98-5.13,4.53-7.66.32-.52.84-.91,1.26-1.36.27.01.54.02.81.03Z"/><path class="cls-1" d="M49.64,152.13c-.17.25-.33.72-.63.85-.28.12-.84-.02-1.06-.25-2.39-2.55-4.77-5.11-7.07-7.74-.26-.29-.03-1-.03-1.52.49.05,1.18-.1,1.44.17,2.43,2.54,4.78,5.15,7.14,7.75.12.13.11.39.2.74Z"/><path class="cls-1" d="M129.96,154.33c.26-2.7.47-5.4.84-8.08.07-.48.81-.86,1.24-1.29.27.5.79,1.01.76,1.49-.19,3.04-.43,6.09-.82,9.11-.09.68-.83,1.27-1.28,1.9-.24-.7-.52-1.38-.72-2.09-.09-.32-.02-.69-.02-1.04Z"/><path class="cls-1" d="M72.2,162.57c2.76.37,5.65.71,8.52,1.17.49.08.89.69,1.33,1.06-.54.33-1.1,1-1.61.95-3.37-.32-6.74-.75-10.09-1.24-.34-.05-.82-.77-.79-1.13.03-.32.65-.72,1.08-.85.44-.13.96.01,1.57.04Z"/><path class="cls-1" d="M96.86,174.76c-.37-.16-.64-.23-.86-.37-2.72-1.77-5.45-3.52-8.11-5.36-.42-.29-.5-1.07-.74-1.62.62-.02,1.39-.3,1.84-.03,2.77,1.67,5.49,3.43,8.17,5.24.35.23.52.92.52,1.39,0,.25-.53.5-.82.75Z"/><path class="cls-1" d="M65.27,160.91c-.88.39-1.51.93-1.87.79-3.15-1.22-6.27-2.53-9.36-3.92-.43-.19-.62-.92-.92-1.4.59-.15,1.29-.57,1.76-.39,3.03,1.15,6.01,2.43,8.99,3.7.38.16.67.57,1.4,1.21Z"/><path class="cls-1" d="M109.23,178.38c-1.66,0-3.33.07-4.99-.05-.46-.03-.88-.63-1.32-.97.42-.35.83-1,1.26-1.01,3.33-.08,6.66-.07,9.99.01.44.01.87.61,1.31.94-.49.37-.95,1-1.47,1.05-1.58.14-3.19.05-4.78.05v-.02Z"/><path class="cls-1" d="M112.57,179.62c.3-.05.71-.21.79-.11,1.75,2.15,3.63,1.26,5.56.32,1.12-.54,2.41-.8,3.4-1.51,1.3-.93,2.38-2.17,3.77-3.47,0,1.79-.64,3.12-2.13,3.86-2.04,1.01-4.15,1.87-6.27,2.7-2.59,1.02-3.43.7-5.12-1.79Z"/><path class="cls-1" d="M78.66,162.34c1.03-1.43,2.65-1.76,4.65-.91,1.84.79,3.69,1.55,5.51,2.38,1.48.67,2.49,1.69,2.24,3.63-3.39-3.78-7.5-5.46-12.4-5.1Z"/><path class="cls-1" d="M105.07,179.77c-1.52,1.29-2.9,1.31-4.49.39-1.84-1.06-3.84-1.82-5.69-2.86-1.32-.74-2.37-1.8-1.85-3.63,3.1,3.91,7.07,5.74,12.03,6.1Z"/><path class="cls-1" d="M44.67,151.43c1.53,1.62,2.93,3.4,4.63,4.82,1.76,1.46,3.82,2.56,5.61,3.72-1.32.39-2.8.31-4.22-1.08-1.47-1.43-3.3-2.5-4.71-3.97-.84-.87-1.18-2.22-1.74-3.36.14-.04.29-.09.43-.13Z"/><path class="cls-1" d="M71.97,166.18c-3.72,2.37-6.61-.96-9.88-1.71-1.31-.3-2.58-1.31-2.36-3.22,3.59,3.12,7.54,4.91,12.24,4.93Z"/><path class="cls-1" d="M125.35,166.65c-.26-.89-.82-1.82-.74-2.67.58-5.84,2.13-9.04,4.37-9.41-2.19,3.61-3.43,7.45-3.63,12.08Z"/><path class="cls-1" d="M129.78,168.02c2.44-3.97,3.76-8.11,3.4-12.75,2.19,2.56-.12,11.39-3.4,12.75Z"/><path class="cls-1" d="M106.12,174.97c-3.55-1.68-7.05-3.33-10.41-4.91,1.82-.99,9.48,2.47,10.41,4.91Z"/><path class="cls-1" d="M61.36,157.42c2.85-1.72,11.28,1.5,11.91,4.52-3.61-2.39-7.39-4.05-11.91-4.52Z"/><path class="cls-1" d="M57.86,155.8c-3.29-2.7-6.36-5.22-9.74-8.01,1.22.41,2.56.47,3.27,1.17,2.2,2.18,5.64,3.34,6.48,6.84Z"/><path class="cls-1" d="M88.56,171.3c-2.75.75-9.57-2.03-11.14-4.72,3.73,1.58,7.52,3.18,11.14,4.72Z"/><path class="cls-1" d="M122.99,171.61c-3.32,1.33-6.44,2.58-9.98,4.01,1.41-2.13,8-4.67,9.98-4.01Z"/><path class="cls-1" d="M40.82,105.92c-1.01-.57-2.04-1.13-3.01-1.76-.06-.04.32-.74.5-1.14,1.04.61,2.08,1.22,3.12,1.83-.2.36-.4.72-.6,1.08Z"/><path class="cls-2" d="M117.39,84.87c10.16-11.59,29.29-13.78,42.38-1.98,13.24,11.93,13.07,30.91,2.88,41.88,7.57-14.41,7.14-28.19-5.28-39.3-12.42-11.11-26.11-9.89-39.98-.59Z"/></svg>