<?xml version="1.0" encoding="UTF-8"?><svg id="Lager_1" xmlns="http://www.w3.org/2000/svg" viewBox="0 0 400 400"><defs><style>.cls-1{fill:#2b3b87;}</style></defs><path class="cls-1" d="M198.07,83.14v133.59h4.05V83.14h12.15s14.24,235.89,14.24,235.89c-2.34,8.46-23.78,68.84-27.42,69.76-4.1,1.03-2.86-1.82-3.92-4.07-9.71-20.57-19.3-44.03-25.48-65.68l14.24-235.9h12.15Z"/><path class="cls-1" d="M175.59,103.59l.21,15.99-34.36-6.05c-2.42,15.05-12.21,30.38-24.47,39.31-3.39,2.47-16.27,7.91-17.13,9.18-3.84,5.64,2.22,40.14,4.09,48.66,8.75,39.89,28.79,75.55,58.69,103.23l4.08,24.25c-41.23-31.89-69.09-75.66-79.36-127.09-1.92-9.63-8.79-57.65-2.67-62.2,27.91-3.86,45.21-30.34,42.57-57.63l48.35,12.35Z"/><path class="cls-1" d="M272.95,91.24c-2.88,27.57,14.63,53.58,42.57,57.63l1.71,2.34c4.2,71.47-25.96,145.24-84.73,186.96,3.1-6.54,2.81-19.14,5.07-24.26,1.28-2.92,20.38-21.52,24.93-27.69,20.07-27.23,43.41-85.44,38.91-119.2-1.13-8.5-11.2-9.09-18.19-14.18-12.26-8.93-22.05-24.26-24.47-39.31l-34.36,6.05-.13-14.95,48.69-13.38Z"/><path class="cls-1" d="M212.57,66.63c1.04,1.66,20.21,6.08,17.88,16.5-19.73-5.59-40.92-6.15-60.7,0,.61-10.99,10.85-12.8,18.28-17.54-1-9.57,1.14-20.81-.02-30.08-.73-5.85-4.97-10.39-4.18-16.02,1.88-13.48,35.19-13.06,32.47,3.77-.51,3.17-3.51,5.55-4.17,10.18-.53,3.71-.44,31.78.43,33.18Z"/></svg>