<?xml version="1.0" encoding="UTF-8"?><svg id="Lager_1" xmlns="http://www.w3.org/2000/svg" viewBox="0 0 600 600"><defs><style>.cls-1{fill:#fff;}.cls-2{fill:#2b3b87;}</style></defs><path class="cls-2" d="M377.78,206.89l10.02-11.49,8-14.88c12.06,31.37,43.46,46.63,69.34,64.68,7.44,5.19,12.52,13.53,23.61,14.59,1.98,2.79-8.82,26.85-10.74,31.36-11.24,26.29-25.2,51.58-35.61,78.26-9.09,23.29-13.47,55.14-32.66,71.49-7.5,6.39-17.74,10.97-25.05,18-17.81,17.14-18.56,36.46-29.94,56.17-14.31,24.78-37.59,45.9-53.24,70.04l-2.86.88c-15.1-25.05-38.67-45.46-53.38-70.93-11.38-19.7-12.12-39.03-29.94-56.17-7.3-7.03-17.54-11.61-25.05-18-19.15-16.32-23.54-48.2-32.66-71.49-14.39-36.74-35.41-70.98-46.59-108.88,11.04-2.23,16.12-9.98,23.84-15.34,25.91-17.99,57.26-33.35,69.34-64.68l8,14.89,5.86,5.93c-2.84-6.58-6.59-12.82-8.71-19.75-17.51-57.34,16.13-132.19,68.9-159.63,18.52-9.63,22.86-10.34,41.7-.96,56.44,28.1,94.99,115.46,65.52,173.45-2.27,4.47-6.38,7.77-7.68,12.44ZM295.44,43.31c-9.37,2.08-18.59,17.79-22.81,25.81-27.81,52.86-63.38,112.54-.59,155.32,4.62,3.15,24.24,14.66,28.55,14.38,4-.26,23.02-11.42,27.37-14.38,35.15-23.95,42.73-53.01,28.63-92.87-4.98-14.07-32.38-72.21-41.25-80.96-5.28-5.21-12.25-8.99-19.9-7.29ZM351.37,323.56c-53.41-11.38-106.65-43.83-139.44-87.62-4.66-6.23-7.95-13.63-13.3-19.32,10.78,49.13,56.59,81.83,102.03,97.23,13.13,4.45,32.24,10.04,45.88,11.07,1.54.12,5.16,1.04,4.82-1.35ZM302.78,509.62c26.17-3.61,44.8-28.47,52.69-52.14,1.66-4.99,1.62-10.95,3.56-15.88,5.6-14.21,28.48-20.23,38.72-30.71,12.12-12.4,14.96-31.13,20.27-47.06l-8.57,15.71c-3.93,19.33-13.89,28.33-29.88,38.17-16.61,10.23-22.38,6.06-28.88,28.05-6.64,22.47-4.17,30.11-23.66,47.17l-24.25,16.69Z"/><path class="cls-1" d="M295.44,43.31c7.65-1.7,14.62,2.08,19.9,7.29,8.87,8.75,36.27,66.89,41.25,80.96,14.11,39.86,6.52,68.93-28.63,92.87-4.35,2.96-23.37,14.12-27.37,14.38-4.3.28-23.92-11.24-28.55-14.38-62.79-42.78-27.23-102.45.59-155.32,4.22-8.02,13.44-23.73,22.81-25.81Z"/><path class="cls-1" d="M351.37,323.56c.34,2.39-3.28,1.47-4.82,1.35-13.65-1.02-32.75-6.62-45.88-11.07-45.45-15.4-91.25-48.1-102.03-97.23,5.35,5.69,8.64,13.09,13.3,19.32,32.79,43.79,86.03,76.24,139.44,87.62Z"/><path class="cls-1" d="M302.78,509.62l24.25-16.69c19.48-17.05,17.02-24.7,23.66-47.17,6.5-21.99,12.27-17.83,28.88-28.05,15.99-9.84,25.95-18.84,29.88-38.17l8.57-15.71c-5.31,15.94-8.15,34.67-20.27,47.06-10.25,10.48-33.13,16.5-38.72,30.71-1.94,4.93-1.9,10.89-3.56,15.88-7.89,23.67-26.51,48.53-52.69,52.14Z"/></svg>