<?xml version="1.0" encoding="UTF-8"?><svg id="Lager_1" xmlns="http://www.w3.org/2000/svg" viewBox="0 0 111.13 109.47"><defs><style>.cls-1{fill:#a52527;}.cls-1,.cls-2{stroke-width:0px;}.cls-2{fill:#fff;}</style></defs><path class="cls-1" d="M12.59,3.43h85.54c2.78,31.75.71,62.15-22.41,86.9-5.06,5.41-11.38,9.63-17.09,14.44-2.3,1.93-4.29,1.47-6.68-.08-22.61-14.66-35.53-35.76-39.07-62.02-1.71-12.71-.3-25.83-.3-39.23ZM41.77,5.66c-.1,2.16-.28,4.11-.28,6.06-.02,24.5.37,49.01-.24,73.49-.19,7.63,2.75,11.77,8.51,15.75,4.25,2.93,7.14,2.74,11.34-.06,5.61-3.74,8.23-7.79,8.08-14.97-.52-24.66-.19-49.33-.21-74,0-2.08-.23-4.16-.36-6.28h-26.84Z"/><path class="cls-2" d="M41.77,5.66h26.84c.13,2.11.36,4.19.36,6.28.03,24.67-.3,49.34.21,74,.15,7.17-2.47,11.23-8.08,14.97-4.2,2.8-7.08,3-11.34.06-5.76-3.98-8.71-8.11-8.51-15.75.61-24.48.22-48.99.24-73.49,0-1.95.17-3.89.28-6.06Z"/></svg>