<?xml version="1.0" encoding="UTF-8"?><svg id="Lager_1" xmlns="http://www.w3.org/2000/svg" viewBox="0 0 111.13 109.47"><defs><style>.cls-1{fill:#a52527;}.cls-1,.cls-2{stroke-width:0px;}.cls-2{fill:#fff;}</style></defs><path class="cls-1" d="M12.75,3.44h86.06c.16,1.11.49,2.21.44,3.29-.58,13.93.36,28.15-2.18,41.72-4.68,24.99-18.5,44.52-40.72,57.58C22.89,88.09,7.98,53.64,12.75,3.44ZM74.62,17.23c-1.34,1.85-2.23,2.95-2.98,4.13-3.45,5.49-6.52,11.25-10.37,16.43-3.73,5.03-4.3,9.18-.32,14.51,4.8,6.44,8.66,13.58,13.51,21.33,5.93-9.67,11.3-18.37,16.55-27.14.38-.64.21-1.98-.22-2.69-5.18-8.64-10.46-17.23-16.18-26.58ZM35.66,17.3c-1.33,1.73-2.18,2.68-2.85,3.75-3.53,5.63-6.65,11.56-10.62,16.86-3.82,5.1-4.03,9.27-.16,14.52,4.76,6.46,8.65,13.55,13.45,21.21,5.87-9.6,11.15-18.19,16.34-26.84.42-.7.55-2.04.16-2.69-5.24-8.77-10.6-17.47-16.32-26.81Z"/><path class="cls-2" d="M74.62,17.23c5.71,9.35,10.99,17.94,16.18,26.58.43.71.6,2.05.22,2.69-5.25,8.77-10.63,17.47-16.55,27.14-4.84-7.75-8.71-14.89-13.51-21.33-3.97-5.34-3.41-9.49.32-14.51,3.85-5.18,6.92-10.94,10.37-16.43.74-1.19,1.63-2.28,2.98-4.13ZM74.57,33.16c-8.78,9.65-8.66,16.21.15,23.39,9.24-14.09,9-8.99-.15-23.39Z"/><path class="cls-2" d="M35.66,17.3c5.71,9.34,11.07,18.04,16.32,26.81.39.65.26,1.99-.16,2.69-5.19,8.65-10.47,17.24-16.34,26.84-4.8-7.66-8.7-14.76-13.45-21.21-3.87-5.25-3.66-9.42.16-14.52,3.97-5.3,7.09-11.23,10.62-16.86.67-1.07,1.52-2.01,2.85-3.75ZM35.55,33.15c-8.69,9.73-8.54,16.5.21,23.38,9.16-14.03,8.99-8.99-.21-23.38Z"/><path class="cls-1" d="M74.57,33.16c9.15,14.4,9.39,9.3.15,23.39-8.82-7.17-8.93-13.74-.15-23.39Z"/><path class="cls-1" d="M35.55,33.15c9.2,14.39,9.37,9.35.21,23.38-8.75-6.88-8.9-13.65-.21-23.38Z"/></svg>