<?xml version="1.0" encoding="UTF-8"?><svg id="Lager_1" xmlns="http://www.w3.org/2000/svg" viewBox="0 0 181.42 252.28"><defs><style>.cls-1{fill:#2b3b87;stroke-width:0px;}</style></defs><path class="cls-1" d="M94.44,153.68h-6.88c-.21-4.57-.31-8.92-.64-13.26-.96-12.61-5.04-24.17-11.28-35.15-4.14-7.28-7.78-14.88-11.13-22.56-5.48-12.57-4.67-25.32,1.97-37.01,7.14-12.56,15.51-24.41,23.84-37.33,9.75,14.57,21.23,26.7,27.08,42.55,3.57,9.69,4.18,19.4.54,29.13-2,5.35-3.83,10.92-6.79,15.74-10.8,17.61-18.51,36.02-16.7,57.88Z"/><path class="cls-1" d="M77.51,154.42c-1.07-1.54-2.32-2.99-3.16-4.65-3.35-6.62-6.15-13.55-9.96-19.88-3.45-5.74-8.75-9.56-15.81-10.1-10.43-.79-17.32,6.03-15.19,16.18,1.11,5.27,4.49,10.06,6.76,14.89-13.86,4.34-31.03-8.44-33.09-26.16-1.8-15.51,5.5-29.08,18.39-34.16,14.06-5.55,28.4-1.25,37.8,11.91,10.88,15.24,14.24,32.9,16.16,50.93-.63.35-1.26.7-1.89,1.05Z"/><path class="cls-1" d="M140.4,151.11c2.42-3.83,5.29-7.21,6.85-11.12,2.28-5.72,2.53-11.88-2.55-16.45-5.19-4.66-11.72-5.29-17.63-2.09-4.18,2.26-8.23,5.81-10.81,9.78-3.8,5.85-6.17,12.62-9.29,18.93-.76,1.53-2.05,2.8-3.09,4.2l-1.93-.87c.85-5.54,1.48-11.13,2.59-16.62,2.59-12.81,6.43-25.17,14.62-35.69,5.9-7.59,13.46-12.39,23.28-12.83,19.07-.85,32.64,13.01,32.19,32.77-.44,19.4-14.66,31.74-34.22,30Z"/><path class="cls-1" d="M81.44,228.28c-6.38,2.38-12.4.57-18.57-4.93,8.93-1.09,15.21-5.51,18.96-12.71,3.47-6.64,6.08-13.74,9.2-20.95,4.93,14.22,8.13,29.94,26.39,33.55-3.69,5.49-9.36,7.07-17.61,4.95-2.63,5.17-5.25,10.3-7.86,15.44-.68.09-1.36.18-2.04.27-2.7-4.99-5.4-9.97-8.47-15.63Z"/><path class="cls-1" d="M102.76,188.22c4,3.05,7.86,7.13,12.6,9.18,3.12,1.36,8.12.86,11.09-.86,1.63-.95.79-6.15,1.11-9.91,4.75.04,8.33,3.27,10.38,8.34,2.18,5.39,1.41,10.5-2.6,14.86-4.13,4.49-10.08,5.81-15.67,3.66-9.55-3.68-16.51-14.47-16.9-25.26Z"/><path class="cls-1" d="M55.31,186.87c-.45,1.14-.87,2.12-1.24,3.12-1.97,5.37.06,8.58,5.82,8.66,8.47.12,14.3-4.22,18.13-11.78,2.46,11.46-9.78,27.34-21,27.61-7.61.18-14.11-5.73-14.53-13.19-.45-7.99,4.69-13.94,12.83-14.42Z"/><path class="cls-1" d="M90.84,168.6c-6.68,0-13.36.13-20.03-.12-1.28-.05-2.51-1.57-3.76-2.41,1.19-.96,2.36-2.73,3.56-2.75,13.36-.2,26.72-.2,40.07-.01,1.27.02,2.52,1.68,3.78,2.58-1.39.9-2.74,2.52-4.17,2.59-6.48.28-12.97.12-19.46.12Z"/><path class="cls-1" d="M91.31,170.66c6.49,0,12.98-.13,19.45.12,1.26.05,2.45,1.61,3.68,2.47-1.23.92-2.44,2.62-3.68,2.63-13.35.19-26.71.19-40.06,0-1.24-.02-2.45-1.72-3.68-2.65,1.23-.86,2.43-2.41,3.69-2.46,6.86-.24,13.73-.12,20.6-.12Z"/></svg>