<?xml version="1.0" encoding="UTF-8"?><svg id="Lager_1" xmlns="http://www.w3.org/2000/svg" viewBox="0 0 714.6 846.75"><defs><style>.cls-1{fill:#2b3b87;}.cls-1,.cls-2{stroke-width:0px;}.cls-2{fill:#fff;}</style></defs><path class="cls-1" d="M58.78,125.33c37.02-4.76,73.12-11.65,108.72-21.12,65.3-17.38,127.51-42.33,186.14-76.02,2.77-1.59,4.75-1.74,7.62-.1,82.21,47.07,170.42,77.16,263.71,92.71,10.15,1.69,20.36,3.02,30.85,4.57,0,1.66.05,3.11,0,4.57-2.49,64.27-4.9,128.53-7.54,192.79-1.41,34.27-2.14,68.58-7.51,102.6-15.16,96.08-53.09,182.03-114.18,257.67-45.71,56.59-100.93,101.76-165.04,136.13-3.15,1.69-5.49,1.64-8.63-.1-145.68-80.44-237.24-201.7-274.37-363.92-7.76-33.88-10.77-68.38-11.95-103.08-2.51-73.27-5.2-146.53-7.81-219.8-.08-2.14,0-4.28,0-6.92ZM620.22,153.91c-4.58-.83-9.81-1.77-15.05-2.72-85.31-15.44-166.36-43.2-242.79-84.23-3.44-1.85-5.93-2.05-9.53-.12-70.25,37.77-144.56,64.37-222.67,80.38-12.19,2.5-24.43,4.73-36.87,7.12,0,1.88-.05,3.52,0,5.15,2.14,61.78,4.36,123.55,6.42,185.34,1.06,31.67,3.16,63.23,9.65,94.32,31.23,149.67,112.73,263.5,243.9,341.92,2.93,1.75,5.09,1.7,8.07-.02,149.71-86.46,245.47-245.24,251.97-417.78,2.19-58.11,4.67-116.2,6.84-174.31.43-11.45.06-22.94.06-35.06Z"/><path class="cls-2" d="M620.22,153.64c0,12.13.37,23.61-.06,35.06-2.17,58.11-4.65,116.2-6.84,174.31-6.5,172.54-102.26,331.32-251.97,417.78-2.97,1.72-5.14,1.77-8.07.02-131.16-78.42-212.67-192.25-243.9-341.92-6.49-31.09-8.59-62.65-9.65-94.32-2.06-61.78-4.28-123.56-6.42-185.34-.06-1.63,0-3.27,0-5.15,12.44-2.4,24.69-4.63,36.87-7.12,78.11-16.01,152.42-42.6,222.67-80.38,3.59-1.93,6.09-1.73,9.53.12,76.43,41.02,157.48,68.78,242.79,84.23,5.24.95,10.47,1.89,15.05,2.72ZM127.52,181.55c0,2.16-.06,3.97,0,5.77,1.75,49.79,3.69,99.58,5.21,149.38,1.16,37.87,3.85,75.54,12.82,112.49,30.39,125.15,99.81,222.62,207.79,292.69,1.16.75,2.45,1.31,3.78,2.01V102.08c-73.06,37.47-149.46,63.59-229.61,79.46Z"/><path class="cls-1" d="M127.52,181.82c80.15-15.88,156.56-41.99,229.61-79.46v641.8c-1.33-.7-2.62-1.26-3.78-2.01-107.99-70.07-177.4-167.55-207.79-292.69-8.97-36.95-11.66-74.61-12.82-112.49-1.52-49.8-3.46-99.59-5.21-149.38-.06-1.8,0-3.6,0-5.77Z"/></svg>