<?xml version="1.0" encoding="UTF-8"?><svg id="Lager_1" xmlns="http://www.w3.org/2000/svg" viewBox="0 0 249 252.28"><defs><style>.cls-1{fill:#2b3b87;stroke-width:0px;}</style></defs><path class="cls-1" d="M178.99,58.78c1.41,3.13,2.33,6.64,4.35,9.32,3.9,5.2,1.74,10.89,2.05,16.36.03.46-2.55,1.78-2.99,1.45-2.66-1.98-5.92-3.87-7.39-6.63-5.82-10.96-11.06-22.24-16.79-33.98,5.96-2.69,11.81-5.29,17.63-7.97,4.69-2.16,9.22-4.73,14.04-6.5,3.34-1.22,7.05-1.59,10.63-1.86.85-.07,2.81,2.05,2.63,2.63-.93,2.84-1.87,6.02-3.85,8.07-1.74,1.8-4.95,2.1-7.35,3.37-3.23,1.71-6.31,3.71-10.72,6.33,13.64,1.94,21.97,10.13,30.24,18.08,13.2,12.68,19.67,28.88,22.48,46.62,2.62,16.52,1.64,32.73-5.28,48.28-6.03,13.56-14.65,25.27-25.23,35.54-12.94,12.57-27.83,22.23-45.45,26.53-7.16,1.75-14.91,1.05-22.97.63.91-.25,1.82-.51,2.72-.76-.25-.27-.5-.53-.75-.8-2.49-.61-4.98-1.22-8.38-2.05,1.7-.7,3.12-1.55,3.3-1.33,3.71,4.36,6.19-.33,8.96-1.32,6.8-2.43,13.48-5.23,20.14-8.04,3.02-1.27,6.56-.66,9.05-4.25,1.73-2.49,5.77-3.42,8.85-4.91,9.7-4.71,16.3-12.91,23.3-20.63,8.81-9.72,14.95-20.95,18.22-33.7,6.7-26.09-1.59-62.4-28.05-80.17-4.26-2.86-8.45-5.83-12.67-8.74-.25.15-.49.29-.74.44Z"/><path class="cls-1" d="M112.8,26.73c-.13,1.75-.23,3.16-.31,4.36-9.22,6.55-20.14,8.66-30.55,12.29-6.48,2.26-12.17,7.25-17.69,11.67-5.7,4.57-10.98,9.73-16.08,14.98-12.9,13.29-21.12,29.38-21.89,47.7-1.23,29.32,8.49,54.24,34.44,70.8,2.92,1.87,5.78,3.84,9.25,6.15-2.84-9.58-11.59-17.97-4.42-28.44,8.24,2.45,9.68,10.42,13.1,16.61,4.24,7.68,7.79,15.74,11.98,24.35-6.01,2.73-11.97,5.42-17.91,8.16-4.38,2.02-8.61,4.44-13.12,6.06-3.52,1.26-7.35,1.75-11.1,2.14-.82.08-2.76-1.96-2.6-2.62.68-2.74,1.39-5.88,3.21-7.8,1.72-1.82,4.94-2.14,7.35-3.39,3.38-1.76,6.63-3.77,10.73-6.14-4.1-1.36-7.52-1.89-10.31-3.52-25.07-14.62-38.88-36.34-42.41-65.31-2.32-19.07.45-36.84,10.03-53.22,15.31-26.18,36.9-45.21,66.53-53.51,6.92-1.94,14.66-.97,21.75-1.32Z"/></svg>