<?xml version="1.0" encoding="utf-8"?>
<!-- Generator: Adobe Illustrator 28.2.0, SVG Export Plug-In . SVG Version: 6.00 Build 0)  -->
<svg version="1.1" id="Lager_1" xmlns="http://www.w3.org/2000/svg" xmlns:xlink="http://www.w3.org/1999/xlink" x="0px" y="0px"
	 viewBox="0 0 670.1 549.2" style="enable-background:new 0 0 670.1 549.2;" xml:space="preserve">
<style type="text/css">
	.st0{fill:#D57C50;}
</style>
<path class="st0" d="M12.6,163.2c128,1.6,246.6-30.1,356.8-95.7c4.3,8.2,9.1,16.6,13.2,25.3c34.7,72.1,51.9,148.1,48.5,228.2
	c-2,47.4-11.8,93.1-34.9,135.2c-13.4,24.5-30.6,45.7-54.2,61c-42.2,27.5-86.7,28.3-132.1,9.4c-38.6-16-69.3-42.6-95.8-74.3
	C74,404.3,47.6,349.1,30.6,289.2c-11.3-39.9-17.4-80.7-18-122.2C12.6,165.7,12.6,164.4,12.6,163.2L12.6,163.2z M350.3,379.4
	c-45.8,51-100.8,65.8-165.4,44.3c16.9,28.5,56,49.6,98,38.9C325.6,451.7,349.6,413.5,350.3,379.4L350.3,379.4z M269,249.5
	c14.4-11,31.3-16,48.3-20.6c17-4.6,34.1-8.4,52.1-6.4c-11-19.9-37.9-29.9-61.5-23.1C285.7,205.7,268,228.5,269,249.5z M190,269.8
	c-11.4-19.7-38.3-29.5-61.7-22.3c-22.2,6.8-39.9,29.8-38.4,49C120.8,278.8,154.1,269.9,190,269.8z"/>
<path class="st0" d="M256.9,117.3c10.8-38.4,25.4-74,44.7-107.7c109.9,65.4,228.5,97.1,355.6,95.6c0,9.8,0.7,20-0.1,30
	c-5.1,67.8-23.2,132-55.3,192c-24.8,46.4-56.5,87.2-99.6,118.2c-24,17.2-50.1,29.6-79.6,34.2c-11.9,1.9-23.8,2.3-36.5,0.7
	c23.3-33,36.1-69.5,43.6-108.6c17.5,9.3,31.7,21.8,44.7,37.7c-0.2-12-2.7-22-6.8-31.6c-6.4-15.3-16.1-27.9-29.6-37.6
	c-3-2.1-3.8-4.2-3.6-7.8c6-96-15.8-185.4-63-268.9c-0.3-0.6-0.7-1.1-1.4-2.1C334.9,84.3,297.3,102.4,256.9,117.3L256.9,117.3z
	 M589.9,204.1c-35.5-0.3-68.8-9.1-99.7-26.9c-1.4,20.6,17.6,44,40.9,49.7C554.2,232.7,582.4,221.5,589.9,204.1L589.9,204.1z"/>
</svg>
