<?xml version="1.0" encoding="utf-8"?>
<!-- Generator: Adobe Illustrator 27.6.1, SVG Export Plug-In . SVG Version: 6.00 Build 0)  -->
<svg version="1.1" id="Lager_1" xmlns="http://www.w3.org/2000/svg" xmlns:xlink="http://www.w3.org/1999/xlink" x="0px" y="0px"
	 viewBox="0 0 847 849.8" style="enable-background:new 0 0 847 849.8;" xml:space="preserve">
<style type="text/css">
	.st0{fill-rule:evenodd;clip-rule:evenodd;fill:#FFFFFF;}
</style>
<g>
	<path class="st0" d="M31,476V370c0-27,22-49,50-49h240V81c0-28,22-50,49-50h106c28,0,50,22,50,50v240h240c27,0,50,22,50,49v106
		c0,28-23,50-50,50H526v240c0,27-22,50-50,50H370c-27,0-49-23-49-50V526H81C53,526,31,504,31,476z"/>
</g>
</svg>
