<?xml version="1.0" encoding="UTF-8"?><svg id="Lager_1" xmlns="http://www.w3.org/2000/svg" viewBox="0 0 111.13 109.47"><defs><style>.cls-1{fill:#a52527;}.cls-1,.cls-2{stroke-width:0px;}.cls-2{fill:#fff;}</style></defs><path class="cls-1" d="M10.97,3.66h88.25c3.94,39.4-3.4,75.59-39.52,100.46-3.14,2.16-5.44,2.32-8.79.09-20.7-13.82-32.81-33.36-36.82-57.46-2.32-13.95-2.13-28.32-3.12-43.09ZM75.27,27.93h-39.12c0,5.87-.56,11.55.12,17.08,1.18,9.65,5.12,18.27,12.68,24.69,7.27,6.18,6.17,6.06,12.96.16,12.77-11.09,15.26-25.73,13.36-41.93Z"/><path class="cls-2" d="M75.27,27.93c1.91,16.2-.59,30.85-13.36,41.93-6.8,5.9-5.69,6.02-12.96-.16-7.55-6.42-11.49-15.04-12.68-24.69-.68-5.53-.12-11.21-.12-17.08h39.12Z"/></svg>