<?xml version="1.0" encoding="utf-8"?>
<!-- Generator: Adobe Illustrator 27.6.1, SVG Export Plug-In . SVG Version: 6.00 Build 0)  -->
<svg version="1.1" id="Lager_1" xmlns="http://www.w3.org/2000/svg" xmlns:xlink="http://www.w3.org/1999/xlink" x="0px" y="0px"
	 viewBox="0 0 100 103" style="enable-background:new 0 0 100 103;" xml:space="preserve">
<style type="text/css">
	.st0{fill:#D54848;}
	.st1{fill:#FFFFFF;}
</style>
<path d="M0.4,76.2L0.4,76.2L0.4,76.2L0.4,76.2z"/>
<path d="M-9,76.2L-9,76.2L-9,76.2L-9,76.2z"/>
<g>
	<path class="st0" d="M76,83l-3-28.6c0-0.2,0-0.3,0-0.5s0-0.4-0.1-0.5c-0.4-2.4-2.5-4.8-4.8-7.4c-2.5-2.9-5.3-6.2-5.3-9
		c0-0.3,0-0.5,0-0.8v-2c2.5-0.5,4.4-2.7,4.4-5.3c0-3-2.4-5.4-5.4-5.4h-4.6c0-0.3,0.1-0.6,0.1-0.9c0-2.7-2.2-4.9-4.9-4.9
		s-4.9,2.2-4.9,4.9c0,0.3,0,0.6,0.1,0.9H40c-3,0-5.4,2.4-5.4,5.4c0,2.6,1.9,4.8,4.4,5.3V37c0,2.9-2.8,6.2-5.3,9
		c-1.7,2-3.4,3.9-4.2,5.8c-0.4,0.8-0.6,1.7-0.6,2.6l-3,28.6c0,0.1,0,0.1,0,0.2c0,4,5.3,10.8,25.2,10.8C70.7,94,76,87.2,76,83.2
		C76,83.1,76,83.1,76,83z"/>
	<path class="st1" d="M59.5,55.6c-2.5-2.3-5.6-3.4-8.7-3.4l0,0l0,0c-3.1,0-6.2,1.1-8.7,3.4c-3.7,3.5-5,7.7-3.8,12.7
		c0.5,2.2,1.6,4.1,3.1,5.7c1,1.1,1.7,3,1.6,4.5v0.1l0,0c0,0,0,0,0,0.1c0,0.9,0.7,1.6,1.6,1.6c0.9,0,1.6-0.7,1.6-1.6v-0.1l0,0v0.1
		c0,0.9,0.7,1.6,1.6,1.6c0.9,0,1.6-0.7,1.6-1.5l0,0c0,0.9,0.7,1.5,1.6,1.5c0.9,0,1.6-0.7,1.6-1.5l0,0c0,0.9,0.7,1.5,1.6,1.5
		c0.9,0,1.6-0.7,1.6-1.6v-0.1l0,0v0.1c0,0.9,0.7,1.6,1.6,1.6c0.8,0,1.5-0.7,1.6-1.5l0,0v-0.4c0-1.6,0.6-3.3,1.6-4.4
		c1.5-1.6,2.6-3.5,3.1-5.7C64.5,63.3,63.2,59,59.5,55.6z M47.1,69.7c-0.6,1-1.4,1.6-2.5,1.6c-0.1,0-0.1,0-0.2,0
		c-1.3-0.1-2-0.8-2.6-1.9c-0.1-0.2-0.2-0.4-0.2-0.6c-0.2-0.7-0.3-1.3-0.2-2s0.3-1.3,0.6-1.8c0.1-0.2,0.2-0.4,0.4-0.5
		c0-0.1,0.1-0.1,0.1-0.2c0.1-0.1,0.2-0.2,0.3-0.3c0.3-0.3,0.7-0.5,1.2-0.6c0.2,0,0.4-0.1,0.6-0.1l0,0c0.1,0,0.1,0,0.2,0
		c0.5,0,0.9,0.2,1.3,0.5c0.1,0.1,0.2,0.2,0.3,0.2c0.1,0.1,0.2,0.2,0.3,0.3c0.1,0.1,0.2,0.2,0.2,0.3c0.1,0.1,0.1,0.2,0.2,0.4
		C48.1,66.5,48,68.1,47.1,69.7z M52.1,73.4c-0.6,0-1.1-0.2-1.2-0.6v-0.1c0-0.1,0-0.1,0-0.2c0,0.1,0,0.2,0,0.2l0,0
		c0,0.1,0,0.1-0.1,0.1c-0.2,0.3-0.7,0.5-1.2,0.5c-0.8,0-1.7-0.5-1.7-1.4c0-1.3,3-2.2,3-2.2s3,0.9,3,2.2
		C53.8,72.9,52.9,73.4,52.1,73.4z M59.9,68.7c-0.1,0.2-0.1,0.4-0.2,0.6c-0.6,1.1-1.3,1.8-2.6,1.9c-0.1,0-0.1,0-0.2,0
		c-1.1,0-1.9-0.6-2.5-1.6c-0.9-1.6-0.9-3.2-0.1-4.7c0.1-0.1,0.1-0.2,0.2-0.4c0.1-0.1,0.2-0.2,0.2-0.3c0.1-0.1,0.2-0.2,0.3-0.3
		s0.2-0.2,0.3-0.2c0.4-0.3,0.8-0.4,1.3-0.5c0.1,0,0.1,0,0.2,0l0,0c0.2,0,0.4,0,0.6,0.1c0.5,0.1,0.9,0.3,1.2,0.6
		c0.1,0.1,0.2,0.2,0.3,0.3c0,0.1,0.1,0.1,0.1,0.2c0.1,0.2,0.2,0.3,0.4,0.5c0.3,0.6,0.5,1.2,0.6,1.8C60.2,67.4,60.1,68,59.9,68.7z"/>
	<circle class="st0" cx="58.8" cy="15.3" r="3.6"/>
	<circle class="st0" cx="52.9" cy="10.1" r="2.2"/>
</g>
</svg>
