<?xml version="1.0" encoding="UTF-8"?><svg id="Lager_1" xmlns="http://www.w3.org/2000/svg" viewBox="0 0 181.42 252.28"><defs><style>.cls-1{fill:#2b3b87;}.cls-1,.cls-2{stroke-width:0px;}.cls-2{fill:#fff;}</style></defs><path class="cls-1" d="M38.41,74c-4.84-.51-8-.84-11.7-1.24V19.98h17.42c.38,5.67.76,11.35,1.18,17.61h17.31c.31-5.83.61-11.47.93-17.6h17.52c.4,5.62.8,11.3,1.25,17.58h17.24c.32-5.81.63-11.45.97-17.58h17.54c.42,5.59.84,11.27,1.31,17.56h17.17c.31-5.76.62-11.4.96-17.54h17.47v52.55c-3.62.52-7.27,1.04-11.63,1.67,3.24,49.09,6.45,97.74,9.69,146.78,6,.32,11.05.6,16.6.9v10.39H12.31c-.16-3.17-.33-6.44-.53-10.28,5.89-.36,10.96-.66,16.98-1.03,3.21-48.92,6.41-97.62,9.64-146.99ZM108.19,220.97c0-15.98.58-31.46-.22-46.86-.47-8.93-8.85-14.9-17.67-14.61-8.61.28-16.56,6.76-16.96,15.7-.67,15.09-.18,30.23-.18,45.77h35.04ZM82.77,121.36h15.95c0-6.67.84-12.91-.33-18.75-.65-3.23-4.68-5.77-7.19-8.63-2.81,2.94-7.27,5.49-8.07,8.9-1.35,5.73-.37,12-.37,18.47Z"/><path class="cls-2" d="M108.19,220.97h-35.04c0-15.54-.49-30.68.18-45.77.4-8.93,8.35-15.42,16.96-15.7,8.81-.29,17.2,5.68,17.67,14.61.81,15.4.22,30.88.22,46.86Z"/><path class="cls-2" d="M82.77,121.36c0-6.47-.98-12.74.37-18.47.8-3.41,5.25-5.96,8.07-8.9,2.51,2.85,6.54,5.4,7.19,8.63,1.18,5.83.33,12.07.33,18.75h-15.95Z"/></svg>