<?xml version="1.0" encoding="UTF-8"?><svg id="Lager_1" xmlns="http://www.w3.org/2000/svg" viewBox="0 0 111.13 109.47"><defs><style>.cls-1{fill:#a52527;}.cls-1,.cls-2{stroke-width:0px;}.cls-2{fill:#fff;}</style></defs><path class="cls-1" d="M12.72,3.69h85.45c2.78,31.67.08,61.78-22.68,86.4-4.91,5.31-11.13,9.39-16.66,14.14-2.74,2.36-5.03,1.79-7.84-.06-21.33-14.1-34.15-34.11-37.91-58.96-2.03-13.43-.36-27.41-.36-41.51ZM13.92,5.87c0,9.24-.18,17.9.03,26.56.75,29.5,13.51,52.55,37.51,69.57,2.51,1.78,4.35,1.92,6.94.15,35.6-24.43,41.04-59.66,37.43-96.5-4.27,0-8.59.15-12.89-.05-2.85-.13-3.93.88-4.7,3.7-6.79,24.79-13.79,49.53-20.75,74.27-1.12,3.97-2.34,7.91-3.51,11.86-.3-.05-.6-.09-.9-.14-7.73-29.82-15.46-59.65-23.18-89.41h-15.99Z"/><path class="cls-2" d="M13.92,5.87h15.99c7.72,29.76,15.45,59.59,23.18,89.41.3.05.6.09.9.14,1.17-3.95,2.4-7.89,3.51-11.86,6.96-24.75,13.96-49.48,20.75-74.27.77-2.82,1.85-3.83,4.7-3.7,4.3.2,8.62.05,12.89.05,3.61,36.84-1.82,72.07-37.43,96.5-2.59,1.77-4.42,1.64-6.94-.15C27.46,84.97,14.69,61.92,13.95,32.43c-.22-8.65-.03-17.31-.03-26.56Z"/></svg>