<?xml version="1.0" encoding="utf-8"?>
<!-- Generator: Adobe Illustrator 27.6.1, SVG Export Plug-In . SVG Version: 6.00 Build 0)  -->
<svg version="1.1" id="Lager_1" xmlns="http://www.w3.org/2000/svg" xmlns:xlink="http://www.w3.org/1999/xlink" x="0px" y="0px"
	 viewBox="0 0 32 33.6" style="enable-background:new 0 0 32 33.6;" xml:space="preserve">
<style type="text/css">
	.st0{fill:#2B3B87;}
</style>
<g>
	<g>
		<polygon class="st0" points="16.5,24.1 16,23.7 15.5,24.1 15.3,24.2 15,24.6 15,30 17,30 17,24.6 16.6,24.2 		"/>
		<polygon class="st0" points="17.5,5.2 17.5,5.8 21.6,7.5 24.1,7.5 17.9,4.8 		"/>
		<polygon class="st0" points="22.7,8 17.5,8 14.5,8 9.3,8 7.5,8 7.5,10 8.5,10 23.5,10 24.5,10 24.5,8 		"/>
		<polygon class="st0" points="14.5,5.8 14.5,5.2 14.1,4.8 7.9,7.5 10.4,7.5 		"/>
		<polygon class="st0" points="15,5 15,5.6 15,7.5 15.5,7.5 16.5,7.5 17,7.5 17,5.6 17,5 17.4,4.6 18,4 16,2 14,4 14.6,4.6 		"/>
		<path class="st0" d="M9.5,10.5H9L10,29l4.5-4.6l0.5-0.5l1-0.9l1,0.9l0.5,0.5L22,29l1-18.5h-0.5H9.5z M13,12l2,1l1-1l1,1l2-1l-3,9
			L13,12z"/>
	</g>
</g>
</svg>
