<?xml version="1.0" encoding="utf-8"?>
<!-- Generator: Adobe Illustrator 27.6.1, SVG Export Plug-In . SVG Version: 6.00 Build 0)  -->
<svg version="1.1" id="Lager_1" xmlns="http://www.w3.org/2000/svg" xmlns:xlink="http://www.w3.org/1999/xlink" x="0px" y="0px"
	 viewBox="0 0 32 35" style="enable-background:new 0 0 32 35;" xml:space="preserve">
<style type="text/css">
	.st0{fill:#5C69AC;}
</style>
<path class="st0" d="M16.8,15.8c-5.6,6.5-4,9.1-1.8,9.8c-0.9-0.6-1.1-2.1,1.5-5.1c0,0,0.1,1.2,0.9,2.8c0.5,1,0.3,1.9-0.4,2.4
	c1.8-0.5,2.6-2.5,1.5-4.7C17.1,18,16.8,15.8,16.8,15.8z"/>
<path class="st0" d="M23.5,22.2c-0.5-2.1-1.9-7.8-2.5-10.2h0.2c0.4,0,0.6-0.3,0.6-0.6v-0.6c0-0.4-0.3-0.6-0.6-0.6h-0.4V9.6
	c0-1.2-1-2.2-2.2-2.2h-1.5V7c1-0.4,1.8-1.4,1.8-2.6c0-1.6-1.3-2.8-2.8-2.8c-1.6,0-2.8,1.3-2.8,2.8c0,1.2,0.7,2.2,1.8,2.6v0.3h-1.5
	c-1.2,0-2.2,1-2.2,2.2v0.5h-0.4c-0.4,0-0.6,0.3-0.6,0.6v0.6c0,0.4,0.3,0.6,0.6,0.6H11c-0.6,2.4-2.1,8.1-2.5,10.2
	c-0.4,1.9-0.2,3.5,0.8,4.7c0.4,0.5,0.9,0.9,1.6,1.2c-0.3,0.4-0.7,1-0.7,2.2H16h5.9c0-1.2-0.3-1.9-0.7-2.2c0.6-0.3,1.2-0.7,1.6-1.2
	C23.7,25.8,24,24.1,23.5,22.2z M14.5,4.4c0-0.8,0.7-1.5,1.5-1.5c0.8,0,1.5,0.7,1.5,1.5c0,0.4-0.2,0.8-0.5,1.1V5.4
	c0-0.3-0.2-0.5-0.5-0.5h-1.1c-0.3,0-0.5,0.2-0.5,0.5v0.2C14.6,5.3,14.5,4.9,14.5,4.4z M21.8,26.1c-0.8,1-2.5,1.6-4.8,1.6h-0.1v-1.1
	c0-0.2-0.1-0.3-0.3-0.3h-1.1c-0.2,0-0.3,0.1-0.3,0.3v1.1h-0.1c-2.4,0-4-0.5-4.8-1.6c-0.9-1.1-0.8-2.6-0.5-3.6
	c0.5-2.2,2-8.3,2.6-10.5h7.4c0.6,2.2,2.1,8.3,2.6,10.5C22.5,23.6,22.6,25,21.8,26.1z"/>
</svg>
