<?xml version="1.0" encoding="utf-8"?>
<!-- Generator: Adobe Illustrator 27.6.1, SVG Export Plug-In . SVG Version: 6.00 Build 0)  -->
<svg version="1.1" id="Lager_1" xmlns="http://www.w3.org/2000/svg" xmlns:xlink="http://www.w3.org/1999/xlink" x="0px" y="0px"
	 viewBox="0 0 1200 1247.2" style="enable-background:new 0 0 1200 1247.2;" xml:space="preserve">
<style type="text/css">
	.st0{fill:#EFBD29;}
</style>
<g>
	<path class="st0" d="M646.8,114.2c-10.8-7.2-22.8-12-36-12c-19.2,0-38.4,9.6-50.4,25.2l-84,116.4l118.8,43.2l64.8-90
		C679.2,170.6,673.2,133.4,646.8,114.2L646.8,114.2z"/>
	<path class="st0" d="M800.4,223.4c-2.4-15.6-12-30-25.2-39.6c-10.8-7.2-22.8-12-36-12c-19.2,0-38.4,9.6-50.4,25.2l-68.4,99.6
		c0,0,68.4,26.4,70.8,27.6c7.2,4.8,10.8,8.4,10.8,21.6c0,12-12,28.8-12,28.8c-30,44.4-84,67.2-138,57.6l-22.8-6
		c-4.8,10.8-6,21.6-3.6,33.6c1.2,3.6,1.2,7.2,2.4,10.8c13.2,6,25.2,12,37.2,20.4c9.6,6,18,13.2,26.4,20.4
		c16.8-2.4,33.6-10.8,43.2-25.2l154.8-216C799.2,255.8,802.8,240.2,800.4,223.4L800.4,223.4z"/>
	<path class="st0" d="M884.4,277.4c-9.6-7.2-21.6-10.8-33.6-10.8c-18,0-36,8.4-46.8,24l-158.4,222c-13.2,18-13.2,40.8-4.8,58.8
		c1.2,2.4,12,16.8,18,21.6c9.6,7.2,21.6,10.8,33.6,10.8c16.8,0,32.4-7.2,43.2-19.2c0-1.2,1.2-2.4,1.2-2.4l160.8-225.6
		C916.8,331.3,910.8,295.3,884.4,277.4L884.4,277.4z"/>
	<path class="st0" d="M937.2,426.2c-8.4-6-18-9.6-28.8-9.6c-13.2,0-26.4,6-36,15.6c0,0-117.6,163.2-118.8,164.4
		c-12,18-9.6,42,4.8,58.8c2.4,2.4,4.8,4.8,8.4,7.2c8.4,6,18,9.6,28.8,9.6c15.6,0,30-7.2,39.6-20.4L948,493.4v-1.2
		C964.8,471.8,958.8,441.8,937.2,426.2L937.2,426.2z"/>
	<path class="st0" d="M855.6,666.2c-13.2,19.2-36,30-58.8,30c-15.6,0-30-4.8-42-13.2c-4.8-3.6-9.6-8.4-13.2-13.2
		c-12-14.4-16.8-31.2-16.8-49.2c-9.6,3.6-20.4,6-31.2,6c-10.8,0-20.4-2.4-30-6c9.6,32.4,12,66,7.2,99.6c-1.2,3.6-1.2,8.4-2.4,12
		l-24-4.8c10.8-54,4.8-111.6-43.2-175.2c-49.2-63.6-132-75.6-132-75.6l50.4-79.2c0,0,33.6,19.2,81.6,9.6c48-9.6,69.6-46.8,75.6-55.2
		c6-8.4-3.6-12-3.6-12l-208.8-75.6c0,0-19.2-8.4-31.2-4.8c-10.8,2.4-18,8.4-25.2,21.6c-7.2,13.2-156,225.6-156,225.6
		c-13.2,19.2-14.4,45.6-1.2,64.8l171.6,295.2v290.4H786l0-171.6l139.2-199.2c13.2-15.6,20.4-34.8,20.4-55.2l0-190.8L855.6,666.2z"/>
</g>
</svg>
