<?xml version="1.0" encoding="UTF-8"?><svg id="Lager_1" xmlns="http://www.w3.org/2000/svg" viewBox="0 0 107.52 112.89"><defs><style>.cls-1{fill:#a52527;}</style></defs><path class="cls-1" d="m1.62,63.26c1.3-.25,2.46-.05,3.63-.02,7.47.16,14.94.32,22.4.39.8,0,2.28.83,2.33-1.03.05-2.24-.12-2.42-2.44-2.43-4.59-.02-9.18-.03-13.76.04-1.26.02-1.73-.31-1.66-1.63.13-2.39-.16-4.78-.18-7.17-.01-1.55.09-3.07-.41-4.55-.29-.86,1.28-1.51.25-2.43.71-6.52.2-13.06.48-19.6.57-.21.72.31.96.57,5.71,6.17,11.43,12.33,17.09,18.54.87.96,1.4.85,2.22.02,2.12-2.15,2.19-1.52.12-3.71-3.19-3.37-6.41-6.72-9.64-10.05-.62-.63-.76-1.03-.05-1.75,7.83-7.92,15.62-15.88,23.43-23.83.14-.14.31-.24.49-.38.44.47.21,1.01.21,1.48-.13,8.26-.28,16.52-.4,24.78-.02,1.06-.36,2.33,1.47,2.42,2.35.12,2.35.18,2.39-2.26.08-4.8.22-9.6.26-14.4,0-1.07.4-1.28,1.36-1.27,10.67.06,21.34.09,32,.13.4,0,.83-.1.76-.16-2.09,2.34-4.07,4.78-6.28,7-3.93,3.94-8.01,7.74-12.01,11.62-.45.43-1.32.84-.94,1.6.48.95,1.23,1.82,2.19,2.33.48.25.87-.43,1.22-.77,3.54-3.31,7.1-6.61,10.56-10,.99-.96,1.54-.89,2.48.04,3.18,3.12,6.57,6.03,9.67,9.22,4.55,4.69,9.07,9.41,14.07,14.13-1.92.3-3.53.05-5.11.03-5.2-.06-10.41-.17-15.61-.28-2.06-.04-4.12-.07-6.17-.18-1.08-.06-1.54.36-1.47,1.41.17,2.54-.63,2.3,2.25,2.32,4.54.03,9.07.08,13.61.04,1.09,0,1.43.37,1.45,1.41.14,7.23.33,14.45.49,21.68.08,3.61.12,7.23.17,10.84,0,.51.14,1.02-.17,1.53-.64-.2-.95-.76-1.36-1.2-5.69-5.97-11.37-11.96-17.08-17.92-.39-.4-.75-1.28-1.44-.89-.92.52-1.79,1.25-2.31,2.2-.24.43.39.78.69,1.1,3.41,3.59,6.79,7.2,10.26,10.74.81.82.74,1.19-.02,2.05-2.61,2.95-4.85,6.29-7.96,8.71-5.72,4.43-10.16,10.15-15.51,14.94-.47-.22-.25-.63-.25-.95.09-8.31.21-16.62.29-24.93,0-.93.48-2.18-1.33-2.11-1.85.07-1.98.15-2.05,2.19-.16,4.64-.38,9.28-.52,13.93-.03,1.01-.4,1.29-1.38,1.32-5.25.16-10.5.38-15.75.61-3.08.13-6.16.31-9.25.47-.45.02-.98.34-.94-.6.01-.33-.72-.18-1.11-.19-2.3-.02-4.6,0-7.25,0,3.07-2.85,5.89-5.46,8.71-8.07,3.75-3.46,7.48-6.95,11.27-10.37.84-.76.79-1.17,0-1.91-1.9-1.8-1.89-1.87-3.79-.1-3.28,3.06-6.55,6.13-9.78,9.25-.71.68-1.12.76-1.87.02-7.9-7.85-15.84-15.66-23.77-23.49-.07-.07-.1-.17-.24-.44Zm64.1,30.41c.77-.64,1.18-.93,1.54-1.28,3.37-3.34,6.7-6.72,10.12-10.01.97-.94.79-1.46-.07-2.32-4.49-4.48-8.93-9.02-13.37-13.55-.26-.27-.73-.43-.6-1.06,5.09,0,10.18.07,15.27-.04,1.6-.03,2.68.4,3.66,1.67,1.53,1.98,3.16,3.9,5.21,5.43.43-.57.46-1.14.46-1.71,0-4.18-.05-8.37.03-12.55.03-1.48-.55-1.81-1.92-1.79-6.23.08-12.47.07-18.71.07-.51,0-1.12.26-1.57-.27,4.14-3.84,8.28-7.63,12.36-11.5.84-.8,1.69-1.03,2.77-.9,2.56.29,5.12.54,7.68.78.47.04,1.13.37,1.39-.19.21-.45-.37-.8-.68-1.11-3.07-3.05-6.21-6.05-9.23-9.15-.94-.97-1.52-.95-2.51-.09-4.68,4.05-9.42,8.02-14.15,12.01-.41.35-.74.87-1.38.85-.28-.39-.18-.81-.18-1.21-.04-4.23.08-8.47-.15-12.7-.15-2.69.52-4.67,2.94-6.02.98-.55,1.85-1.32,2.71-2.05.87-.74,1.88-1.35,2.58-2.33-.47-.36-.9-.26-1.29-.26-4.38-.02-8.76.02-13.15-.05-1.27-.02-1.68.36-1.66,1.65.08,6.3.07,12.59.08,18.89,0,.48.27,1.17-.29,1.4-.54.22-.88-.44-1.23-.76-3.65-3.28-7.04-6.8-10.32-10.45-1.35-1.5-1.67-3.03-1.31-4.95.48-2.55.73-5.14,1.1-7.81-1.09.19-1.61.86-2.18,1.43-2.84,2.77-5.5,5.7-8.18,8.63-1.41,1.54-1.52,1.56-.04,3.09,4.4,4.56,8.85,9.07,13.27,13.61.37.38,1.15.7.88,1.28-.22.49-.99.42-1.56.42-5.05,0-10.1-.09-15.15.06-1.89.06-3.06-.65-4.11-2.07-1.66-2.26-3.44-4.44-5.14-6.63-.46.21-.37.49-.37.73,0,4.85.01,9.71-.03,14.56-.01,1.33.79,1.59,1.79,1.54,4.07-.18,8.14-.06,12.21,0,2.59.04,5.2-.29,8.09.36-2.14,1.52-2.8,3.91-4.62,5.47-1.97,1.7-3.76,3.62-5.7,5.37-1.84,1.66-3.63,2.26-5.98,1.88-2.26-.36-4.54-.52-6.79-.76-.15.45.12.59.29.76,3.04,3.08,6.12,6.12,9.12,9.25.86.9,1.45.77,2.31.07,3.08-2.5,6.1-5.07,9.05-7.73,2.08-1.87,4.25-3.66,6.4-5.5.47.68.33,1.22.33,1.72.03,4.6-.03,9.19.08,13.79.04,1.68-.56,2.78-1.88,3.75-2.3,1.7-4.49,3.57-6.71,5.35.26.44.61.38.89.39,4.69.05,9.38.1,14.07.12,1.23,0,1.34-.9,1.34-1.83.02-6.2.04-12.39.09-18.59,0-.52-.36-1.27.27-1.53.59-.24.98.42,1.37.81,3.11,3.09,6.11,6.3,9.34,9.26,1.99,1.82,2.53,3.83,2.1,6.38-.41,2.47-.62,4.97-.97,7.94Zm-33.52-48.59c-1.08.73-1.53.04-2.01-.47-4.46-4.71-8.91-9.44-13.37-14.15-1.07-1.13-2.09-2.32-3.77-3.56,0,4.46.17,8.48-.05,12.47-.18,3.34.23,6.29,2.88,8.61.69.61.97,1.66,2.3,2.1v-12.98c2.91,2.87,4.73,6.05,7.48,8.74.07-.93.12-1.52.18-2.36,1.39.93,2.65,1.72,3.84,2.58,1.07.77,1.86.75,2.51-.99Zm10.67-27.84c.45.55.29,1.08.24,1.57-.22,2.51-.49,5.01-.71,7.51-.03.33-.12.8.31.94.43.14.6-.29.79-.58.2-.29.31-.87.64-.8,2.07.43,1.29-1.27,1.32-1.97.19-4.88.24-9.77.31-14.66,0-.49.22-1.18-.3-1.42-.55-.25-.87.43-1.2.76-3.69,3.73-7.36,7.5-11.03,11.25-.86.88-1.72,1.77-2.58,2.66-.21.22-.45.51-.22.82.21.28.57.23.85.1.89-.4,1.76-.86,2.66-1.21.35-.14.86-.64,1.16.07.7,1.62,1.41.9,2.22.09,1.77-1.76,3.52-3.55,5.5-5.13Zm32.86,2.72c-1.22,2.26-2.33,4.3-3.44,6.35l.16.1c3.32-3.49,6.65-6.98,9.89-10.39-8.96-.04-18.17-.18-27.4.23.21.34.44.52.69.66.89.5,2.14.72,1.19,2.29-.34.56.44.5.79.5,1.6.03,3.19.05,4.79.04,4.37-.02,8.74-.04,13.33.22Zm22.65,24.64c-.15-.43-.16-.55-.22-.61-5.57-5.48-11.14-10.96-16.7-16.45-.35-.34-.63-.46-1.04-.11-2.96,2.56-5.76,5.29-8.37,8.23,1.67-.58,3.1-1.55,4.57-2.46q2.33-1.43,4.23.46c1.72,1.7,3.38,3.48,5.21,5.05,1.19,1.02,2.08,2.44,3.68,3.16.19-1.11-.59-1.98-.26-3.07,3.13,1.57,5.67,3.93,8.9,5.79Zm-7.52,14.19c2.91,4.1,2.29,9,3.06,13.64.53-.36.36-.74.36-1.08-.05-5.11-.15-10.22-.13-15.33,0-1.35-.37-1.81-1.74-1.79-4.58.06-9.16-.02-13.74.05-1.25.02-2.32.06-2.41-1.78-.37.55-.58.84-.76,1.15-1.04,1.76-.9,2.01,1.15,2.02,3.71,0,7.42.04,11.12-.03,1.08-.02,1.48.31,1.43,1.38-.04.9.03,1.82.55,2.72.43-.37.77-.65,1.1-.93Zm-71.02,6.05c-5.23-.69-10.4-.51-16.03-.31,2.78,2.61,5.23,4.9,7.68,7.2.07-.72-.03-1.29-.31-1.75-.9-1.47-.25-2.06,1.16-2.51,2.52-.81,5.01-1.75,7.51-2.63Zm4.19,31.61c1.01.01,1.42-.51,1.9-.83,3.13-2.06,6.17-4.26,9.38-6.2,3.34-2.01,4.38-5.59,6.57-8.38-.11-.1-.23-.2-.34-.29-5.77,5.17-11.53,10.33-17.52,15.7Zm32.18-20.9c2.07,1.23,3.76,2.7,5.83,3.55-2.23-2.73-4.72-5.17-7.4-7.7v9.69c.1.01.21.02.31.03.4-1.78.8-3.56,1.26-5.56Zm18.04-9.1c-2.7,0-5.4,0-8.1,0-.25,0-.59-.04-.63.28-.02.2.15.48.32.64,1.13,1.05,2.24,2.11,3.27,3.26.75.84,1.65,1.54,2.49,2.31-.38-1.41-.97-2.64-1.62-3.84-.37-.68-.28-.92.53-1.12,1.27-.32,2.63-.42,3.74-1.53Zm-38.33,9.74c-.09-.11-.19-.22-.28-.34-1.87,1.56-3.78,3.1-5.6,4.71-.69.61-1.19.76-1.97.16-1.12-.85-2.34-1.56-3.81-2.54,1.14,1.98,2.46,3.32,3.67,4.76.53.63.95.62,1.51.03,2.15-2.27,4.32-4.52,6.49-6.78Zm53.69-3.17c-.41.3-.34.57-.38.82-.09.67.44,1.65-.39,1.92-.62.21-1.04-.69-1.47-1.18-1.16-1.32-2.33-2.63-3.82-3.62,1.58,2.97,3.63,5.58,5.84,8.07.16.17.43.37.63.35.4-.04.35-.44.36-.74.1-1.91-.15-3.77-.78-5.62Zm-11.24,9.53c-3.92,3.47-7.21,7.01-10.5,10.56,3.5-2.69,6.97-5.4,10.11-8.52.52-.51.35-1.11.39-2.04Zm-13.61-46.42c.26,1.11.38,1.83.6,2.51.09.29.09.82.52.79.3-.02.62-.32.85-.57.33-.37.2-.76-.14-1.07-.5-.47-1.02-.92-1.83-1.67Z"/></svg>