<?xml version="1.0" encoding="UTF-8"?><svg id="Lager_1" xmlns="http://www.w3.org/2000/svg" viewBox="0 0 181.42 252.28"><defs><style>.cls-1{fill:#2b3b87;}.cls-1,.cls-2{stroke-width:0px;}.cls-2{fill:#fff;}</style></defs><path class="cls-1" d="M29.76,103.22c-2.56-1.21-4.86-2.26-7.12-3.4-.65-.33-1.47-.8-1.72-1.41-3.82-9.14-7.86-18.22-11.22-27.53-2.2-6.1-2.67-12.63-1.36-19.11,2.53-12.54,13.93-21.24,27.26-20.51,5.86.32,11.68,1.36,17.53,1.96,17.38,1.79,34.8,3.06,52.22.94,6.37-.78,12.61-2.62,18.93-3.87,5.91-1.18,11.87-1.44,17.68.38,10.63,3.32,15.64,11.35,17.61,21.72,1.07,5.62.19,11.02-2.32,16.13-2.57,5.23-6.71,8.69-12.5,10.45.66,1.85,1.26,3.56,1.89,5.26,2.35,6.38,4.66,12.78,7.08,19.13.5,1.31.37,2.21-.55,3.24-1.55,1.74-2.96,3.6-4.65,5.68,2.97,1.57,5.71,3.12,8.55,4.47,1.47.7,2.25,1.7,2.79,3.2,3.91,10.87,8.02,21.67,11.79,32.58,2.4,6.95,3.7,14.15,2.49,21.55-2.06,12.68-10.6,20.27-23.46,20.97-.21.01-.41.08-1.16.23,0,2.63.01,5.36,0,8.09-.02,2.62.08,5.26-.16,7.87-.1,1.04-.76,2.54-1.55,2.87-.93.38-2.52.02-3.4-.6-2.41-1.72-4.6-3.75-7.11-5.84-1.49,2.42-2.89,4.68-4.28,6.95-1.3,2.12-2.62,4.22-3.87,6.36-.84,1.45-1.95,2.26-3.66,1.81-1.7-.45-1.98-1.78-1.98-3.32.03-7.66-.03-15.32.05-22.98.02-1.78-.52-2.3-2.3-2.23-26.98.94-53.5,4.63-79.21,13.21-19.12,6.38-37.76-9.25-34.95-29.23.72-5.09,2.37-9.77,5.55-13.85,4.06-5.2,9.41-7.53,15.99-7.16,5.87.33,11.74.56,18.11.86-.35-1.15-.5-1.91-.8-2.6-6.61-15.13-13.2-30.27-19.92-45.35-.88-1.97-.83-3.22.99-4.43.92-.61,1.66-1.49,2.74-2.48ZM137.84,114.49c2.58-3.17,4.98-6.23,7.5-9.19.89-1.04,1.09-1.9.58-3.23-2.62-6.88-5.16-13.8-7.65-20.74-.49-1.35-1.12-1.98-2.67-2.15-19.22-2.17-38.48-2.8-57.78-1.54-10.9.72-21.7,2.14-32.41,4.46-7.8,1.69-15.08.4-20.48-6.12-4.19-5.07-6.05-10.99-5.25-17.64.87-7.2,6.31-12.94,13.06-13.75,6.77-.81,13.85,3.51,16.25,9.9,2.12,5.65-.07,11.75-5.12,14.22-5.49,2.69-11.68-.6-12.5-6.63-.37-2.74,2.07-4.91,4.53-3.78.98.45,1.75,1.74,2.24,2.82.86,1.89,2.1,2.27,3.53.78,1.51-1.57,1.6-3.37.74-5.31-1.39-3.12-5.02-5.4-8.36-5.22-3.31.18-6.15,2.65-7.22,6.28-1.52,5.13.88,12.35,5.21,15.71,5.06,3.93,13.48,3.23,17.53-1.68,4.34-5.26,5.41-11.43,4.17-18.02-1.62-8.61-9.44-15.25-18.34-15.65-9.09-.41-17.52,5.3-19.93,13.56-1.41,4.83-.97,9.68.03,14.52,1.73,8.35,5.89,15.76,8.96,23.6,1.26,3.22,3.14,5.22,6.37,6.45,3.79,1.44,7.39,3.38,11.29,5.21-2.55,2.32-4.78,4.5-7.18,6.47-1.32,1.08-1.55,1.97-.84,3.57,6.61,14.9,13.08,29.86,19.7,44.75,2.55,5.73,4.72,11.55,5.7,17.75,1.17,7.4,1.01,14.68-2.6,21.87.98-.18,1.58-.3,2.19-.4,12-2.07,23.96-4.48,36.03-6.09,8.62-1.16,17.38-1.29,26.09-1.78,1.61-.09,2.53-.32,2.37-2.24-.16-1.97.11-3.98-.08-5.95-.15-1.56-.49-3.19-1.16-4.59-2.74-5.67-3.49-11.52-1.81-17.58,1.63-5.91,5.13-10.23,11.51-11.11,6-.83,10.93,1.86,15.16,5.84,6.9,6.5,8.96,16.52,3.33,24.25-.24.34-.55.74-.56,1.12-.04,3.58-.03,7.17-.03,10.78.42.06.69.13.97.13,7.34.05,12.97-4.24,15.61-11.84,2.24-6.43,1.34-12.87-.68-19.02-3.57-10.9-7.7-21.62-11.53-32.44-.53-1.51-1.33-2.49-2.79-3.21-4.55-2.27-9.02-4.7-13.69-7.15ZM57.51,72.73c.74-.04,1.29-.04,1.84-.09,6.56-.64,13.1-1.44,19.67-1.91,14.52-1.04,29.04-.74,43.54.43,5.23.42,10.43,1.04,15.66,1.42,6.36.47,11.04-2.39,13.36-8.32.83-2.14,1.33-4.51,1.46-6.8.56-9.74-5.58-18.65-14.37-20.51-3.19-.68-6.67-.83-9.9-.36-5.52.81-10.9,2.5-16.4,3.47-15.69,2.76-31.48,2.16-47.28,1.1-3.28-.22-6.56-.51-10.23-.79,7.65,10.47,7.79,21.15,2.63,32.35ZM44.48,165c-.03.21-.07.3-.04.35.3.56.63,1.11.93,1.67,2.72,5.1,3.99,10.44,2.66,16.2-1.63,7.08-7.1,11.81-14.02,12.17-6.57.34-13.3-4.38-15.29-10.72-1.4-4.47-.43-8.42,2.86-11.72,2.78-2.79,6.6-3.54,9.98-2.02,3.21,1.44,4.9,4,5.06,7.49.11,2.46-1.86,4.2-4.12,3.4-1.05-.37-1.77-1.74-2.59-2.7-.51-.6-.92-1.82-1.39-1.83-.84-.02-1.92.46-2.51,1.09-1.43,1.53-1.23,3.38-.37,5.16,1.58,3.26,5.36,5.31,8.95,4.89,3.22-.37,5.99-3.22,6.78-7.03.99-4.78-.41-9.03-3.24-12.78-4.84-6.39-15.38-6.25-20.16.17-3.75,5.05-4.87,10.75-3.95,16.91,1.28,8.63,9.13,15.73,17.99,16.3,9.65.62,18.19-5.21,20.53-14.06,1.66-6.26.66-12.42-1.08-18.45-1.86-6.42-.42-4.83-6.73-4.61-.06,0-.13.06-.25.12ZM129.24,182.13v26.81c1.7-1.95,3.04-4.06,4.34-6.18,1.63-2.65,3.1-2.94,5.47-1.03,1.46,1.18,2.92,2.36,4.83,3.9v-23.69c-7.97,2.54-9.11,1.86-14.64.19ZM125.37,163.55c-.19.06-.38.13-.57.19.98,2.91,1.61,6.01,3.01,8.69,2.59,4.93,7.25,6.54,12.22,4.76,5.31-1.9,8.79-7.32,7.97-12.39-.97-5.97-6.16-11.6-12.06-12.99-3.28-.77-6.02.17-8.07,2.9-1.97,2.62-2.49,5.66-2.49,8.83Z"/><path class="cls-2" d="M137.84,114.49c4.67,2.45,9.14,4.88,13.69,7.15,1.45.73,2.25,1.7,2.79,3.21,3.83,10.82,7.96,21.54,11.53,32.44,2.02,6.15,2.92,12.59.68,19.02-2.64,7.6-8.27,11.89-15.61,11.84-.27,0-.55-.07-.97-.13,0-3.62-.02-7.2.03-10.78,0-.38.31-.78.56-1.12,5.62-7.73,3.56-17.75-3.33-24.25-4.23-3.98-9.16-6.67-15.16-5.84-6.38.88-9.87,5.2-11.51,11.11-1.67,6.05-.92,11.91,1.81,17.58.67,1.4,1.01,3.03,1.16,4.59.2,1.97-.08,3.98.08,5.95.16,1.92-.76,2.15-2.37,2.24-8.7.49-17.47.63-26.09,1.78-12.06,1.62-24.02,4.02-36.03,6.09-.61.1-1.21.22-2.19.4,3.61-7.19,3.77-14.47,2.6-21.87-.98-6.2-3.15-12.02-5.7-17.75-6.63-14.89-13.09-29.85-19.7-44.75-.71-1.61-.48-2.49.84-3.57,2.4-1.98,4.63-4.15,7.18-6.47-3.9-1.83-7.5-3.77-11.29-5.21-3.23-1.23-5.1-3.23-6.37-6.45-3.07-7.84-7.23-15.25-8.96-23.6-1-4.84-1.45-9.69-.03-14.52,2.42-8.26,10.84-13.97,19.93-13.56,8.9.4,16.72,7.04,18.34,15.65,1.24,6.59.18,12.76-4.17,18.02-4.05,4.91-12.47,5.61-17.53,1.68-4.33-3.36-6.73-10.58-5.21-15.71,1.07-3.63,3.92-6.1,7.22-6.28,3.34-.18,6.98,2.1,8.36,5.22.86,1.93.77,3.73-.74,5.31-1.44,1.49-2.67,1.11-3.53-.78-.49-1.08-1.26-2.36-2.24-2.82-2.45-1.13-4.9,1.04-4.53,3.78.82,6.03,7.01,9.32,12.5,6.63,5.05-2.48,7.24-8.57,5.12-14.22-2.4-6.39-9.49-10.71-16.25-9.9-6.75.81-12.19,6.55-13.06,13.75-.8,6.64,1.06,12.57,5.25,17.64,5.39,6.52,12.68,7.81,20.48,6.12,10.7-2.32,21.51-3.74,32.41-4.46,19.3-1.27,38.56-.63,57.78,1.54,1.55.17,2.18.8,2.67,2.15,2.5,6.93,5.03,13.85,7.65,20.74.51,1.33.31,2.19-.58,3.23-2.52,2.96-4.93,6.02-7.5,9.19ZM66.86,133.78s0,.03,0,.05c6.22-.43,12.44-.88,18.66-1.29,15.91-1.05,31.82-2.08,47.73-3.13,2.55-.17,3.75-1.05,3.71-2.63-.04-1.68-1.3-2.38-4.04-2.27-.28.01-.57.02-.85.04-15.2,1.01-30.4,2.01-45.6,3.04-7.49.51-14.98,1.07-22.48,1.59-1.63.11-2.58.94-2.47,2.54.11,1.6,1.21,2.32,2.79,2.24.85-.04,1.7-.12,2.54-.18ZM75.5,98.28s0-.03,0-.05c11.46-.65,22.92-1.29,34.38-1.95,3.82-.22,7.64-.45,11.45-.75,1.41-.11,2.16-1.02,2.09-2.45-.06-1.45-.92-2.16-2.33-2.23-.56-.03-1.13.01-1.7.04-8.06.45-16.13.88-24.19,1.35-11.11.64-22.21,1.32-33.31,1.95-1.63.09-2.87.69-2.84,2.45.03,1.88,1.34,2.45,3.08,2.35,4.46-.25,8.92-.47,13.37-.7ZM111.55,107.94c-10.96.74-21.93,1.49-32.89,2.24-3.75.26-7.5.51-11.24.79-1.59.12-2.55,1.04-2.43,2.63.1,1.48,1.11,2.23,2.61,2.24.42,0,.85-.03,1.27-.06,12.3-.85,24.61-1.69,36.91-2.55,2.69-.19,5.37-.42,8.06-.62,1.6-.12,2.52-.93,2.42-2.59-.11-1.73-1.25-2.24-2.8-2.17-.64.03-1.28.06-1.91.09ZM68.15,151.63c14.04-1.13,27.87-2.25,41.7-3.37,1.68-.14,2.7-1.04,2.47-2.77-.25-1.9-1.66-2.21-3.33-2.08-13.62,1.11-27.24,2.21-40.86,3.3-1.73.14-3.14.61-3.17,2.64-.03,1.59,1.2,2.35,3.18,2.28Z"/><path class="cls-2" d="M57.51,72.73c5.16-11.2,5.02-21.89-2.63-32.35,3.67.29,6.95.57,10.23.79,15.79,1.06,31.59,1.66,47.28-1.1,5.5-.97,10.88-2.66,16.4-3.47,3.22-.47,6.7-.32,9.9.36,8.78,1.86,14.92,10.76,14.37,20.51-.13,2.29-.62,4.66-1.46,6.8-2.32,5.93-7,8.79-13.36,8.32-5.23-.39-10.44-1-15.66-1.42-14.5-1.16-29.02-1.47-43.54-.43-6.57.47-13.11,1.27-19.67,1.91-.55.05-1.1.06-1.84.09Z"/><path class="cls-2" d="M44.48,165c.13-.06.19-.12.25-.12,6.31-.22,4.87-1.81,6.73,4.61,1.74,6.03,2.74,12.19,1.08,18.45-2.34,8.85-10.87,14.68-20.53,14.06-8.86-.57-16.72-7.67-17.99-16.3-.91-6.15.2-11.86,3.95-16.91,4.78-6.43,15.33-6.56,20.16-.17,2.83,3.74,4.24,8,3.24,12.78-.79,3.81-3.57,6.66-6.78,7.03-3.59.41-7.37-1.63-8.95-4.89-.86-1.78-1.07-3.62.37-5.16.59-.63,1.67-1.11,2.51-1.09.47.01.88,1.22,1.39,1.83.82.96,1.54,2.32,2.59,2.7,2.26.8,4.24-.94,4.12-3.4-.16-3.49-1.86-6.05-5.06-7.49-3.38-1.52-7.2-.77-9.98,2.02-3.3,3.31-4.26,7.25-2.86,11.72,1.99,6.35,8.72,11.06,15.29,10.72,6.92-.35,12.39-5.09,14.02-12.17,1.32-5.76.06-11.1-2.66-16.2-.3-.56-.62-1.11-.93-1.67-.03-.05.01-.14.04-.35Z"/><path class="cls-1" d="M129.24,182.13c5.53,1.67,6.67,2.35,14.64-.19v23.69c-1.91-1.54-3.37-2.72-4.83-3.9-2.37-1.91-3.84-1.63-5.47,1.03-1.31,2.12-2.64,4.23-4.34,6.18v-26.81Z"/><path class="cls-2" d="M125.37,163.55c0-3.18.53-6.22,2.49-8.83,2.05-2.73,4.8-3.67,8.07-2.9,5.9,1.38,11.09,7.02,12.06,12.99.83,5.08-2.65,10.49-7.97,12.39-4.97,1.78-9.63.17-12.22-4.76-1.41-2.69-2.04-5.78-3.01-8.69.19-.06.38-.13.57-.19ZM129.49,164.58c.02.25.02.82.12,1.37.77,4.67,4.45,7.64,8.57,6.94,3.83-.64,6.25-4.33,5.67-8.64-.56-4.22-4.65-7.72-8.71-7.47-3.4.21-5.68,3.23-5.66,7.79Z"/><path class="cls-1" d="M66.86,133.78c-.85.06-1.7.14-2.54.18-1.58.07-2.69-.64-2.79-2.24-.11-1.6.84-2.43,2.47-2.54,7.49-.51,14.98-1.08,22.48-1.59,15.2-1.03,30.4-2.03,45.6-3.04.28-.02.57-.03.85-.04,2.74-.11,4,.59,4.04,2.27.04,1.57-1.16,2.46-3.71,2.63-15.91,1.05-31.82,2.08-47.73,3.13-6.22.41-12.44.86-18.66,1.29,0-.02,0-.03,0-.05Z"/><path class="cls-1" d="M75.5,98.28c-4.46.23-8.92.44-13.37.7-1.74.1-3.05-.47-3.08-2.35-.03-1.75,1.21-2.35,2.84-2.45,11.11-.63,22.21-1.31,33.31-1.95,8.06-.47,16.13-.9,24.19-1.35.57-.03,1.13-.07,1.7-.04,1.4.07,2.26.79,2.33,2.23.06,1.43-.69,2.34-2.09,2.45-3.81.3-7.63.53-11.45.75-11.46.66-22.92,1.3-34.38,1.95,0,.02,0,.03,0,.05Z"/><path class="cls-1" d="M111.55,107.94c.64-.03,1.28-.06,1.91-.09,1.55-.07,2.69.45,2.8,2.17.1,1.67-.82,2.47-2.42,2.59-2.69.21-5.37.44-8.06.62-12.3.86-24.61,1.7-36.91,2.55-.42.03-.85.06-1.27.06-1.5-.01-2.5-.76-2.61-2.24-.11-1.6.85-2.51,2.43-2.63,3.75-.29,7.49-.54,11.24-.79,10.96-.75,21.93-1.49,32.89-2.24Z"/><path class="cls-1" d="M68.15,151.63c-1.99.07-3.21-.69-3.18-2.28.03-2.03,1.44-2.5,3.17-2.64,13.62-1.08,27.24-2.18,40.86-3.3,1.66-.14,3.08.17,3.33,2.08.23,1.73-.79,2.63-2.47,2.77-13.83,1.12-27.66,2.24-41.7,3.37Z"/><path class="cls-1" d="M129.49,164.58c-.02-4.56,2.26-7.58,5.66-7.79,4.06-.25,8.15,3.25,8.71,7.47.57,4.31-1.85,7.99-5.67,8.64-4.12.69-7.8-2.28-8.57-6.94-.09-.56-.1-1.13-.12-1.37Z"/></svg>