<?xml version="1.0" encoding="UTF-8"?><svg id="Lager_1" xmlns="http://www.w3.org/2000/svg" viewBox="0 0 971.97 826.79"><defs><style>.cls-1{fill:#2b3b87;stroke-width:0px;}</style></defs><path class="cls-1" d="M474.47,362.37c5.83-3.4,12.57-7.34,19.33-11.25,8.58-4.96,15.11-10.3,16.1-21.97,1.26-14.83,5.76-29.36,8.52-44.09,2.3-12.27,4.17-24.63,6.06-36.97.21-1.36-.66-2.9-1.07-4.34-.72-2.53-2.67-5.57-1.86-7.42.85-1.97,4.23-3.76,6.65-3.98,11.28-1.01,22.61-1.34,33.91-2.11,8.78-.6,17.53-1.48,26.57-2.26v-49.45h-17.87c-4.6-15.68.97-34.17-15.53-46.79,11.36-2.56,22.28-.41,33.37-1.54v-18.58h-9.12v-25.25h12.19v-47.58c8.3.98,15.82,1.78,23.3,2.79,8.97,1.21,17.73,1.91,26.55-1.72,2.68-1.1,7.02.07,9.91,1.55,8.72,4.48,16.7,4.63,24.83-1.38,1.44-1.07,4.61-.46,6.7.21,1.77.57,3.12,2.41,4.71,3.63,5.94,4.55,10.51,4.36,17.3-.38,1.63-1.13,3.7-1.63,5.56-2.42.72,2.27,2.08,4.54,2.04,6.8-.12,6.86-4.79,11.9-12.09,12.15-5.37.18-11-.56-16.15-2.11-9.14-2.75-12.63-1.62-16.58,7.13-3.06,6.77-8.34,8.16-13.85,3.28-3.16-2.8-6.32-3.52-9.25-.55-9.67,9.8-22.21,13.62-34.85,17.33-.43.13-.81.4-2.06,1.04h9.5v24.94h-11.3v20.14c8.55,0,17-.09,25.45.08,1.52.03,3.01,1.15,4.51,1.76-1.01,1.13-2.04,2.24-3.02,3.4-1.11,1.32-2.54,2.52-3.21,4.04-5.21,11.87-8.6,24.13-6.78,38.22-4.81,0-9.27-.21-13.69.13-1.28.1-3.49,1.75-3.51,2.72-.22,15.79-.16,31.58-.16,48.04,3.42,0,6.36,0,9.31,0,13.67-.01,27.33-.03,41-.04,1.33,0,2.91-.44,3.95.12,2.28,1.23,4.29,2.98,6.41,4.51-1.68,1.41-3.37,2.83-5.05,4.24-.22-.25-.43-.51-.65-.76-.11.28-.39.63-.31.83,10.71,25.23,17.41,51.68,23.96,78.2,1.23,4.99,2.9,9.92,4.94,14.63,2.23,5.16,4.38,5.63,9.32,2.94,20.62-11.23,41.2-22.54,61.91-33.61,2.12-1.13,5.1-1.54,7.48-1.11,3.8.68,5.52,4.32,2.97,7.13-9.73,10.71-5.96,22.88-3.97,34.54,4.44,26.02,16.36,49.17,29.61,71.6,9.15,15.48,19.29,30.37,28.44,45.85,4.35,7.37,7.29,15.57,11.11,23.27,3.1,6.25,6.21,12.55,9.94,18.43,14.5,22.84,30.68,44.4,49.63,63.79,1.75,1.79,3.69,3.38,5.44,5.16,5.29,5.42,11.39,8.32,19.21,7.27,2.74-.37,5.85-.31,8.36.67,2.35.92,5.67,3.26,5.74,5.09.08,2.29-2.22,6.04-4.34,6.79-6.53,2.34-13.37,4.15-20.24,5.08-19.14,2.58-38.36,4.65-57.55,6.84-5.11.58-9.25,2.61-10.21,7.93-1.11,6.15-2.82,12.97,3.13,17.65,4.05,3.18,5.23,6.96,4.16,11.39-2.52,10.33-5.32,20.6-8.26,30.82-6.77,23.53-13.8,47.03-25.24,68.79-4.46,8.47-10.07,16.48-16.07,23.96-5.97,7.43-14.16,10.46-24.12,10.93-22.46,1.04-44.85,3.42-67.28,5.08-39.38,2.91-78.73,6.63-118.16,8.26-43.44,1.8-86.96,2.46-130.43,2-26.26-.28-52.49-3.59-78.72-5.72-2.15-.17-4.38-1.47-6.23-2.75-23.1-15.96-42.83-35.47-59.95-57.63-8.93-11.56-19.8-20.4-32.91-26.95-26.01-12.99-48.1-30.96-66.09-53.89-1.16-1.48-2.84-2.93-4.57-3.54-46.85-16.27-93.71-32.53-140.66-48.51-6.23-2.12-13.14-2.2-19.39-4.26-4.38-1.44-8.55-4.2-12.11-7.2-2.69-2.26-1.58-5.05,2.09-5.55,2.76-.38,5.68.33,8.42-.1,2.58-.4,5.83-.91,7.41-2.64,26.03-28.57,51.38-57.77,77.79-85.97,56.27-60.09,113.05-119.7,169.64-179.49,5.59-5.91,7.58-23.5,3.19-29.79-.51-.74-1.7-.97-2.36-1.64-1.08-1.1-2.92-2.58-2.71-3.53.27-1.25,2.07-2.79,3.45-3.08,20.11-4.28,36.54-16.57,54.73-24.99,2.87-1.33,3.74-3.08,3.72-6.14-.14-16,0-32-.11-48-.02-3.37.61-5.59,5.09-5.02.16,2.84.31,5.73.53,9.7,3.85-.94,7.39-1.48,10.67-2.7,4.2-1.57,8.03-4.43,12.31-5.37,4.49-.99,10.16-1.97,13.86-.1,7.23,3.67,14.13,3.26,21.36,1.81,8.97-1.81,17.88-3.95,26.83-5.9,1.29-.28,2.77-.75,3.93-.38,1.56.5,3.87,1.55,4.08,2.69.29,1.56-.6,4.09-1.86,5.02-1.75,1.29-4.28,1.61-6.53,2.14-4.56,1.07-8.34,2.66-10.05,7.81-.59,1.78-3.49,3.22-5.63,3.93-1.94.65-4.29.16-6.45.09-5.28-.18-8.98,2.07-10.86,7.06-2.24,5.95-6.43,8.66-12.8,7.93-3.63-.42-6.31.72-8.42,4.01-.95,1.47-3.38,2.05-5.2,2.89-3.06,1.41-6.15,2.76-9.27,4.01-1.96.79-3.96,1.54-6.02,1.99-2.24.49-4.56.62-7.07.94v11.2c17.03,2.3,33.8,4.57,50.58,6.84.33.04.78-.1.98.07,2.01,1.7,3.97,3.44,5.95,5.17-1.71,1.79-3.42,3.58-5.13,5.37-.62-.14-1.24-.29-1.86-.43,1.71,5.1,2.82,10.51,5.25,15.25,7.02,13.67,10.16,28.14,12.92,43.21,2.3,12.57,9.12,24.49,15.04,36.13,1.67,3.28,7.23,4.6,11.02,6.78,2.11,1.21,4.28,2.32,6.88,3.73ZM592.46,604.26c1.07-13.69-.88-26.77-5.83-39.55-2.55-6.6-4.69-13.61-5.45-20.6-4.63-42.52-4.22-85.1-.13-127.64.46-4.82-.94-6.97-5.83-6.67-2.98.18-4.33-1.51-4.18-4.3.12-2.25.6-4.48.92-6.68,12.61,1.14,19.93-5.39,19.92-17.13,0-4.5,0-8.99,0-13.49,0-7.45,0-14.9,0-22.29-1.05-.2-1.55-.43-2-.36-20.21,3.11-40.47,5.89-60.58,9.57-6.39,1.17-12.46,4.46-18.46,7.24-3.14,1.46-4.84,4.16-4.11,8.19,3.16,17.5,4.85,35.38,9.4,52.5,6.83,25.67,15.73,50.79,23.52,76.21,11.63,37.97,32.83,71.11,52.82,104.99ZM303.69,315.64c-.33-.26-.67-.52-1-.78-71.68,76.15-145.54,150.25-213.45,230.02,9.42-1.71,16.74-6.97,23.92-12.68,7.53-6,14.87-12.45,23.11-17.33,39.82-23.57,79.99-46.54,119.87-70,21.95-12.91,43.6-26.33,65.31-39.63,3.41-2.09,6.44-4.81,9.64-7.24-.19-.63-.38-1.26-.57-1.88-7.38.58-14.77,1.15-22.15,1.76-7.27.6-14.53,1.41-21.81,1.79-2.75.15-5.49-.88-5.51-4.42-.02-3.66,2.45-4.65,5.64-4.91,3.08-.24,6.13-.77,8.4-1.07,2.93-25.07,5.76-49.35,8.6-73.62ZM406.5,651.87c1.46,3.96,2.77,6.86,3.58,9.89.93,3.48,2.82,4.5,6.43,4.49,57.13-.12,114.25-.09,171.38-.1,1.6,0,3.19-.14,4.86-.22.05-4.67,1.63-8.98-4.31-11.15-1.71-.62-2.17-4.65-3.2-7.11,1.83-.66,3.66-1.33,5.5-1.97.59-.21,1.21-.36,2.18-.64-.28-4.75-.69-9.37-.77-13.99-.06-3.2-1.33-4.42-4.54-4.27-6.65.3-13.32.21-19.98.55-43.16,2.21-85.7,9.02-128.01,17.47-10.88,2.17-21.7,4.62-33.12,7.06ZM67.36,577.59c2.09.75,3.27,1.22,4.46,1.6,27.25,8.77,54.57,17.3,81.68,26.47,5.96,2.02,9.76.99,13.39-3.56,8-10.02,16.15-19.92,24.09-29.99,6.65-8.43,1.91-20.72-8.9-21.76-8.19-.78-16.68-.57-24.82.63-29.29,4.32-57.3,13.41-84.79,24.19-1.47.58-2.87,1.35-5.12,2.41ZM370.24,665.8h9.75c0-9.48-.2-18.61.09-27.73.12-3.76-1.06-5.54-4.62-6.83-21.4-7.78-43.53-9.93-65.89-7.29-13.77,1.63-27.3,5.44-40.84,8.66-3.27.78-6.17,3.14-9.24,4.77.13.6.26,1.2.39,1.8,29.93,11.08,59.82,22.28,92.59,27.5-3.56-3.38-6.58-5.73-8.95-8.61-3.45-4.21-1.87-8.91,3.27-10.59,5.8-1.89,11.47-1.22,17.04,1.12,4.42,1.85,7.21,4.55,6.46,9.84-.32,2.26-.05,4.61-.05,7.35ZM275.32,588.74c-36.45,2.87-72.24,3.82-104.6,22.7,26.53,12.21,54.68,18.39,82.78,26.15,7.22-16.16,14.3-32.03,21.82-48.86ZM370.98,414.31c-.38-.23-.76-.47-1.14-.7-1.39,1.27-2.89,2.44-4.16,3.82-4.9,5.37-5.78,12.26-6.62,19-5.53,44.35-5.46,88.72,1.35,132.88,2.06,13.34,6.67,26.34,10.83,39.27,1.42,4.42,5.07,8.11,7.7,12.14.85-.28,1.69-.57,2.54-.85-.64-6.31-.77-12.72-2.03-18.9-1.68-8.26-5.04-16.22-6.28-24.52-5.41-36.15-6.34-72.62-5.73-109.09.26-15.41,2.33-30.8,3.52-46.2.18-2.27.02-4.57.02-6.86ZM803.18,613.04c-.02-.49-.03-.98-.05-1.48-1.77-.38-3.56-1.17-5.3-1.07-4.31.23-8.68.5-12.88,1.4-22.61,4.83-45.2,9.74-67.75,14.86-7.9,1.8-15.55,5.5-23.5,6.21-26.18,2.34-51.52,8.33-76.64,15.61-1.57.46-3.05,1.24-3.71,1.52,4.32,2.27,8.59,4.64,12.98,6.77,3.51,1.7,7.09,4.22,10.76,4.43,9.76.57,19.58.24,29.36-.12,1.81-.07,4.72-1.58,5.14-3.01,1.67-5.71,6.16-7.17,10.87-9.18,5.11-2.18,9.79-5.37,14.66-8.12,2.63-1.49,5.08-3.72,7.91-4.39,30.27-7.16,60.6-14.07,90.91-21.1,2.46-.57,4.84-1.54,7.25-2.33ZM608.55,341.29c0,11.59-.46,22.55.16,33.45.43,7.59,2.78,8.96,9.2,5.34,19.55-11.02,38.79-22.58,58.14-33.96.21-.13.25-.56.82-1.96-22.34-5.2-44.65-3.47-68.32-2.88ZM461.61,369.24c-.33-.85-.66-1.69-.99-2.54-22.29,3.54-44.58,7.06-66.85,10.7-1.01.16-2.64,1.45-2.62,2.18.23,8.03.73,16.04,1.26,25.84,24.12-12.61,46.66-24.39,69.21-36.17ZM364.93,404.68c.12-6.36-2.96-8.71-8.06-7.12-4.41,1.37-7.27,4.24-8.84,8.69-8.47,23.95-17.1,47.83-25.5,71.81-.51,1.44.61,3.45.96,5.2,1.42-1.05,3.45-1.8,4.17-3.21,11.89-23.57,23.63-47.22,35.37-70.86.87-1.75,1.52-3.61,1.89-4.5ZM445.41,360.01c-11.7-7.27-23.15-11.89-35.29-14.68-4.81-1.11-9.81-1.5-14.76-1.9-3.51-.29-5.84,1.63-5.96,5.21-.2,6.08-.06,12.17-.06,18.86,18.5-1.25,36.92-2.18,56.06-7.48ZM309.28,383.11c.16.51.33,1.02.49,1.54,18.16-3.68,36.38-7.09,54.45-11.17,6.3-1.42,9.9-6.39,10.91-12.96.49-3.21-.35-5.28-3.99-5.16-4.64.15-9.39-.2-13.89.69-18.96,3.77-33.01,16.25-47.97,27.06ZM286.88,461.45c.48.27.95.54,1.43.81,22.01-16.49,39.32-37.43,55.37-59.53.55-.75.72-2.65.24-3.08-.81-.72-2.55-1.27-3.43-.86-3.14,1.45-6.37,2.97-9.05,5.11-15.6,12.49-28.57,27.31-38.48,44.7-2.34,4.11-4.07,8.56-6.09,12.85Z"/></svg>