<?xml version="1.0" encoding="utf-8"?>
<!-- Generator: Adobe Illustrator 27.6.1, SVG Export Plug-In . SVG Version: 6.00 Build 0)  -->
<svg version="1.1" id="Lager_1" xmlns="http://www.w3.org/2000/svg" xmlns:xlink="http://www.w3.org/1999/xlink" x="0px" y="0px"
	 viewBox="0 0 100 99.2" style="enable-background:new 0 0 100 99.2;" xml:space="preserve">
<style type="text/css">
	.st0{fill:#5C69AC;}
</style>
<g>
	<path class="st0" d="M41.7,46.1V52c0,4.1,3.3,7.4,7.4,7.4h8.6c4.1,0,7.4-3.3,7.4-7.4v-5.9c0-0.8-0.7-1.5-1.5-1.5H43.1
		C42.3,44.6,41.7,45.2,41.7,46.1z"/>
	<path class="st0" d="M87.2,79.4c-2.6,1.3-5.7,2.5-9.3,3.4c-0.4-5.2-1.2-11.4-1.5-13.5c2.4-2.5,3.8-5.9,3.8-9.4
		c0-7-5.4-12.7-12.2-13.3V52c0,5.7-4.6,10.4-10.4,10.4h-8.6c-5.7,0-10.4-4.6-10.4-10.4v-5.9c0-0.1,0-0.2,0-0.2
		c-0.1-0.1-0.2-0.3-0.3-0.4c-0.6-1.2,0-3.1,0.4-3.6c1.2-1.6,2.2-3.6,3.1-5.8L36,34.4c-0.8-0.2-1.3-1-1-1.8c0.2-0.8,1-1.3,1.8-1
		l6,1.6c0.4-1.5,0.7-3.1,0.9-4.8L37,28.2c-0.8,0-1.5-0.7-1.4-1.5c0-0.8,0.7-1.5,1.5-1.4l6.7,0.2c0-2.1-0.3-4.3-0.9-6.3l-6,2.3
		c-0.2,0.1-0.3,0.1-0.5,0.1c-0.6,0-1.2-0.4-1.4-1c-0.3-0.8,0.1-1.6,0.9-1.9l6-2.3c-1-2.2-2.5-4.1-4.3-5.6l-3.6,4.8
		c-0.3,0.4-0.7,0.6-1.2,0.6c-0.3,0-0.6-0.1-0.9-0.3c-0.7-0.5-0.8-1.4-0.3-2.1l3.5-4.7c-1.3-0.7-2.8-1.3-4.4-1.8
		c-0.8-0.2-1.7-0.4-2.6-0.5v5.7c0,0.8-0.7,1.5-1.5,1.5s-1.5-0.7-1.5-1.5V6.8c-3.3,0.1-6.5,1.1-9.2,2.8l4.4,5
		c0.5,0.6,0.5,1.5-0.1,2.1c-0.3,0.2-0.6,0.4-1,0.4c-0.4,0-0.8-0.2-1.1-0.5l-4.6-5.2c-1.7,1.5-3.1,3.2-4.1,5.2l8.2,5.8
		c0.7,0.5,0.8,1.4,0.4,2.1c-0.3,0.4-0.7,0.6-1.2,0.6c-0.3,0-0.6-0.1-0.9-0.3l-3.8-2.7c-0.4,2.6-1.1,10,1.2,16.4
		c0.3,0.9,0.5,1.8,0.6,2.7c0.3,1.9,0.6,4.1,3.2,5.3c0.2,0.1,0.4,0.2,0.7,0.2c1.9-3.9,6.1-7.5,7.6-8.7c0.2-1.8,0.8-7.1,2.6-12
		c0.3-0.8,1.1-1.2,1.9-0.9c0.8,0.3,1.2,1.1,0.9,1.9c-2,5.6-2.5,11.8-2.5,11.9c0,0.4-0.2,0.8-0.6,1.1c-0.1,0-4.5,3.5-6.7,7.2
		c-2,6.4-3.3,20-3.1,35.4c-3-0.9-5.6-1.9-7.8-3c-1.7-0.9-3.8-0.2-4.6,1.5c-0.9,1.7-0.2,3.8,1.5,4.6c9.4,4.8,25,7.6,41.7,7.6
		s32.3-2.8,41.7-7.6c1.7-0.9,2.4-2.9,1.5-4.6S88.9,78.6,87.2,79.4z M20,30.5c-0.9,0-1.6-0.7-1.6-1.6s0.7-1.6,1.6-1.6
		s1.6,0.7,1.6,1.6C21.6,29.8,20.9,30.5,20,30.5z M23.1,83.8l3.1-13.9h42.2l3.8,14.3c-7,1.4-15.2,2.1-23.7,2.1
		C39.3,86.3,30.5,85.4,23.1,83.8z"/>
	<path class="st0" d="M95,52.5c-4.7,3.8-9.4,1.5-14.3-1.1c1.1,1.7,1.8,3.6,2.2,5.7C89.9,62.9,93.2,57.5,95,52.5z"/>
</g>
</svg>
