<?xml version="1.0" encoding="utf-8"?>
<!-- Generator: Adobe Illustrator 27.6.1, SVG Export Plug-In . SVG Version: 6.00 Build 0)  -->
<svg version="1.1" id="Lager_1" xmlns="http://www.w3.org/2000/svg" xmlns:xlink="http://www.w3.org/1999/xlink" x="0px" y="0px"
	 viewBox="0 0 100 103.9" style="enable-background:new 0 0 100 103.9;" xml:space="preserve">
<style type="text/css">
	.st0{fill:#A52527;}
	.st1{fill:#2B3B87;}
</style>
<path class="st0" d="M42,66.7l-10.8,9.1l1.2,18.4h-3.8l-4-22l6.7-5.6L42,66.7z M95,30.7c0-1.6-0.6-3.2-1.8-4.3l-7.1-7.1
	c-1.5-1.5-3.4-2.3-5.5-2.3l-8.2-8.2c-1.9-1.9-4.6-3-7.3-3h-8l7.2,2.8c1.8,0.7,3.3,1.9,4.4,3.4l3.8,5h-8.5l1.4,2.1
	c1.5,2.2,3.9,3.5,6.6,3.5h0.4l-8.6,14.1H25.7c-4.2,0-8.2,1.7-11.2,4.7l-0.1,0.1L5,36.8v2.5c0,1.5,0.4,2.9,1.3,4.1l3.2,4.7L12,60.5
	l-2.8,4.2l4,29.5h3.8l0-18.4l13.4-11.3l25.2,0.2v29.5l3.7,0l1.9-20.5l8.7-8.7c5.3-5.3,8.9-12,10.2-19.4l2.2-11.9h3.5l3.5,7h2.8v-7
	C93.8,33.7,95,32.3,95,30.7z M65.8,72.3l4.8,22h3.8L70,68L65.8,72.3z"/>
<g>
	<path class="st1" d="M30.5,64.5L50,64.7v-28H25.7c-4.2,0-8.2,1.7-11.2,4.7l-0.1,0.1L5,36.8v2.5c0,1.5,0.4,2.9,1.3,4.1l3.2,4.7
		L12,60.5l-2.8,4.2l4,29.5h3.8l0-18.4L30.5,64.5z"/>
	<polygon class="st1" points="31.2,66.6 24.6,72.3 28.5,94.3 32.4,94.3 31.2,75.9 42,66.7 	"/>
</g>
</svg>
