<?xml version="1.0" encoding="utf-8"?>
<!-- Generator: Adobe Illustrator 27.6.1, SVG Export Plug-In . SVG Version: 6.00 Build 0)  -->
<svg version="1.1" id="Lager_1" xmlns="http://www.w3.org/2000/svg" xmlns:xlink="http://www.w3.org/1999/xlink" x="0px" y="0px"
	 viewBox="0 0 100 98.4" style="enable-background:new 0 0 100 98.4;" xml:space="preserve">
<style type="text/css">
	.st0{fill:#D54848;}
	.st1{fill-rule:evenodd;clip-rule:evenodd;fill:#FFFFFF;}
	.st2{fill-rule:evenodd;clip-rule:evenodd;fill:#D54848;}
</style>
<g id="Lager_1_00000119096314075665144660000010166000152476975529_">
	<g>
		<path class="st0" d="M88,5v52.6c0,8.2-4.6,15.4-10.6,21.1c-10.1,9.7-24.9,15.7-27.5,15.7s-17.5-5.9-27.6-15.6
			c-6-5.8-10.6-13-10.6-21.2V5H88z M70.6,77.9L16.9,24.1v33.4c0,6.6,3.9,12.6,9,17.5c9.2,8.8,21.8,14.2,24,14.2
			C51.8,89.2,61.9,85,70.6,77.9L70.6,77.9z M35.5,10.2l47.3,47.4V10.2H35.5z"/>
	</g>
</g>
<g id="Lager_2_00000160907461641695566160000000845287551368325560_">
	<g>
		<path class="st1" d="M44,35.4v22.1c0,4.4,2.4,9.2,5.6,13.4c5.2,6.9,12.7,12.4,14.2,12.4c1.5,0,8.9-5.5,14.1-12.4
			c3.2-4.2,5.6-9,5.6-13.4V35.4H44z"/>
		<path class="st2" d="M44,35.4v22.1c0,4.4,2.4,9.2,5.6,13.4c5.2,6.9,12.7,12.4,14.2,12.4c1.5,0,8.9-5.5,14.1-12.4
			c3.2-4.2,5.6-9,5.6-13.4V35.4H44z M67.3,44.6v-6l2.8-2.1l2.8,2.1v6l3,2.2H64.3L67.3,44.6z M66.5,49.4v6l3,2.2H57.9l3-2.2v-6
			l2.8-2.1L66.5,49.4z M54.5,44.6v-6l2.8-2.1l2.8,2.1v6l3,2.2H51.5L54.5,44.6z M45.6,36.8l2.3,1.8v6l3,2.2h-5.3V36.8z M46.3,57.6
			c0-0.1,0-0.2,0-0.4l2.5-1.8v-6l2.8-2.1l2.8,2.1v6l3,2.2H46.3z M51.5,68.4l3-2.2v-6l2.8-2.1l2.8,2.1v6l3,2.2H51.5z M63.7,81.2
			l-3.9-3.3l1.1-0.8v-6l2.8-2.1l2.8,2.1v6l1.1,0.8L63.7,81.2z M64.3,68.4l3-2.2v-6l2.8-2.1l2.8,2.1v6l3,2.2H64.3z M81.2,57.6H70.1
			l3-2.2v-6l2.8-2.1l2.8,2.1v6l2.5,1.8C81.2,57.4,81.2,57.5,81.2,57.6z M81.8,46.8h-5.3l3-2.2v-6l2.3-1.8V46.8z"/>
	</g>
</g>
</svg>
