<?xml version="1.0" encoding="UTF-8"?><svg id="Lager_1" xmlns="http://www.w3.org/2000/svg" viewBox="0 0 503 509"><defs><style>.cls-1{fill:#2b3b87;}.cls-1,.cls-2{stroke-width:0px;}.cls-2{fill:#fff;}</style></defs><path class="cls-1" d="M177.25,359.87c.9,6.42,2.66,11.5,2.08,16.31-1.27,10.54-11.31,17.22-22.28,14.28-7.12-1.91-11.04.27-15.73,5.11-17.52,18.07-35.43,35.76-53.35,53.43-3.06,3.02-4.34,5.96-4.16,10.4.78,19.44-13.52,36.3-32.41,38.83-20.02,2.68-37.95-9.19-42.91-28.4-6.28-24.33,13.35-48.78,38.49-47.56,4.33.21,7.08-1.09,9.96-4,18.99-19.19,38.1-38.28,57.27-57.3,2.38-2.36,3.13-4.3,2.13-7.77-3.82-13.27,1.12-23.37,12.37-26.35,5.7-1.51,10.85-.02,15.98,3.25,1.18-1.09,2.42-2.15,3.58-3.3,30.88-30.88,61.74-61.79,92.68-92.61,2.22-2.21,2.89-4.1,2.26-7.35-1.64-8.5,1.26-15.78,7.66-21.57,4.02-3.63,6.9-7.19,6.46-13.48-.45-6.41,3.97-11.49,8.55-15.79,2.15-2.02,3.03-3.77,2.16-6.88-3.49-12.48-2.2-24.76,2.59-36.7,1.05-2.63.7-4.66-.23-7.4-1.32-3.9-2.14-8.76-1-12.55,3.64-12.07,11.6-20.57,24.23-23.45,3.33-.76,7.39-.23,10.61,1.03,3.17,1.24,5.61,1.48,8.82.27,14.38-5.41,28.84-6.18,43.33-.04,1.17.5,3.57-.17,4.5-1.15,6.48-6.81,13.56-10.11,23.57-8.85,8.51,1.08,16.59-2.98,23.69-7.96,2.89-2.03,2.55-6.22-.53-8.3-6.52-4.39-13.81-6.31-21.59-7.05-2.31-.22-5.7-1.52-6.37-3.21-.68-1.72.78-5.11,2.37-6.75,11.24-11.62,22.67-23.06,34.29-34.3,1.62-1.57,4.88-2.76,6.86-2.21,1.53.42,3.02,3.78,3.16,5.92.5,7.48,2.28,14.46,6.25,20.82,2.93,4.7,7.84,5.02,9.91.06,2.77-6.65,4.26-13.84,6.46-20.74.7-2.2,1.54-5.57,3.01-6.01,1.96-.58,5.27.53,6.87,2.08,11.74,11.35,23.28,22.92,34.65,34.65,1.47,1.52,2.67,4.73,2.04,6.44-.6,1.62-3.66,2.62-5.82,3.32-7.04,2.28-14.37,3.8-21.19,6.61-4.68,1.93-4.62,7.52.1,9.5,6.49,2.73,13.5,4.17,20.21,6.4,2.47.82,6.08,1.85,6.68,3.63.64,1.89-1.09,5.35-2.81,7.13-10.89,11.27-21.97,22.35-33.23,33.24-1.78,1.72-5.21,3.46-7.09,2.83-1.72-.58-2.61-4.27-3.44-6.73-2.32-6.86-3.96-13.99-6.77-20.64-1.87-4.43-6.71-4.24-9.3,0-4.91,8.05-8.62,16.42-7.02,26.32,1.17,7.2-1.78,13.13-7.21,17.69-3.25,2.72-3.86,5.08-2.13,9.28,5.61,13.64,4.14,27.42-.87,40.94-1.03,2.79-1.23,4.95.07,7.88,1.34,3.01,1.97,6.88,1.4,10.11-2.32,13.28-10.86,21.49-23.3,25.46-3.38,1.08-8,.95-11.13-.54-4.17-1.99-7.38-1.36-11.23.07-11.22,4.15-22.74,4.98-34.35,1.85-2.93-.79-4.83-.32-6.94,1.94-5.55,5.93-12.04,9.94-20.72,8.94-1.22-.14-2.83.7-3.85,1.57-2.4,2.05-4.51,4.44-6.82,6.61-5.79,5.41-12.66,6.89-20.38,5.79-1.68-.24-4.11.05-5.19,1.11-32.39,32.19-64.66,64.5-95.96,95.81ZM165.99,355.82c1.96-1.38,2.56-1.69,3.02-2.15,24.37-24.35,48.75-48.71,73.07-73.11.85-.85,1.9-2.36,1.68-3.29-1.92-8.11-4.11-16.16-6.24-24.29-28.94,28.97-57.38,57.43-87.82,87.91,5.17,4.74,10.62,9.73,16.29,14.92ZM396.8,47.24c6.5,3.52,13.06,7.02,19.56,10.62,2.96,1.64,3.72,4.03,3.13,7.55-2.19,12.92,8.84,23.69,21.81,21.3,3.18-.59,5.22.14,6.71,2.72,2.65,4.59,5.29,9.2,7.72,13.91,1.07,2.08,1.62,4.43,1.94,5.33,6.78-6.8,13.62-13.66,20.2-20.25-2.52-.95-6.04-2-9.3-3.57-7.51-3.63-14.46-6.97-13.01-18.13.67-5.17,1.76-8.43,5.9-10.67,5.75-3.09,11.68-5.84,16.69-8.32-6.57-6.59-13.43-13.49-19.98-20.06-2.07,4.55-4.26,9.75-6.77,14.78-2.68,5.36-6.14,9.61-13.22,7.27-1.02-.34-2.34-.04-3.45.25-3.79,1.01-6.49-.3-8.32-3.64-2.23-4.07-4.56-8.1-6.62-12.26-1.12-2.26-1.76-4.77-2.56-7.02-7.2,7.12-14.04,13.88-20.42,20.19ZM110.25,379.72c-18.37,18.25-36.07,35.63-53.5,53.29-4.53,4.59-3.87,11.5.54,15.76,4.85,4.67,11.69,4.86,16.6.02,13.53-13.34,26.92-26.81,40.29-40.31.92-.93,1.84-2.67,1.62-3.81-1.62-8.09-3.55-16.13-5.55-24.94ZM326.82,221.11c.85.81,1.4,1.42,2.03,1.94,11.69,9.4,29.75,7.85,42.29,2.43.93-.4,1.66-2.25,1.76-3.48,1.02-13.08,12.2-27.18,24.85-28.27,7.99-.69,9.48-4.88,10.47-10.74.75-4.41,1.55-8.9,1.48-13.33-.12-7.73-1.45-15.3-6.98-21.32-2.85-3.11-6.04-5.17-10.56-3.03-4.67,2.21-2.61,5.77-2,9,2.71,14.34,1.29,27.96-7.75,39.88-9.93,13.1-23.66,18.39-39.78,17.69-7.25-.32-12.67,1.93-15.81,9.24ZM285.49,179.84c6.29-4.15,8.29-9.89,8.86-17.03.62-7.68,1.39-15.79,4.35-22.75,8.44-19.86,30.35-29.06,54.15-24.03,2.17.46,5.32,2.58,6.47-.91.9-2.72,1.64-7.1.19-8.65-3.34-3.59-7.69-7.05-12.28-8.51-10.27-3.26-20.69-1.92-30.83,1.75-2.61.94-3.33,2.37-3.46,5.11-.64,13.77-14.55,27.62-28.4,28.17-2.96.12-4.28,1.22-4.8,3.75-1.24,6-3.11,11.99-3.41,18.04-.47,9.34,1.92,18.08,9.15,25.06ZM44.94,432.69c-.95-.2-1.43-.43-1.88-.38-11.19,1.12-18.9,7.18-23.11,17.33-4.2,10.14-3.15,19.92,4,28.61.88,1.07,2.3,1.95,3.64,2.33,12.19,3.39,22.86-5.05,22.06-17.66-.23-3.57-1.06-7.39-2.7-10.53-3.26-6.28-4.1-12.57-2.01-19.69ZM327.76,163.3c.09,8.3,7.12,15.16,15.39,15.04,8.39-.13,15.45-7.49,15.23-15.87-.22-7.98-7.28-14.88-15.2-14.86-8.37.02-15.51,7.29-15.42,15.7ZM308.18,216.99c-11.69-11.29-23.15-22.37-34.69-33.52-7.72,5.46-8.55,12.57-1.72,19.54,5.36,5.47,10.81,10.85,16.23,16.27,9.57,9.57,11.33,9.4,20.18-2.29ZM158.12,364.01c-1.68-2.81-2.56-4.75-3.85-6.36-4.57-5.69-9.44-11.14-13.87-16.94-2.78-3.64-5.88-5.39-10.27-3.55-4.38,1.83-5.5,5.3-4.71,9.8,1.81,10.38,7.43,18.39,15.32,24.98,3.19,2.67,7.12,2.79,10.2.49,2.82-2.11,4.73-5.45,7.19-8.43ZM366.46,97.53c9.69,9.66,18.72,18.68,27.76,27.69,1.03,1.03,2.14,1.98,3.65,3.37,2.12-2.86,4.27-5.37,5.97-8.15,2.04-3.33,1.73-6.77-1.03-9.61-6.03-6.18-12.06-12.37-18.35-18.28-3.93-3.69-8.4-3.38-12.54.19-1.63,1.41-3.24,2.84-5.46,4.78ZM318.61,170.81c-5.99,6.01-11.64,11.6-17.2,17.27-2.55,2.6-2.33,5.39.09,7.95,2.74,2.89,5.57,5.71,8.46,8.46,2.75,2.62,5.6,2.59,8.33-.12,5.53-5.49,11.05-11,17.05-16.97-8.19-3.05-13.44-8.57-16.72-16.58ZM368.84,153.99c4.78-4.83,10.3-10.36,15.76-15.96,2.51-2.57,2.54-5.35.03-7.95-2.89-3-5.58-6.34-8.96-8.66-1.69-1.16-5.65-1.43-6.97-.26-6.09,5.36-11.6,11.37-16.45,16.26,5.53,5.52,10.8,10.79,16.6,16.57ZM407.25,208.61c-.02-3.97-2.22-5.81-6.51-5.44-7.46.65-16.91,10.15-17.55,17.63-.36,4.29,1.52,6.49,5.52,6.48,8.17-.03,18.57-10.51,18.54-18.67ZM297.11,98.74c-7.77.08-18.35,10.69-18.37,18.41-.01,3.92,2.46,6.19,6.34,5.83,7.53-.71,17.25-10.55,17.84-18.07.33-4.18-1.58-6.21-5.8-6.17Z"/><path class="cls-2" d="M165.99,355.82c-5.67-5.19-11.12-10.19-16.29-14.92,30.44-30.47,58.87-58.93,87.82-87.91,2.13,8.13,4.32,16.18,6.24,24.29.22.92-.83,2.43-1.68,3.29-24.32,24.4-48.69,48.76-73.07,73.11-.46.45-1.06.76-3.02,2.15Z"/><path class="cls-2" d="M396.8,47.24c6.38-6.31,13.22-13.07,20.42-20.19.8,2.26,1.44,4.76,2.56,7.02,2.06,4.16,4.39,8.19,6.62,12.26,1.83,3.34,4.54,4.65,8.32,3.64,1.11-.29,2.43-.59,3.45-.25,7.08,2.34,10.54-1.92,13.22-7.27,2.51-5.03,4.7-10.22,6.77-14.78,6.55,6.58,13.41,13.47,19.98,20.06-5.01,2.48-10.94,5.23-16.69,8.32-4.15,2.23-5.23,5.5-5.9,10.67-1.45,11.16,5.5,14.5,13.01,18.13,3.26,1.57,6.77,2.62,9.3,3.57-6.58,6.59-13.42,13.45-20.2,20.25-.32-.89-.86-3.25-1.94-5.33-2.43-4.71-5.07-9.32-7.72-13.91-1.49-2.58-3.53-3.31-6.71-2.72-12.97,2.39-23.99-8.37-21.81-21.3.59-3.52-.17-5.9-3.13-7.55-6.5-3.6-13.05-7.1-19.56-10.62ZM430.87,67.8c-.28,4.21,2.18,7.17,6.19,7.44,4.07.27,7.14-2.3,7.48-6.27.33-3.82-2.51-7.22-6.32-7.57-3.86-.35-7.08,2.46-7.35,6.4Z"/><path class="cls-2" d="M110.25,379.72c2,8.81,3.92,16.85,5.55,24.94.23,1.13-.69,2.88-1.62,3.81-13.37,13.5-26.76,26.97-40.29,40.31-4.91,4.84-11.75,4.65-16.6-.02-4.41-4.25-5.07-11.17-.54-15.76,17.43-17.66,35.13-35.04,53.5-53.29Z"/><path class="cls-2" d="M326.82,221.11c3.14-7.31,8.56-9.56,15.81-9.24,16.12.7,29.85-4.59,39.78-17.69,9.04-11.92,10.46-25.55,7.75-39.88-.61-3.23-2.66-6.79,2-9,4.52-2.14,7.71-.08,10.56,3.03,5.53,6.03,6.86,13.59,6.98,21.32.07,4.44-.73,8.93-1.48,13.33-1,5.86-2.48,10.05-10.47,10.74-12.65,1.09-23.83,15.19-24.85,28.27-.1,1.23-.82,3.07-1.76,3.48-12.54,5.42-30.6,6.97-42.29-2.43-.64-.51-1.19-1.13-2.03-1.94Z"/><path class="cls-2" d="M285.49,179.84c-7.23-6.98-9.62-15.72-9.15-25.06.3-6.06,2.17-12.04,3.41-18.04.52-2.53,1.84-3.63,4.8-3.75,13.84-.55,27.76-14.4,28.4-28.17.13-2.74.85-4.17,3.46-5.11,10.13-3.67,20.56-5.01,30.83-1.75,4.59,1.46,8.94,4.92,12.28,8.51,1.44,1.55.7,5.93-.19,8.65-1.15,3.49-4.3,1.37-6.47.91-23.8-5.03-45.71,4.17-54.15,24.03-2.96,6.96-3.73,15.07-4.35,22.75-.57,7.14-2.57,12.88-8.86,17.03Z"/><path class="cls-2" d="M44.94,432.69c-2.08,7.12-1.25,13.41,2.01,19.69,1.63,3.15,2.47,6.96,2.7,10.53.8,12.61-9.87,21.05-22.06,17.66-1.34-.37-2.76-1.26-3.64-2.33-7.15-8.69-8.2-18.47-4-28.61,4.21-10.15,11.92-16.21,23.11-17.33.45-.05.93.18,1.88.38Z"/><path class="cls-2" d="M327.76,163.3c-.09-8.41,7.05-15.68,15.42-15.7,7.92-.02,14.98,6.89,15.2,14.86.23,8.38-6.84,15.74-15.23,15.87-8.27.13-15.3-6.74-15.39-15.04Z"/><path class="cls-2" d="M308.18,216.99c-8.85,11.7-10.61,11.86-20.18,2.29-5.42-5.42-10.87-10.8-16.23-16.27-6.83-6.97-5.99-14.09,1.72-19.54,11.54,11.15,23,22.23,34.69,33.52Z"/><path class="cls-2" d="M158.12,364.01c-2.46,2.98-4.37,6.32-7.19,8.43-3.07,2.3-7.01,2.17-10.2-.49-7.89-6.59-13.5-14.6-15.32-24.98-.79-4.51.33-7.97,4.71-9.8,4.39-1.84,7.49-.09,10.27,3.55,4.43,5.8,9.3,11.25,13.87,16.94,1.29,1.61,2.17,3.54,3.85,6.36Z"/><path class="cls-2" d="M366.46,97.53c2.21-1.94,3.82-3.37,5.46-4.78,4.14-3.57,8.62-3.88,12.54-.19,6.29,5.91,12.32,12.1,18.35,18.28,2.77,2.83,3.07,6.28,1.03,9.61-1.7,2.78-3.85,5.29-5.97,8.15-1.51-1.39-2.61-2.34-3.65-3.37-9.05-9.01-18.08-18.03-27.76-27.69Z"/><path class="cls-2" d="M318.61,170.81c3.28,8.02,8.53,13.54,16.72,16.58-6,5.97-11.51,11.48-17.05,16.97-2.73,2.71-5.57,2.74-8.33.12-2.89-2.75-5.72-5.56-8.46-8.46-2.42-2.55-2.64-5.35-.09-7.95,5.56-5.67,11.21-11.26,17.2-17.27Z"/><path class="cls-2" d="M368.84,153.99c-5.8-5.79-11.07-11.05-16.6-16.57,4.85-4.89,10.36-10.9,16.45-16.26,1.32-1.16,5.29-.89,6.97.26,3.38,2.32,6.07,5.66,8.96,8.66,2.51,2.61,2.47,5.38-.03,7.95-5.45,5.6-10.98,11.13-15.76,15.96Z"/><path class="cls-2" d="M407.25,208.61c.04,8.16-10.37,18.65-18.54,18.67-4,.01-5.88-2.19-5.52-6.48.63-7.48,10.08-16.98,17.55-17.63,4.29-.38,6.49,1.46,6.51,5.44Z"/><path class="cls-2" d="M297.11,98.74c4.22-.04,6.13,1.99,5.8,6.17-.59,7.51-10.31,17.36-17.84,18.07-3.88.37-6.35-1.9-6.34-5.83.02-7.72,10.61-18.33,18.37-18.41Z"/><path class="cls-1" d="M430.87,67.8c.26-3.94,3.49-6.76,7.35-6.4,3.81.35,6.64,3.75,6.32,7.57-.34,3.97-3.41,6.54-7.48,6.27-4.01-.27-6.47-3.23-6.19-7.44Z"/></svg>