<?xml version="1.0" encoding="UTF-8"?><svg id="Lager_1" xmlns="http://www.w3.org/2000/svg" viewBox="0 0 111.13 109.47"><defs><style>.cls-1{fill:#a52527;}.cls-1,.cls-2{stroke-width:0px;}.cls-2{fill:#fff;}</style></defs><path class="cls-1" d="M11.94,3.32h86.4c3.17,35.19-.61,68.32-29.3,92.89-15.44,13.22-11.83,13.08-26.66.65C22.55,80.23,12.67,58.16,11.98,32.2c-.25-9.46-.04-18.93-.04-28.89ZM26.99,74.11c2.11,3.65,4.15,7.33,6.35,10.93,1.75,2.86,4.28,4.08,7.64,3.04-.43,5.86,5.56,12.13,13.89,14.38v-14.36c16.95.38,14.42,2.98,14-14,.65.09,1.3.27,1.95.26,15.5-.46,13.57,3.57,13.07-14.27,8.04.79,10.75-2.6,10.74-13.88h-10.74c0-4.71,0-9.42,0-14.12h12.58v-13.88h-12.58V5.61h-14.89v12.58c-4.71,0-9.42,0-14.12,0V5.6h-13.88v12.58c-4.71,0-9.42,0-14.13,0V5.67h-12.45v12.27c1.21.17,2.17.43,3.13.41,3.15-.04,6.29-.18,9.44-.28,0,4.71,0,9.42,0,14.13h-13.2c.48,5.03.9,9.36,1.33,13.88h11.87c0,4.71,0,9.42,0,14.12h-8.47c3.23,5.3,5.86,9.6,8.48,13.91Z"/><path class="cls-2" d="M83.89,60.07c.5,17.84,2.43,13.81-13.07,14.27-.65.02-1.3-.17-1.95-.26l.12.11c-.04-4.72-.08-9.45-.12-14.17,5.04.06,10.08.11,15.12.17,0,0-.11-.12-.11-.12Z"/><path class="cls-2" d="M83.89,32.07v14.12l.11-.12c-5.04.06-10.08.11-15.12.17.04-4.72.08-9.45.12-14.17l-.12.12h15.12l-.11-.12Z"/><path class="cls-2" d="M68.87,74.09c.42,16.98,2.95,14.38-14,14,0,0,.12.11.12.11-.04-4.72-.08-9.45-.12-14.17,4.71.06,9.42.11,14.12.17l-.12-.11Z"/><path class="cls-2" d="M26.98,32.2c0-4.71,0-9.42,0-14.13l-.11.11c4.71,0,9.42,0,14.14,0l-.12-.11c.06,4.71.11,9.42.17,14.12-4.72-.04-9.45-.08-14.17-.12l.11.12Z"/><path class="cls-2" d="M54.87,18.18c4.71,0,9.42,0,14.12,0l-.12-.11c0,4.71,0,9.41,0,14.12,0,0,.12-.12.12-.12-4.71.06-9.42.11-14.12.17.04-4.72.08-9.45.12-14.17l-.12.11Z"/><path class="cls-2" d="M26.98,60.2c0-4.71,0-9.42,0-14.12l-.11.12c4.71-.06,9.42-.11,14.12-.17,0,4.74,0,9.49,0,14.23-4.71-.06-9.42-.11-14.12-.17l.11.12Z"/><path class="cls-2" d="M69,18.18V5.61h14.89v12.59l.11-.12c-5.04,0-10.08,0-15.12,0l.12.11Z"/><path class="cls-2" d="M41,18.18V5.6h13.88c0,4.38,0,8.48,0,12.58,0,0,.12-.11.12-.11h-14.12l.12.11Z"/><path class="cls-2" d="M83.89,18.2h12.58v13.88c-4.38,0-8.48,0-12.58,0,0,0,.11.12.11.12v-14.12l-.11.12Z"/><path class="cls-2" d="M26.98,46.07h-11.87c-.43-4.52-.85-8.85-1.33-13.88,4.82,0,9.01,0,13.2,0,0,0-.11-.12-.11-.12,0,4.71,0,9.41,0,14.12l.11-.12Z"/><path class="cls-2" d="M26.97,18.06c-3.15.1-6.29.24-9.44.28-.96.01-1.92-.25-3.13-.41V5.67h12.45c0,4.1,0,8.31,0,12.51,0,0,.11-.11.11-.11Z"/><path class="cls-2" d="M54.87,88.09v14.36c-8.33-2.25-14.32-8.52-13.89-14.38l-.11.12h14.12l-.12-.11Z"/><path class="cls-2" d="M40.98,88.07c-3.36,1.04-5.89-.18-7.64-3.04-2.19-3.59-4.24-7.28-6.35-10.93l-.12.08c4.72-.04,9.45-.08,14.17-.12-.06,4.71-.11,9.42-.17,14.12l.11-.12Z"/><path class="cls-2" d="M83.89,46.2h10.74c.01,11.27-2.7,14.66-10.74,13.88,0,0,.11.12.11.12v-14.12l-.11.12Z"/><path class="cls-2" d="M26.99,74.11c-2.63-4.31-5.25-8.61-8.48-13.91,3.98,0,6.23,0,8.47,0,0,0-.11-.12-.11-.12,0,4.71,0,9.41,0,14.12l.12-.08Z"/><path class="cls-1" d="M83.99,46.08v14.12c-5.04-.06-10.08-.11-15.12-.17,0,0,.14.18.14.18,0-4.71,0-9.43,0-14.14l-.14.18c5.04-.06,10.08-.11,15.12-.17Z"/><path class="cls-1" d="M68.99,74.19c-4.71-.06-9.42-.11-14.12-.17,0,0,.14.18.14.18,0-4.71,0-9.43,0-14.14l-.14.14h14.14s-.14-.18-.14-.18c.04,4.72.08,9.45.12,14.17Z"/><path class="cls-1" d="M83.99,18.08v14.12h-15.12c0-4.71,0-9.41,0-14.12,5.04,0,10.08,0,15.12,0Z"/><path class="cls-1" d="M54.87,32.25c4.71-.06,9.42-.11,14.12-.17-.04,4.72-.08,9.45-.12,14.17,0,0,.14-.18.14-.18-4.71,0-9.43,0-14.14,0l.14.14v-14.14l-.14.18Z"/><path class="cls-1" d="M40.88,88.19c.06-4.71.11-9.42.17-14.12,0,0-.18.14-.18.14,4.71,0,9.43,0,14.14,0,0,0-.14-.18-.14-.18.04,4.72.08,9.45.12,14.17h-14.12Z"/><path class="cls-1" d="M40.88,18.08h14.12c-.04,4.72-.08,9.45-.12,14.17,0,0,.14-.18.14-.18-4.71,0-9.43,0-14.14,0l.18.14c-.06-4.71-.11-9.42-.17-14.12Z"/><path class="cls-1" d="M26.88,46.19c0-4.71,0-9.41,0-14.12,4.72.04,9.45.08,14.17.12,0,0-.18-.14-.18-.14v14.14l.14-.18c-4.71.06-9.42.11-14.12.17Z"/><path class="cls-1" d="M26.88,74.19c0-4.71,0-9.41,0-14.12,4.71.06,9.42.11,14.12.17l-.14-.18v14.14s.18-.14.18-.14c-4.72.04-9.45.08-14.17.12Z"/><path class="cls-1" d="M41,60.25c0-4.74,0-9.49,0-14.23,0,0-.14.18-.14.18,4.71,0,9.43,0,14.14,0,0,0-.14-.14-.14-.14,0,4.71,0,9.43,0,14.14,0,0,.14-.14.14-.14-4.71,0-9.43,0-14.14,0l.14.18Z"/><path class="cls-2" d="M54.86,60.2c0-4.71,0-9.43,0-14.14,4.71,0,9.43,0,14.14,0,0,4.71,0,9.43,0,14.14-4.71,0-9.42,0-14.14,0Z"/><path class="cls-2" d="M40.86,60.07c4.71,0,9.43,0,14.14,0,0,4.71,0,9.43,0,14.14-4.71,0-9.43,0-14.14,0,0-4.71,0-9.42,0-14.14Z"/><path class="cls-2" d="M55,46.2c-4.71,0-9.43,0-14.14,0,0-4.71,0-9.43,0-14.14,4.71,0,9.43,0,14.14,0,0,4.71,0,9.42,0,14.14Z"/></svg>