<?xml version="1.0" encoding="utf-8"?>
<!-- Generator: Adobe Illustrator 27.6.1, SVG Export Plug-In . SVG Version: 6.00 Build 0)  -->
<svg version="1.1" id="Lager_1" xmlns="http://www.w3.org/2000/svg" xmlns:xlink="http://www.w3.org/1999/xlink" x="0px" y="0px"
	 viewBox="0 0 24 24" style="enable-background:new 0 0 24 24;" xml:space="preserve">
<style type="text/css">
	.st0{fill:#2B3B87;}
</style>
<path class="st0" d="M23.5,5.7h-1.3c-0.1,0-0.2,0.1-0.2,0.2v0.4h-4.3V5.9c0-0.3-0.3-0.6-0.6-0.6H17V4.8c0-0.1-0.1-0.2-0.2-0.2
	s-0.2,0.1-0.2,0.2v0.5h-0.9V4.8c0-0.1-0.1-0.2-0.2-0.2s-0.2,0.1-0.2,0.2v0.5h-0.9V4.8c0-0.1-0.1-0.2-0.2-0.2S14,4.7,14,4.8v0.5h-0.1
	c-0.3,0-0.6,0.3-0.6,0.6v0.4h-1.4l0,0h-3c-1.4,0-2.7-0.6-3.6-1.8L4.2,3.1l0,0c-0.4-0.8-1-1.3-1.5-1.3c-1.3,0-2.4,2.5-2.4,5.6
	s1,5.6,2.4,5.6c0.6,0,1.1-0.5,1.5-1.3l1.2-1.5C6,9.5,6.8,8.9,7.7,8.6c-0.4,0.4-0.6,1-0.6,1.6c-0.2,2.1,1.2,4.1,3.3,4.6V22
	c0,0.1,0.1,0.2,0.3,0.2h0.1l3.3-2l3.3,2h0.1c0.1,0,0.2-0.1,0.2-0.2v-7.2c1.9-0.4,3.3-2.2,3.3-4.1c0-0.8-0.1-1.5-0.5-2.2H22v0.4
	c0,0.1,0.1,0.2,0.2,0.2h1.2c0.1,0,0.2-0.1,0.2-0.2v-3C23.8,5.8,23.6,5.7,23.5,5.7z M16.3,5.7h0.4h0.1h0.3c0.1,0,0.1,0.1,0.1,0.1v0.4
	h-0.9V5.7z M14.9,5.7h0.4h0.1h0.4v0.6h-0.9V5.7z M13.5,5.9c0-0.1,0-0.1,0.1-0.1h0.3H14h0.4v0.6h-0.9L13.5,5.9z M3.8,11.2
	c-0.1,0-0.1,0.1-0.2,0.1c-0.7,0-1.4-1.6-1.4-3.9c0-0.6,0-1.1,0.1-1.6c0-0.1-0.1-0.3-0.2-0.3l0,0C2,5.3,1.9,5.4,1.8,5.6l0,0
	C1.7,6.1,1.7,6.7,1.7,7.3c0,2.5,0.8,4.3,1.8,4.4c-0.3,0.4-0.6,0.7-0.9,0.7c-0.9,0-1.9-2.1-1.9-5.1s1-5.1,1.9-5.1
	c0.3,0,0.6,0.2,0.9,0.7c-0.5,0-1,0.5-1.3,1.4c0,0.1,0,0.3,0.1,0.3s0.3,0,0.3-0.1l0,0c0.3-0.7,0.6-1.1,0.9-1.1c0.1,0,0.2,0,0.2,0.1
	C4.3,4.7,4.5,6,4.5,7.3S4.3,9.9,3.8,11.2L3.8,11.2z M17.2,14.6v7l-3-1.8c-0.1,0-0.2,0-0.3,0l-3.1,1.8v-8.5c0.2,0,0.3,0.1,0.5,0.1
	v7.1c0,0.1,0.1,0.3,0.2,0.3h0.1l2.3-1.3l2.3,1.3c0.1,0.1,0.3,0,0.3-0.1v-0.1v-7.1c0.2,0,0.3,0,0.5-0.1L17.2,14.6z M17.4,12.5
	L17.4,12.5c-0.3,0.1-0.5,0.1-0.8,0.1h-5.2c-1.1,0-2.1-0.9-2.1-2.1c0-0.1,0-0.1,0-0.2c0.2-1.1,1.1-1.9,2.2-1.9h5.1
	c1.1,0,2.1,0.9,2.1,2.1C18.7,11.4,18.2,12.2,17.4,12.5L17.4,12.5z M23.3,8.6h-0.8V8.3l0,0l0,0V6.6V6.5V6.2h0.8V8.6z"/>
</svg>
