<?xml version="1.0" encoding="utf-8"?>
<!-- Generator: Adobe Illustrator 27.6.1, SVG Export Plug-In . SVG Version: 6.00 Build 0)  -->
<svg version="1.1" id="Lager_1" xmlns="http://www.w3.org/2000/svg" xmlns:xlink="http://www.w3.org/1999/xlink" x="0px" y="0px"
	 viewBox="0 0 100 106.6" style="enable-background:new 0 0 100 106.6;" xml:space="preserve">
<style type="text/css">
	.st0{display:none;}
	.st1{display:inline;}
	.st2{fill:#2B3B87;}
</style>
<g class="st0">
	<path class="st1" d="M1068.8,1194.7H-169c-2.1,0-3.8-1.7-3.8-3.8V3.8c0-2.1,1.7-3.8,3.8-3.8h1237.8c2.1,0,3.8,1.7,3.8,3.8V1191
		C1072.6,1193,1070.9,1194.7,1068.8,1194.7z"/>
</g>
<g>
	<g>
		<path class="st2" d="M31.6,34.1c10.4,0,17.3-2.9,19-5.4V20v-0.2c-0.1,0.1-0.2,0.1-0.3,0.2c-4.5,2.6-11.6,4-18.7,4
			c-7.1,0-14.2-1.4-18.7-4c-0.1-0.1-0.2-0.1-0.3-0.2V20v8.7C14.3,31.3,21.2,34.1,31.6,34.1z"/>
		<path class="st2" d="M31.6,19.5c11.4,0,19-3.7,19-6.2c0-2.5-7.6-6.2-19-6.2s-19,3.7-19,6.2S20.2,19.5,31.6,19.5z"/>
		<path class="st2" d="M93,82L93,82v-7.8c-4,2.5-10.4,4-16.8,4.2V82v6.1C86.3,87.7,93,84.3,93,82z"/>
		<path class="st2" d="M75.7,60.9c0,0.1,0.1,0.1,0.1,0.2c9.3-0.3,15.5-3,17.1-5.4v-8.9c-4.5,2.7-11.8,4.1-19,4.1
			c-7.2,0-14.5-1.4-19-4.1v5.7C64.5,52.9,73.7,55.8,75.7,60.9z"/>
		<path class="st2" d="M33.7,63.1c0,2.5,7.6,6.2,19,6.2c11.4,0,19-3.7,19-6.2s-7.6-6.2-19-6.2C41.3,56.9,33.7,60.6,33.7,63.1z"/>
		<path class="st2" d="M73.9,46.6c11.4,0,19-3.7,19-6.2s-7.6-6.2-19-6.2s-19,3.7-19,6.2S62.5,46.6,73.9,46.6z"/>
		<path class="st2" d="M71.7,78.5v-8.9c-4.5,2.7-11.8,4.1-19,4.1s-14.5-1.4-19-4.1v8.9c1.7,2.6,8.6,5.4,19,5.4S70,81,71.7,78.5z"/>
		<path class="st2" d="M29.3,88.1V82v-3.2c-6.4-0.3-12.8-1.7-16.7-4.2V82l0,0C12.6,84.3,19.2,87.6,29.3,88.1z"/>
		<path class="st2" d="M29.3,75.2v-6.6V65c-6.4-0.3-12.8-1.7-16.7-4.2v9C14.2,72.2,20.2,74.8,29.3,75.2z"/>
		<path class="st2" d="M31.6,47.8c10.2,0,17-2.8,18.9-5.3l0.1-9.2c-4.4,2.8-11.9,4.3-19,4.3c-7.2,0-14.6-1.5-19-4.3v9
			C14.3,45,21.2,47.8,31.6,47.8z"/>
		<path class="st2" d="M29.4,61.5c0.1-0.2,0.2-0.4,0.3-0.6c2-5.2,11.2-8,20.8-8.4v-5.4c-4.4,2.8-11.8,4.2-18.9,4.2
			c-7.2,0-14.6-1.5-19-4.3v9C14.2,58.5,20.3,61.1,29.4,61.5z"/>
		<path class="st2" d="M33.7,91L33.7,91c0,2.5,7.6,6.2,19,6.2c11.4,0,19-3.7,19-6.2l0,0v-7.8c-4.4,2.8-11.9,4.3-19,4.3
			c-7.2,0-14.6-1.5-19-4.3C33.7,83.1,33.7,91,33.7,91z"/>
		<path class="st2" d="M93,60.4c-4,2.5-10.4,4-16.8,4.2v10.2c9.1-0.4,15.2-3,16.8-5.4V60.4z"/>
	</g>
</g>
</svg>
