<?xml version="1.0" encoding="utf-8"?>
<!-- Generator: Adobe Illustrator 27.6.1, SVG Export Plug-In . SVG Version: 6.00 Build 0)  -->
<svg version="1.1"
	 id="Lager_1" xmlns:svg="http://www.w3.org/2000/svg" xmlns:cc="http://creativecommons.org/ns#" xmlns:dc="http://purl.org/dc/elements/1.1/" xmlns:rdf="http://www.w3.org/1999/02/22-rdf-syntax-ns#"
	 xmlns="http://www.w3.org/2000/svg" xmlns:xlink="http://www.w3.org/1999/xlink" x="0px" y="0px" viewBox="0 0 100 50.7"
	 style="enable-background:new 0 0 100 50.7;" xml:space="preserve">
<style type="text/css">
	.st0{fill:#D54848;}
</style>
<g transform="translate(0,-952.36218)">
	<path class="st0" d="M28.4,960c-7.5,0.1-16.5,1.5-20.8,8.4c-4.3,6.9-3,16.1,1.1,22.8c3.6,5.7,11.1,7.1,17.4,6.1
		c7.7-1.2,16-3.6,21.1-9.5c2.5-2.9,4.4-2.1,6.7,0.1c7.5,7,18.8,11.2,29.2,8.7c7-1.7,11.7-8.7,11.8-15.9c0.1-7.5-3.5-15.6-10.9-18.3
		c-8.7-3.2-18.2-2.7-27-1c-4.4,0.9-8.7,1.2-13,0.1C39,960.2,33.7,959.9,28.4,960L28.4,960z M69.7,973.2c4.3-0.2,7.8,2.2,11.5,4
		c-6.5,3.7-11.6,6.9-21.6,1.1C63.5,974.7,66.8,973.3,69.7,973.2L69.7,973.2z M30.7,973.7c4.5-0.2,8.9,1.9,12.6,5.2
		c-6.2,3.4-14.2,5.7-21.7-1.2C24.5,975.1,27.6,973.9,30.7,973.7L30.7,973.7z"/>
</g>
</svg>
