<?xml version="1.0" encoding="UTF-8"?><svg id="Lager_1" xmlns="http://www.w3.org/2000/svg" viewBox="0 0 127.36 125.87"><defs><style>.cls-1{fill:#5890ac;stroke-width:0px;}</style></defs><path class="cls-1" d="M25.98,77.62c24.02-3.93,38.41-18.41,42.14-42.3,3.75,23.96,18.17,38.42,42.96,42.43-11.21,1.02-21.13,5.52-29.28,13.7-8.13,8.16-12.58,18.08-13.57,29.22-3.86-24.65-18.25-39.1-42.26-43.05Z"/><path class="cls-1" d="M7.35,42.42c8.43-1.45,13.97-6.02,15.71-14.59,1.75,8.6,7.34,13.13,15.73,14.6-8.43,1.47-13.99,6-15.72,14.64-1.73-8.62-7.3-13.16-15.72-14.65Z"/><path class="cls-1" d="M95.41,32.41c-1.29-6.32-4.56-10.34-10.81-11.78,6.27-1.41,9.53-5.48,10.82-11.8,1.3,6.31,4.55,10.43,10.89,11.79-6.33,1.37-9.58,5.5-10.9,11.78Z"/><path class="cls-1" d="M29.34,91.17c.97,3.55,3.16,5.47,6.7,6.27-3.46.86-5.76,2.7-6.68,6.31-.93-3.57-3.18-5.45-6.7-6.28,3.52-.87,5.78-2.71,6.68-6.29Z"/><path class="cls-1" d="M41.93,5.2c.8,2.61,2.36,3.97,4.91,4.66-2.43.83-4.18,2.08-4.89,4.83-.79-2.67-2.42-4.06-4.98-4.8,2.59-.73,4.21-2.11,4.96-4.7Z"/><path class="cls-1" d="M120.02,52.76c-2.76.93-3.62,1.74-4.79,4.56-.71-2.47-2.32-3.89-5-4.59,2.63-.73,4.3-2.15,4.99-4.64,1.16,2.74,1.39,2.97,4.8,4.67Z"/><path class="cls-1" d="M107.84,110.7c-1.95.65-3.26,1.66-3.84,3.76-.65-2.04-1.9-3.15-3.93-3.75,2.02-.62,3.31-1.72,3.86-3.61,1.11,2.26,1.64,2.77,3.91,3.6Z"/></svg>