<?xml version="1.0" encoding="UTF-8"?><svg id="Lager_1" xmlns="http://www.w3.org/2000/svg" viewBox="0 0 271 256.28"><defs><style>.cls-1{fill:#2b3b87;}.cls-1,.cls-2{stroke-width:0px;}.cls-2{fill:#fff;}</style></defs><path class="cls-1" d="M248.88,239.48H22.48v-89.54h1.55c26.48,0,52.95,0,79.43,0,3.54,0,5.11-1.57,5.11-5.11,0-10.16,0-20.32,0-30.48,0-3.09-1.64-4.72-4.73-4.73-2.83,0-5.66,0-8.56,0v-17.68h80.8v17.62c-.4.02-.82.06-1.24.06-2.6,0-5.2,0-7.8,0-2.94.01-4.71,1.75-4.71,4.7-.01,8.32,0,16.64,0,24.96,0,1.92,0,3.84,0,5.76.01,3.15,1.76,4.9,4.91,4.9,26.68,0,53.35,0,80.03,0h1.62v89.54ZM174.25,237.5c.03-.35.07-.58.07-.81,0-7.2.09-14.4-.02-21.59-.18-11.64-4.11-21.83-12.33-30.17-12-12.16-29.8-14.86-44.12-6.44-13.73,8.07-20.17,20.61-20.76,36.26-.27,7.15-.05,14.31-.04,21.47,0,.42.04.84.06,1.28h77.14ZM68.39,205.56c0-7.9.18-15.66-.06-23.41-.16-5.39-4.43-8.69-10.17-8.44-4.84.22-8.42,4.15-8.43,9.27,0,7.08,0,14.15,0,21.23v1.35h18.66ZM203.61,205.53h18.68c0-.41,0-.73,0-1.04,0-7.2.01-14.39,0-21.59-.01-5.41-3.88-9.2-9.36-9.2-5.47,0-9.31,3.81-9.31,9.24,0,7.08,0,14.15,0,21.23,0,.43,0,.86,0,1.36Z"/><path class="cls-1" d="M131.6,60.18h8.6c0,2.66.13,5.3-.03,7.91-.3,4.87,2.03,6.32,6.17,6.21,5.52-.14,11.04.01,16.56-.07,1.15-.02,2.4-.31,3.4-.85,1.56-.85,1.87-2.48,1.86-4.16,0-2.56,0-5.12,0-7.68,0-.43,0-.86,0-1.36h8.44v23.03h-81.88v-23.01h8.97v3.81c0,1.72,0,3.44,0,5.16,0,3.45,1.58,5.07,5.05,5.09,4.6.03,9.2,0,13.8,0,1.52,0,3.04.06,4.56-.02,2.96-.15,4.5-1.81,4.51-4.78.01-2.68,0-5.36,0-8.04v-1.25Z"/><path class="cls-1" d="M99.99,141.31H18.13v-23.06h8.92v2.38c0,2.32,0,4.64,0,6.96,0,3.02,1.7,4.73,4.78,4.75,4.84.03,9.68,0,14.52,0,1.32,0,2.64.02,3.96,0,2.96-.07,4.66-1.81,4.66-4.76,0-3.07,0-6.15,0-9.31h8.64c0,3.15,0,6.22,0,9.29,0,3.06,1.63,4.76,4.71,4.78,6.12.03,12.24.03,18.36,0,3.12-.01,4.8-1.74,4.81-4.85,0-3.04,0-6.07,0-9.21h8.5v23.03Z"/><path class="cls-1" d="M207.85,118.25h8.58c.02.45.06.87.06,1.29,0,2.84-.01,5.68,0,8.52.01,2.25,1.55,3.93,3.79,4.2.44.05.88.07,1.32.07,5.88,0,11.76,0,17.64,0,3.51,0,5.13-1.63,5.13-5.13,0-2.96,0-5.91,0-8.95h8.51v23.02h-81.88v-23h8.93c0,1.48,0,2.95,0,4.41,0,1.64,0,3.28,0,4.92.01,2.96,1.69,4.68,4.69,4.71,3.56.04,7.12.01,10.68.01,2.56,0,5.12.02,7.68,0,3.18-.02,4.87-1.74,4.87-4.92,0-3.03,0-6.07,0-9.17Z"/><path class="cls-1" d="M123.05,65.64h-10.8c0-.48,0-.91,0-1.34,0-2.64.01-5.28,0-7.92,0-.6.08-1.32-.21-1.76-.8-1.21-.17-2.03.46-2.97,7.53-11.31,15.04-22.63,22.56-33.95.19-.29.42-.56.68-.91,2.37,3.57,4.68,7.07,7,10.56,5.62,8.46,11.23,16.91,16.86,25.36.38.57.58,1.04.26,1.74-.23.52-.24,1.17-.24,1.76-.02,3.11-.01,6.22-.01,9.41h-10.74c-.02-.42-.06-.85-.06-1.27,0-2.68.01-5.36,0-8.04-.02-3.04-1.75-4.77-4.76-4.77-5.44,0-10.88,0-16.32,0-2.96,0-4.66,1.71-4.67,4.71-.01,2.68,0,5.36,0,8.04v1.35Z"/><path class="cls-2" d="M174.25,237.5h-77.14c-.02-.44-.06-.86-.06-1.28,0-7.16-.23-14.32.04-21.47.59-15.65,7.03-28.19,20.76-36.26,14.32-8.42,32.12-5.72,44.12,6.44,8.22,8.33,12.15,18.53,12.33,30.17.11,7.2.02,14.39.02,21.59,0,.23-.04.47-.07.81Z"/><path class="cls-2" d="M68.39,205.56h-18.66v-1.35c0-7.08,0-14.15,0-21.23,0-5.11,3.58-9.05,8.43-9.27,5.74-.26,10.01,3.04,10.17,8.44.24,7.75.06,15.5.06,23.41Z"/><path class="cls-2" d="M203.61,205.53c0-.5,0-.93,0-1.36,0-7.08,0-14.15,0-21.23,0-5.43,3.84-9.24,9.31-9.24,5.48,0,9.35,3.79,9.36,9.2.02,7.2,0,14.39,0,21.59,0,.32,0,.63,0,1.04h-18.68Z"/></svg>