<?xml version="1.0" encoding="utf-8"?>
<!-- Generator: Adobe Illustrator 27.6.1, SVG Export Plug-In . SVG Version: 6.00 Build 0)  -->
<svg version="1.1" id="Lager_1" xmlns="http://www.w3.org/2000/svg" xmlns:xlink="http://www.w3.org/1999/xlink" x="0px" y="0px"
	 viewBox="0 0 100 96.2" style="enable-background:new 0 0 100 96.2;" xml:space="preserve">
<style type="text/css">
	.st0{fill:#A52527;}
	.st1{fill:#2B3B87;}
</style>
<g>
	<g>
		<path class="st0" d="M51.1,85h-2.2l-45-50.9l0-2l15-17l1.1-0.5h60l1.1,0.5l15,17l0,2L51.1,85z M7,33.1l43,48.7l43-48.7L79.3,17.5
			H20.7L7,33.1z"/>
	</g>
	<g>
		<polygon class="st0" points="35,34.6 5,34.6 5,31.6 31.7,31.6 18.9,17 21.1,15 36.1,32.1 		"/>
	</g>
	<g>
		<path class="st0" d="M65,34.6H35l-1.1-2.5l15-17h2.3l15,17L65,34.6z M38.3,31.6h23.4L50,18.3L38.3,31.6z"/>
	</g>
	<g>
		<polygon class="st0" points="95,34.6 65,34.6 63.9,32.1 78.9,15 81.1,17 68.3,31.6 95,31.6 		"/>
	</g>
	<g>
		<rect x="31" y="57" transform="matrix(0.2826 -0.9592 0.9592 0.2826 -14.887 97.138)" class="st0" width="53.1" height="3"/>
	</g>
	<g>
		<rect x="41" y="32" transform="matrix(0.9592 -0.2826 0.2826 0.9592 -14.8048 14.3945)" class="st0" width="3" height="53.1"/>
	</g>
</g>
<path class="st1" d="M50,78.7L50,78.7L37,34.6h13v-3H38.3L50,18.3v-3.8H20L18.9,15l-15,17l0,2l45,50.9H50V78.7z M46.7,17.5L35,30.8
	L23.3,17.5H46.7z M20,18.3l11.7,13.3H8.3L20,18.3z M8.3,34.6h25.5l12.8,43.4L8.3,34.6z"/>
</svg>
