<?xml version="1.0" encoding="utf-8"?>
<!-- Generator: Adobe Illustrator 28.2.0, SVG Export Plug-In . SVG Version: 6.00 Build 0)  -->
<svg version="1.1" id="Lager_1" xmlns="http://www.w3.org/2000/svg" xmlns:xlink="http://www.w3.org/1999/xlink" x="0px" y="0px"
	 viewBox="0 0 151.4 153.3" style="enable-background:new 0 0 151.4 153.3;" xml:space="preserve">
<style type="text/css">
	.st0{fill:#5890AC;}
</style>
<path class="st0" d="M144.1,105.5c-3.9-6.5-7.5-12.7-11.3-18.9C127.9,78.4,122,71,114.5,65c-3.4-2.7-6.3-2.4-11-1.3
	c-9.2,2.1-13.1,9.3-18.5,14.8c-21.2,21.4-41.9,43.3-62.8,65c-4.6,4.8-4.7,4.8-9.4,0c-7.9-8-8.1-6.3,0.1-14.2
	c24.6-23.7,49.2-47.4,74-70.8c3.4-3.2,2.3-8.4,6.1-11.2c0.2-0.2-0.7-2-1.3-3c-8.7-16.2-23.1-24.8-39.9-30.3c-2.6-0.9-4.5-1.7-4-5.1
	c0.4-2.2,1-2.9,3.2-1.9c19.1,8.2,38.8,15.2,53.8,30.6c1.6,1.7,2.5,1.1,3.5-0.2c2.2-2.8,4-2.1,5.9,0.3c2.1,2.6,7.1,4.5,1.8,8.9
	c-2.2,1.8,0.8,2.7,1.8,3.6c15.8,14.8,23.2,33.7,26.9,54.5C144.8,104.5,144.5,104.8,144.1,105.5L144.1,105.5z"/>
</svg>
