<?xml version="1.0" encoding="UTF-8"?><svg id="Lager_1" xmlns="http://www.w3.org/2000/svg" viewBox="0 0 1024 1024"><defs><style>.cls-1{fill:#2b3c87;}</style></defs><path class="cls-1" d="M590.09,493.66l2.63-3.73,95.09-256.55c-11.06-13.45-5.47-34.39,12.13-38.06l-11.5-50.43,1.66-9.67c21.71-27.18,43.03-54.82,65.36-81.49,3.22-3.84,18.03-22.38,20.73-23.23,4.58-1.45,8.45.33,10.74,4.42l.6,129.51c-.93,3.79-2.54,7.03-4.9,10.13-9.97,13.05-28.21,24.52-39.38,37.02-1.08,2.41,1.52,7.26,1.82,10.89.74,9.02-2.08,17.49-10.06,22.41s-15.42.12-15.42,12.9l245.79,90.12c3.97,1.9,6.07,6.58,4.89,10.8l-100.2,82.6,24.04,120.19c.49,3.71-1.54,7.37-5.1,8.61l-252.66-91.46-44.77,122.32c-5.18,50.69-15.03,99.97-36.34,146.35-5.95,12.94-16.66,27.83-21.46,39.82-4.97,12.41-8.36,29.47-12.75,42.75-16.39,49.46-32.94,98.85-49.45,148.27-6.11,16.29-31.72,19.57-38.12,2.29-2.55-6.89-1.44-10.29.22-17.06,6.14-25.06,19.73-65.47,29.83-89.27.77-1.81,6.8-12.2,6.33-12.74-28.76,22.04-58.02,48.5-90.56,64.95-13.88,7.02-15.75,7.22-30.1.79-25.44-11.4-59.26-36.38-80.54-54.74-126.52-109.17-139.64-244.26-132.94-403.54.25-5.96.52-16.36,1.42-21.7,1.57-9.33,8-11.81,16.12-13.95,12.4-3.27,26.38-4.36,39.12-7.13,57.04-12.43,112.43-30.17,166.43-52.1,17.4-3.05,48.73,13.1,66.52,19.16,28.97,9.87,59.22,19.22,88.9,26.72,16.6,4.2,52.39,8.82,65.49,15.45,3.48,1.76,6.32,4.77,7.74,8.45,1.21,3.14,2.66,14.8,2.66,18.15v31.8ZM728.84,295.95l-21.91-6.93-57.78,157.11,20.72,7.06,58.98-157.24Z"/></svg>