<?xml version="1.0" encoding="utf-8"?>
<!-- Generator: Adobe Illustrator 27.6.1, SVG Export Plug-In . SVG Version: 6.00 Build 0)  -->
<svg version="1.1" id="Lager_1" xmlns="http://www.w3.org/2000/svg" xmlns:xlink="http://www.w3.org/1999/xlink" x="0px" y="0px"
	 viewBox="0 0 512 518.3" style="enable-background:new 0 0 512 518.3;" xml:space="preserve">
<style type="text/css">
	.st0{fill:#EFBD29;}
</style>
<path class="st0" d="M432,328v-96h-96v72c2.8,7.8,4.8,15.8,6.1,24H432z M384,248c17.7,0,32,14.3,32,32s-14.3,32-32,32
	s-32-14.3-32-32C352,262.3,366.3,248,384,248z"/>
<path class="st0" d="M175.9,264c33.7,0,62.3-10.6,82.6-30.5c19-18.7,29.4-44.8,29.4-73.5s-10.5-54.8-29.4-73.5
	c-20.3-20-48.8-30.5-82.6-30.5s-62.3,10.6-82.6,30.5c-19,18.7-29.4,44.8-29.4,73.5s10.5,54.8,29.4,73.5
	C113.6,253.4,142.2,264,175.9,264z M223.9,136c4.4,0,8,3.6,8,8s-3.6,8-8,8s-8-3.6-8-8S219.5,136,223.9,136z M127.9,136
	c4.4,0,8,3.6,8,8s-3.6,8-8,8c-4.4,0-8-3.6-8-8S123.5,136,127.9,136z M119.9,180c4.4,0,8,3.6,8,8c0,17.8,17.3,32.6,40,35.5v-25.4
	c-0.8-0.4-1.7-0.9-2.4-1.5l-13.6-9.7c-5.1-3.7-8-9.5-8-15.8c0-10.6,8.3-19.2,18.4-19.2h27.2c10.2,0,18.4,8.6,18.4,19.2
	c0,6.2-2.9,12.1-8,15.8l0,0l-13.6,9.7c-0.8,0.5-1.6,1-2.4,1.5v25.4c22.7-2.9,40-17.7,40-35.5c0-4.4,3.6-8,8-8s8,3.6,8,8
	c0,28.7-28.7,52-64,52s-64-23.3-64-52C111.9,183.6,115.5,180,119.9,180C119.9,180,119.9,180,119.9,180z"/>
<circle class="st0" cx="384" cy="280" r="16"/>
<path class="st0" d="M177,183.6l13.6-9.7c0.8-0.7,1.3-1.7,1.3-2.8c0-1.7-1.1-3.2-2.4-3.2h-27.2c-1.3,0-2.4,1.4-2.4,3.2
	c0,1.1,0.4,2.1,1.3,2.8l13.6,9.7C175.4,184.1,176.4,184.1,177,183.6z"/>
<path class="st0" d="M233.5,269c17.9,21,28.9,51,30.3,83.6c15.4,2.1,29.1,10.4,39.2,22.6c13.6-3.1,23.6-14.6,24.8-28.5l-0.7-10.3
	c-4.3-39.3-25.9-69.2-62.5-86.8C255.3,257.7,244.8,264.2,233.5,269z"/>
<path class="st0" d="M292.1,106.5c19.1-11.2,25.5-35.7,14.3-54.7s-35.7-25.5-54.7-14.3c-6.2,3.6-11.3,8.8-14.8,15.1
	c12.1,5.6,23.2,13.2,32.7,22.5C278.9,84.2,286.5,94.8,292.1,106.5z"/>
<polygon class="st0" points="384,157.9 343.4,216 424.6,216 "/>
<path class="st0" d="M114.9,52.6c-10.7-19.3-35.1-26.2-54.4-15.5S34.2,72.2,45,91.5c3.5,6.3,8.6,11.5,14.8,15.1
	c5.6-11.7,13.2-22.3,22.4-31.4C91.7,65.8,102.7,58.1,114.9,52.6z"/>
<ellipse class="st0" cx="256" cy="424" rx="48" ry="56"/>
<path class="st0" d="M344,408v-32h-12.4c-5.3,6-12.1,10.5-19.6,13.2c2.9,6,5.1,12.3,6.4,18.8H344z"/>
<path class="st0" d="M247.8,352.6c-1.5-31.4-12.7-59.8-30.8-77.9c-13.4,3.6-27.2,5.4-41.1,5.3c-13.8,0.1-27.6-1.7-41-5.3
	c-18,18.2-29.2,46.7-30.7,77.9c31.4,4.5,55.8,34.8,55.8,71.4c0,11.8-2.6,23.5-7.7,34.2c14.8,7.8,32.5,7.8,47.4,0
	c-5.1-10.7-7.7-22.3-7.7-34.2C192,387.4,216.4,357.1,247.8,352.6z"/>
<ellipse class="st0" cx="96" cy="424" rx="48" ry="56"/>
<path class="st0" d="M392,440h96v-96h-96V440z M408.8,412.4l24-48c2-4,6.8-5.6,10.7-3.6c1.5,0.8,2.8,2,3.6,3.6l24,48
	c2,4,0.4,8.8-3.6,10.7c-1.1,0.6-2.3,0.8-3.6,0.8h-48c-4.4,0-8-3.6-8-8C408,414.8,408.3,413.5,408.8,412.4z"/>
<path class="st0" d="M88.2,352.6c1.5-32.4,12.4-62.5,30.3-83.5c-11.4-4.8-21.9-11.3-31.2-19.4c-36.6,17.6-58.2,47.4-62.5,86.7
	L24,346.7c1.2,14,11.3,25.5,25,28.6C59,363,72.7,354.7,88.2,352.6z"/>
<polygon class="st0" points="440,385.9 428.9,408 451.1,408 "/>
<path class="st0" d="M343.8,346.1c0,0.4,0,0.7,0,1.1c-0.3,4.4-1.2,8.7-2.6,12.8H352c4.4,0,8,3.6,8,8v48c0,4.4-3.6,8-8,8h-32
	c0,5.4-0.5,10.7-1.6,16H376v-96h-32.3L343.8,346.1z"/>
</svg>
