<?xml version="1.0" encoding="utf-8"?>
<!-- Generator: Adobe Illustrator 27.6.1, SVG Export Plug-In . SVG Version: 6.00 Build 0)  -->
<svg version="1.1" id="Lager_1" xmlns="http://www.w3.org/2000/svg" xmlns:xlink="http://www.w3.org/1999/xlink" x="0px" y="0px"
	 viewBox="0 0 512 517.3" style="enable-background:new 0 0 512 517.3;" xml:space="preserve">
<style type="text/css">
	.st0{fill:#2B3B87;}
</style>
<g>
	<g>
		<path class="st0" d="M424.1,211.2c-20.4-55.5,4.7-80.5,26.2-102.9l18.3-19L363.7,0.6c-0.1,0.1-0.2,0.2-0.3,0.3
			c-0.3-0.3-0.6-0.6-1-0.8c-0.3,0.3-0.7,0.7-1,1h1.8c-10.3,11-25.2,40.4-51.5,40.4c-26.1,0-43.7-29.4-55.6-40V1.1
			c-0.1,0.1-0.1,0.1-0.2,0.2c0,0,0,0-0.1,0v0.1c-12,10.7-29.5,40-55.7,40c-26.1,0-40.8-28.8-51.2-40.1h1.5c-0.3-0.3-0.7-0.7-1-1
			c-0.3,0.2-0.5,0.5-0.8,0.7c-0.2-0.2-0.3-0.3-0.5-0.5L43.4,89.1l18.3,19.1c21.5,22.4,46.6,47.4,26.2,102.9
			c-18.1,49.2-47.3,77.7-47.3,116.7c0,69.6,44.6,120.9,122.3,140.7c55.9,14.2,64.3,20.3,92.9,43.5c0,0,0.1,0,0.1-0.1
			c0.1,0.1,0.1,0.1,0.2,0.2c28.6-23.2,37-29.2,92.9-43.5c77.7-19.8,122.3-71,122.3-140.7C471.4,288.9,442.3,260.4,424.1,211.2z
			 M304.5,331.2L256,305.5l-48.5,25.7l9.2-54.4l-39.2-38.5l54.2-7.9l24.3-49.5l24.3,49.5l54.2,7.9l-39.2,38.5L304.5,331.2z"/>
	</g>
</g>
</svg>
