<?xml version="1.0" encoding="UTF-8"?><svg id="Lager_1" xmlns="http://www.w3.org/2000/svg" viewBox="0 0 111.13 109.47"><defs><style>.cls-1{fill:#a52527;}.cls-1,.cls-2{stroke-width:0px;}.cls-2{fill:#fff;}</style></defs><path class="cls-1" d="M98.68,3.77c.26,20.92,1.61,41.52-7.31,61.1-7.59,16.65-18.33,30.43-33.95,40.08-1.53.94-4.63,1.01-6.12.08-22.05-13.83-35.03-34.04-38.22-59.59-1.7-13.57-.3-27.52-.3-41.67h85.91ZM80.09,80.91c1.67-2.67,3.24-4.97,4.59-7.39,6.21-11.03,6.49-11.34-2.29-20.23-9.4-9.52-19.44-18.4-29.4-27.75-10.35,10.37-21.53,21.51-32.6,32.77-.86.87-1.56,2.89-1.14,3.85,2.66,6.1,5.65,12.06,8.53,18.07.82.39,1.64.78,2.47,1.17,7.85-8.7,15.7-17.4,23.66-26.22,9,8.85,17.29,17,26.16,25.73Z"/><path class="cls-2" d="M80.09,80.91c-8.88-8.73-17.16-16.87-26.16-25.73-7.96,8.82-15.81,17.52-23.66,26.22-.82-.39-1.64-.78-2.47-1.17-2.88-6.01-5.88-11.96-8.53-18.07-.42-.96.28-2.98,1.14-3.85,11.06-11.26,22.25-22.41,32.6-32.77,9.96,9.35,20,18.23,29.4,27.75,8.78,8.89,8.5,9.2,2.29,20.23-1.36,2.41-2.92,4.71-4.59,7.39Z"/></svg>