<?xml version="1.0" encoding="utf-8"?>
<!-- Generator: Adobe Illustrator 27.6.1, SVG Export Plug-In . SVG Version: 6.00 Build 0)  -->
<svg version="1.1" id="Lager_1" xmlns="http://www.w3.org/2000/svg" xmlns:xlink="http://www.w3.org/1999/xlink" x="0px" y="0px"
	 viewBox="0 0 64 64.4" style="enable-background:new 0 0 64 64.4;" xml:space="preserve">
<style type="text/css">
	.st0{fill:#2B3B87;}
</style>
<g>
	<path class="st0" d="M37.1,35c1.6-0.7,3-1.8,4.1-3.2c1.9-2.6,3.3-5.5,4.1-8.6l0,0c1-0.1,1.9-0.6,2.3-1.4c0.6-0.9,0.9-2,0.9-3
		c0.1-2.2-0.8-4-2.1-4.6c0-3.7-0.6-7.3-1.8-10.8l-0.3-0.8c-0.1-0.4-0.5-0.7-0.9-0.7H20c-0.4,0-0.8,0.3-1,0.7l-0.3,0.8
		c-1.2,3.5-1.8,7.2-1.8,11c0,0.1,0,0.1,0,0.2c-1.1,1.1-1.7,2.7-1.5,4.2c0,1.1,0.4,2.1,0.9,3c0.4,0.6,1,1.1,1.7,1.3
		c0.8,3.1,2.2,6.1,4.1,8.7c1,1.3,2.3,2.4,3.8,3.1c0,2.2,1.3,4.2,3.4,5.1v2.9c0,2.6-0.3,5.1-1,7.5c-0.2,0.9-0.5,1.7-0.9,2.5
		c-1.1,2.8-3.9,4.6-6.9,4.6h-2.2c-1.2,0-2.2,1-2.2,2.2c0,1.1,0.8,2.1,1.9,2.2c0.1,0,0.2,0,0.3,0h26.4c0.1,0,0.2,0,0.3,0
		c0.5-0.1,0.9-0.3,1.3-0.6c0.6-0.6,0.8-1.4,0.6-2.1c-0.3-1-1.2-1.7-2.3-1.7h-2.1c-3,0-5.8-1.8-6.9-4.6c-0.3-0.8-0.6-1.7-0.9-2.5
		c-0.7-2.5-1-5-1-7.5v-3C35.8,39,37,37.1,37.1,35z M45.9,20.6c-0.2,0.3-0.5,0.6-0.7,0.5c-0.2,0-0.4-0.2-0.6-0.6
		c-0.3-0.7-0.4-1.4-0.4-2.1c0.1-1.6,0.9-2.6,1.3-2.6l0,0c0.4,0,1.1,1.1,1,2.7C46.5,19.3,46.3,20,45.9,20.6z M19.8,7.2
		c0.1,0,0.1,0.1,0.2,0.1h1c0.2,0,0.4-0.2,0.4-0.4S21.2,6.5,21,6.5h-1c0,0,0,0-0.1,0c0.2-0.9,0.5-1.7,0.7-2.5l0-0.1h21.9l0,0.1
		c0.3,0.8,0.5,1.7,0.7,2.6c0,0,0,0-0.1,0h-1c-0.2,0-0.4,0.2-0.4,0.4s0.2,0.4,0.4,0.4h1c0.1,0,0.1,0,0.2-0.1c0.5,2.3,0.8,4.7,0.8,7
		c-1.1,0.7-1.9,1.9-2,3.2h-7.3c-0.3-2-1.5-3.5-3.1-3.5s-2.7,1.5-3.1,3.5h-7.3c-0.3-1.8-1.4-3.2-2.6-3.5C19.1,11.7,19.3,9.4,19.8,7.2
		z M33.1,18.6c0,1.6-0.7,2.6-1.1,2.6s-1.1-1-1.1-2.6s0.7-2.6,1.1-2.6C32.4,15.9,33.1,16.9,33.1,18.6z M18.5,15.9L18.5,15.9
		c0.4,0,1.2,1,1.3,2.6c0.1,0.7-0.1,1.4-0.4,2.1c-0.2,0.4-0.4,0.6-0.6,0.6c-0.2,0-0.5-0.2-0.7-0.5c-0.4-0.6-0.6-1.3-0.6-2
		C17.4,17,18.1,15.9,18.5,15.9z M23.8,30.6c-1.7-2.4-3-5-3.7-7.9c0.4-0.3,0.8-0.7,1.1-1.2c0.3-0.6,0.5-1.3,0.6-2.1h7.2
		c0.3,2.2,1.5,3.8,3.1,3.8c1.6,0,2.8-1.6,3.1-3.8h7.2c0.1,0.7,0.3,1.4,0.6,2.1c0.2,0.3,0.3,0.6,0.6,0.8c-0.7,3-2,5.8-3.8,8.3
		c-1.8,2.3-4.5,3.5-7.4,3.5h-0.9C28.4,34.2,25.6,32.9,23.8,30.6z M32.7,6.9c0-0.2,0.2-0.4,0.4-0.4h1.9c0.2,0,0.4,0.2,0.4,0.4
		s-0.2,0.4-0.4,0.4h-1.9C32.9,7.2,32.7,7.1,32.7,6.9L32.7,6.9z M37.3,6.9c0-0.2,0.2-0.4,0.4-0.4h1.9c0.2,0,0.4,0.2,0.4,0.4
		s-0.2,0.4-0.4,0.4h-1.9C37.5,7.2,37.3,7.1,37.3,6.9L37.3,6.9z M23.4,6.9c0-0.2,0.2-0.4,0.4-0.4h1.9c0.2,0,0.4,0.2,0.4,0.4
		s-0.2,0.4-0.4,0.4h-1.9C23.6,7.2,23.4,7.1,23.4,6.9L23.4,6.9z M28.1,6.9c0-0.2,0.2-0.4,0.4-0.4h1.9c0.2,0,0.4,0.2,0.4,0.4
		s-0.2,0.4-0.4,0.4h-1.9C28.2,7.2,28.1,7.1,28.1,6.9L28.1,6.9z"/>
</g>
</svg>
