<?xml version="1.0" encoding="UTF-8"?><svg id="Lager_1" xmlns="http://www.w3.org/2000/svg" viewBox="0 0 111.13 109.47"><defs><style>.cls-1{fill:#a52527;}.cls-1,.cls-2{stroke-width:0px;}.cls-2{fill:#fff;}</style></defs><path class="cls-1" d="M12.72,3.72h86.1c0,4.57.03,9.16,0,13.75-.11,12.44.86,24.96-2.94,37.13-6.51,20.88-18.02,38-36.75,49.89-2.39,1.51-4.06,1.75-6.57.12C28.98,89.26,15.97,67.28,12.93,39.71c-1.3-11.78-.22-23.81-.22-35.98ZM96.95,5.82H14.73c0,12.63-1.42,25.11.3,37.14,3.59,25.15,16.02,45.47,37.61,59.69,2.29,1.51,3.8,1.53,6.14.03,15.73-10.07,25.99-24.31,33.12-41.35,7.52-17.99,3.97-36.71,5.05-55.51Z"/><path class="cls-2" d="M96.95,5.82c-1.08,18.79,2.47,37.51-5.05,55.51-7.13,17.04-17.39,31.28-33.12,41.35-2.34,1.5-3.85,1.48-6.14-.03-21.59-14.23-34.02-34.54-37.61-59.69-1.72-12.03-.3-24.5-.3-37.14h82.22ZM56.36,11.08c-10.33,12.87-20.35,25.37-30.43,37.92,9.95,13.44,19.67,26.57,29.72,40.14,10.74-13.47,20.94-26.26,31.13-39.05-10.27-13.17-20.16-25.87-30.42-39.02Z"/><path class="cls-1" d="M56.36,11.08c10.25,13.15,20.15,25.85,30.42,39.02-10.19,12.79-20.39,25.58-31.13,39.05-10.05-13.57-19.77-26.7-29.72-40.14,10.08-12.56,20.1-25.05,30.43-37.92Z"/></svg>