<?xml version="1.0" encoding="utf-8"?>
<!-- Generator: Adobe Illustrator 27.6.1, SVG Export Plug-In . SVG Version: 6.00 Build 0)  -->
<svg version="1.1" id="Lager_1" xmlns="http://www.w3.org/2000/svg" xmlns:xlink="http://www.w3.org/1999/xlink" x="0px" y="0px"
	 viewBox="0 0 96 95.6" style="enable-background:new 0 0 96 95.6;" xml:space="preserve">
<style type="text/css">
	.st0{fill:#2B3B87;}
</style>
<path class="st0" d="M62.8,57.8H51.3l-2.8,2.8v13.2h12.4c0.8,0,1.5-0.3,2-0.9c0.5-0.6,0.8-1.3,0.8-2.1l-0.8-11.9
	C62.9,58.5,62.8,58.1,62.8,57.8z"/>
<path class="st0" d="M33.2,57.8c0,0.3,0,0.7-0.1,1l-0.8,11.9c0,0.8,0.2,1.5,0.8,2.1c0.5,0.6,1.3,0.9,2,0.9h12.4V60.6l-2.8-2.8
	C44.7,57.8,33.2,57.8,33.2,57.8z"/>
<path class="st0" d="M47.9,32.7h0.1c1,0,1.9-0.4,2.6-1.1l9.5-9.2c-0.5-0.1-0.9-0.1-1.4-0.1h-2.3c-0.8,0-1.6,0.4-2.2,1l-4.2,4.6
	c-1.1,1.2-3.2,1.2-4.3,0l-4.2-4.6c-0.6-0.6-1.3-1-2.2-1h-2.3c-0.5,0-0.9,0-1.4,0.1l9.5,9.2C46,32.3,47,32.7,47.9,32.7z"/>
<path class="st0" d="M81.3,47l-2.6-3.7l-6.6,4.6l3.3,3.7c0.4,0.4,1,0.5,1.4,0.2l4.2-3.1c0.3-0.2,0.4-0.5,0.4-0.9
	C81.5,47.4,81.4,47.2,81.3,47z"/>
<path class="st0" d="M67.2,26.7c-1.4-2-3.5-3.5-5.8-4.1l-10,9.7c-0.8,0.8-1.8,1.3-2.9,1.4v15.9l2.8,2.8h11.5c0-0.3,0-0.7,0-1
	l0.4-9.5c0-0.6,0.4-1.2,1-1.4s1.2-0.1,1.7,0.4l5.6,6.2l6.7-4.6L67.2,26.7z"/>
<path class="st0" d="M14.7,47c-0.3,0.5-0.2,1.2,0.2,1.5l4.2,3.1c0.4,0.3,1.1,0.3,1.4-0.2l3.4-3.7l-6.6-4.6L14.7,47z"/>
<path class="st0" d="M31.8,40.5c0.6,0.2,1,0.8,1,1.4l0.4,9.5c0,0.3,0,0.7,0,1h11.5l2.8-2.8V33.7c-1-0.1-2.1-0.6-2.9-1.4l-10-9.7
	c-2.3,0.6-4.4,2-5.8,4.1L17.9,42.4l6.7,4.6l5.5-6.1C30.6,40.5,31.2,40.3,31.8,40.5z"/>
<path class="st0" d="M42.4,55.4c-0.2-0.2-0.2-0.5,0-0.7l1.3-1.3h0H31.9c-0.7,0-1.3,0.6-1.3,1.3v0.8c0,0.7,0.6,1.3,1.3,1.3h11.8
	L42.4,55.4z"/>
<path class="st0" d="M64.1,53.4H52.3h0l1.3,1.3c0.2,0.2,0.2,0.5,0,0.7l-1.3,1.3h11.8c0.7,0,1.3-0.6,1.3-1.3v-0.8
	C65.4,54,64.8,53.4,64.1,53.4z"/>
<path class="st0" d="M46.6,27.2c0.7,0.8,2.1,0.8,2.9,0l4.2-4.6c0.1-0.1,0.2-0.2,0.3-0.3H42.1c0.1,0.1,0.2,0.2,0.3,0.3L46.6,27.2z"/>
<path class="st0" d="M52.6,55.1l-1.8-1.8L48,50.5l-2.8,2.7l-1.8,1.8l1.8,1.8l2.8,2.7l2.8-2.7L52.6,55.1z M50.5,55.4l-2.1,2.1
	c-0.1,0.1-0.2,0.1-0.3,0.1s-0.3,0-0.3-0.1l-2.1-2.1c-0.1-0.1-0.2-0.2-0.2-0.4c0-0.1,0-0.3,0.2-0.3l2.1-2.1c0.2-0.2,0.5-0.2,0.7,0
	l2.1,2.1c0.1,0.1,0.2,0.2,0.2,0.3C50.6,55.2,50.5,55.3,50.5,55.4z"/>
<polygon class="st0" points="46.6,55.1 48,56.5 49.4,55.1 48,53.7 "/>
</svg>
