<?xml version="1.0" encoding="UTF-8"?><svg id="Lager_1" xmlns="http://www.w3.org/2000/svg" viewBox="0 0 980 980"><defs><style>.cls-1{fill:#d57c4f;}.cls-2{fill:#fff;}</style></defs><path class="cls-1" d="M479.54,250.14c.28,11.56.04,44.07,9.34,51.3,5.3,4.13,9.01-7.37,9.96-10.72,3.83-13.41,1.29-27.35,5.41-40.58,17.07,13.54,32.19,22.35,38.87,44.65,2.39,7.98,1.75,16.5,3.68,23.59,1.42,5.21,7.33,9.41,7.76,15.27l67.74-54.1,8.55-82.73-79.7-156.34,117.63,154.35-15.86,100.85-71.11,65.23,133.92-32.25,30.96-104.74-83.05-122.08,124.46,110.03-41.28,147-165,41.24,179.03,16.15,79.34,234.49-113.47,190.85,72.74-193.7-62.12-194.49-4.67-3.86-152.55-11.91,134.79,86.33,24.62,175.35-165.39,229.2c-2.54-1.33.38-4.1,1.22-5.6,43.86-78.69,86.7-157.98,129.16-237.45l-22.56-137.47-31.12-21.72c-.32,10,3.62,19.8,4.34,29.75,8.4,116.3-73.67,225.06-198.13,198.13-106.22-22.98-151.21-138.18-122.4-236.42l-45.09,29.04-22.74,140.11,130.9,241.64-164.39-226.77-1.09-5.84,24.2-170.32,134.47-87.95-156.53,14.75-62.59,194.04,72.53,195.16-113.52-191.72,79.68-234.17,178.74-15.59-163.62-41.75-42.33-143.64,1.28-6.47,122.84-106.42-82.63,120.82,29.68,104.73,134.78,33.52-70.65-66.55-16.22-97.85,117.53-156.04-79.71,156.34,8.46,82.81,73.82,60.8c1.18-.01,11.55-18.85,12.01-20.34,6.08-19.36,2.41-40.86,23.83-54.58l21.25-15.38ZM517.02,320.02c-16.92,16.2-37,15.51-52.8-1.71,1.54,12.84-8.94,21.35-13.27,31.91-10.6,25.84-4.57,50.37,19.8,64.66l-1.5,27.8c-61,13.07-111.81,60.3-114.11,125.35-7.17,202.66,257.69,215.21,270.98,22.13,4.41-64.09-23.99-111.63-82.35-137.49-5.21-2.31-30.7-10.08-31.6-12.72l-2.06-25.02c21.82-11.5,30.77-33.81,23.51-57.79-3.89-12.84-15.21-23.25-16.59-37.12Z"/><path class="cls-1" d="M517.02,320.02c1.38,13.87,12.7,24.28,16.59,37.12,7.26,23.98-1.69,46.29-23.51,57.79l2.06,25.02c.89,2.64,26.38,10.41,31.6,12.72,58.37,25.86,86.76,73.4,82.35,137.49-13.28,193.08-278.14,180.53-270.98-22.13,2.3-65.05,53.11-112.28,114.11-125.35l1.5-27.8c-24.37-14.28-30.41-38.82-19.8-64.66,4.33-10.56,14.81-19.07,13.27-31.91,15.8,17.22,35.88,17.9,52.8,1.71ZM549.43,517.74h-115.91l35.2,63.91-35.2,63.93h115.91l-35.83-63.78,35.83-64.06Z"/><polygon class="cls-2" points="549.43 517.74 513.6 581.8 549.43 645.58 433.52 645.58 468.72 581.64 433.52 517.74 549.43 517.74"/></svg>