<?xml version="1.0" encoding="UTF-8"?><svg id="Lager_1" xmlns="http://www.w3.org/2000/svg" viewBox="0 0 591 591"><defs><style>.cls-1{fill:#d57c50;}.cls-2{fill:#fff;}</style></defs><path class="cls-1" d="M371.26,384.32c-1.74-2.63-29.3-6.81-39.35-19.31-1.93-2.4-4.08-7.95-5.17-8.98-2.21-2.1-15.59-5.5-20.35-8.65-2.31-1.53-12.19-12.34-13.01-11.89-4.97,6.76-11.65,19.62-18.45,24.04-4.02,2.61-8.98,3.29-13.05,5.83-8.48,5.3-16.17,14.4-26.88,17.62-12.11,3.64-15.23,4.44-27.03,9.37-17,7.11-21.94,2.24-38.05,3.75-4.59.43-8.1,2.51-12.07,2.76-22.75,1.45-48.12-1.47-68-12.93-31.47-18.15-61.61-71.26-50.97-107.39,2.73-9.29,3.46-11.66,5.37-21.6,4.62-24.11,33.59-54.9,54.91-66.45,20.92-11.33,22.66-9.48,45.19-10.37,5.22-.2,10.31-2.45,15.96-2.31,25.5.63,62.31,15.6,83.03,30.35,9.1,6.48,33.02,23.48,39.88,30.23,3.11,3.06,8.12,13.34,12.12,13.44,1.32.03,19.42-12.85,21.6-14.81,14.91-13.36,40.49-36.69,59.71-42.77,6.99-2.21,13.06-2.03,19.52-3.4,20.34-4.32,53.51-14.02,73.39-6.67,34.09,12.61,59.96,27.56,74.4,63.14,4.7,11.57,11.86,41.91,10.95,53.73-.89,11.5-6.1,19.68-8.28,29.59-2.56,11.63-1.41,16.39-8.15,28.14-9.79,17.08-13.78,12.92-26.61,21.93-3.75,2.63-6.43,7.15-10.42,9.8-12.02,7.99-66.6,16.64-80.01,13.03-2.17-.59-4.07-2.59-6.37-3.06-10.48-2.19-35.28,1.21-42.26-10.35-1.31-2.17-.86-4.73-1.57-5.81ZM184.13,188.5c-4.44-.99-8.66-2.88-13.16-3.71-2.52-.47-19.26-3.14-19.18.33,8.33,8.98,22.9,13.17,32.33,3.39ZM142.33,187.12c-5.54-6.03-21.67-1.75-27.92,2.39-1.27.84-2.43-.17-1.74,3.01,3.66-.69,10.25,3.89,12.84,3.6,1.5-.17,12.58-9.67,16.82-8.99ZM472.69,192.52c-2.93-6.88-33.51-7.88-36.41-5.37-.68,3.18.46,2.17,1.75,3.01,10.79,7.1,22.51,3.79,34.66,2.36ZM422.8,189.85c-2.85-2.21-28.85,3.78-24.26,8.07,9.04,2.68,18.49-.61,24.26-8.07ZM152.73,192.94c-3.87-3.26-10.89.34-14.88,2.52-2.54,1.39-19,13.39-17.09,15.92,5.58,1.19,14.01,5.87,19.56,5.53,2.71-.17,19.71-9.07,19.37-11.32-2.78-3.04-4.08-10.24-6.96-12.66ZM223.24,206c-3.63-10.15-15.42-10.99-24.26-13.46,1.84,9.68,15.57,13.48,24.26,13.46ZM420.11,203.3l8.06,4.74-6.69,6.74c.06,8.34,27.11-5.77,29.62-9.44,0-2.29-18.38-12.34-20.88-12.34s-11.48,8.46-10.11,10.3ZM165.25,199.29c4.53,13.29,19.19,20.19,32.86,17.34,9.28-10.02,1.17-13.99-6.5-20.85l-26.36,3.51ZM99.18,197.94c-1.61-1.32-14.24,8.31-16.19,10.09-1.64,1.48-13.53,14.26-12.11,15.51l19.87-7.09,8.44-18.51ZM112.23,198.27c-6.63.3-17.74,14.16-13.07,19.21,2.39,2.58,11.61,5.15,14.2,2.04l5.7-16.89c-1.22-2.23-4.26-4.47-6.83-4.36ZM386.4,197.94c-13.43,1.05-25.54,7.62-35.08,16.82-1.45,1.4-3.15,2.37-2.67,4.73,17.34-.37,27.66-8.35,37.75-21.55ZM472.43,198.33c-11.13.67-14.84,1.81-18.02,13.08,8.7,11.32,15.67,12.37,29.75,10.78,14-1.58,8.03-11.4,1.36-18.88-5.29-5.94-5.34-5.44-13.09-4.98ZM514.48,218.15c-2.31-10.18-14.76-15.92-24.26-17.52,3.79,12.34,13.8,13.33,24.26,17.52ZM379.65,226.24h20.9c1.89,0,17.27-14.99,16.85-16.84-6.59-2.94-21.4-9.83-27.71-6.16-9.3,5.41-8.5,13.72-10.04,22.99ZM252.9,224.88c-5.72-8.07-13.92-13.64-22.91-17.52,4.43,11.13,9.44,19.27,22.91,17.52ZM235.36,223.56c-12-6.27-13.65-19.74-29.56-9.33,2.26,13.4,7.26,23.34,22.83,20.11l.14-7.95,6.58-2.82ZM169.3,215.44c-.55-2.38-2.42-2.67-4.54-2.63-5.31.1-25.14,9.74-23.75,15.38l2.65,2.1c4.03-8.33,16.45-13.86,25.64-14.85ZM453.82,219.49c-1.36-5.99-15.74.75-16.95,2.71l.79,5.38c2.61.37.33-2.87,2.13-4.2,2-1.47,11.01-3.8,14.03-3.9ZM130.19,220.87c-5.85-3.32-13.04,3.38-17.54,7.38-5.86,5.21-12.67,12.73-13.46,20.91,2.37,2.63,7.91-10.59,9.46-11.42l21.53-16.87ZM526.63,257.26v-22.25c0-1.06-3.42-7.78-4.67-8.81-3.88-3.21-12.06-3.57-16.49-6.47l-8.25,8.28c2.47,15.08,15.26,25.29,29.41,29.26ZM426.85,224.88c-5.64-7.5-14.1-2.27-18.85,3.38,3.94,5.26,8-4.42,12.86-4.74,2.12-.14,3.84,1.64,5.99,1.35ZM201.66,226.23c-2.51-6.61-26.19-3.96-28.32-1.31l1.37,4.03c8.26-5.09,17.81-5.07,26.95-2.71ZM343.24,222.2c-6.36-2.6-25.61,19.12-22.91,21.56,13.99,1.82,18.99-10.6,22.91-21.56ZM101.89,224.9c-8.59-2.34-14.78-.42-22.7,2.92-.86,6.91-2.93,13.16-.21,20,.79.56,17.07-5.47,18.16-6.77.93-1.11,5.35-15.55,4.75-16.14ZM374.26,224.89h-20.9c-.45,0-8.25,2.6-8.51,2.96l-5.68,15.19c6.86.5,5.23,7.75,8.1,9.53,10.84,6.73,23.97-20.08,26.99-27.69ZM490.22,226.25l-18.72,1.5c-.57,3.39-3.23,7.76,1.18,9.28.07-9.54,6.93-7.1,14.16-8.13,2.5-.36,3.99,1.37,3.38-2.65ZM71.99,244.9l.21-15.97c-12.81,3-19.85,17.66-21.55,29.66,6.94-4.94,12.88-11.29,21.34-13.7ZM256.62,233.32c-3.77-3.49-17.43-3.06-22.59-3.03l8.4,22.61,17.19,3.01c2.7-5.13.92-18.96-3-22.59ZM286.61,253.2c-4.95-10.73-14.88-18.44-25.61-22.9,2.62,13.11,11.01,24.22,25.61,22.9ZM403.91,233l-23.99-2.43-13.75,19.93,4.64.02,12.44-17.31c5.54-1.47,10.82.68,15.99,1.11,1.47.12,5.03.99,4.68-1.32ZM149.07,241.06c-5.36-8.92-17.6,2.27-21.57,8.09,8.19.75,12.64-11.11,21.57-8.09ZM542.8,265.34c.15-9.52-4.49-21.3-10.76-28.31l.31,7.09,10.45,21.22ZM178.74,242.41c-1.87-7.2-25.67.39-21.57,4.05,7.52-1.39,13.38-5.58,21.57-4.05ZM231.33,245.11c-5.63-6.74-16.65-3.18-24.27-4.03l4.05,18.87,2.48-1.8-3.84-14.37,21.57,1.33ZM314.92,246.48c-3.69-.62-14.52,4.78-11.94,9.26l5.88,4.2c1.52,0,6.86-12.69,6.06-13.45ZM96.48,247.82c-.89-.95-5.01,1.76-6.07,2.68-6.99,6.11-4.23,16.05-4.7,24.28,6-3.98,1.84-11.53,3.92-16.91,1.38-3.57,9.32-7.39,6.85-10.05ZM343.25,249.18c-7.94-2.65-14.73-.01-22.75.16-2.07,7.73-11.76,20.83,1.95,22.71,15.24,2.09,15.76-12.1,20.79-22.87ZM349,292.65c-9.81,10.13,15.81,15.46,21.13,19.3,3.78,2.72,5.49,6.77,8.31,9.22,1.37,1.19,30.43,15.85,32.17,16.37,8.09,2.41,21.21.67,30.4,6.05,7.43-3.81,25.3-2.41,31.08-6.71.58-.43,8.94-10.32,9.27-10.95,1.91-3.64,1.66-8.89,3.19-12.99,2.1-5.61,11-16.91,11.13-21.22.03-1.08-2.68-18.84-3.03-20.03s-17.46-17.24-18.64-17.77c-1.24-.55-24.88-6.22-26.26-6.21-2.58,0-24.4,2.57-26.69,3.09-3.37.76-8.2,4.95-12.75,6.12-5.63,1.45-12.35.69-18.23,3.35-2.16.98-21.06,13.95-23.26,15.84-3.57,3.07-4.92,7.77-8.08,10.8-2.64,2.54-8.28,4.23-9.75,5.74ZM130.58,328.32c3.88,3.14,11.6,1.23,16.45,1.77,11.13,1.23,27.93,1.47,38.84-1.66,2.04-.59,7.69-5.97,11.25-7.63,13.63-6.36,12.73-5.68,24.86-14.24,2.74-1.94,18.41-8.58,18.6-10.84-3.48-11.94-14.71-11.18-23.19-17.11-4.86-3.4-7.45-9.33-11.18-11.75-1.39-.9-28.7-12.31-30.42-12.73-2.61-.64-25.87-4.99-27.26-4.94-2.91.11-26.73,6.55-28.48,8.03-.94.79-11.7,12.71-12.08,13.54-.46,1.01-2.28,20.1-2.14,22.2.79,12.17,13.65,23.47,21.73,31.01,1.38,1.28,2.11,3.61,3.01,4.34ZM203.01,253.2c-3.03-5.67-8.51-3.6-13.49-2.67l2.03,5.38c1.32-5.01,7.36-1.97,11.45-2.71ZM81.65,253.21c-4.74,1.87-7.15-.89-11.26-2.53l-17.66,14.59c.28,8.66,3.09,18.31,9.53,24.28,1.83.32,4.03-2.71,5.25-3.97,1.55-1.6,13.01-15.26,13.45-16.21,1.94-4.28.08-11.41.69-16.16ZM502.38,250.51c-5.57,12.7-4.07,28.07,10.1,33.68,8.63-16.08,9.12-27.5-10.1-33.68ZM265.04,255.92c2.52,11.87,6.72,27.65,22.17,25.64,9.69-1.26,4.2-16.78.15-20.34-2.34-2.06-20.55-6.84-22.32-5.3ZM262.27,285.55c11.73-20.52-11.73-27.58-28.24-28.28l5.61,20.01c8.69-.54,14.04,7.54,22.63,8.28ZM364.82,257.26h-20.9c-1.55,3.78-7.29,14.07-2.04,16.18l5.39-12.83c4.94-1.69,10.59-.02,15.55-.65,1.97-.25,4.2-1.04,2-2.7ZM296.07,258.6c-1.39,1.89,3.16,15.33,4.79,17.44,3.15,4.07,15.69,6.91,13.83-.3-1.34-5.22-13.17-15.39-18.62-17.15ZM381,259.97l-11.24,1.23-2.24,8.19c4.31.89,1.71-3.21,4.79-5.3,2.54-1.72,7.41-.52,8.69-4.12ZM534.7,261.3l-10.49,4.3c-5.51,11.32-1.11,23.53,7.29,32.03,16.45-10.92,10.7-21.93,3.2-36.34ZM101.87,289.62c-.25-6.36,3.94-12.48-2.02-17.51-4.33,4.4-3.78,10.84-.99,15.78.85,1.51-.09,2.3,3,1.73ZM49.27,274.79c-2.26-2.25-2.27.71-2.81,1.89-4.86,10.66-4.86,24.58-2.56,35.86,3.17.69,2.16-.47,3.01-1.74,1.79-2.71,7.57-16.44,7.69-19.27.07-1.59-4.71-16.12-5.34-16.74ZM81.26,276.32c-13.98,9.57-6.01,24.62,5.06,32.18,9.81-9.91,12.72-30.01-5.06-32.18ZM324.36,307.15c1.8-16.77-11.96-23-25.6-26.96-.42,5.13-.09,17.37,4.07,20.86,3.15,2.66,17.04,3.06,21.53,6.1ZM337.85,296.35c-1.29-2.02-14.54-16.56-16.17-14.81,1.22,9.46,5.84,16.18,16.17,14.81ZM298.74,309.84c-2.05-5.45.32-15.94-4.12-19.47-3.18-2.52-24.66-8.4-26.89-6.15-2.13,22.3,14.81,21.22,31.01,25.62ZM505.13,315.17c4.27,3.66,16.91-11.14,18.15-14.85,3.68-11.03-14.71-17.41-20.22-5.28-2.83,6.24.61,14.06,2.07,20.13ZM541.48,324.68c5.22-3.75,8.8-23.34,8.03-28.88-.37-2.68-2.46-4.8-2.67-7.52-9.04,9.37-6.85,24.47-5.36,36.4ZM73.56,327.38c3.8-12.73,4.4-22.88-4.69-33.58-2.33,3.07-8.23,1.77-9.89,2.8-.74.46-7.04,14.31-6.38,15.9,2.89,2.23,18.06,17.83,20.96,14.88ZM108.62,311.18c1.41-1.32-5.79-15.8-10.77-14.82-3.67,8.43,2.94,13.58,10.77,14.82ZM255.59,304.47l-12.12-6.76-1.35,8.08c3.35-.11,6.77.18,10.13,0,1.52-.08,3.7.88,3.34-1.33ZM349.53,308.96c-2.96-2.84-18.3-11.11-19.7-5.09-.3,1.27,4.96,15.75,6.4,17.72,4.89,6.72,11.29,3.1,17.8,7.13,3.92-7.55,1.45-14.07-4.49-19.76ZM239.42,304.46c-1.81-1.49-22.48,8.81-21.57,14.81l13.2,1.07,8.36-15.88ZM487.54,323.33l12.86-9.42-3.45-9.46c-5.72,4.49-10.29,11.27-9.41,18.88ZM514.5,318.61c-1.18,5.45.86,14.29,0,20.23l3.13,1.83c4.01-1.96,18.74-10.28,19.46-14.12l-2.37-22.1c-5.96-2.83-19.3,9.9-20.23,14.16ZM325.7,331.42c-1.24-4.19,4.78-6.8,5.2-8.95,1.81-9.35-20.84-16.67-28.1-16.67-2.66,19.4,6.31,22.45,22.9,25.63ZM271.78,317.93c1.15-1.22-5.77-10.13-6.72-9.43-2.42,7.77-2.83,12.46,6.72,9.43ZM79.09,321.79c7.84,3.65,12.4,11.52,22.12,9.63,6.5-1.26,2.91-19.97-4.37-21.37-5.51-1.06-7.53,6.46-15.13,2.52l-2.62,9.22ZM298.75,317.92c-5.95-5.83-17.38-8.34-25.62-8.06,3.27,4.29,11.23,3.45,16.24,4.65,3.44.83,5.97,3.18,9.38,3.42ZM258.19,312.65c-9.59-1.68-18.56-1.67-21.46,9.32,7.44-1.02,6.55,6,9.4,7.46,10.32,5.28,11.65-9.38,12.06-16.78ZM374.25,326.02c1.02-1.13-2.14-5.71-3.33-6.77-.91-.82-10.96-7.17-11.49-6.7,2.79,6.44,8.47,10.95,14.82,13.47ZM108.63,315.24c.23,3.32-1.09,7.4,1.32,10.12,1.25,1.41,16.35,8.53,16.17,4.03-5.03-5.6-9.1-13.1-17.5-14.15ZM53.34,319.3l-4.03-1.37c-.5,5.19.45,9.88,2.07,14.77.49,1.47,1.45,5.46,3.3,5.45-.59-6.55-5.07-12.24-1.33-18.85ZM508.88,337.94c5.36-33.58-22.39-13.26-22.7,5.6,8.91,1.6,14.92-2.39,22.7-5.6ZM212.45,321.99c-8.71,1.54-18.23,3.64-24.27,10.76,11.81,6.17,18.64-.67,24.27-10.76ZM278.51,324.69l-16.18-1.37v8.09c4.81,1.31,1.83-4.52,2.7-5.4l13.48-1.32ZM237.95,327.5c-.44-.65-13.34-2.74-15.44-2.85-10.78-.54-13.34,11.75-9.41,20.28,1.13,1.44,9.48,2.91,11.44,2.04,3.01-1.33,16.18-15.43,13.42-19.48ZM331.12,328.73c.12,6.42,2.86,16.81,8.92,20.05,7.83,4.19,22.86,4.57,18.8-7.99-3.45-10.67-18.75-10.78-27.72-12.06ZM366.54,345.88c2.57,2.63,11.56,4.07,14.97,2.89,10.41-14.37-8.41-18.03-19.38-20.04-1.9,2.18,2.13,14.83,4.41,17.16ZM91.08,332.78c-7.75-3.31-14.07-.11-21.57,1.34l2.71,20.22c2.28-.08,2.88.9,2.39-1.71-.99-5.31-1-10.61-2.41-15.82l18.88-4.04ZM325.71,336.83c-8.28-2.65-16.78-7.6-25.6-4.05.49,6.87,4.15,1.44,8.78,1.24,4.65-.2,8.51,2.52,12.72,3.54,1.36.33,4.41,1.77,4.1-.74ZM392.18,339.1c2.56,2.1,8.12,3.04,10.37-.27l-13.44-7.42c-.91,1.13,1.88,6.71,3.07,7.68ZM129.93,334.39c-9.02-.81-17.77-2.43-26.13,2.37-1.04,1.5,2.95,14.83,4.13,16.25,3.35,4.02,22.39-1,27.61-2.8l-5.61-15.82ZM137.79,334.29c-.79.22-2.81,1.62-1.54,2.52,4.4,4.34,12.84,6.43,16.84.67.02-2.43-12.63-3.92-15.3-3.19ZM180.09,334.13c-7.17.35-14.37-2.29-18.85,4.71,5.97,5.43,15.4,2.14,18.85-4.71ZM541.46,334.12c-17.86,1.36-22.8,23.11-21.55,37.74,2.02.35,1.7-2.09,1.91-3.4,1.46-9.06,2.29-15.98,7.73-24.01l11.9-10.33ZM260.98,336.83c-18.72-5.7-29.7,1.67-24.24,21.55l1.91-10.87,3.85-7.61,18.49-3.07ZM204.36,343.57c-14-7.43-30.75-6.49-28.08,13.24,4.64,2.17,6.4,3.63,11.52,1.9,2.79-.94,18.59-12.47,16.55-15.14ZM172,352.97c-9.26-10.91-18.15-10.69-31-6.72-.82,2.41,2.17,3.31,2.25,4.7.1,1.66-3.03,3.44-1.69,6.08.81,1.59,6.66,4.79,8.54,5.14,8.39,1.59,14.83-6.42,21.9-9.21ZM434.94,346.27c-6.45-1.3-10.76-4.49-17.52-1.35,3.72,5.74,12.95,7.08,17.52,1.35ZM463.25,343.56c-1.16-1.02-15.05.14-16.16,4.02,6.67,2.67,15.03,6.25,16.16-4.02ZM488.87,352.97c1.26-1.81-6.9-7.77-8.49-8.45-4.93-2.11-22.72,10.97-19.81,15.19,6.84,1.72,12.84,5.18,20.21,4.06-3.36-6.03,3.19-8.6,8.09-10.8ZM393.98,353.48c7,9.28,11.79,13.98,24.15,9.02,2.74-18.01-15.54-14.79-27.67-17.6-1.62,6.21,1.65,6.09,3.52,8.58ZM517.18,347.62c-15.56-7.82-30.7,9.05-35.05,22.89,5.48,1.38,4.54-3.94,6.96-7.19,4.33-5.81,12.12-14.66,19.7-15.48,2.81-.3,7.57,2.45,8.39-.22ZM278.52,347.61l-14.56.27-5.67,10.49c5.57,1.94,6.67-6.83,8.36-7.8,2.76-1.58,10.12,2,11.87-2.96ZM228.63,357.03c-4.46-6.16-14.15-4.66-20.75-6.41-2.29,1.98-13.38,11.58-12.96,13.81s1.63,1.83,3.36.7c3.07-2,9.83-11.35,12.29-11.82l18.05,3.71ZM385.04,357.06l-21.56-5.4,1.36,10.77,1.34-8.08c.93-.99,12.37,2.92,14.76,3.44,1.38.3,4.39,1.81,4.1-.73ZM438.65,351.94c-2.24.37-15.8,5.52-15.83,7.12,7.91,8.9,15.36,15.53,27.41,8.56,12.91-7.46-1.37-17.38-11.59-15.69ZM352.68,357.06c-7.76-1.34-16.15-6.31-21.54,2.01,3.61,4.89,4.91-1.44,8.81-2.05,3.11-.49,5.48.96,8.19,1.23,1.5.15,4.85,1.22,4.53-1.18ZM120.08,361.08c5.3-1.13,13.8.82,19.55,0-.01-2.29-4.48-2.58-6.06-2.71-4.49-.37-13.93-.65-17.87,1.02-4.96,2.11-9.67,12.3-3.05,15.16-1.12-4.89,2.4-12.41,7.43-13.48ZM97.82,365.15l-24.26-5.4,4.72,10.77-2.03-8.07c.63-.5,12.86,3.53,15.65,3.89,1.43.18,6.15,1.27,5.91-1.19ZM178.73,362.45c-5.02-2.36-14.35-1.66-18,2.54-1.7,1.96-.76,8.01-2.21,10.92l4.03.02c.87-.86-3.3-8.78,6.69-11.53,3.11-.85,8.24.51,9.49-1.94ZM254.25,363.79c-5.31.76-14.17-1.44-18.85.69-1.03.47-14.98,12.77-13.5,14.13,6.44.83,12.3-9.65,16.2-11.43,5.12-2.33,12.98,2.01,16.16-3.38ZM474.03,369.19c-7.09-2.31-17.92,1.38-24.99,3.98-3.77,1.39-9.78,2.92-8.71,8.14l16.23-7.36,17.46-4.76ZM428.19,370.54c-7.14-2.11-14.91-2.22-21.92.35-1.66.61-4.48.46-3.67,2.99l25.6-3.33ZM509.1,374.58c-14.22,1.19-25.4,10.57-36.41,18.85,9.84.13,17.99-9.88,26-13.76,3.53-1.71,8.75-.13,10.41-5.09ZM215.15,382.65c-4.98-5.65-15.23-4.26-22.05-6.82-3.34,6.32-9.97,9.18-15.7,12.9,2.02,2.73,2.43,1.88,4.99,1,5.5-1.9,10.27-7.3,14.72-10.8l18.04,3.73ZM155.81,379.98c-12.3-6.36-22.73,5.15-35.5,5.35l-.89,4.06c4.66-1.73,9.84-2.18,14.53-3.66,3.88-1.22,10.89-5.13,13.44-5.56,2.91-.49,7.52,2.63,8.42-.2ZM398.52,382.68l-25.6-2.71c-.03,6,4.31,2.26,7.39,2.57,4.79.49,8.34,1.54,13.5,1.48,1.59-.02,5.05.95,4.71-1.35Z"/><path class="cls-2" d="M526.63,257.26c-14.15-3.96-26.94-14.17-29.41-29.26l8.25-8.28c4.43,2.9,12.61,3.26,16.49,6.47,1.25,1.04,4.67,7.76,4.67,8.81v22.25Z"/><path class="cls-2" d="M81.65,253.21c-.61,4.75,1.25,11.88-.69,16.16-.43.96-11.9,14.61-13.45,16.21-1.22,1.26-3.42,4.28-5.25,3.97-6.44-5.97-9.25-15.62-9.53-24.28l17.66-14.59c4.11,1.65,6.52,4.41,11.26,2.53Z"/><path class="cls-2" d="M472.43,198.33c7.75-.46,7.8-.96,13.09,4.98,6.67,7.48,12.64,17.3-1.36,18.88-14.07,1.59-21.05.54-29.75-10.78,3.18-11.27,6.89-12.42,18.02-13.08Z"/><path class="cls-2" d="M379.65,226.24c1.54-9.27.74-17.58,10.04-22.99,6.31-3.67,21.12,3.21,27.71,6.16.42,1.84-14.96,16.84-16.85,16.84h-20.9Z"/><path class="cls-2" d="M374.26,224.89c-3.02,7.61-16.15,34.42-26.99,27.69-2.87-1.78-1.24-9.03-8.1-9.53l5.68-15.19c.26-.37,8.06-2.96,8.51-2.96h20.9Z"/><path class="cls-2" d="M152.73,192.94c2.87,2.42,4.17,9.62,6.96,12.66.34,2.25-16.66,11.15-19.37,11.32-5.55.34-13.97-4.35-19.56-5.53-1.91-2.54,14.55-14.53,17.09-15.92,3.99-2.19,11.01-5.79,14.88-2.52Z"/><path class="cls-2" d="M514.5,318.61c.92-4.27,14.27-16.99,20.23-14.16l2.37,22.1c-.73,3.84-15.45,12.16-19.46,14.12l-3.13-1.83c.86-5.93-1.18-14.78,0-20.23Z"/><path class="cls-2" d="M165.25,199.29l26.36-3.51c7.66,6.86,15.77,10.83,6.5,20.85-13.67,2.86-28.33-4.05-32.86-17.34Z"/><path class="cls-2" d="M262.27,285.55c-8.59-.74-13.94-8.81-22.63-8.28l-5.61-20.01c16.51.7,39.97,7.77,28.24,28.28Z"/><path class="cls-2" d="M298.74,309.84c-16.21-4.4-33.14-3.32-31.01-25.62,2.23-2.24,23.72,3.63,26.89,6.15,4.44,3.53,2.07,14.01,4.12,19.47Z"/><path class="cls-2" d="M129.93,334.39l5.61,15.82c-5.22,1.8-24.26,6.82-27.61,2.8-1.18-1.42-5.18-14.75-4.13-16.25,8.36-4.79,17.11-3.18,26.13-2.37Z"/><path class="cls-2" d="M73.56,327.38c-2.9,2.95-18.07-12.65-20.96-14.88-.66-1.59,5.64-15.44,6.38-15.9,1.66-1.03,7.56.27,9.89-2.8,9.09,10.7,8.49,20.85,4.69,33.58Z"/><path class="cls-2" d="M534.7,261.3c7.5,14.41,13.25,25.42-3.2,36.34-8.4-8.51-12.8-20.71-7.29-32.03l10.49-4.3Z"/><path class="cls-2" d="M256.62,233.32c3.93,3.63,5.7,17.46,3,22.59l-17.19-3.01-8.4-22.61c5.16-.03,18.82-.46,22.59,3.03Z"/><path class="cls-2" d="M343.25,249.18c-5.03,10.77-5.56,24.95-20.79,22.87-13.71-1.88-4.03-14.98-1.95-22.71,8.02-.18,14.81-2.81,22.75-.16Z"/><path class="cls-2" d="M265.04,255.92c1.77-1.53,19.98,3.24,22.32,5.3,4.04,3.55,9.54,19.08-.15,20.34-15.45,2.01-19.66-13.77-22.17-25.64Z"/><path class="cls-2" d="M325.7,331.42c-16.59-3.17-25.56-6.23-22.9-25.63,7.26,0,29.91,7.32,28.1,16.67-.42,2.16-6.45,4.77-5.2,8.95Z"/><path class="cls-2" d="M81.26,276.32c17.77,2.17,14.86,22.26,5.06,32.18-11.07-7.55-19.04-22.61-5.06-32.18Z"/><path class="cls-2" d="M331.12,328.73c8.97,1.28,24.27,1.39,27.72,12.06,4.06,12.56-10.96,12.18-18.8,7.99-6.06-3.24-8.81-13.63-8.92-20.05Z"/><path class="cls-2" d="M235.36,223.56l-6.58,2.82-.14,7.95c-15.58,3.23-20.57-6.71-22.83-20.11,15.91-10.41,17.56,3.06,29.56,9.33Z"/><path class="cls-2" d="M237.95,327.5c2.76,4.05-10.41,18.15-13.42,19.48-1.96.86-10.31-.61-11.44-2.04-3.93-8.53-1.37-20.82,9.41-20.28,2.11.11,15,2.2,15.44,2.85Z"/><path class="cls-2" d="M502.38,250.51c19.21,6.18,18.73,17.6,10.1,33.68-14.17-5.61-15.67-20.98-10.1-33.68Z"/><path class="cls-2" d="M349.53,308.96c5.93,5.7,8.4,12.21,4.49,19.76-6.5-4.04-12.91-.41-17.8-7.13-1.43-1.97-6.69-16.45-6.4-17.72,1.41-6.02,16.74,2.25,19.7,5.09Z"/><path class="cls-2" d="M420.11,203.3c-1.37-1.83,7.6-10.29,10.11-10.3s20.87,10.05,20.88,12.34c-2.5,3.66-29.56,17.78-29.62,9.44l6.69-6.74-8.06-4.74Z"/><path class="cls-2" d="M324.36,307.15c-4.49-3.04-18.38-3.44-21.53-6.1-4.15-3.5-4.49-15.73-4.07-20.86,13.64,3.96,27.4,10.19,25.6,26.96Z"/><path class="cls-2" d="M438.65,351.94c10.22-1.69,24.5,8.23,11.59,15.69-12.06,6.96-19.51.33-27.41-8.56.03-1.6,13.59-6.75,15.83-7.12Z"/><path class="cls-2" d="M101.89,224.9c.59.6-3.82,15.03-4.75,16.14-1.09,1.3-17.37,7.34-18.16,6.77-2.72-6.84-.65-13.09.21-20,7.93-3.34,14.11-5.27,22.7-2.92Z"/><path class="cls-2" d="M505.13,315.17c-1.46-6.07-4.9-13.89-2.07-20.13,5.5-12.14,23.9-5.75,20.22,5.28-1.24,3.71-13.88,18.51-18.15,14.85Z"/><path class="cls-2" d="M172,352.97c-7.08,2.79-13.51,10.8-21.9,9.21-1.87-.36-7.73-3.55-8.54-5.14-1.34-2.64,1.78-4.42,1.69-6.08-.08-1.4-3.08-2.29-2.25-4.7,12.86-3.97,21.74-4.2,31,6.72Z"/><path class="cls-2" d="M204.36,343.57c2.04,2.67-13.76,14.2-16.55,15.14-5.12,1.73-6.88.27-11.52-1.9-2.68-19.72,14.08-20.67,28.08-13.24Z"/><path class="cls-2" d="M79.09,321.79l2.62-9.22c7.6,3.94,9.61-3.58,15.13-2.52,7.28,1.4,10.87,20.11,4.37,21.37-9.72,1.89-14.28-5.98-22.12-9.63Z"/><path class="cls-2" d="M508.88,337.94c-7.77,3.21-13.79,7.2-22.7,5.6.31-18.86,28.05-39.19,22.7-5.6Z"/><path class="cls-2" d="M393.98,353.48c-1.87-2.49-5.15-2.36-3.52-8.58,12.13,2.81,30.41-.41,27.67,17.6-12.35,4.95-17.15.26-24.15-9.02Z"/><path class="cls-2" d="M488.87,352.97c-4.9,2.21-11.45,4.77-8.09,10.8-7.37,1.12-13.37-2.34-20.21-4.06-2.92-4.22,14.87-17.3,19.81-15.19,1.59.68,9.75,6.64,8.49,8.45Z"/><path class="cls-2" d="M366.54,345.88c-2.28-2.33-6.3-14.97-4.41-17.16,10.97,2.02,29.78,5.68,19.38,20.04-3.41,1.18-12.4-.26-14.97-2.89Z"/><path class="cls-2" d="M112.23,198.27c2.57-.12,5.61,2.13,6.83,4.36l-5.7,16.89c-2.59,3.1-11.81.54-14.2-2.04-4.67-5.04,6.44-18.91,13.07-19.21Z"/><path class="cls-2" d="M386.4,197.94c-10.08,13.2-20.41,21.18-37.75,21.55-.48-2.36,1.22-3.33,2.67-4.73,9.54-9.2,21.65-15.77,35.08-16.82Z"/><path class="cls-2" d="M49.27,274.79c.62.62,5.41,15.14,5.34,16.74-.13,2.84-5.91,16.57-7.69,19.27-.84,1.28.17,2.43-3.01,1.74-2.31-11.28-2.3-25.2,2.56-35.86.54-1.18.55-4.14,2.81-1.89Z"/><path class="cls-2" d="M71.99,244.9c-8.46,2.41-14.4,8.76-21.34,13.7,1.7-12,8.74-26.66,21.55-29.66l-.21,15.97Z"/><path class="cls-2" d="M258.19,312.65c-.41,7.4-1.74,22.05-12.06,16.78-2.85-1.46-1.96-8.48-9.4-7.46,2.91-10.99,11.88-11,21.46-9.32Z"/><path class="cls-2" d="M99.18,197.94l-8.44,18.51-19.87,7.09c-1.42-1.25,10.48-14.03,12.11-15.51,1.96-1.77,14.59-11.41,16.19-10.09Z"/><path class="cls-2" d="M286.61,253.2c-14.61,1.32-22.99-9.79-25.61-22.9,10.73,4.47,20.66,12.17,25.61,22.9Z"/><path class="cls-2" d="M472.69,192.52c-12.16,1.43-23.87,4.74-34.66-2.36-1.29-.85-2.42.16-1.75-3.01,2.91-2.51,33.48-1.51,36.41,5.37Z"/><path class="cls-2" d="M541.48,324.68c-1.49-11.93-3.67-27.04,5.36-36.4.21,2.72,2.3,4.84,2.67,7.52.76,5.55-2.82,25.13-8.03,28.88Z"/><path class="cls-2" d="M343.24,222.2c-3.92,10.96-8.92,23.38-22.91,21.56-2.7-2.44,16.55-24.16,22.91-21.56Z"/><path class="cls-2" d="M184.13,188.5c-9.44,9.78-24,5.59-32.33-3.39-.08-3.47,16.66-.79,19.18-.33,4.5.83,8.72,2.73,13.16,3.71Z"/><path class="cls-2" d="M296.07,258.6c5.46,1.76,17.28,11.93,18.62,17.15,1.85,7.2-10.69,4.37-13.83.3-1.63-2.11-6.18-15.55-4.79-17.44Z"/><path class="cls-2" d="M142.33,187.12c-4.24-.68-15.32,8.82-16.82,8.99-2.59.29-9.18-4.29-12.84-3.6-.69-3.18.47-2.16,1.74-3.01,6.25-4.14,22.38-8.42,27.92-2.39Z"/><path class="cls-2" d="M239.42,304.46l-8.36,15.88-13.2-1.07c-.91-6,19.76-16.3,21.57-14.81Z"/><path class="cls-2" d="M514.48,218.15c-10.46-4.18-20.46-5.17-24.26-17.52,9.5,1.6,21.94,7.33,24.26,17.52Z"/><path class="cls-2" d="M212.45,321.99c-5.63,10.09-12.45,16.93-24.27,10.76,6.04-7.12,15.56-9.22,24.27-10.76Z"/><path class="cls-2" d="M223.24,206c-8.69.01-22.42-3.79-24.26-13.46,8.85,2.47,20.63,3.32,24.26,13.46Z"/><path class="cls-2" d="M130.19,220.87l-21.53,16.87c-1.55.83-7.1,14.05-9.46,11.42.79-8.18,7.6-15.7,13.46-20.91,4.5-4,11.68-10.7,17.54-7.38Z"/><path class="cls-2" d="M252.9,224.88c-13.47,1.76-18.48-6.38-22.91-17.52,8.99,3.87,17.19,9.44,22.91,17.52Z"/><path class="cls-2" d="M108.63,315.24c8.4,1.05,12.46,8.55,17.5,14.15.18,4.5-14.93-2.62-16.17-4.03-2.41-2.72-1.09-6.8-1.32-10.12Z"/><path class="cls-2" d="M517.18,347.62c-.81,2.68-5.58-.08-8.39.22-7.58.82-15.37,9.67-19.7,15.48-2.42,3.25-1.48,8.57-6.96,7.19,4.35-13.84,19.49-30.71,35.05-22.89Z"/><path class="cls-2" d="M403.91,233c.35,2.3-3.21,1.44-4.68,1.32-5.17-.43-10.44-2.58-15.99-1.11l-12.44,17.31-4.64-.02,13.75-19.93,23.99,2.43Z"/><path class="cls-2" d="M541.46,334.12l-11.9,10.33c-5.44,8.03-6.27,14.95-7.73,24.01-.21,1.31.1,3.76-1.91,3.4-1.24-14.64,3.7-36.38,21.55-37.74Z"/><path class="cls-2" d="M422.8,189.85c-5.77,7.46-15.23,10.75-24.26,8.07-4.58-4.29,21.41-10.28,24.26-8.07Z"/><path class="cls-2" d="M487.54,323.33c-.87-7.61,3.69-14.38,9.41-18.88l3.45,9.46-12.86,9.42Z"/><path class="cls-2" d="M509.1,374.58c-1.66,4.96-6.88,3.38-10.41,5.09-8.01,3.88-16.16,13.9-26,13.76,11.01-8.28,22.19-17.66,36.41-18.85Z"/><path class="cls-2" d="M215.15,382.65l-18.04-3.73c-4.45,3.51-9.22,8.91-14.72,10.8-2.56.88-2.97,1.73-4.99-1,5.73-3.71,12.36-6.58,15.7-12.9,6.82,2.56,17.07,1.17,22.05,6.82Z"/><path class="cls-2" d="M254.25,363.79c-3.18,5.4-11.03,1.06-16.16,3.38-3.9,1.77-9.76,12.25-16.2,11.43-1.48-1.36,12.47-13.66,13.5-14.13,4.68-2.12,13.54.07,18.85-.69Z"/><path class="cls-2" d="M260.98,336.83l-18.49,3.07-3.85,7.61-1.91,10.87c-5.45-19.87,5.52-27.25,24.24-21.55Z"/><path class="cls-2" d="M155.81,379.98c-.9,2.83-5.51-.29-8.42.2-2.56.43-9.57,4.34-13.44,5.56-4.69,1.48-9.87,1.93-14.53,3.66l.89-4.06c12.77-.21,23.2-11.71,35.5-5.35Z"/><path class="cls-2" d="M228.63,357.03l-18.05-3.71c-2.46.47-9.22,9.81-12.29,11.82-1.73,1.13-2.96,1.45-3.36-.7s10.66-11.83,12.96-13.81c6.6,1.74,16.29.24,20.75,6.41Z"/><path class="cls-2" d="M169.3,215.44c-9.19.99-21.61,6.52-25.64,14.85l-2.65-2.1c-1.38-5.64,18.45-15.28,23.75-15.38,2.12-.04,3.99.26,4.54,2.63Z"/><path class="cls-2" d="M120.08,361.08c-5.03,1.07-8.55,8.59-7.43,13.48-6.62-2.86-1.91-13.05,3.05-15.16,3.93-1.67,13.38-1.39,17.87-1.02,1.58.13,6.05.41,6.06,2.71-5.75.82-14.25-1.13-19.55,0Z"/><path class="cls-2" d="M474.03,369.19l-17.46,4.76-16.23,7.36c-1.08-5.22,4.93-6.75,8.71-8.14,7.06-2.59,17.89-6.28,24.99-3.98Z"/><path class="cls-2" d="M542.8,265.34l-10.45-21.22-.31-7.09c6.27,7.01,10.91,18.79,10.76,28.31Z"/><path class="cls-2" d="M364.82,257.26c2.2,1.66-.02,2.44-2,2.7-4.96.64-10.61-1.03-15.55.65l-5.39,12.83c-5.25-2.11.49-12.4,2.04-16.18h20.9Z"/><path class="cls-2" d="M91.08,332.78l-18.88,4.04c1.41,5.2,1.42,10.51,2.41,15.82.49,2.61-.11,1.62-2.39,1.71l-2.71-20.22c7.5-1.45,13.82-4.65,21.57-1.34Z"/><path class="cls-2" d="M180.09,334.13c-3.46,6.84-12.88,10.13-18.85,4.71,4.48-7,11.68-4.36,18.85-4.71Z"/><path class="cls-2" d="M108.62,311.18c-7.83-1.24-14.44-6.39-10.77-14.82,4.98-.98,12.18,13.5,10.77,14.82Z"/><path class="cls-2" d="M337.85,296.35c-10.34,1.36-14.96-5.35-16.17-14.81,1.64-1.75,14.88,12.79,16.17,14.81Z"/><path class="cls-2" d="M96.48,247.82c2.47,2.66-5.47,6.48-6.85,10.05-2.07,5.38,2.09,12.93-3.92,16.91.47-8.22-2.29-18.17,4.7-24.28,1.06-.92,5.18-3.64,6.07-2.68Z"/><path class="cls-2" d="M231.33,245.11l-21.57-1.33,3.84,14.37-2.48,1.8-4.05-18.87c7.62.85,18.63-2.72,24.27,4.03Z"/><path class="cls-2" d="M314.92,246.48c.8.77-4.55,13.45-6.06,13.45l-5.88-4.2c-2.59-4.47,8.25-9.87,11.94-9.26Z"/><path class="cls-2" d="M137.79,334.29c2.67-.73,15.32.77,15.3,3.19-4,5.76-12.44,3.66-16.84-.67-1.27-.9.75-2.31,1.54-2.52Z"/><path class="cls-2" d="M178.73,362.45c-1.25,2.46-6.38,1.09-9.49,1.94-9.99,2.75-5.82,10.67-6.69,11.53l-4.03-.02c1.45-2.91.51-8.95,2.21-10.92,3.65-4.2,12.98-4.9,18-2.54Z"/><path class="cls-2" d="M101.87,289.62c-3.1.57-2.15-.22-3-1.73-2.79-4.94-3.34-11.38.99-15.78,5.96,5.02,1.77,11.15,2.02,17.51Z"/><path class="cls-2" d="M463.25,343.56c-1.14,10.27-9.49,6.69-16.16,4.02,1.11-3.88,15-5.05,16.16-4.02Z"/><path class="cls-2" d="M201.66,226.23c-9.14-2.36-18.7-2.38-26.95,2.71l-1.37-4.03c2.13-2.65,25.81-5.3,28.32,1.31Z"/><path class="cls-2" d="M149.07,241.06c-8.94-3.03-13.38,8.83-21.57,8.09,3.97-5.82,16.21-17,21.57-8.09Z"/><path class="cls-2" d="M434.94,346.27c-4.58,5.73-13.8,4.4-17.52-1.35,6.77-3.14,11.07.05,17.52,1.35Z"/><path class="cls-2" d="M278.52,347.61c-1.75,4.96-9.11,1.38-11.87,2.96-1.69.97-2.79,9.74-8.36,7.8l5.67-10.49,14.56-.27Z"/><path class="cls-2" d="M428.19,370.54l-25.6,3.33c-.81-2.53,2.01-2.38,3.67-2.99,7.02-2.57,14.79-2.45,21.92-.35Z"/><path class="cls-2" d="M178.74,242.41c-8.19-1.53-14.05,2.66-21.57,4.05-4.1-3.66,19.69-11.25,21.57-4.05Z"/><path class="cls-2" d="M325.71,336.83c.31,2.5-2.75,1.06-4.1.74-4.22-1.02-8.07-3.74-12.72-3.54-4.63.2-8.29,5.63-8.78-1.24,8.83-3.56,17.33,1.4,25.6,4.05Z"/><path class="cls-2" d="M392.18,339.1c-1.19-.97-3.98-6.55-3.07-7.68l13.44,7.42c-2.25,3.31-7.81,2.36-10.37.27Z"/><path class="cls-2" d="M97.82,365.15c.24,2.45-4.48,1.37-5.91,1.19-2.79-.36-15.02-4.39-15.65-3.89l2.03,8.07-4.72-10.77,24.26,5.4Z"/><path class="cls-2" d="M490.22,226.25c.6,4.01-.89,2.29-3.38,2.65-7.22,1.03-14.09-1.41-14.16,8.13-4.41-1.52-1.75-5.89-1.18-9.28l18.72-1.5Z"/><path class="cls-2" d="M255.59,304.47c.36,2.21-1.82,1.25-3.34,1.33-3.36.17-6.78-.11-10.13,0l1.35-8.08,12.12,6.76Z"/><path class="cls-2" d="M398.52,382.68c.34,2.29-3.12,1.33-4.71,1.35-5.16.06-8.71-.99-13.5-1.48-3.08-.31-7.42,3.43-7.39-2.57l25.6,2.71Z"/><path class="cls-2" d="M374.25,326.02c-6.35-2.52-12.03-7.03-14.82-13.47.53-.48,10.58,5.87,11.49,6.7,1.18,1.07,4.35,5.64,3.33,6.77Z"/><path class="cls-2" d="M426.85,224.88c-2.15.29-3.87-1.49-5.99-1.35-4.87.31-8.93,10-12.86,4.74,4.75-5.66,13.21-10.88,18.85-3.38Z"/><path class="cls-2" d="M352.68,357.06c.31,2.4-3.04,1.32-4.53,1.18-2.71-.26-5.08-1.72-8.19-1.23-3.9.62-5.2,6.94-8.81,2.05,5.39-8.31,13.77-3.34,21.54-2.01Z"/><path class="cls-2" d="M385.04,357.06c.29,2.54-2.72,1.03-4.1.73-2.39-.52-13.83-4.42-14.76-3.44l-1.34,8.08-1.36-10.77,21.56,5.4Z"/><path class="cls-2" d="M298.75,317.92c-3.42-.23-5.94-2.59-9.38-3.42-5.01-1.2-12.97-.36-16.24-4.65,8.23-.27,19.67,2.24,25.62,8.06Z"/><path class="cls-2" d="M453.82,219.49c-3.02.1-12.03,2.43-14.03,3.9-1.8,1.33.48,4.56-2.13,4.2l-.79-5.38c1.22-1.96,15.6-8.7,16.95-2.71Z"/><path class="cls-2" d="M278.51,324.69l-13.48,1.32c-.86.88,2.12,6.71-2.68,5.4v-8.09s16.16,1.37,16.16,1.37Z"/><path class="cls-2" d="M271.78,317.93c-9.55,3.04-9.14-1.66-6.72-9.43.95-.7,7.88,8.2,6.72,9.43Z"/><path class="cls-2" d="M381,259.97c-1.27,3.6-6.15,2.4-8.69,4.12-3.08,2.09-.48,6.19-4.79,5.3l2.24-8.19,11.24-1.23Z"/><path class="cls-2" d="M203.01,253.2c-4.09.73-10.13-2.3-11.45,2.71l-2.03-5.38c4.98-.93,10.46-3,13.49,2.67Z"/><path class="cls-2" d="M53.34,319.3c-3.74,6.61.75,12.3,1.33,18.85-1.85.02-2.81-3.97-3.3-5.45-1.62-4.89-2.57-9.58-2.07-14.77l4.03,1.37Z"/></svg>