<?xml version="1.0" encoding="UTF-8"?><svg id="Lager_1" xmlns="http://www.w3.org/2000/svg" viewBox="0 0 111.13 109.47"><defs><style>.cls-1{fill:#a52527;}.cls-1,.cls-2{stroke-width:0px;}.cls-2{fill:#fff;}</style></defs><path class="cls-1" d="M11.91,3.21h86.38c3.09,33.88.41,66.27-26.35,90.83-17.7,16.25-14.99,16.17-32.29.55-18.2-16.43-27.02-37.86-27.69-62.43-.26-9.47-.04-18.96-.04-28.94ZM54.74,61.34c8.1,8.39,15.46,16.01,23.45,24.29,3.86-6.18,7.32-11.71,10.94-17.51-6.75-7.09-13.12-13.78-18.31-19.23,8.01-8.7,15.69-17,23.3-25.35,1.08-1.18,2.53-2.6,2.62-3.99.33-4.74.13-9.51.13-13.87-10.48-2.56-18.24.2-24.84,8.12-5.37,6.44-11.91,11.9-17.44,17.32-6.96-6.71-14.22-12.5-19.95-19.54-5.81-7.13-12.64-7.21-20.31-6.24-1.43,8.96-.87,16.63,7.01,22.91,6.41,5.11,11.62,11.74,17.79,18.13-5.5,5.35-10.69,10.26-15.68,15.37-.96.98-2.01,3.15-1.56,4.03,3.12,6.1,6.62,12,10.61,19.03,7.79-8.22,14.64-15.46,22.24-23.47Z"/><path class="cls-2" d="M54.74,61.34c-7.59,8.02-14.45,15.25-22.24,23.47-3.98-7.03-7.49-12.93-10.61-19.03-.45-.88.6-3.05,1.56-4.03,4.99-5.11,10.18-10.03,15.68-15.37-6.17-6.39-11.38-13.02-17.79-18.13-7.88-6.28-8.44-13.95-7.01-22.91,7.67-.97,14.5-.89,20.31,6.24,5.73,7.04,12.99,12.84,19.95,19.54,5.53-5.42,12.08-10.88,17.44-17.32,6.6-7.92,14.36-10.69,24.84-8.12,0,4.36.2,9.13-.13,13.87-.1,1.39-1.55,2.81-2.62,3.99-7.61,8.36-15.29,16.65-23.3,25.35,5.19,5.45,11.56,12.14,18.31,19.23-3.62,5.8-7.08,11.33-10.94,17.51-8-8.28-15.36-15.91-23.45-24.29Z"/></svg>