<?xml version="1.0" standalone="no"?>
<!DOCTYPE svg PUBLIC "-//W3C//DTD SVG 20010904//EN"
 "http://www.w3.org/TR/2001/REC-SVG-20010904/DTD/svg10.dtd">
<svg version="1.0" xmlns="http://www.w3.org/2000/svg"
 width="596.000000pt" height="596.000000pt" viewBox="0 0 596.000000 596.000000"
 preserveAspectRatio="xMidYMid meet">
<metadata>
Created by potrace 1.14, written by Peter Selinger 2001-2017
</metadata>
<g transform="translate(0.000000,596.000000) scale(0.100000,-0.100000)"
fill="#000000" stroke="none">
<path d="M0 2980 l0 -2980 2975 0 2975 0 0 2980 0 2980 -2975 0 -2975 0 0
-2980z m3438 1240 c46 -63 71 -104 66 -112 -42 -72 -528 -738 -534 -731 -7 9
-482 710 -494 730 -4 8 23 52 69 113 l76 100 372 0 372 -1 73 -99z m262 -590
c64 -95 204 -231 271 -264 156 -75 304 -42 445 98 77 78 149 186 198 300 l33
75 32 -84 c65 -167 166 -318 268 -401 182 -149 472 -94 629 118 l44 60 0 -326
0 -326 -57 39 c-77 51 -120 72 -228 111 -330 116 -859 180 -1528 183 -301 2
-307 2 -307 22 0 12 11 153 25 315 14 162 25 306 25 320 0 18 16 -4 53 -75 29
-55 72 -129 97 -165z m-1271 -103 l27 -324 -376 -6 c-640 -10 -1089 -63 -1412
-166 -129 -42 -189 -70 -271 -124 l-67 -45 0 330 0 330 44 -59 c79 -108 178
-172 309 -199 93 -20 162 -13 243 25 134 63 275 249 354 470 l23 63 42 -89
c163 -349 404 -495 630 -384 126 62 271 228 372 426 26 52 49 90 51 85 2 -5
16 -155 31 -333z m453 -134 c48 -73 90 -133 93 -133 2 0 68 89 145 198 78 108
145 198 149 200 16 6 80 -69 97 -114 15 -40 16 -53 6 -91 -7 -25 -86 -192
-175 -372 -90 -179 -176 -366 -192 -415 l-29 -90 -17 55 c-30 100 -90 232
-235 516 -134 264 -144 287 -144 338 0 67 15 99 70 149 l42 37 50 -73 c28 -40
91 -133 140 -205z m-333 -327 c73 -38 127 -129 231 -386 72 -177 99 -229 142
-265 43 -36 77 -33 120 13 44 46 61 78 143 283 92 227 148 319 216 355 70 36
962 -1 1369 -57 343 -47 640 -138 818 -248 l32 -21 0 -448 c0 -415 -1 -450
-17 -464 -113 -99 -557 -174 -1336 -224 -137 -8 -250 -14 -252 -12 -2 2 89 16
203 32 573 77 1024 168 1100 221 30 22 28 38 -8 68 -145 122 -978 197 -2200
197 -1489 0 -2599 -107 -2546 -245 22 -59 434 -138 1301 -250 188 -24 189 -24
75 -19 -718 32 -1332 110 -1522 192 -95 42 -88 1 -88 506 l0 443 38 26 c251
165 686 262 1332 297 428 23 811 25 849 6z"/>
</g>
</svg>
